<?xml version="1.0" encoding="UTF-8"?><svg id="Layer_2" xmlns="http://www.w3.org/2000/svg" viewBox="0 0 105.99 128.47"><defs><style>.cls-1{fill:#2D3748;}</style></defs><g id="OBJECTS"><path class="cls-1" d="M103.75,93.27l-54.97,31.74v-6.8l49.08-28.34V36.66l-2,1.15v50.9l-47.08,27.18v-6.8l41.19-23.78V41.21l-2,1.15v41.79l-39.19,22.62v-6.8l33.3-19.22V45.77l-2,1.15v32.67l-31.3,18.07v-6.8l25.41-14.67v-25.87l-2,1.15v23.56l-23.41,13.51v-6.8l17.52-10.11v-16.76l-2,1.15v14.45l-15.52,8.96v-6.15l10.19-5.88v-8.3l-2,1.15v6l-8.19,4.73v-9.46L105.99,28.49l-2-1.15L46.78,60.38v11.77l-5.89,3.4v-18.57L98.1,23.94l-2-1.15L38.89,55.82v20.88l-5.89,3.4v-27.68L90.21,19.38l-2-1.15L31,51.26v29.99l-5.89,3.4V47.86L82.32,14.83l-2-1.15L23.1,46.71v39.1l-5.89,3.4V43.31L74.43,10.27l-2-1.15L15.21,42.15v48.21l-5.89,3.4V38.75L66.54,5.72l-2-1.15L7.32,37.6v57.32l-5.32,3.07V33.87L58.65,1.16l-1.99-1.16L0,32.71V101.46l7.32-4.23v8.46l7.89-4.56v9.11l7.89-4.56v9.11l7.89-4.56v9.11l7.89-4.56v9.11l7.89-4.56v9.11l58.97-34.05V32.1l-2,1.15v60.01Zm-56.97,14.67l-5.89,3.4v-6.8l5.89-3.4v6.8Zm0-9.11l-5.89,3.4v-6.8l5.89-3.4v6.8Zm-13.78-7.96l5.89-3.4v6.8l-5.89,3.4v-6.8Zm-2,7.96l-5.89,3.4v-6.8l5.89-3.4v6.8Zm7.89-2.25v6.8l-5.89,3.4v-6.8l5.89-3.4Zm7.89-6.86l-5.89,3.4v-6.8l5.89-3.4v6.8Zm0-15.26v6.15l-5.89,3.4v-6.15l5.89-3.4Zm-7.89,4.56v6.15l-5.89,3.4v-6.15l5.89-3.4Zm-7.89,4.56v6.15l-5.89,3.4v-6.15l5.89-3.4Zm-7.89,4.56v6.15l-5.89,3.4v-6.15l5.89-3.4Zm-13.78,14.1v-6.15l5.89-3.4v6.15l-5.89,3.4Zm7.89,4.56v-6.8l5.89-3.4v6.8l-5.89,3.4Zm7.89,4.56v-6.8l5.89-3.4v6.8l-5.89,3.4Zm7.89,4.56v-6.8l5.89-3.4v6.8l-5.89,3.4Zm7.89,4.56v-6.8l5.89-3.4v6.8l-5.89,3.4Z"/></g></svg>