<svg width="468" height="135" viewBox="0 0 468 135" fill="none" xmlns="http://www.w3.org/2000/svg">
<g clip-path="url(#clip0_996_4120)">
<path d="M63.383 103.595L29.8144 123.529C20.6673 117.447 13.1611 109.203 7.96063 99.5274C2.76017 89.8518 0.0259108 79.0431 0 68.0585L63.383 103.595Z" fill="#62CD7A"/>
<path d="M96.8153 127.659C86.8566 132.638 75.8131 135.055 64.6848 134.69C53.5566 134.325 42.6951 131.19 33.084 125.569L69.8566 103.73L96.3242 88.4518L96.8153 127.659Z" fill="#62CD7A"/>
<path d="M34.0285 48.5413L34.0285 83.1825L0.0976565 64.1885C0.70345 53.0646 4.07901 42.2683 9.91768 32.7805C15.7563 23.2926 23.8731 15.414 33.5305 9.86023L34.0285 48.5413Z" fill="#62CD7A"/>
<path d="M99.7156 48.6322L99.7156 48.5521L70.1484 31.4874L103.299 11.7899C112.622 17.8438 120.287 26.1277 125.601 35.8915C130.915 45.6552 133.709 56.5903 133.73 67.7063L99.7156 48.6322Z" fill="#62CD7A"/>
<path d="M133.63 71.5789C133.012 82.689 129.63 93.469 123.792 102.942C117.954 112.415 109.844 120.281 100.198 125.827L99.7031 86.1257L99.7031 52.5605L133.63 71.5789Z" fill="#62CD7A"/>
<path d="M99.9944 9.76311L58.7084 34.2944L37.4263 46.581L36.9492 8.04619C46.7889 3.13311 57.6874 0.719638 68.6814 1.01909C79.6754 1.31854 90.4263 4.32169 99.984 9.76311L99.9944 9.76311Z" fill="#62CD7A"/>
<path d="M225.745 23.1295L225.745 92.0498L209.238 92.0498L209.238 57.6593C209.238 52.1569 207.312 47.4797 203.46 43.628C199.608 39.7763 194.931 37.8504 189.429 37.8504C184.171 37.8421 179.125 39.92 175.397 43.628C171.546 47.4774 169.62 52.1545 169.62 57.6593C169.582 60.2469 170.075 62.8147 171.069 65.2041C172.063 67.5935 173.536 69.7537 175.397 71.5514C177.186 73.442 179.369 74.9162 181.791 75.8698C184.22 76.8343 186.812 77.3249 189.425 77.315C191.968 77.3571 194.494 76.8894 196.854 75.9394L202.774 90.6603C198.553 92.7707 193.648 93.8248 188.06 93.8225C183.26 93.8709 178.503 92.9099 174.098 91.0016C169.92 89.1865 166.152 86.5435 163.024 83.2319C159.874 79.8882 157.397 75.97 155.728 71.6907C152.242 62.6108 152.242 52.5616 155.728 43.4817C157.395 39.1986 159.869 35.2757 163.017 31.9265C166.149 28.618 169.915 25.9744 174.091 24.1534C178.5 22.2499 183.258 21.2925 188.06 21.343C192.553 21.343 196.542 22.0302 200.03 23.4046C203.341 24.6833 206.447 26.4435 209.245 28.6285L209.245 23.1295L225.745 23.1295Z" fill="#62CD7A"/>
<path d="M275.952 21.3428C280.753 21.2944 285.511 22.2542 289.917 24.1602C294.093 25.9812 297.86 28.6248 300.992 31.9333C304.137 35.2815 306.612 39.2017 308.281 43.4816C310.044 47.9964 310.93 52.8057 310.893 57.6522C310.922 62.4528 310.036 67.2149 308.281 71.6836C306.614 75.9667 304.14 79.8896 300.992 83.2388C297.861 86.5473 294.094 89.1899 289.917 91.0084C285.511 92.9171 280.754 93.8782 275.952 93.8293C270.359 93.8293 265.453 92.7752 261.235 90.6671L267.155 75.9462C269.516 76.8948 272.043 77.3625 274.587 77.3219C277.179 77.3335 279.748 76.8402 282.151 75.8696C284.578 74.8807 286.778 73.4065 288.615 71.5373C290.477 69.7402 291.951 67.5801 292.946 65.1907C293.94 62.8012 294.434 60.2331 294.396 57.6453C294.396 52.1428 292.469 47.4657 288.615 43.6139C284.58 39.7622 279.904 37.8363 274.587 37.8363C269.08 37.8363 264.402 39.7622 260.552 43.6139C256.703 47.4657 254.777 52.1428 254.775 57.6453L254.775 119.562L238.264 119.562L238.264 23.1294L254.768 23.1294L254.768 28.6319C257.567 26.4475 260.674 24.6874 263.986 23.408C267.464 22.0289 271.453 21.3405 275.952 21.3428Z" fill="#62CD7A"/>
<path d="M373.621 65.9125L337.58 65.9125C338.513 68.0437 339.871 69.9622 341.571 71.5508C343.41 73.4149 345.609 74.8844 348.035 75.8692C350.44 76.8372 353.01 77.328 355.603 77.3144C359.125 77.3773 362.598 76.474 365.643 74.7025L382.84 81.5806C379.556 85.422 375.47 88.4972 370.87 90.59C366.078 92.769 360.867 93.8721 355.603 93.8219C350.736 93.8577 345.914 92.8977 341.432 91.001C332.715 87.3341 325.778 80.4035 322.104 71.6901C320.217 67.2542 319.258 62.4791 319.286 57.6587C319.249 52.7902 320.208 47.9656 322.104 43.4811C325.778 34.7637 332.714 27.8275 341.432 24.1528C350.505 20.3986 360.697 20.3986 369.77 24.1528C378.487 27.8275 385.423 34.7637 389.098 43.4811C390.993 47.9634 391.953 52.7855 391.919 57.6518C391.936 60.4321 391.613 63.2041 390.954 65.9055L373.621 65.9125ZM355.603 37.8498C350.281 37.8498 345.604 39.7757 341.571 43.6274C339.886 45.2809 338.531 47.2406 337.58 49.4015L373.621 49.4015C372.669 47.2411 371.316 45.2807 369.634 43.6239C365.782 39.7792 361.105 37.8556 355.603 37.8533L355.603 37.8498Z" fill="#62CD7A"/>
<path d="M438.826 59.4459L465.238 92.0499L444.054 92.0499L428.232 71.1544L412.414 92.0499L391.23 92.0499L417.642 59.4459L388.479 23.4047L409.663 23.4047L428.232 47.6156L446.815 23.4047L468 23.4047L438.826 59.4459Z" fill="#62CD7A"/>
<path d="M165.363 105.266C166.777 105.862 167.983 106.862 168.832 108.141C169.68 109.419 170.133 110.92 170.133 112.454C170.133 113.988 169.68 115.489 168.832 116.767C167.983 118.046 166.777 119.046 165.363 119.642C164.406 120.053 163.374 120.262 162.333 120.255L159.568 120.255L160.661 117.58L162.333 117.58C163.006 117.581 163.672 117.448 164.294 117.19C164.92 116.94 165.489 116.566 165.967 116.091C166.446 115.616 166.824 115.049 167.08 114.425C167.599 113.165 167.599 111.75 167.08 110.49C166.819 109.869 166.444 109.302 165.976 108.818C165.493 108.349 164.926 107.975 164.304 107.718C163.683 107.458 163.016 107.326 162.343 107.328L158.544 107.328L158.544 120.255L155.869 120.255L155.869 104.653L162.333 104.653C163.374 104.646 164.406 104.855 165.363 105.266V105.266Z" fill="#62CD7A"/>
<path d="M183.372 110.246C183.375 110.793 183.297 111.338 183.139 111.862C182.989 112.361 182.771 112.836 182.491 113.276C182.213 113.711 181.875 114.104 181.488 114.446C181.098 114.794 180.659 115.084 180.186 115.306L183.372 120.255L180.186 120.255L177.354 115.863L175.523 115.863L176.616 113.189L177.776 113.189C178.162 113.193 178.546 113.119 178.902 112.969C179.259 112.819 179.581 112.598 179.848 112.318C180.113 112.04 180.324 111.715 180.471 111.36C180.691 110.83 180.749 110.247 180.638 109.683C180.527 109.12 180.252 108.602 179.848 108.195C179.579 107.917 179.257 107.697 178.901 107.548C178.545 107.399 178.162 107.324 177.776 107.328L174.61 107.328L174.61 120.255L171.936 120.255L171.936 104.653L177.776 104.653C178.524 104.647 179.264 104.799 179.949 105.099C181.284 105.673 182.349 106.737 182.923 108.073C183.223 108.758 183.376 109.498 183.372 110.246V110.246Z" fill="#62CD7A"/>
<path d="M193.179 104.319C194.263 104.312 195.337 104.527 196.334 104.952C198.059 105.681 199.48 106.983 200.354 108.639C201.229 110.295 201.504 112.202 201.132 114.038C200.761 115.873 199.766 117.524 198.316 118.709C196.867 119.895 195.052 120.543 193.179 120.543C191.306 120.543 189.491 119.895 188.042 118.709C186.592 117.524 185.597 115.873 185.226 114.038C184.854 112.202 185.129 110.295 186.004 108.639C186.878 106.983 188.298 105.681 190.024 104.952C191.021 104.527 192.095 104.312 193.179 104.319V104.319ZM193.179 106.993C192.462 106.988 191.751 107.128 191.089 107.404C189.762 107.972 188.704 109.03 188.136 110.357C187.858 111.019 187.717 111.73 187.722 112.447C187.72 113.164 187.861 113.874 188.137 114.536C188.412 115.198 188.817 115.798 189.327 116.302C189.829 116.812 190.428 117.214 191.089 117.486C192.431 118.02 193.927 118.02 195.268 117.486C195.934 117.217 196.537 116.814 197.041 116.302C197.553 115.8 197.955 115.198 198.222 114.533C198.491 113.87 198.628 113.16 198.626 112.444C198.63 111.727 198.493 111.017 198.222 110.354C197.951 109.693 197.549 109.094 197.041 108.592C196.535 108.081 195.932 107.676 195.268 107.401C194.606 107.127 193.896 106.988 193.179 106.993V106.993Z" fill="#62CD7A"/>
<path d="M214.931 104.629L214.931 120.231L212.033 120.231L205.764 109.557L205.764 120.231L203.09 120.231L203.09 104.629L205.987 104.629L212.256 115.307L212.256 104.629L214.931 104.629Z" fill="#62CD7A"/>
<path d="M219.636 107.328L219.636 111.117L225.452 111.117L226.121 113.792L219.636 113.792L219.636 117.581L227.458 117.581L227.458 120.255L216.965 120.255L216.965 104.653L227.461 104.653L227.461 107.328L219.636 107.328Z" fill="#62CD7A"/>
<path d="M271.856 105.099C273.196 105.67 274.265 106.735 274.84 108.073C275.135 108.762 275.286 109.503 275.286 110.252C275.286 111.001 275.135 111.742 274.84 112.43C274.27 113.775 273.2 114.846 271.856 115.418C271.167 115.717 270.423 115.869 269.672 115.864L267.461 115.864L268.551 113.189L269.69 113.189C270.468 113.182 271.211 112.87 271.761 112.319C272.311 111.769 272.623 111.024 272.629 110.247C272.637 109.863 272.564 109.482 272.415 109.128C272.265 108.775 272.043 108.457 271.762 108.195C271.491 107.916 271.166 107.695 270.807 107.545C270.447 107.396 270.061 107.322 269.672 107.328L266.538 107.328L266.538 120.255L263.863 120.255L263.863 104.654L269.683 104.654C270.43 104.65 271.17 104.802 271.856 105.099V105.099Z" fill="#62CD7A"/>
<path d="M288.93 104.653L288.93 120.255L286.269 120.255L286.269 113.792L279.77 113.792L279.77 120.255L277.096 120.255L277.096 104.653L279.77 104.653L279.77 111.117L286.269 111.117L286.269 104.653L288.93 104.653Z" fill="#62CD7A"/>
<path d="M298.849 104.319C299.933 104.312 301.007 104.527 302.004 104.952C303.73 105.68 305.152 106.983 306.028 108.64C306.903 110.296 307.179 112.205 306.807 114.041C306.436 115.878 305.441 117.53 303.99 118.716C302.54 119.903 300.724 120.551 298.85 120.551C296.977 120.551 295.161 119.903 293.71 118.716C292.26 117.53 291.265 115.878 290.893 114.041C290.522 112.205 290.798 110.296 291.673 108.64C292.549 106.983 293.97 105.68 295.697 104.952C296.693 104.527 297.766 104.312 298.849 104.319V104.319ZM298.849 106.993C298.131 106.988 297.421 107.128 296.759 107.404C295.432 107.972 294.374 109.03 293.806 110.357C293.529 111.019 293.389 111.73 293.395 112.447C293.392 113.164 293.532 113.874 293.807 114.536C294.082 115.198 294.486 115.799 294.997 116.302C295.499 116.812 296.098 117.214 296.759 117.486C297.588 117.836 298.49 117.973 299.386 117.887C300.281 117.801 301.14 117.494 301.888 116.993C302.635 116.492 303.245 115.814 303.665 115.018C304.085 114.223 304.3 113.336 304.292 112.437C304.298 111.72 304.162 111.01 303.891 110.347C303.619 109.686 303.217 109.086 302.707 108.585C302.204 108.074 301.603 107.67 300.941 107.395C300.279 107.12 299.569 106.98 298.852 106.983L298.849 106.993Z" fill="#62CD7A"/>
<path d="M319.109 107.328L314.54 107.328L314.54 120.255L311.865 120.255L311.865 107.328L307.275 107.328L307.275 104.653L319.116 104.653L319.109 107.328Z" fill="#62CD7A"/>
<path d="M327.533 104.319C328.617 104.312 329.691 104.527 330.689 104.952C332.415 105.681 333.837 106.985 334.713 108.642C335.588 110.299 335.863 112.208 335.492 114.046C335.12 115.883 334.124 117.535 332.673 118.721C331.223 119.908 329.406 120.557 327.532 120.557C325.657 120.557 323.841 119.908 322.39 118.721C320.939 117.535 319.943 115.883 319.571 114.046C319.2 112.208 319.475 110.299 320.35 108.642C321.226 106.985 322.648 105.681 324.375 104.952C325.373 104.527 326.448 104.312 327.533 104.319V104.319ZM327.533 106.993C326.816 106.988 326.105 107.128 325.444 107.404C324.117 107.969 323.058 109.023 322.487 110.347C322.21 111.009 322.07 111.719 322.076 112.437C322.073 113.153 322.213 113.864 322.488 114.526C322.763 115.188 323.168 115.788 323.678 116.292C324.18 116.801 324.779 117.204 325.44 117.476C326.438 117.884 327.534 117.989 328.591 117.778C329.648 117.566 330.619 117.047 331.382 116.286C332.145 115.524 332.666 114.555 332.881 113.498C333.095 112.442 332.993 111.346 332.587 110.347C332.315 109.686 331.912 109.086 331.402 108.585C330.896 108.076 330.295 107.672 329.633 107.394C328.967 107.122 328.253 106.986 327.533 106.993V106.993Z" fill="#62CD7A"/>
<path d="M353.422 111.761C353.443 111.993 353.454 112.216 353.454 112.43C353.461 113.514 353.245 114.587 352.82 115.585C352.302 116.81 351.492 117.889 350.46 118.727C349.428 119.565 348.205 120.136 346.9 120.391C345.595 120.646 344.248 120.576 342.976 120.188C341.704 119.8 340.547 119.105 339.607 118.165C338.667 117.225 337.972 116.068 337.584 114.796C337.196 113.525 337.126 112.177 337.381 110.872C337.636 109.567 338.207 108.345 339.046 107.312C339.884 106.28 340.963 105.47 342.188 104.952C343.672 104.319 345.313 104.146 346.897 104.457C348.481 104.767 349.936 105.547 351.072 106.694L349.198 108.606C348.693 108.095 348.091 107.691 347.428 107.416C346.765 107.141 346.054 107.001 345.336 107.004C344.618 106.996 343.907 107.136 343.246 107.415C341.93 107.981 340.882 109.03 340.317 110.347C340.038 111.008 339.896 111.719 339.899 112.436C339.898 113.154 340.039 113.864 340.314 114.526C340.59 115.188 340.995 115.788 341.505 116.292C342.006 116.802 342.605 117.205 343.267 117.476C343.93 117.746 344.641 117.882 345.357 117.876C346.073 117.88 346.782 117.744 347.446 117.476C348.112 117.207 348.715 116.804 349.219 116.292C349.901 115.588 350.393 114.721 350.647 113.774L343.403 113.774L344.072 111.099L353.342 111.099C353.374 111.315 353.398 111.538 353.422 111.761Z" fill="#62CD7A"/>
<path d="M366.695 110.246C366.698 110.793 366.619 111.338 366.462 111.862C366.311 112.361 366.093 112.836 365.814 113.276C365.535 113.71 365.198 114.104 364.811 114.446C364.421 114.794 363.982 115.084 363.508 115.306L366.695 120.255L363.508 120.255L360.677 115.863L358.849 115.863L359.942 113.189L361.102 113.189C361.489 113.193 361.872 113.118 362.229 112.969C362.585 112.819 362.907 112.597 363.174 112.318C363.439 112.04 363.651 111.715 363.798 111.36C364.017 110.83 364.075 110.247 363.964 109.683C363.854 109.12 363.579 108.602 363.174 108.195C362.906 107.917 362.583 107.697 362.227 107.548C361.871 107.399 361.488 107.324 361.102 107.328L357.936 107.328L357.936 120.255L355.262 120.255L355.262 104.653L361.102 104.653C361.85 104.648 362.59 104.8 363.275 105.099C364.608 105.676 365.672 106.74 366.249 108.073C366.548 108.758 366.699 109.498 366.695 110.246V110.246Z" fill="#62CD7A"/>
<path d="M385.083 120.255L382.14 120.255L380.938 117.581L379.733 114.906L376.568 107.906L373.402 114.906L377.459 114.906L378.664 117.581L372.201 117.581L370.996 120.255L368.053 120.255L375.098 104.653L378.037 104.653L385.083 120.255Z" fill="#62CD7A"/>
<path d="M394.555 105.099C395.896 105.67 396.964 106.735 397.54 108.073C397.843 108.757 397.996 109.498 397.989 110.247C397.993 110.998 397.84 111.741 397.54 112.43C396.97 113.775 395.9 114.846 394.555 115.418C393.866 115.717 393.123 115.869 392.372 115.864L390.143 115.864L391.233 113.189L392.372 113.189C393.15 113.182 393.894 112.87 394.443 112.319C394.993 111.769 395.305 111.024 395.311 110.247C395.319 109.863 395.246 109.482 395.097 109.128C394.947 108.775 394.725 108.457 394.444 108.195C394.175 107.918 393.853 107.698 393.497 107.549C393.141 107.4 392.758 107.325 392.372 107.328L389.238 107.328L389.238 120.255L386.566 120.255L386.566 104.653L392.386 104.653C393.132 104.651 393.871 104.803 394.555 105.099V105.099Z" fill="#62CD7A"/>
<path d="M411.642 104.653L411.642 120.255L408.967 120.255L408.967 113.792L402.482 113.792L402.482 120.255L399.801 120.255L399.801 104.653L402.475 104.653L402.475 111.117L408.96 111.117L408.96 104.653L411.642 104.653Z" fill="#62CD7A"/>
<path d="M428.302 104.653L422.281 114.238L422.037 114.614L422.037 120.255L419.362 120.255L419.362 114.614L413.094 104.653L416.256 104.653L420.696 111.716L425.133 104.653L428.302 104.653Z" fill="#62CD7A"/>
</g>
<defs>
<clipPath id="clip0_996_4120">
<rect width="468" height="133.731" fill="white" transform="translate(0 0.993652)"/>
</clipPath>
</defs>
</svg>
