<svg width="454" height="145" viewBox="0 0 454 145" fill="none" xmlns="http://www.w3.org/2000/svg">
<path d="M9.2601 135.386V132.539H7.20631C7.87889 130.954 8.38334 129.765 8.71963 128.972C9.05592 128.179 9.56037 126.99 10.233 125.405H18.1599C18.6643 126.606 19.1568 127.795 19.6372 128.972C20.1416 130.149 20.6461 131.338 21.1505 132.539H19.1327V135.386H27.1317V132.539H24.1772C22.5197 128.576 20.8502 124.66 19.1688 120.793C17.5113 116.901 15.8539 112.974 14.1964 109.011C12.539 112.974 10.8695 116.901 9.18804 120.793C7.53059 124.66 5.87314 128.576 4.21569 132.539H1.2611V135.386H9.2601ZM13.8001 116.829C13.8241 116.757 13.8601 116.637 13.9082 116.469C13.9802 116.301 14.0643 116.025 14.1604 115.64L14.5207 116.829L16.9348 122.558H11.458C11.7943 121.718 12.1546 120.793 12.539 119.784C12.9473 118.751 13.3677 117.766 13.8001 116.829ZM65.033 135.386V132.539H60.9254V124.144H62.4387C62.775 124.144 63.0272 124.144 63.1954 124.144C63.3875 124.12 63.6518 124.108 63.9881 124.108L69.2847 135.386H74.5453V132.539H71.1583L67.1228 123.892C68.8523 123.507 70.1615 122.715 71.0502 121.513C71.963 120.312 72.4194 118.811 72.4194 117.01C72.4194 115.784 72.1312 114.74 71.5547 113.875C70.9782 113.01 70.2575 112.301 69.3928 111.749C68.528 111.196 67.5912 110.8 66.5823 110.56C65.5975 110.296 64.6967 110.164 63.88 110.164H56.3133V113.01H57.9348V132.539H56.3133V135.386H65.033ZM60.9254 113.01H64.0961C64.8408 113.01 65.5374 113.118 66.186 113.334C66.8586 113.551 67.4351 113.839 67.9155 114.199C68.3719 114.583 68.7322 115.016 68.9964 115.496C69.2847 115.977 69.4288 116.481 69.4288 117.01C69.4288 117.466 69.3447 117.946 69.1766 118.451C69.0084 118.955 68.7202 119.412 68.3118 119.82C67.9035 120.228 67.351 120.577 66.6544 120.865C65.9818 121.129 65.117 121.261 64.0601 121.261H60.9254V113.01ZM103.052 135.386V129.837H100.206V132.539H90.009V124.108H101.143V121.261H90.009V113.01H99.7015V115.712H102.548V110.164H85.0006V113.01H87.0184V132.539H85.0006V135.386H103.052ZM131.564 135.386V129.837H128.717V132.539H118.52V113.01H121.511V110.164H113.512V113.01H115.53V132.539H113.512V135.386H131.564ZM150.743 135.386V132.539H147.86V113.01H150.743V110.164H142.023V113.01H144.87V132.539H142.023V135.386H150.743ZM169.174 135.386V132.539H167.12C167.793 130.954 168.297 129.765 168.633 128.972C168.97 128.179 169.474 126.99 170.147 125.405H178.074C178.578 126.606 179.071 127.795 179.551 128.972C180.055 130.149 180.56 131.338 181.064 132.539H179.047V135.386H187.046V132.539H184.091C182.434 128.576 180.764 124.66 179.083 120.793C177.425 116.901 175.768 112.974 174.11 109.011C172.453 112.974 170.783 116.901 169.102 120.793C167.444 124.66 165.787 128.576 164.13 132.539H161.175V135.386H169.174ZM173.714 116.829C173.738 116.757 173.774 116.637 173.822 116.469C173.894 116.301 173.978 116.025 174.074 115.64L174.435 116.829L176.849 122.558H171.372C171.708 121.718 172.068 120.793 172.453 119.784C172.861 118.751 173.282 117.766 173.714 116.829ZM206.362 135.386C207.394 135.386 208.403 135.254 209.388 134.989C210.373 134.701 211.25 134.281 212.019 133.728C212.763 133.2 213.364 132.539 213.82 131.746C214.276 130.93 214.505 129.981 214.505 128.9C214.505 128.035 214.361 127.255 214.072 126.558C213.784 125.861 213.412 125.249 212.955 124.72C212.475 124.192 211.91 123.759 211.262 123.423C210.637 123.087 209.989 122.847 209.316 122.703C210.757 122.294 211.826 121.526 212.523 120.397C213.244 119.268 213.604 117.958 213.604 116.469C213.604 115.364 213.412 114.415 213.027 113.623C212.643 112.806 212.115 112.145 211.442 111.641C210.745 111.136 209.905 110.764 208.92 110.524C207.959 110.284 206.89 110.164 205.713 110.164H197.498V113.01H199.119V132.539H197.498V135.386H206.362ZM202.11 124.108H205.605C206.35 124.108 207.082 124.192 207.803 124.36C208.523 124.528 209.16 124.78 209.713 125.117C210.241 125.477 210.673 125.933 211.01 126.486C211.346 127.038 211.514 127.687 211.514 128.432C211.514 129.128 211.37 129.729 211.082 130.233C210.793 130.738 210.409 131.158 209.929 131.494C209.424 131.855 208.848 132.119 208.199 132.287C207.551 132.455 206.854 132.539 206.109 132.539H202.11V124.108ZM202.11 113.01H205.929C206.578 113.01 207.178 113.082 207.731 113.226C208.283 113.346 208.764 113.539 209.172 113.803C209.628 114.115 209.977 114.535 210.217 115.064C210.481 115.568 210.613 116.193 210.613 116.937C210.613 118.235 210.193 119.28 209.352 120.072C208.535 120.865 207.418 121.261 206.001 121.261H202.11V113.01ZM243.005 135.386V129.837H240.159V132.539H229.962V113.01H232.953V110.164H224.954V113.01H226.971V132.539H224.954V135.386H243.005ZM271.517 135.386V129.837H268.67V132.539H258.473V124.108H269.607V121.261H258.473V113.01H268.166V115.712H271.012V110.164H253.465V113.01H255.483V132.539H253.465V135.386H271.517ZM320.127 133.872L318.505 131.494C317.761 131.927 316.968 132.263 316.127 132.503C315.31 132.719 314.458 132.827 313.569 132.827C312.2 132.827 310.915 132.563 309.714 132.035C308.536 131.506 307.504 130.786 306.615 129.873C305.702 128.984 304.981 127.927 304.453 126.702C303.948 125.477 303.696 124.18 303.696 122.811C303.696 121.441 303.948 120.144 304.453 118.919C304.981 117.694 305.702 116.613 306.615 115.676C307.504 114.764 308.536 114.043 309.714 113.514C310.915 112.986 312.2 112.722 313.569 112.722C314.217 112.722 314.854 112.794 315.479 112.938C316.103 113.058 316.716 113.25 317.316 113.514V115.712H320.163V111.677C319.178 111.1 318.133 110.656 317.028 110.344C315.947 110.031 314.794 109.875 313.569 109.875C311.791 109.875 310.122 110.224 308.56 110.92C306.999 111.593 305.642 112.506 304.489 113.659C303.312 114.836 302.387 116.217 301.715 117.802C301.042 119.364 300.706 121.033 300.706 122.811C300.706 124.588 301.042 126.258 301.715 127.819C302.387 129.38 303.312 130.738 304.489 131.891C305.642 133.068 306.999 133.992 308.56 134.665C310.122 135.338 311.791 135.674 313.569 135.674C314.794 135.674 315.947 135.518 317.028 135.205C318.133 134.869 319.166 134.425 320.127 133.872ZM348.676 135.386V129.837H345.83V132.539H335.633V113.01H338.623V110.164H330.624V113.01H332.642V132.539H330.624V135.386H348.676ZM377.188 135.386V129.837H374.341V132.539H364.144V124.108H375.278V121.261H364.144V113.01H373.837V115.712H376.683V110.164H359.136V113.01H361.154V132.539H359.136V135.386H377.188ZM395.646 135.386V132.539H393.592C394.265 130.954 394.769 129.765 395.106 128.972C395.442 128.179 395.946 126.99 396.619 125.405H404.546C405.05 126.606 405.543 127.795 406.023 128.972C406.528 130.149 407.032 131.338 407.537 132.539H405.519V135.386H413.518V132.539H410.563C408.906 128.576 407.236 124.66 405.555 120.793C403.897 116.901 402.24 112.974 400.582 109.011C398.925 112.974 397.256 116.901 395.574 120.793C393.917 124.66 392.259 128.576 390.602 132.539H387.647V135.386H395.646ZM400.186 116.829C400.21 116.757 400.246 116.637 400.294 116.469C400.366 116.301 400.45 116.025 400.546 115.64L400.907 116.829L403.321 122.558H397.844C398.18 121.718 398.541 120.793 398.925 119.784C399.333 118.751 399.754 117.766 400.186 116.829ZM449.12 113.01H452.255V110.164H443.535V113.01H446.129V128.792L446.238 129.945L445.553 129.008L428.15 110.164H423.97V113.01H427.105V132.539H423.97V135.386H432.69V132.539H430.095V117.154L429.987 116.001L430.672 116.937L449.12 136.539V113.01Z" fill="#07C9CC"/>
<path d="M105.197 0H30.5703V77.8774H105.197V0Z" fill="#993758"/>
<path d="M179.82 0H105.193V77.8774H179.82V0Z" fill="#CC6E86"/>
<path d="M254.447 0H179.82V77.8774H254.447V0Z" fill="#F8A0FF"/>
<path d="M329.072 0H254.445V77.8774H329.072V0Z" fill="#ACA9FF"/>
<path d="M403.699 0H329.072V77.8774H403.699V0Z" fill="#07C9CC"/>
<path d="M82.4959 16.9237H93.5729V13.8966H82.4959C80.8491 13.8996 79.2486 14.4411 77.9382 15.4384C76.6278 16.4358 75.6795 17.8343 75.2379 19.4207L66.7218 50.2441H61.6447C59.9097 50.2459 58.2283 50.8459 56.8841 51.9429C55.5399 53.04 54.615 54.5669 54.2654 56.2663H43.6993L42.1953 65.3061H69.3881V56.2663H78.2394C79.2279 56.2659 80.189 55.9415 80.9756 55.3429C81.7622 54.7443 82.331 53.9044 82.5949 52.9518L88.697 30.8649C89.0068 29.7456 89.0534 28.5699 88.8334 27.4296C88.6133 26.2893 88.1324 25.2153 87.4284 24.2917C86.7243 23.3681 85.8162 22.6199 84.7749 22.1056C83.7337 21.5913 82.5875 21.3248 81.4262 21.327H77.8371L78.1404 20.2222C78.4087 19.2733 78.9791 18.4379 79.7651 17.8426C80.5511 17.2473 81.5099 16.9247 82.4959 16.9237ZM66.3642 62.2918H45.7588L46.2602 59.2806H66.3769L66.3642 62.2918ZM66.3642 56.2663H57.3851C57.6971 55.3859 58.2741 54.6237 59.0369 54.0845C59.7996 53.5453 60.7106 53.2556 61.6447 53.2552H66.3642V56.2663ZM81.4262 24.3349C82.1219 24.335 82.8083 24.4957 83.4317 24.8046C84.0551 25.1135 84.5988 25.5622 85.0203 26.1157C85.4419 26.6692 85.7299 27.3125 85.8619 27.9956C85.994 28.6787 85.9665 29.3831 85.7816 30.0538L79.6795 52.144C79.5915 52.4617 79.4018 52.7418 79.1394 52.9413C78.877 53.1409 78.5563 53.2489 78.2267 53.2488H69.3881V51.9524L77.0165 24.3413L81.4262 24.3349Z" fill="white"/>
<path d="M130.26 37.925H124.513C124.164 37.9258 123.829 38.0651 123.582 38.3124C123.336 38.5596 123.197 38.8945 123.197 39.2437V44.9307C123.197 45.2799 123.336 45.6149 123.582 45.8621C123.829 46.1093 124.164 46.2486 124.513 46.2495H130.26C130.434 46.2495 130.605 46.2154 130.765 46.149C130.924 46.0827 131.07 45.9855 131.192 45.863C131.314 45.7405 131.411 45.5951 131.477 45.4351C131.543 45.2752 131.576 45.1038 131.576 44.9307V39.2437C131.576 39.0707 131.543 38.8993 131.477 38.7393C131.411 38.5793 131.314 38.4339 131.192 38.3114C131.07 38.1889 130.924 38.0917 130.765 38.0254C130.605 37.9591 130.434 37.925 130.26 37.925V37.925ZM128.945 43.6151H125.838V40.5529H128.945V43.6151Z" fill="white"/>
<path d="M170.069 25.807C169.062 25.5893 168.15 25.0557 167.467 24.2839C166.746 23.4756 166.269 22.4788 166.094 21.41C166.058 21.1388 165.925 20.8898 165.719 20.7094C165.514 20.529 165.25 20.4295 164.976 20.4295C164.702 20.4295 164.438 20.529 164.233 20.7094C164.027 20.8898 163.894 21.1388 163.858 21.41C163.681 22.4782 163.205 23.4744 162.485 24.2839C161.802 25.0564 160.889 25.5901 159.88 25.807C159.744 25.8354 159.615 25.8896 159.5 25.9666L158.041 19.8997C157.993 19.6379 157.858 19.4001 157.657 19.2259C157.456 19.0516 157.202 18.9514 156.936 18.9417H136.247V15.1611C136.257 15.002 136.235 14.8426 136.182 14.6921C136.13 14.5416 136.048 14.403 135.942 14.2843C135.836 14.1655 135.707 14.069 135.563 14.0003C135.419 13.9315 135.263 13.892 135.104 13.8838H130.845C130.685 13.892 130.529 13.9315 130.386 14.0003C130.242 14.069 130.113 14.1655 130.007 14.2843C129.901 14.403 129.819 14.5416 129.767 14.6921C129.714 14.8426 129.692 15.002 129.701 15.1611V18.9641H124.723C124.457 18.9742 124.203 19.0745 124.001 19.2486C123.8 19.4227 123.664 19.6602 123.615 19.922L122.044 26.452C122.046 26.4594 122.046 26.467 122.044 26.4743L120.476 33.0107C120.43 33.1974 120.424 33.3918 120.458 33.5811C120.492 33.7703 120.566 33.9503 120.674 34.1091C120.773 34.2597 120.908 34.3836 121.066 34.4699C121.224 34.5562 121.401 34.6023 121.581 34.6041H122.539V51.6554V53.814C122.076 53.5475 121.658 53.2091 121.3 52.8114C120.581 52.0019 120.105 51.0057 119.927 49.9375C119.892 49.6663 119.759 49.4173 119.553 49.2369C119.347 49.0565 119.083 48.957 118.81 48.957C118.536 48.957 118.272 49.0565 118.066 49.2369C117.861 49.4173 117.728 49.6663 117.692 49.9375C117.515 51.0066 117.038 52.0032 116.316 52.8114C115.635 53.586 114.722 54.1202 113.713 54.3345C113.443 54.4126 113.206 54.5763 113.037 54.8009C112.869 55.0255 112.777 55.2988 112.777 55.5798C112.777 55.8608 112.869 56.1341 113.037 56.3588C113.206 56.5834 113.443 56.747 113.713 56.8251C115.747 57.2498 117.309 58.9773 117.692 61.2317C117.728 61.5029 117.861 61.7519 118.066 61.9323C118.272 62.1127 118.536 62.2122 118.81 62.2122C119.083 62.2122 119.347 62.1127 119.553 61.9323C119.759 61.7519 119.892 61.5029 119.927 61.2317C120.104 60.1631 120.58 59.1665 121.3 58.3578C121.962 57.6118 122.837 57.0878 123.807 56.8571H154.534C157.236 59.5361 159.299 60.4238 160.841 60.4238C161.369 60.4311 161.892 60.3221 162.374 60.1045L166.03 64.8942C166.131 65.0307 166.262 65.1421 166.413 65.2196C166.565 65.2971 166.732 65.3388 166.902 65.3412C167.181 65.3352 167.446 65.2207 167.642 65.0219C167.876 64.7902 168.018 64.4819 168.042 64.1539C168.066 63.8259 167.97 63.5002 167.773 63.2369L164.146 58.5015C164.995 57.1157 165.366 54.7847 163.887 50.8955C163.207 49.1493 162.365 47.4709 161.371 45.8822C161.287 45.7465 161.174 45.6302 161.042 45.5411C160.909 45.4519 160.759 45.3919 160.601 45.365C160.447 45.341 160.288 45.3517 160.138 45.3965C159.988 45.4412 159.849 45.5188 159.733 45.6236L159.133 46.1473V34.6041H160.091C160.27 34.6018 160.446 34.5554 160.604 34.4691C160.762 34.3828 160.896 34.2592 160.994 34.1091C161.102 33.9502 161.176 33.7704 161.211 33.5812C161.246 33.392 161.24 33.1977 161.195 33.0107L160.071 28.3391C162.013 28.8309 163.488 30.5201 163.858 32.701C163.894 32.9722 164.027 33.2212 164.233 33.4016C164.438 33.582 164.702 33.6815 164.976 33.6815C165.25 33.6815 165.514 33.582 165.719 33.4016C165.925 33.2212 166.058 32.9722 166.094 32.701C166.269 31.6322 166.746 30.6354 167.467 29.8271C168.15 29.0553 169.062 28.5217 170.069 28.304C170.338 28.225 170.574 28.0611 170.741 27.837C170.909 27.6128 171 27.3403 171 27.0603C171 26.7803 170.909 26.5078 170.741 26.2836C170.574 26.0594 170.338 25.8956 170.069 25.8166V25.807ZM119.672 56.5569C119.345 56.9213 119.052 57.3146 118.797 57.732C118.292 56.8968 117.632 56.1662 116.852 55.5798C117.629 54.9921 118.287 54.2617 118.79 53.4276C119.047 53.8477 119.342 54.2432 119.672 54.6091C119.996 54.9619 120.353 55.2827 120.738 55.567C120.351 55.8615 119.994 56.193 119.672 56.5569V56.5569ZM131.988 16.4287H133.961V18.9641H131.988V16.4287ZM125.601 21.4994H156.045L157.003 25.5164H124.628L125.601 21.4994ZM123.047 32.0719L124.005 28.0518H157.603L158.561 32.0719H123.047ZM143.02 54.3153H138.626V41.7024H143.02V54.3153ZM151.996 53.996C151.996 53.996 152.098 54.1269 152.248 54.3153H145.31V40.4379C145.327 40.1171 145.216 39.8024 145.002 39.5629C144.788 39.3235 144.487 39.1788 144.166 39.1607H137.48C137.159 39.1788 136.859 39.3235 136.644 39.5629C136.43 39.8024 136.319 40.1171 136.337 40.4379V54.3153H124.816V52.9167H130.532C130.838 52.8759 131.12 52.725 131.324 52.4921C131.528 52.2592 131.64 51.9602 131.64 51.6506C131.64 51.3411 131.528 51.0421 131.324 50.8092C131.12 50.5763 130.838 50.4254 130.532 50.3846H124.816V34.6041H156.834V48.1238L152.168 52.1855C151.923 52.4091 151.77 52.7168 151.74 53.0476C151.707 53.3833 151.798 53.7195 151.996 53.9928V53.996ZM160.554 52.0801L159.378 49.1297L160.161 48.4463C161.757 51.2882 163.629 55.9247 161.898 57.4733C160.25 58.9454 157.041 55.9949 155.738 54.657C155.275 54.1812 154.867 53.7214 154.544 53.3446L157.523 50.7454L158.462 53.1019C158.54 53.3188 158.682 53.5069 158.869 53.6419C159.056 53.7769 159.279 53.8525 159.509 53.8587C159.669 53.8581 159.826 53.821 159.969 53.7501C160.257 53.5931 160.475 53.3351 160.583 53.026C160.691 52.7169 160.681 52.3787 160.554 52.0769V52.0801ZM165.848 28.0294C165.522 28.3933 165.229 28.7855 164.973 29.2013C164.468 28.366 163.808 27.6354 163.028 27.0491C163.412 26.7656 163.767 26.4447 164.088 26.0912C164.417 25.7258 164.712 25.3314 164.97 24.9129C165.225 25.3321 165.519 25.7266 165.848 26.0912C166.172 26.4498 166.529 26.7769 166.914 27.0683C166.529 27.3526 166.172 27.6734 165.848 28.0262V28.0294Z" fill="white"/>
<path d="M232.648 14.8449L220.619 38.1548L220.827 38.2155C221.319 38.3729 221.796 38.5727 222.254 38.8126C222.779 39.0867 223.269 39.421 223.716 39.8088L235.764 16.4446C235.949 16.0346 235.969 15.5693 235.82 15.1448C235.672 14.7204 235.365 14.3694 234.965 14.1643C234.565 13.9593 234.101 13.9159 233.67 14.0432C233.238 14.1704 232.873 14.4586 232.648 14.8481V14.8449Z" fill="white"/>
<path d="M192.915 58.0896C194.999 59.9265 197.352 61.434 199.892 62.56C202.697 63.841 205.654 64.7605 208.692 65.2966C208.746 65.2997 208.8 65.2997 208.855 65.2966H208.893C213.721 65.1401 217.486 63.5308 220.069 60.5068C223.482 56.5442 224.715 50.5826 224.475 45.4608C224.434 43.9665 223.86 42.5362 222.857 41.4278C222.78 41.348 222.703 41.2682 222.62 41.1947C222.26 40.8699 221.86 40.592 221.429 40.3677C221.058 40.1697 220.669 40.0061 220.267 39.8792C220.104 39.8272 219.937 39.7856 219.769 39.7546C219.542 39.714 219.312 39.6937 219.082 39.694C217.387 39.694 215.765 40.7573 214.526 41.8461C213.287 42.935 211.946 44.1899 210.499 45.151C208.903 46.1984 207.172 46.7285 205.361 47.2457C203.015 47.8975 200.618 48.3535 198.196 48.6092C196.039 48.8558 193.869 48.9826 191.698 48.9892C190.836 48.9892 189.974 48.9668 189.118 48.9221H188.968H188.885C188.695 48.9226 188.508 48.9683 188.339 49.0554C188.171 49.1425 188.025 49.2685 187.915 49.423C187.805 49.5775 187.733 49.756 187.706 49.9438C187.678 50.1316 187.696 50.3232 187.758 50.5027C188.799 53.4315 190.574 56.0439 192.915 58.0896ZM191.245 51.3841H191.621C193.942 51.3827 196.26 51.2516 198.566 50.9913C204.372 50.3335 209.104 48.9189 212.686 46.7827C212.783 46.7253 212.893 46.6945 213.006 46.6933C213.117 46.6916 213.227 46.7191 213.325 46.7732C215.41 47.9163 218.645 49.6151 220.953 50.4389C221.093 50.4863 221.212 50.5806 221.29 50.7058C221.368 50.8309 221.4 50.9792 221.381 51.1254C221.107 53.5362 220.324 56.5984 218.268 58.9805C216.167 61.4169 213.06 62.742 209.033 62.9145H208.995C208.943 62.9192 208.891 62.9192 208.839 62.9145C208.433 62.841 207.434 62.6494 206.089 62.2758C206.492 62.0966 206.885 61.8973 207.268 61.6787C207.625 61.4744 207.989 61.254 208.347 61.0401C209.452 60.3248 210.525 59.5138 211.358 58.8496C211.4 58.8187 211.429 58.7731 211.44 58.7218C211.45 58.6706 211.441 58.6172 211.415 58.5722C211.388 58.5272 211.346 58.4937 211.296 58.4783C211.246 58.4629 211.192 58.4666 211.144 58.4888C209.321 59.2519 206.993 59.766 204.908 60.0854C204.25 60.1907 203.631 60.2801 203.037 60.3536C202.357 60.4398 201.737 60.5037 201.223 60.5547L200.821 60.3727C199.704 59.8618 198.62 59.2806 197.576 58.6325C198.034 58.5862 198.489 58.5169 198.94 58.4249C199.361 58.3387 199.789 58.2333 200.217 58.1056C201.309 57.8037 202.384 57.4456 203.439 57.0327C203.469 57.019 203.494 56.9953 203.509 56.9654C203.524 56.9356 203.528 56.9016 203.52 56.8692C203.512 56.8368 203.494 56.808 203.468 56.7877C203.441 56.7675 203.408 56.757 203.375 56.7581C201.632 56.8898 199.883 56.9335 198.135 56.889L196.539 56.8539L195.057 56.8028C194.859 56.6368 194.664 56.4675 194.473 56.2951C194.23 56.0716 193.994 55.8481 193.764 55.6182C194.115 55.5798 194.482 55.5256 194.856 55.4521C195.23 55.3787 195.555 55.3084 195.906 55.219C197.138 54.8981 198.349 54.5035 199.534 54.0375C199.567 54.0258 199.594 54.0024 199.61 53.9717C199.627 53.941 199.631 53.9053 199.623 53.8715C199.615 53.8377 199.594 53.8082 199.565 53.7887C199.536 53.7693 199.501 53.7612 199.467 53.7661C198.091 53.8971 196.213 53.9194 194.549 53.897C194.141 53.897 193.742 53.8971 193.368 53.8779C192.994 53.8587 192.566 53.8587 192.228 53.846C191.751 53.2147 191.324 52.5475 190.951 51.8503C190.924 51.8007 190.911 51.745 190.913 51.6889C190.915 51.6328 190.932 51.5782 190.962 51.5305C190.992 51.4829 191.033 51.444 191.083 51.4177C191.133 51.3915 191.188 51.3787 191.245 51.3809V51.3841Z" fill="white"/>
<path d="M229.738 60.2099C231.294 60.2099 232.555 58.949 232.555 57.3935C232.555 55.8381 231.294 54.5772 229.738 54.5772C228.183 54.5772 226.922 55.8381 226.922 57.3935C226.922 58.949 228.183 60.2099 229.738 60.2099Z" fill="white"/>
<path d="M223.664 65.2678C224.451 65.2678 225.089 64.6302 225.089 63.8437C225.089 63.0571 224.451 62.4195 223.664 62.4195C222.878 62.4195 222.24 63.0571 222.24 63.8437C222.24 64.6302 222.878 65.2678 223.664 65.2678Z" fill="white"/>
<path d="M231.383 64.9388C232.17 64.9388 232.807 64.3012 232.807 63.5147C232.807 62.7282 232.17 62.0906 231.383 62.0906C230.597 62.0906 229.959 62.7282 229.959 63.5147C229.959 64.3012 230.597 64.9388 231.383 64.9388Z" fill="white"/>
<path d="M307.621 32.1452H305.836C305.836 32.0845 305.836 32.027 305.836 31.9664C305.836 31.2736 305.671 30.5907 305.356 29.9735C305.042 29.3563 304.586 28.8221 304.026 28.4144C303.465 28.0067 302.817 27.7371 302.133 27.6274C301.449 27.5178 300.748 27.5712 300.089 27.7834C299.821 26.6285 299.171 25.5982 298.243 24.8601C297.315 24.122 296.165 23.7196 294.98 23.7185C294.827 23.7185 294.673 23.7249 294.52 23.7377C294.092 23.058 293.49 22.5053 292.776 22.1368C292.062 21.7683 291.263 21.5976 290.46 21.6422C289.658 21.6868 288.883 21.9452 288.214 22.3906C287.546 22.836 287.009 23.4521 286.658 24.1751C285.61 23.9055 284.501 24.0138 283.524 24.4809C282.548 24.9481 281.767 25.7442 281.32 26.7296C279.901 26.9403 278.578 27.5694 277.52 28.5365C276.461 29.5035 275.715 30.7645 275.377 32.158H273.394C272.928 32.158 272.48 32.3433 272.15 32.6733C271.82 33.0032 271.635 33.4508 271.635 33.9174V39.0711C271.636 39.4037 271.768 39.7224 272.003 39.9575C272.238 40.1927 272.557 40.3252 272.89 40.326H273.126V40.3611C273.132 43.5172 274.026 46.6079 275.706 49.2796L276.606 63.5114C276.642 63.9975 276.859 64.4526 277.213 64.7871C277.568 65.1216 278.035 65.3112 278.522 65.3187H302.471C302.958 65.3098 303.424 65.1197 303.778 64.7855C304.133 64.4513 304.35 63.997 304.387 63.5114L304.677 58.9356C304.687 58.7378 304.619 58.5441 304.487 58.3963C304.355 58.2486 304.17 58.1587 303.973 58.1461C303.775 58.1335 303.58 58.1992 303.431 58.3291C303.281 58.4589 303.189 58.6424 303.173 58.8398L303.097 60.0692H277.871L277.328 51.4988C278.223 52.5172 279.235 53.4271 280.342 54.2098C280.423 54.2668 280.515 54.3073 280.611 54.329C280.708 54.3508 280.808 54.3532 280.905 54.3363C281.003 54.3194 281.096 54.2835 281.18 54.2305C281.264 54.1776 281.336 54.1087 281.393 54.0278C281.45 53.9468 281.491 53.8555 281.512 53.7589C281.534 53.6623 281.536 53.5624 281.52 53.4648C281.503 53.3672 281.467 53.274 281.414 53.1903C281.361 53.1067 281.292 53.0343 281.211 52.9772C279.611 51.8497 278.236 50.4319 277.159 48.7974L276.431 37.3021H296.346C296.546 37.3021 296.738 37.2227 296.879 37.0814C297.021 36.9401 297.1 36.7484 297.1 36.5485C297.1 36.3487 297.021 36.157 296.879 36.0157C296.738 35.8743 296.546 35.7949 296.346 35.7949H273.356C273.29 35.7941 273.227 35.7677 273.179 35.7213C273.132 35.6748 273.105 35.612 273.104 35.5459V33.911C273.104 33.8443 273.131 33.7807 273.178 33.7335C273.226 33.6864 273.289 33.6596 273.356 33.6587H307.574C307.64 33.6596 307.704 33.6864 307.751 33.7335C307.798 33.7807 307.825 33.8443 307.826 33.911V35.5427C307.825 35.6093 307.798 35.673 307.751 35.7201C307.704 35.7673 307.64 35.7941 307.574 35.7949H300.868C300.668 35.7949 300.476 35.8743 300.335 36.0157C300.194 36.157 300.114 36.3487 300.114 36.5485C300.114 36.7484 300.194 36.9401 300.335 37.0814C300.476 37.2227 300.668 37.3021 300.868 37.3021H304.524L303.796 48.7974C301.739 51.8472 298.7 54.1007 295.184 55.183C291.668 56.2653 287.887 56.1112 284.471 54.7462C284.288 54.6807 284.086 54.689 283.908 54.7692C283.73 54.8494 283.591 54.9954 283.518 55.1764C283.446 55.3575 283.447 55.5595 283.52 55.7401C283.594 55.9207 283.734 56.0657 283.912 56.1448C287.278 57.4897 290.977 57.7643 294.505 56.9312C298.033 56.0981 301.218 54.1979 303.627 51.4892L303.397 55.1198C303.391 55.2184 303.404 55.3172 303.436 55.4106C303.468 55.5041 303.518 55.5903 303.583 55.6645C303.648 55.7386 303.727 55.7991 303.816 55.8427C303.905 55.8862 304.001 55.9118 304.099 55.9181C304.198 55.9244 304.297 55.9112 304.39 55.8793C304.484 55.8474 304.57 55.7974 304.644 55.7322C304.718 55.667 304.779 55.5878 304.822 55.4991C304.866 55.4105 304.891 55.3142 304.898 55.2156L305.274 49.2828C306.962 46.6119 307.856 43.5171 307.855 40.3579V40.3228H308.088C308.421 40.3228 308.74 40.1907 308.976 39.9555C309.212 39.7202 309.345 39.401 309.346 39.0679V33.9046C309.346 33.444 309.165 33.0017 308.843 32.6728C308.52 32.3438 308.082 32.1544 307.621 32.1452V32.1452ZM303.023 61.5604L302.905 63.406C302.894 63.5106 302.845 63.6078 302.769 63.6798C302.692 63.7518 302.592 63.794 302.487 63.7988H278.538C278.433 63.794 278.333 63.7518 278.256 63.6798C278.18 63.6078 278.131 63.5106 278.12 63.406L278.002 61.5604H303.023ZM275.46 45.2562C274.92 43.6761 274.644 42.0181 274.643 40.3484V40.3132H275.147L275.46 45.2562ZM273.404 37.2957H274.956L275.051 38.8093H273.152V37.2766C273.235 37.2878 273.319 37.2942 273.404 37.2957V37.2957ZM304.326 32.1452H276.958C277.255 31.1845 277.803 30.3206 278.546 29.6426C279.289 28.9645 280.199 28.4969 281.183 28.288C282.166 28.0791 283.188 28.1365 284.142 28.4541C285.096 28.7718 285.948 29.3383 286.611 30.0952C286.681 30.1759 286.768 30.2405 286.865 30.2846C286.963 30.3287 287.069 30.3512 287.176 30.3506C287.359 30.3497 287.536 30.2828 287.674 30.1623C287.823 30.0297 287.914 29.8432 287.926 29.6438C287.938 29.4444 287.87 29.2484 287.738 29.0989C286.546 27.7464 284.891 26.8897 283.098 26.6977C283.529 26.1595 284.126 25.7804 284.797 25.6201C285.467 25.4599 286.172 25.5279 286.799 25.8132C286.899 25.8604 287.008 25.8849 287.118 25.8849C287.229 25.8849 287.338 25.8604 287.438 25.8132C287.536 25.7665 287.624 25.6994 287.694 25.6162C287.764 25.5331 287.816 25.4358 287.846 25.331C288.01 24.7411 288.351 24.2156 288.823 23.8256C289.295 23.4356 289.876 23.1998 290.486 23.15C291.096 23.1002 291.707 23.2389 292.236 23.5472C292.765 23.8556 293.187 24.3188 293.444 24.8744C293.516 25.0272 293.636 25.1516 293.786 25.228C293.937 25.3043 294.109 25.3282 294.274 25.2959C294.513 25.2476 294.756 25.223 294.999 25.2225C295.914 25.2252 296.796 25.564 297.478 26.1745C298.16 26.7849 298.593 27.6245 298.697 28.5338C298.107 29.0096 297.65 29.6285 297.368 30.3315C297.295 30.5174 297.298 30.7249 297.377 30.9086C297.456 31.0922 297.604 31.2372 297.79 31.3118C297.878 31.3485 297.972 31.3669 298.068 31.3661C298.218 31.3661 298.365 31.3211 298.49 31.2369C298.614 31.1526 298.711 31.033 298.767 30.8935C298.988 30.3387 299.376 29.8666 299.878 29.5428V29.5428C299.936 29.5045 299.996 29.4693 300.057 29.4342C300.497 29.1939 300.992 29.0723 301.494 29.0811C301.995 29.09 302.486 29.2291 302.917 29.4848C303.349 29.7405 303.707 30.104 303.955 30.5396C304.204 30.9752 304.335 31.468 304.336 31.9696C304.333 32.027 304.329 32.0845 304.326 32.1452V32.1452ZM306.382 40.3484C306.384 42.0259 306.107 43.6921 305.562 45.2786L305.881 40.3132H306.386L306.382 40.3484ZM307.874 38.8093H305.974L306.07 37.2957H307.621C307.706 37.2942 307.79 37.2878 307.874 37.2766V38.8093Z" fill="white"/>
<path d="M292.49 26.4233C291.793 26.4241 291.126 26.7014 290.633 27.1941C290.141 27.6869 289.865 28.3548 289.865 29.0512C289.858 29.1541 289.873 29.2573 289.907 29.3543C289.942 29.4514 289.996 29.5403 290.067 29.6155C290.137 29.6907 290.223 29.7507 290.317 29.7917C290.412 29.8327 290.514 29.8539 290.617 29.8539C290.72 29.8539 290.822 29.8327 290.917 29.7917C291.011 29.7507 291.096 29.6907 291.167 29.6155C291.237 29.5403 291.292 29.4514 291.326 29.3543C291.361 29.2573 291.376 29.1541 291.369 29.0512C291.39 28.7694 291.517 28.5061 291.724 28.3139C291.932 28.1218 292.204 28.015 292.486 28.015C292.769 28.015 293.041 28.1218 293.249 28.3139C293.456 28.5061 293.583 28.7694 293.604 29.0512C293.604 29.2511 293.683 29.4428 293.825 29.5841C293.966 29.7254 294.158 29.8048 294.358 29.8048C294.558 29.8048 294.749 29.7254 294.89 29.5841C295.032 29.4428 295.111 29.2511 295.111 29.0512C295.11 28.3556 294.834 27.6887 294.343 27.1962C293.852 26.7037 293.185 26.4258 292.49 26.4233V26.4233Z" fill="white"/>
<path d="M303.694 16.5342C302.747 16.5342 301.821 16.8151 301.033 17.3414C300.245 17.8677 299.631 18.6157 299.269 19.4909C298.906 20.3661 298.812 21.3292 298.996 22.2583C299.181 23.1874 299.637 24.0409 300.307 24.7107C300.977 25.3806 301.83 25.8367 302.76 26.0215C303.689 26.2064 304.652 26.1115 305.527 25.749C306.402 25.3865 307.15 24.7726 307.677 23.9849C308.203 23.1972 308.484 22.2712 308.484 21.3239C308.484 20.0536 307.979 18.8353 307.081 17.937C306.183 17.0388 304.964 16.5342 303.694 16.5342V16.5342ZM303.694 24.5777C303.047 24.5789 302.414 24.3882 301.875 24.0295C301.337 23.6709 300.917 23.1604 300.668 22.5629C300.42 21.9653 300.354 21.3075 300.48 20.6728C300.606 20.038 300.917 19.4548 301.374 18.997C301.832 18.5392 302.415 18.2274 303.049 18.101C303.684 17.9747 304.342 18.0396 304.94 18.2873C305.537 18.5351 306.048 18.9547 306.407 19.493C306.767 20.0312 306.958 20.664 306.957 21.3111C306.958 21.7405 306.874 22.1658 306.711 22.5629C306.547 22.9599 306.307 23.3208 306.004 23.625C305.701 23.9293 305.341 24.1708 304.945 24.3359C304.548 24.501 304.123 24.5864 303.694 24.5873V24.5777Z" fill="white"/>
<path d="M280.242 18.7215C279.751 18.7215 279.27 18.8671 278.862 19.1401C278.453 19.4131 278.135 19.8011 277.947 20.255C277.759 20.709 277.71 21.2085 277.806 21.6904C277.901 22.1723 278.138 22.6149 278.485 22.9624C278.833 23.3098 279.276 23.5464 279.757 23.6422C280.239 23.7381 280.739 23.6889 281.193 23.5009C281.647 23.3128 282.035 22.9944 282.308 22.5859C282.581 22.1774 282.726 21.6971 282.726 21.2057C282.725 20.5471 282.463 19.9157 281.998 19.45C281.532 18.9843 280.901 18.7223 280.242 18.7215V18.7215ZM280.242 22.1828C280.049 22.1822 279.86 22.1243 279.7 22.0166C279.54 21.9088 279.415 21.756 279.342 21.5774C279.268 21.3988 279.249 21.2025 279.287 21.0131C279.325 20.8238 279.419 20.65 279.555 20.5137C279.692 20.3773 279.866 20.2846 280.056 20.2472C280.245 20.2097 280.442 20.2293 280.62 20.3033C280.798 20.3773 280.951 20.5026 281.058 20.6632C281.165 20.8238 281.222 21.0126 281.222 21.2057C281.222 21.3343 281.197 21.4616 281.148 21.5804C281.098 21.6991 281.026 21.807 280.935 21.8978C280.844 21.9885 280.736 22.0604 280.617 22.1094C280.498 22.1583 280.371 22.1832 280.242 22.1828V22.1828Z" fill="white"/>
<path d="M309.394 26.9183C308.903 26.9183 308.423 27.064 308.014 27.3369C307.606 27.6099 307.287 27.9979 307.099 28.4518C306.911 28.9058 306.862 29.4053 306.958 29.8872C307.054 30.3691 307.29 30.8117 307.638 31.1592C307.985 31.5066 308.428 31.7432 308.91 31.839C309.392 31.9349 309.891 31.8857 310.345 31.6977C310.799 31.5097 311.187 31.1912 311.46 30.7827C311.733 30.3742 311.879 29.8939 311.879 29.4025C311.878 28.7439 311.616 28.1125 311.15 27.6468C310.684 27.1811 310.053 26.9191 309.394 26.9183V26.9183ZM309.394 30.3796C309.201 30.3796 309.012 30.3223 308.852 30.2149C308.691 30.1076 308.566 29.955 308.492 29.7764C308.418 29.5979 308.398 29.4014 308.436 29.2119C308.474 29.0224 308.567 28.8483 308.704 28.7116C308.84 28.575 309.014 28.4819 309.204 28.4442C309.393 28.4065 309.59 28.4258 309.768 28.4998C309.947 28.5738 310.099 28.699 310.207 28.8597C310.314 29.0204 310.371 29.2093 310.371 29.4025C310.371 29.6617 310.269 29.9102 310.085 30.0934C309.902 30.2767 309.654 30.3796 309.394 30.3796Z" fill="white"/>
<path d="M275.417 23.725C275.022 23.7244 274.636 23.8409 274.307 24.0598C273.979 24.2787 273.722 24.5902 273.571 24.9548C273.419 25.3194 273.379 25.7208 273.456 26.1081C273.533 26.4955 273.722 26.8514 274.001 27.1308C274.28 27.4102 274.636 27.6006 275.023 27.6779C275.41 27.7551 275.812 27.7158 276.177 27.5648C276.542 27.4139 276.853 27.1581 277.073 26.8298C277.292 26.5016 277.409 26.1156 277.409 25.7208C277.409 25.192 277.2 24.6849 276.826 24.3107C276.452 23.9365 275.946 23.7259 275.417 23.725V23.725ZM275.417 26.2093C275.32 26.2099 275.225 26.1818 275.145 26.1285C275.064 26.0752 275.001 25.9991 274.963 25.9099C274.926 25.8207 274.916 25.7224 274.934 25.6274C274.953 25.5324 274.999 25.4451 275.067 25.3764C275.135 25.3078 275.222 25.2609 275.317 25.2418C275.412 25.2227 275.51 25.2322 275.6 25.2691C275.689 25.306 275.766 25.3686 275.82 25.449C275.874 25.5294 275.902 25.624 275.902 25.7208C275.902 25.8498 275.851 25.9736 275.76 26.0651C275.669 26.1566 275.546 26.2085 275.417 26.2093V26.2093Z" fill="white"/>
<path d="M288.699 15.8509C287.767 15.5603 287.706 15.4996 287.422 14.5736C287.358 14.374 287.233 14.1997 287.064 14.076C286.895 13.9523 286.691 13.8857 286.482 13.8857C286.272 13.8857 286.068 13.9523 285.899 14.076C285.73 14.1997 285.605 14.374 285.541 14.5736C285.251 15.506 285.19 15.5667 284.264 15.8509C284.063 15.9125 283.886 16.0372 283.761 16.2064C283.636 16.3757 283.568 16.5807 283.568 16.7913C283.568 17.0018 283.636 17.2068 283.761 17.3761C283.886 17.5454 284.063 17.67 284.264 17.7316C285.196 18.0222 285.257 18.0829 285.541 19.0089C285.604 19.2098 285.729 19.3853 285.898 19.51C286.068 19.6347 286.273 19.7019 286.483 19.7019C286.693 19.7019 286.898 19.6347 287.068 19.51C287.237 19.3853 287.362 19.2098 287.425 19.0089C287.712 18.0765 287.773 18.0158 288.702 17.7316C288.904 17.67 289.08 17.5454 289.205 17.3761C289.33 17.2068 289.398 17.0018 289.398 16.7913C289.398 16.5807 289.33 16.3757 289.205 16.2064C289.08 16.0372 288.904 15.9125 288.702 15.8509H288.699ZM286.464 17.4059C286.306 17.16 286.097 16.9509 285.851 16.7929C286.096 16.6327 286.305 16.4227 286.464 16.1766C286.623 16.4236 286.833 16.6337 287.08 16.7929C286.837 16.9514 286.631 17.1605 286.477 17.4059H286.464Z" fill="white"/>
<path d="M383.925 34.6232C383.925 27.1864 378.26 22.1859 369.83 22.1859H365.679C364.778 22.1868 363.88 22.2864 363 22.4829C362.704 21.4411 362.076 20.5243 361.212 19.8715C360.347 19.2187 359.294 18.8654 358.211 18.8651C357.736 18.8653 357.265 18.9363 356.812 19.0758C356.4 18.2627 355.77 17.5799 354.992 17.1036C354.215 16.6272 353.32 16.3759 352.409 16.3776C351.089 16.3784 349.825 16.9029 348.892 17.8357C347.959 18.7684 347.435 20.0333 347.434 21.3525C347.434 21.9619 347.552 22.5656 347.779 23.1311C347.018 24.0207 346.601 25.1536 346.604 26.3242C346.604 27.0028 346.743 27.6741 347.013 28.2969C347.282 28.9197 347.675 29.481 348.169 29.9462C348.663 30.4115 349.247 30.7709 349.885 31.0024C350.523 31.234 351.201 31.3328 351.879 31.2928C352.166 32.1055 352.662 32.8288 353.315 33.3906C353.271 33.7979 353.248 34.2072 353.245 34.6168C353.246 35.7234 353.393 36.825 353.683 37.893C354.752 41.67 354.765 45.668 353.721 49.4521C353.225 51.1873 353.112 53.0096 353.392 54.7925C353.671 56.5755 354.335 58.2763 355.337 59.7767C356.34 61.2772 357.658 62.5413 359.198 63.4813C360.739 64.4212 362.465 65.0145 364.258 65.2198C364.735 65.2718 365.213 65.2985 365.692 65.2997H369.818C378.248 65.2997 383.912 60.3024 383.912 52.8624C383.913 51.7558 383.765 50.654 383.475 49.5862C382.389 45.7651 382.389 41.7173 383.475 37.8962C383.77 36.8301 383.921 35.7294 383.925 34.6232V34.6232ZM353.156 29.3769L352.31 29.5653C352.073 29.6178 351.831 29.6456 351.588 29.6483C350.709 29.6483 349.865 29.2992 349.243 28.6777C348.621 28.0562 348.271 27.2132 348.27 26.3338C348.27 25.8776 348.365 25.4264 348.549 25.0091C348.734 24.5917 349.003 24.2175 349.34 23.9102L349.809 23.4759L349.49 22.9108C349.269 22.5041 349.136 22.0555 349.099 21.5941C349.063 21.1327 349.124 20.6688 349.278 20.2324C349.433 19.796 349.677 19.397 349.995 19.0612C350.314 18.7254 350.7 18.4604 351.127 18.2832C351.555 18.1061 352.015 18.0209 352.478 18.0331C352.94 18.0452 353.395 18.1546 353.813 18.354C354.231 18.5534 354.602 18.8384 354.902 19.1905C355.203 19.5425 355.426 19.9539 355.557 20.3978L355.844 21.3557L356.723 20.9087C357.181 20.6718 357.688 20.546 358.204 20.5415C358.948 20.5395 359.67 20.7884 360.255 21.2478C360.84 21.7073 361.252 22.3504 361.426 23.0734C361.6 23.7963 361.525 24.5568 361.213 25.2319C360.902 25.907 360.371 26.4572 359.708 26.7936L358.919 27.1991L359.376 27.9623C359.694 28.4719 359.863 29.0603 359.865 29.6611C359.87 30.4923 359.562 31.295 359.003 31.9099C358.443 32.5247 357.673 32.9066 356.845 32.9798C356.017 33.053 355.192 32.8121 354.533 32.3049C353.874 31.7978 353.431 31.0614 353.29 30.2422L353.156 29.3769ZM355.001 54.2418C354.886 53.3301 354.886 52.4075 355.001 51.4957C355.226 51.6475 355.41 51.8521 355.537 52.0914C355.664 52.3308 355.731 52.5977 355.731 52.8688C355.731 53.1398 355.664 53.4068 355.537 53.6461C355.41 53.8855 355.226 54.0901 355.001 54.2418V54.2418ZM364.453 63.5786C362.355 63.3242 360.377 62.4639 358.76 61.1028C357.143 59.7418 355.958 57.939 355.35 55.915C355.955 55.6642 356.473 55.2394 356.837 54.6943C357.201 54.1492 357.396 53.5084 357.396 52.8528C357.396 52.1973 357.201 51.5564 356.837 51.0114C356.473 50.4663 355.955 50.0415 355.35 49.7906C356.445 45.7469 356.424 41.4818 355.289 37.4491C355.037 36.524 354.91 35.5692 354.912 34.6104C354.912 34.5146 354.912 34.4188 354.912 34.323C355.662 34.59 356.464 34.6726 357.253 34.564C358.041 34.4554 358.791 34.1588 359.441 33.6991C360.09 33.2394 360.619 32.6303 360.984 31.923C361.348 31.2157 361.537 30.4312 361.535 29.6355C361.534 29.0104 361.412 28.3914 361.177 27.8122C361.759 27.3838 362.239 26.8329 362.585 26.1984C362.93 25.5639 363.132 24.8612 363.176 24.1401C364.626 23.7865 366.133 23.7389 367.603 24.0004C369.072 24.262 370.471 24.8269 371.709 25.6591C372.948 26.4914 374 27.5726 374.797 28.834C375.595 30.0954 376.121 31.5092 376.341 32.9851C376.46 33.7991 376.487 34.6239 376.421 35.4438C375.446 35.4711 374.513 35.8407 373.783 36.4876C373.054 37.1345 372.575 38.0176 372.432 38.982C372.288 39.9463 372.488 40.9305 372.998 41.7618C373.507 42.5932 374.293 43.2188 375.217 43.5289C375.21 45.7207 375.5 47.9034 376.079 50.0173C376.543 51.7171 376.584 53.5047 376.197 55.2236C375.81 56.9426 375.007 58.5404 373.86 59.8774C372.712 61.2144 371.254 62.2497 369.614 62.8927C367.973 63.5357 366.2 63.7668 364.45 63.5658L364.453 63.5786ZM375.31 41.7918C374.842 41.547 374.465 41.159 374.233 40.6845C374.002 40.21 373.928 39.6739 374.023 39.1545C374.118 38.6351 374.376 38.1597 374.761 37.7977C375.145 37.4358 375.635 37.2062 376.159 37.1426C376.124 37.2863 376.102 37.4332 376.06 37.5769C375.666 38.9533 375.407 40.365 375.287 41.7918H375.31ZM381.897 50.0301C382.15 50.954 382.278 51.9077 382.277 52.8656C382.277 58.6132 378.305 62.6653 372.177 63.486C372.819 63.0896 373.425 62.6376 373.988 62.1353C375.708 60.5941 376.966 58.6048 377.621 56.3898C378.275 54.1748 378.301 51.8214 377.695 49.5926C376.626 45.8156 376.612 41.8176 377.657 38.0335C378.409 35.411 378.274 32.6137 377.272 30.076C376.271 27.5383 374.46 25.4022 372.12 23.9996C378.276 24.8011 382.277 28.8628 382.277 34.6232C382.278 35.5822 382.15 36.5369 381.897 37.4619C380.735 41.5707 380.735 45.9213 381.897 50.0301V50.0301Z" fill="white"/>
<path d="M365.685 18.8715C366.177 18.8715 366.658 18.7256 367.067 18.4523C367.476 18.1789 367.795 17.7904 367.983 17.3359C368.171 16.8814 368.22 16.3813 368.124 15.8987C368.028 15.4162 367.791 14.973 367.444 14.6251C367.096 14.2772 366.652 14.0403 366.17 13.9444C365.687 13.8484 365.187 13.8976 364.733 14.0859C364.278 14.2742 363.89 14.593 363.616 15.0021C363.343 15.4111 363.197 15.892 363.197 16.384C363.198 17.0435 363.46 17.6757 363.927 18.142C364.393 18.6083 365.025 18.8706 365.685 18.8715V18.8715ZM365.685 15.5538C365.849 15.5532 366.01 15.6013 366.147 15.6922C366.284 15.783 366.391 15.9124 366.454 16.0641C366.517 16.2157 366.534 16.3828 366.503 16.544C366.471 16.7053 366.392 16.8535 366.276 16.9699C366.16 17.0864 366.012 17.1657 365.851 17.198C365.69 17.2303 365.523 17.2141 365.371 17.1513C365.219 17.0886 365.089 16.9822 364.998 16.8456C364.906 16.709 364.858 16.5484 364.858 16.384C364.857 16.2751 364.878 16.1673 364.92 16.0665C364.961 15.9658 365.022 15.8743 365.099 15.7972C365.176 15.72 365.267 15.6588 365.367 15.6171C365.468 15.5753 365.576 15.5538 365.685 15.5538V15.5538Z" fill="white"/>
<path d="M389.733 22.1859C388.912 22.1859 388.11 22.4293 387.427 22.8855C386.744 23.3416 386.212 23.9899 385.898 24.7484C385.584 25.5069 385.502 26.3416 385.662 27.1468C385.822 27.952 386.217 28.6917 386.798 29.2722C387.378 29.8528 388.118 30.2481 388.923 30.4083C389.729 30.5685 390.563 30.4862 391.322 30.1721C392.08 29.8579 392.728 29.3258 393.185 28.6432C393.641 27.9605 393.884 27.158 393.884 26.337C393.884 25.236 393.447 24.1802 392.668 23.4017C391.89 22.6232 390.834 22.1859 389.733 22.1859V22.1859ZM389.733 28.8212C389.241 28.8212 388.76 28.6753 388.351 28.402C387.942 28.1287 387.623 27.7402 387.435 27.2857C387.247 26.8312 387.197 26.331 387.293 25.8485C387.389 25.366 387.626 24.9227 387.974 24.5749C388.322 24.227 388.765 23.9901 389.248 23.8941C389.73 23.7981 390.23 23.8474 390.685 24.0357C391.14 24.2239 391.528 24.5428 391.801 24.9518C392.075 25.3609 392.221 25.8418 392.221 26.3338C392.22 26.9932 391.957 27.6254 391.491 28.0917C391.025 28.558 390.393 28.8204 389.733 28.8212V28.8212Z" fill="white"/>
<path d="M349.106 41.2586C349.107 40.6023 348.913 39.9605 348.548 39.4145C348.184 38.8685 347.666 38.4428 347.06 38.1912C346.454 37.9396 345.787 37.8734 345.143 38.0011C344.499 38.1287 343.908 38.4445 343.444 38.9083C342.979 39.3722 342.663 39.9633 342.535 40.607C342.406 41.2506 342.472 41.9179 342.723 42.5243C342.974 43.1307 343.399 43.649 343.945 44.0137C344.49 44.3784 345.132 44.5731 345.788 44.5731C346.667 44.5722 347.51 44.2229 348.132 43.6015C348.754 42.9802 349.104 42.1377 349.106 41.2586ZM345.788 42.9158C345.46 42.9158 345.139 42.8184 344.866 42.6358C344.592 42.4532 344.38 42.1937 344.254 41.8901C344.128 41.5865 344.096 41.2525 344.16 40.9303C344.224 40.6081 344.383 40.3123 344.615 40.0802C344.848 39.8481 345.144 39.6902 345.466 39.6265C345.789 39.5628 346.123 39.5961 346.426 39.7223C346.729 39.8484 346.988 40.0618 347.171 40.3352C347.353 40.6087 347.449 40.9301 347.449 41.2586C347.448 41.4766 347.405 41.6925 347.321 41.8938C347.237 42.0951 347.115 42.2779 346.96 42.4318C346.806 42.5857 346.622 42.7076 346.421 42.7907C346.219 42.8737 346.003 42.9163 345.785 42.9158H345.788Z" fill="white"/>
<path d="M351.592 19.6985H353.259V21.3589H351.601L351.592 19.6985Z" fill="white"/>
<path d="M355.734 29.6483H357.395V31.3087H355.734V29.6483Z" fill="white"/>
<path d="M357.406 23.0163H359.063V24.6735H357.406V23.0163Z" fill="white"/>
<path d="M350.76 25.5037H352.42V27.1609H350.76V25.5037Z" fill="white"/>
<path d="M389.734 57.0135C389.242 57.0135 388.761 57.1594 388.352 57.4327C387.943 57.706 387.624 58.0945 387.435 58.5491C387.247 59.0036 387.198 59.5037 387.294 59.9862C387.39 60.4688 387.627 60.912 387.975 61.2599C388.323 61.6077 388.766 61.8446 389.248 61.9406C389.731 62.0366 390.231 61.9873 390.685 61.7991C391.14 61.6108 391.528 61.292 391.802 60.8829C392.075 60.4739 392.221 59.9929 392.221 59.501C392.221 58.8412 391.959 58.2085 391.492 57.7421C391.026 57.2756 390.393 57.0135 389.734 57.0135ZM389.734 60.328C389.569 60.328 389.409 60.2792 389.272 60.1878C389.135 60.0965 389.029 59.9666 388.966 59.8147C388.903 59.6628 388.887 59.4958 388.92 59.3346C388.952 59.1735 389.031 59.0256 389.148 58.9096C389.264 58.7936 389.412 58.7148 389.574 58.6831C389.735 58.6514 389.902 58.6683 390.053 58.7317C390.205 58.795 390.335 58.9019 390.425 59.0388C390.516 59.1758 390.564 59.3366 390.564 59.501C390.563 59.7206 390.475 59.9309 390.319 60.0859C390.164 60.241 389.953 60.328 389.734 60.328V60.328Z" fill="white"/>
<path d="M349.933 57.0135C349.441 57.0135 348.96 57.1594 348.551 57.4327C348.142 57.706 347.823 58.0945 347.635 58.5491C347.446 59.0036 347.397 59.5037 347.493 59.9862C347.589 60.4688 347.826 60.912 348.174 61.2599C348.522 61.6077 348.965 61.8446 349.447 61.9406C349.93 62.0366 350.43 61.9873 350.885 61.7991C351.339 61.6108 351.728 61.292 352.001 60.8829C352.274 60.4739 352.42 59.9929 352.42 59.501C352.42 58.8412 352.158 58.2085 351.692 57.7421C351.225 57.2756 350.592 57.0135 349.933 57.0135ZM349.933 60.328C349.768 60.3286 349.607 60.2804 349.47 60.1894C349.333 60.0984 349.226 59.9688 349.163 59.817C349.1 59.6651 349.083 59.4979 349.115 59.3366C349.147 59.1752 349.226 59.027 349.343 58.9107C349.459 58.7944 349.607 58.7153 349.768 58.6834C349.93 58.6514 350.097 58.6681 350.249 58.7314C350.401 58.7946 350.53 58.9015 350.621 59.0385C350.712 59.1755 350.76 59.3365 350.76 59.501C350.76 59.7203 350.673 59.9307 350.518 60.0857C350.362 60.2408 350.152 60.328 349.933 60.328V60.328Z" fill="white"/>
<path d="M364.861 49.5511C365.74 49.5503 366.583 49.2004 367.205 48.5783C367.826 47.9562 368.175 47.1128 368.175 46.2335H366.518C366.518 46.562 366.42 46.8832 366.238 47.1563C366.055 47.4294 365.796 47.6422 365.492 47.7678C365.189 47.8934 364.855 47.9261 364.532 47.8618C364.21 47.7974 363.914 47.639 363.682 47.4064C363.45 47.1739 363.292 46.8777 363.229 46.5554C363.165 46.2331 363.198 45.8992 363.324 45.5958C363.451 45.2925 363.664 45.0334 363.937 44.8513C364.211 44.6693 364.532 44.5724 364.861 44.573V42.9158C363.981 42.9158 363.137 43.2653 362.515 43.8875C361.893 44.5097 361.543 45.3536 361.543 46.2335C361.543 47.1134 361.893 47.9572 362.515 48.5794C363.137 49.2016 363.981 49.5511 364.861 49.5511V49.5511Z" fill="white"/>
<path d="M365.684 58.6707C364.805 58.6724 363.962 59.0226 363.341 59.6445C362.719 60.2664 362.37 61.1093 362.369 61.9884H364.026C364.017 61.7644 364.052 61.5408 364.131 61.3309C364.21 61.1211 364.331 60.9294 364.486 60.7675C364.641 60.6055 364.827 60.4766 365.033 60.3886C365.239 60.3005 365.461 60.2551 365.685 60.2551C365.909 60.2551 366.131 60.3005 366.337 60.3886C366.544 60.4766 366.73 60.6055 366.885 60.7675C367.04 60.9294 367.16 61.1211 367.239 61.3309C367.318 61.5408 367.354 61.7644 367.344 61.9884H369.001C369 61.1087 368.651 60.2653 368.029 59.6433C367.407 59.0213 366.563 58.6715 365.684 58.6707V58.6707Z" fill="white"/>
<path d="M367.345 27.161C366.853 27.161 366.372 27.3069 365.963 27.5802C365.554 27.8535 365.235 28.242 365.047 28.6965C364.858 29.1511 364.809 29.6512 364.905 30.1337C365.001 30.6162 365.238 31.0595 365.586 31.4073C365.934 31.7552 366.377 31.9921 366.86 32.0881C367.342 32.1841 367.842 32.1348 368.297 31.9465C368.751 31.7583 369.14 31.4395 369.413 31.0304C369.686 30.6213 369.832 30.1404 369.832 29.6484C369.831 28.989 369.569 28.3568 369.103 27.8905C368.637 27.4242 368.004 27.1618 367.345 27.161V27.161ZM367.345 30.4787C367.181 30.4793 367.02 30.4311 366.883 30.3403C366.746 30.2495 366.639 30.12 366.576 29.9684C366.512 29.8167 366.495 29.6497 366.527 29.4884C366.559 29.3272 366.637 29.179 366.753 29.0625C366.869 28.9461 367.017 28.8667 367.179 28.8344C367.34 28.8021 367.507 28.8184 367.659 28.8811C367.811 28.9439 367.94 29.0503 368.032 29.1869C368.123 29.3235 368.172 29.4841 368.172 29.6484C368.172 29.7573 368.151 29.8652 368.11 29.9659C368.068 30.0666 368.008 30.1582 367.931 30.2353C367.854 30.3124 367.763 30.3736 367.662 30.4154C367.562 30.4572 367.454 30.4787 367.345 30.4787V30.4787Z" fill="white"/>
<path d="M368.172 41.2586H369.832V42.9159H368.172V41.2586Z" fill="white"/>
<path d="M359.049 36.2838H360.706V37.941H359.049V36.2838Z" fill="white"/>
<path d="M371.488 52.0482H373.146V53.7055H371.488V52.0482Z" fill="white"/>
<path d="M363.197 53.6958H364.858V55.353H363.197V53.6958Z" fill="white"/>
<path d="M372.32 32.1358H373.978V33.7962H372.32V32.1358Z" fill="white"/>
</svg>
