<svg width="414" height="128" viewBox="0 0 414 128" fill="none" xmlns="http://www.w3.org/2000/svg">
<path d="M139.949 74.5581C139.949 73.3946 139.787 72.2852 139.462 71.2299C139.164 70.1746 138.677 69.241 138.001 68.4293C137.324 67.6175 136.472 66.9816 135.444 66.5216C134.416 66.0346 133.184 65.791 131.75 65.791C129.071 65.791 126.974 66.5487 125.459 68.064C123.944 69.5793 122.956 71.744 122.496 74.5581H139.949ZM122.334 81.2146C122.686 85.1381 123.795 88.0063 125.662 89.8193C127.556 91.6322 130.019 92.5387 133.049 92.5387C134.591 92.5387 135.917 92.3628 137.027 92.011C138.163 91.6322 139.151 91.2263 139.99 90.7934C140.856 90.3334 141.627 89.9275 142.303 89.5758C143.007 89.1969 143.697 89.0075 144.373 89.0075C145.239 89.0075 145.916 89.3322 146.403 89.9816L149.65 94.0405C148.459 95.4205 147.147 96.5705 145.713 97.4905C144.279 98.3834 142.79 99.1005 141.248 99.6416C139.706 100.156 138.15 100.508 136.58 100.697C135.011 100.913 133.496 101.022 132.034 101.022C129.112 101.022 126.379 100.548 123.836 99.601C121.319 98.6269 119.114 97.2063 117.22 95.3393C115.353 93.4452 113.878 91.1046 112.796 88.3175C111.713 85.5305 111.172 82.2969 111.172 78.6169C111.172 75.7758 111.632 73.0969 112.552 70.5805C113.499 68.064 114.852 65.8722 116.611 64.0052C118.37 62.1381 120.507 60.6634 123.024 59.581C125.54 58.4716 128.381 57.9169 131.547 57.9169C134.226 57.9169 136.689 58.3499 138.934 59.2157C141.207 60.0546 143.156 61.2858 144.779 62.9093C146.43 64.5328 147.701 66.5352 148.594 68.9163C149.514 71.2705 149.974 73.9628 149.974 76.9934C149.974 77.8322 149.934 78.5222 149.853 79.0634C149.771 79.6046 149.636 80.0375 149.447 80.3622C149.257 80.6869 149 80.9169 148.676 81.0522C148.351 81.1605 147.931 81.2146 147.417 81.2146H122.334ZM182.943 67.171C182.645 67.631 182.334 67.9693 182.009 68.1858C181.712 68.3752 181.292 68.4699 180.751 68.4699C180.21 68.4699 179.655 68.3346 179.087 68.064C178.519 67.7934 177.883 67.5093 177.179 67.2116C176.476 66.8869 175.664 66.5893 174.744 66.3187C173.851 66.0481 172.809 65.9128 171.619 65.9128C169.806 65.9128 168.399 66.2916 167.398 67.0493C166.396 67.7799 165.896 68.754 165.896 69.9716C165.896 70.8105 166.18 71.514 166.748 72.0822C167.316 72.6505 168.06 73.151 168.98 73.584C169.928 73.9899 170.996 74.3822 172.187 74.761C173.378 75.1128 174.595 75.5052 175.84 75.9381C177.112 76.371 178.343 76.8716 179.533 77.4399C180.724 78.0081 181.779 78.7252 182.699 79.591C183.646 80.4299 184.404 81.4581 184.972 82.6758C185.54 83.8663 185.825 85.314 185.825 87.0187C185.825 89.0481 185.446 90.9287 184.688 92.6605C183.958 94.3652 182.875 95.8399 181.441 97.0846C180.007 98.3293 178.221 99.3034 176.083 100.007C173.946 100.71 171.483 101.062 168.696 101.062C167.262 101.062 165.842 100.927 164.435 100.656C163.028 100.413 161.688 100.061 160.416 99.601C159.145 99.114 157.954 98.5593 156.845 97.9369C155.735 97.3146 154.775 96.6381 153.963 95.9075L156.56 91.7269C156.858 91.2399 157.223 90.861 157.656 90.5905C158.116 90.3199 158.698 90.1846 159.402 90.1846C160.078 90.1846 160.7 90.3605 161.269 90.7122C161.837 91.0369 162.473 91.4022 163.176 91.8081C163.88 92.1869 164.705 92.5522 165.652 92.904C166.626 93.2287 167.83 93.391 169.265 93.391C170.347 93.391 171.28 93.2693 172.065 93.0258C172.85 92.7822 173.486 92.4575 173.973 92.0516C174.46 91.6187 174.812 91.1452 175.028 90.631C175.272 90.0899 175.393 89.5352 175.393 88.9669C175.393 88.0469 175.096 87.3028 174.5 86.7346C173.932 86.1393 173.175 85.6252 172.228 85.1922C171.308 84.7593 170.239 84.3669 169.021 84.0152C167.803 83.6634 166.559 83.271 165.287 82.8381C164.042 82.4052 162.811 81.891 161.593 81.2958C160.403 80.7005 159.334 79.9563 158.387 79.0634C157.467 78.1434 156.709 77.0205 156.114 75.6946C155.546 74.3687 155.262 72.7587 155.262 70.8646C155.262 69.1328 155.6 67.4958 156.276 65.9534C156.953 64.384 157.968 63.004 159.32 61.8134C160.673 60.6228 162.351 59.6758 164.353 58.9722C166.383 58.2687 168.723 57.9169 171.375 57.9169C174.352 57.9169 177.058 58.404 179.493 59.3781C181.928 60.3522 183.93 61.624 185.5 63.1934L182.943 67.171ZM207.286 101.062C205.392 101.062 203.714 100.792 202.253 100.25C200.792 99.6822 199.561 98.884 198.56 97.8558C197.559 96.8275 196.801 95.5828 196.287 94.1216C195.773 92.6605 195.516 91.0099 195.516 89.1699V66.6028H191.579C190.983 66.6028 190.469 66.4134 190.036 66.0346C189.63 65.6558 189.427 65.0875 189.427 64.3299V59.9463L196.124 58.7287L198.397 47.8916C198.695 46.674 199.52 46.0652 200.873 46.0652H206.718V58.8099H217.515V66.6028H206.718V88.4393C206.718 89.6028 206.989 90.5228 207.53 91.1993C208.098 91.8758 208.896 92.214 209.924 92.214C210.466 92.214 210.926 92.1599 211.304 92.0516C211.683 91.9163 212.008 91.781 212.279 91.6458C212.549 91.4834 212.793 91.3481 213.009 91.2399C213.253 91.1046 213.496 91.0369 213.74 91.0369C214.064 91.0369 214.335 91.1181 214.552 91.2805C214.768 91.4158 214.984 91.6593 215.201 92.011L218.57 97.3687C217.027 98.5863 215.282 99.5063 213.334 100.129C211.386 100.751 209.37 101.062 207.286 101.062ZM245.393 82.9193C242.66 83.0546 240.387 83.2981 238.574 83.6499C236.761 83.9746 235.313 84.4075 234.231 84.9487C233.176 85.4899 232.418 86.1122 231.958 86.8158C231.525 87.4922 231.309 88.2363 231.309 89.0481C231.309 90.6716 231.755 91.8216 232.648 92.4981C233.568 93.1746 234.84 93.5128 236.463 93.5128C238.331 93.5128 239.941 93.1881 241.293 92.5387C242.673 91.8622 244.04 90.8205 245.393 89.4134V82.9193ZM222.582 64.3705C225.045 62.1516 227.764 60.501 230.741 59.4187C233.717 58.3093 236.937 57.7546 240.401 57.7546C242.89 57.7546 245.109 58.1605 247.057 58.9722C249.032 59.784 250.696 60.9205 252.049 62.3816C253.429 63.8158 254.485 65.534 255.215 67.5363C255.946 69.5387 256.311 71.7305 256.311 74.1116V100.413H251.197C250.142 100.413 249.33 100.264 248.762 99.9663C248.221 99.6687 247.774 99.0463 247.422 98.0993L246.529 95.4205C245.474 96.3405 244.446 97.1522 243.445 97.8558C242.471 98.5593 241.456 99.1546 240.401 99.6416C239.345 100.102 238.209 100.453 236.991 100.697C235.801 100.94 234.461 101.062 232.973 101.062C231.133 101.062 229.455 100.819 227.94 100.332C226.425 99.8446 225.112 99.1275 224.003 98.1805C222.921 97.2063 222.082 96.0022 221.486 94.5681C220.891 93.134 220.593 91.4834 220.593 89.6163C220.593 88.074 220.986 86.5316 221.771 84.9893C222.555 83.4469 223.895 82.0534 225.789 80.8087C227.71 79.5369 230.253 78.4952 233.419 77.6834C236.612 76.8446 240.603 76.371 245.393 76.2628V74.1116C245.393 71.4869 244.838 69.5658 243.729 68.3481C242.619 67.1034 241.023 66.481 238.939 66.481C237.397 66.481 236.112 66.6705 235.083 67.0493C234.055 67.401 233.149 67.7934 232.364 68.2263C231.606 68.6322 230.889 69.0246 230.213 69.4034C229.536 69.7552 228.752 69.931 227.859 69.931C227.074 69.931 226.411 69.7416 225.87 69.3628C225.356 68.9569 224.923 68.4834 224.571 67.9422L222.582 64.3705ZM278.871 101.062C276.976 101.062 275.299 100.792 273.838 100.25C272.376 99.6822 271.145 98.884 270.144 97.8558C269.143 96.8275 268.385 95.5828 267.871 94.1216C267.357 92.6605 267.1 91.0099 267.1 89.1699V66.6028H263.163C262.568 66.6028 262.054 66.4134 261.621 66.0346C261.215 65.6558 261.012 65.0875 261.012 64.3299V59.9463L267.709 58.7287L269.982 47.8916C270.279 46.674 271.105 46.0652 272.458 46.0652H278.302V58.8099H289.099V66.6028H278.302V88.4393C278.302 89.6028 278.573 90.5228 279.114 91.1993C279.682 91.8758 280.481 92.214 281.509 92.214C282.05 92.214 282.51 92.1599 282.889 92.0516C283.268 91.9163 283.592 91.781 283.863 91.6458C284.134 91.4834 284.377 91.3481 284.594 91.2399C284.837 91.1046 285.081 91.0369 285.324 91.0369C285.649 91.0369 285.919 91.1181 286.136 91.2805C286.352 91.4158 286.569 91.6593 286.785 92.011L290.154 97.3687C288.612 98.5863 286.866 99.5063 284.918 100.129C282.97 100.751 280.954 101.062 278.871 101.062ZM321.249 74.5581C321.249 73.3946 321.086 72.2852 320.761 71.2299C320.464 70.1746 319.977 69.241 319.3 68.4293C318.624 67.6175 317.771 66.9816 316.743 66.5216C315.715 66.0346 314.484 65.791 313.05 65.791C310.371 65.791 308.274 66.5487 306.759 68.064C305.243 69.5793 304.256 71.744 303.796 74.5581H321.249ZM303.633 81.2146C303.985 85.1381 305.094 88.0063 306.961 89.8193C308.856 91.6322 311.318 92.5387 314.349 92.5387C315.891 92.5387 317.217 92.3628 318.326 92.011C319.463 91.6322 320.45 91.2263 321.289 90.7934C322.155 90.3334 322.926 89.9275 323.603 89.5758C324.306 89.1969 324.996 89.0075 325.673 89.0075C326.539 89.0075 327.215 89.3322 327.702 89.9816L330.949 94.0405C329.759 95.4205 328.446 96.5705 327.012 97.4905C325.578 98.3834 324.09 99.1005 322.547 99.6416C321.005 100.156 319.449 100.508 317.88 100.697C316.31 100.913 314.795 101.022 313.334 101.022C310.411 101.022 307.679 100.548 305.135 99.601C302.619 98.6269 300.413 97.2063 298.519 95.3393C296.652 93.4452 295.177 91.1046 294.095 88.3175C293.013 85.5305 292.471 82.2969 292.471 78.6169C292.471 75.7758 292.931 73.0969 293.851 70.5805C294.799 68.064 296.151 65.8722 297.91 64.0052C299.669 62.1381 301.807 60.6634 304.323 59.581C306.84 58.4716 309.681 57.9169 312.847 57.9169C315.526 57.9169 317.988 58.3499 320.234 59.2157C322.507 60.0546 324.455 61.2858 326.079 62.9093C327.729 64.5328 329.001 66.5352 329.894 68.9163C330.814 71.2705 331.274 73.9628 331.274 76.9934C331.274 77.8322 331.233 78.5222 331.152 79.0634C331.071 79.6046 330.936 80.0375 330.746 80.3622C330.557 80.6869 330.3 80.9169 329.975 81.0522C329.65 81.1605 329.231 81.2146 328.717 81.2146H303.633ZM368.788 63.1122C368.788 63.8969 368.653 64.6681 368.382 65.4258C368.112 66.1563 367.76 66.7516 367.327 67.2116L348.535 91.9705H368.26V100.413H335.587V95.7858C335.587 95.3258 335.709 94.744 335.952 94.0405C336.223 93.3369 336.588 92.674 337.048 92.0516L356.003 67.0087H336.764V58.5663H368.788V63.1122ZM397.678 82.9193C394.945 83.0546 392.672 83.2981 390.859 83.6499C389.046 83.9746 387.599 84.4075 386.516 84.9487C385.461 85.4899 384.703 86.1122 384.243 86.8158C383.81 87.4922 383.594 88.2363 383.594 89.0481C383.594 90.6716 384.04 91.8216 384.933 92.4981C385.853 93.1746 387.125 93.5128 388.749 93.5128C390.616 93.5128 392.226 93.1881 393.579 92.5387C394.959 91.8622 396.325 90.8205 397.678 89.4134V82.9193ZM374.867 64.3705C377.33 62.1516 380.049 60.501 383.026 59.4187C386.002 58.3093 389.222 57.7546 392.686 57.7546C395.175 57.7546 397.394 58.1605 399.342 58.9722C401.317 59.784 402.982 60.9205 404.335 62.3816C405.715 63.8158 406.77 65.534 407.5 67.5363C408.231 69.5387 408.596 71.7305 408.596 74.1116V100.413H403.482C402.427 100.413 401.615 100.264 401.047 99.9663C400.506 99.6687 400.059 99.0463 399.707 98.0993L398.815 95.4205C397.759 96.3405 396.731 97.1522 395.73 97.8558C394.756 98.5593 393.741 99.1546 392.686 99.6416C391.63 100.102 390.494 100.453 389.276 100.697C388.086 100.94 386.746 101.062 385.258 101.062C383.418 101.062 381.74 100.819 380.225 100.332C378.71 99.8446 377.397 99.1275 376.288 98.1805C375.206 97.2063 374.367 96.0022 373.772 94.5681C373.176 93.134 372.879 91.4834 372.879 89.6163C372.879 88.074 373.271 86.5316 374.056 84.9893C374.84 83.4469 376.18 82.0534 378.074 80.8087C379.995 79.5369 382.539 78.4952 385.705 77.6834C388.897 76.8446 392.889 76.371 397.678 76.2628V74.1116C397.678 71.4869 397.123 69.5658 396.014 68.3481C394.905 67.1034 393.308 66.481 391.225 66.481C389.682 66.481 388.397 66.6705 387.369 67.0493C386.34 67.401 385.434 67.7934 384.649 68.2263C383.892 68.6322 383.175 69.0246 382.498 69.4034C381.822 69.7552 381.037 69.931 380.144 69.931C379.359 69.931 378.696 69.7416 378.155 69.3628C377.641 68.9569 377.208 68.4834 376.856 67.9422L374.867 64.3705Z" fill="white"/>
<g clip-path="url(#clip0_996_3967)">
<g clip-path="url(#clip1_996_3967)">
<rect x="47.8945" y="100.778" width="13.1821" height="13.1821" fill="#77C172"/>
<path d="M47.1926 100.117L61.3985 100.523L47.1926 114.729L47.1926 100.117Z" fill="#DCFF7D"/>
</g>
</g>
<path d="M79.5529 0.524567L0 80.0775V113.968H0.91283L13.594 100.494V77.1273H26.7761V86.4875L54.5821 56.9422L79.5529 83.475V0.524567Z" fill="url(#paint0_linear_996_3967)"/>
<defs>
<linearGradient id="paint0_linear_996_3967" x1="75.4941" y1="15.1363" x2="2.43529" y2="117.825" gradientUnits="userSpaceOnUse">
<stop stop-color="#77C172"/>
<stop offset="1" stop-color="#B3FFAE"/>
</linearGradient>
<clipPath id="clip0_996_3967">
<rect width="79.5529" height="113.647" fill="white" transform="translate(0 0.118683)"/>
</clipPath>
<clipPath id="clip1_996_3967">
<rect width="13.1821" height="13.1821" fill="white" transform="translate(47.8945 100.778)"/>
</clipPath>
</defs>
</svg>
