<svg width="549" height="115" viewBox="0 0 549 115" fill="none" xmlns="http://www.w3.org/2000/svg">
<path d="M493.297 25.1212C492.065 25.0574 490.809 25.0623 489.567 25.1408C484.733 25.4402 479.944 26.9419 475.708 29.484C472.813 31.2212 470.207 33.4247 467.969 36.0256C466.831 37.3506 465.81 38.7345 464.946 40.143L462.586 43.9659L457.983 51.4302H443.53L437.337 63.9443L450.263 63.9393L448.408 66.9476L447.304 68.7389C444.688 72.9298 440.713 75.9185 436.105 77.1601C434.746 77.5232 433.381 77.7343 432.042 77.7784C431.811 77.7882 431.576 77.7882 431.345 77.7882C425.829 77.7882 420.686 75.5995 416.858 71.6245C413.035 67.6494 411.048 62.418 411.259 56.8873C411.651 46.6994 419.92 38.234 430.089 37.6205C431.615 37.5273 433.141 37.6058 434.623 37.8463C439.413 38.6315 443.731 41.4729 446.578 45.6737L453.129 34.0577C448.604 29.5281 442.804 26.5051 436.645 25.4991C434.23 25.1065 431.772 24.9789 429.338 25.131C412.824 26.1272 399.392 39.8633 398.759 56.4064C398.416 65.3674 401.645 73.8475 407.848 80.296C414.056 86.7444 422.403 90.2974 431.35 90.2974C431.723 90.2974 432.096 90.2925 432.469 90.2778C437.651 90.1011 442.765 88.5847 447.26 85.8807C450.15 84.1434 452.751 81.94 454.994 79.3341C456.098 78.0483 457.099 76.6841 457.973 75.2903L475.605 46.7092C478.221 42.4691 482.216 39.4461 486.858 38.1996C488.021 37.8855 489.199 37.6942 490.347 37.6205C491.118 37.5764 491.903 37.5715 492.674 37.6107C503.151 38.1407 511.695 47.1214 511.72 57.6332C511.734 63.0118 509.649 68.0763 505.85 71.8845C502.052 75.6928 496.997 77.7932 491.619 77.7932C490.284 77.7932 488.959 77.6606 487.668 77.4055C482.967 76.473 478.717 73.4549 476.018 69.1364L475.419 68.1794L468.691 80.1095C473.093 85.0121 478.923 88.4227 485.229 89.6741C487.324 90.0913 489.474 90.3023 491.619 90.3023C500.349 90.3023 508.549 86.8965 514.708 80.718C520.872 74.5395 524.253 66.3293 524.229 57.5989C524.18 40.2608 510.596 25.9947 493.297 25.1212Z" fill="url(#paint0_linear_996_3949)"/>
<path d="M2.01367 57.8296V57.6922C2.01367 43.8335 12.8052 32.4874 27.5669 32.4874C36.3415 32.4874 41.6317 34.8528 46.7159 39.1714L39.9632 47.3178C36.2041 44.1819 32.8621 42.376 27.2185 42.376C19.4205 42.376 13.2223 49.271 13.2223 57.5548V57.6922C13.2223 66.6042 19.3518 73.1508 27.984 73.1508C31.8855 73.1508 35.3649 72.1742 38.0787 70.2259V63.2573H28.5975L35.0753 53.9969H48.4531V75.1628C43.4377 79.4127 36.5476 82.8921 27.6356 82.8921C12.4568 82.897 2.01367 72.2429 2.01367 57.8296Z" fill="white"/>
<path d="M58.7637 33.3168H81.0436C87.2418 33.3168 92.0462 35.059 95.2508 38.2586C97.9646 40.9725 99.427 44.8052 99.427 49.3986V49.536C99.427 57.4027 95.1772 62.3494 88.9839 64.6461L100.889 82.053H88.3558L77.9126 66.457H69.4865V82.053H58.7637V33.3168ZM80.3517 56.9905C85.5732 56.9905 88.5668 54.203 88.5668 50.0955V49.9581C88.5668 45.3647 85.3622 42.9943 80.1406 42.9943H69.4865V56.9905H80.3517Z" fill="white"/>
<path d="M125.824 32.9684H135.712L156.603 82.0578H145.395L140.939 71.124H120.327L115.871 82.0578H104.938L125.824 32.9684ZM137.101 61.6575L130.623 45.8505L124.145 61.6575H137.101Z" fill="white"/>
<path d="M152.984 33.3168H164.821L177.566 67.6446L190.311 33.3168H201.868L182.164 82.4063H172.693L152.984 33.3168Z" fill="white"/>
<path d="M209.873 33.3168H220.596V82.0579H209.873V33.3168Z" fill="white"/>
<path d="M244.133 43.2054H229.303L236.316 33.3168H269.686V43.2054H254.856V82.0579H244.133V43.2054Z" fill="white"/>
<path d="M331.739 43.2054H316.908L323.921 33.3168H357.292V43.2054H342.461V82.0579H331.739V43.2054Z" fill="white"/>
<path d="M288.355 32.9684H298.244L319.135 82.0578H307.926L303.47 71.124H282.859L278.403 82.0578H267.469L288.355 32.9684ZM299.632 61.6575L293.154 45.8505L286.682 61.6575H299.632Z" fill="white"/>
<path d="M395.711 72.5226H376.165V62.2856H392.782C392.531 60.3226 392.433 58.3204 392.507 56.2985C392.551 55.1011 392.664 53.9135 392.831 52.7455H376.16V42.8569H395.785C397.429 39.3432 399.628 36.1337 402.273 33.3364V33.3168H365.506V82.0579H402.16C399.471 79.2017 397.306 75.9824 395.711 72.5226Z" fill="white"/>
<defs>
<linearGradient id="paint0_linear_996_3949" x1="404.975" y1="55.0683" x2="515.112" y2="52.0754" gradientUnits="userSpaceOnUse">
<stop stop-color="#FF9E18"/>
<stop offset="1" stop-color="#E1251B"/>
</linearGradient>
</defs>
</svg>
