<svg width="573" height="116" viewBox="0 0 573 116" fill="none" xmlns="http://www.w3.org/2000/svg">
<path d="M516.297 25.1212C515.065 25.0574 513.809 25.0623 512.567 25.1408C507.733 25.4402 502.944 26.9419 498.708 29.484C495.813 31.2212 493.207 33.4247 490.969 36.0256C489.831 37.3506 488.81 38.7345 487.946 40.143L485.586 43.9659L480.983 51.4302H466.53L460.337 63.9443L473.263 63.9393L471.408 66.9476L470.304 68.7389C467.688 72.9298 463.713 75.9185 459.105 77.1601C457.746 77.5232 456.381 77.7343 455.042 77.7784C454.811 77.7882 454.576 77.7882 454.345 77.7882C448.829 77.7882 443.686 75.5995 439.858 71.6245C436.035 67.6494 434.048 62.418 434.259 56.8873C434.651 46.6994 442.92 38.234 453.089 37.6205C454.615 37.5273 456.141 37.6058 457.623 37.8463C462.413 38.6315 466.731 41.4729 469.578 45.6737L476.129 34.0577C471.604 29.5281 465.804 26.5051 459.645 25.4991C457.23 25.1065 454.772 24.9789 452.338 25.131C435.824 26.1272 422.392 39.8633 421.759 56.4064C421.416 65.3674 424.645 73.8475 430.848 80.296C437.056 86.7444 445.403 90.2974 454.35 90.2974C454.723 90.2974 455.096 90.2925 455.469 90.2778C460.651 90.1011 465.765 88.5847 470.26 85.8807C473.15 84.1434 475.751 81.94 477.994 79.3341C479.098 78.0483 480.099 76.6841 480.973 75.2903L498.605 46.7092C501.221 42.4691 505.216 39.4461 509.858 38.1996C511.021 37.8855 512.199 37.6942 513.347 37.6205C514.118 37.5764 514.903 37.5715 515.674 37.6107C526.151 38.1407 534.695 47.1214 534.72 57.6332C534.734 63.0118 532.649 68.0763 528.85 71.8845C525.052 75.6928 519.997 77.7932 514.619 77.7932C513.284 77.7932 511.959 77.6607 510.668 77.4055C505.967 76.473 501.717 73.4549 499.018 69.1364L498.419 68.1794L491.691 80.1095C496.093 85.0121 501.923 88.4227 508.229 89.6741C510.324 90.0913 512.474 90.3023 514.619 90.3023C523.349 90.3023 531.549 86.8965 537.708 80.718C543.872 74.5395 547.253 66.3293 547.229 57.5989C547.18 40.2608 533.596 25.9947 516.297 25.1212Z" fill="url(#paint0_linear_996_3949)"/>
<path d="M25.0137 57.8296V57.6922C25.0137 43.8335 35.8052 32.4874 50.5669 32.4874C59.3415 32.4874 64.6317 34.8528 69.7159 39.1714L62.9632 47.3178C59.2041 44.1819 55.8621 42.376 50.2185 42.376C42.4205 42.376 36.2223 49.271 36.2223 57.5548V57.6922C36.2223 66.6042 42.3518 73.1508 50.984 73.1508C54.8855 73.1508 58.3649 72.1742 61.0787 70.2259V63.2573H51.5975L58.0753 53.9969H71.4531V75.1628C66.4377 79.4127 59.5476 82.8921 50.6356 82.8921C35.4568 82.897 25.0137 72.2429 25.0137 57.8296Z" fill="white"/>
<path d="M81.7637 33.3168H104.044C110.242 33.3168 115.046 35.059 118.251 38.2586C120.965 40.9725 122.427 44.8052 122.427 49.3986V49.536C122.427 57.4027 118.177 62.3494 111.984 64.6461L123.889 82.053H111.356L100.913 66.457H92.4865V82.053H81.7637V33.3168V33.3168ZM103.352 56.9905C108.573 56.9905 111.567 54.203 111.567 50.0955V49.9581C111.567 45.3647 108.362 42.9943 103.141 42.9943H92.4865V56.9905H103.352Z" fill="white"/>
<path d="M148.824 32.9684H158.712L179.603 82.0578H168.395L163.939 71.124H143.327L138.871 82.0578H127.938L148.824 32.9684ZM160.101 61.6575L153.623 45.8505L147.145 61.6575H160.101V61.6575Z" fill="white"/>
<path d="M175.984 33.3168H187.821L200.566 67.6446L213.311 33.3168H224.868L205.164 82.4063H195.693L175.984 33.3168Z" fill="white"/>
<path d="M232.873 33.3168H243.596V82.0579H232.873V33.3168Z" fill="white"/>
<path d="M267.133 43.2054H252.303L259.316 33.3168H292.686V43.2054H277.856V82.0579H267.133V43.2054V43.2054Z" fill="white"/>
<path d="M354.739 43.2054H339.908L346.921 33.3168H380.292V43.2054H365.461V82.0579H354.739V43.2054Z" fill="white"/>
<path d="M311.355 32.9684H321.244L342.135 82.0578H330.926L326.47 71.124H305.859L301.403 82.0578H290.469L311.355 32.9684ZM322.632 61.6575L316.154 45.8505L309.682 61.6575H322.632V61.6575Z" fill="white"/>
<path d="M418.711 72.5226H399.165V62.2856H415.782C415.531 60.3226 415.433 58.3204 415.507 56.2985C415.551 55.1011 415.664 53.9135 415.831 52.7455H399.16V42.8569H418.785C420.429 39.3432 422.628 36.1337 425.273 33.3364V33.3168H388.506V82.0579H425.16C422.471 79.2017 420.306 75.9824 418.711 72.5226Z" fill="white"/>
<defs>
<linearGradient id="paint0_linear_996_3949" x1="427.975" y1="55.0683" x2="538.112" y2="52.0754" gradientUnits="userSpaceOnUse">
<stop stop-color="#FF9E18"/>
<stop offset="1" stop-color="#E1251B"/>
</linearGradient>
</defs>
</svg>
