<svg width="390" height="180" viewBox="0 0 390 180" fill="none" xmlns="http://www.w3.org/2000/svg">
<path d="M12.4329 79.8125C17.605 79.8125 20.1927 76.533 20.196 69.974V44.724H25.3099V69.4252C25.3099 76.6428 22.8153 81.2843 17.8262 83.3498C16.0392 84.0659 14.1284 84.422 12.2034 84.3976C10.382 84.4468 8.57432 84.0692 6.92491 83.295C5.48588 82.5748 4.21832 81.554 3.20801 80.3015C1.06934 77.7271 0 74.5523 0 70.7772L4.98913 70.0738C4.90901 72.4425 5.56433 74.7779 6.86504 76.7592C7.44989 77.7061 8.27031 78.4852 9.24619 79.0204C10.2221 79.5555 11.32 79.8285 12.4329 79.8125V79.8125ZM95.7514 44.724H98.6501L115.588 83.8438H109.98L106.268 75.2824H86.6911L82.6998 83.8438H77.4363L95.7514 44.724ZM104.273 70.6375L100.78 62.4354C100.338 61.4043 99.904 60.335 99.4783 59.2274L98.3507 56.1042C97.8432 54.7536 97.4282 53.3701 97.1084 51.9632H96.7891C96.5376 53.0366 96.204 54.0891 95.7913 55.1114L94.3794 58.7035C93.9536 59.7379 93.493 60.7873 92.9974 61.8517L88.8813 70.6375H104.273ZM179.11 64.1167L163.903 44.724H170.628L182.452 59.8361L194.197 44.724H200.304L185.521 63.7326L201.296 83.8438H194.576L182.173 68.0432L169.9 83.8438H163.793L179.11 64.1167ZM263.157 131.809C261.23 130.064 259.68 127.943 258.602 125.578C257.52 123.298 256.953 120.807 256.94 118.284C256.901 116.137 257.156 113.995 257.699 111.918C258.181 110.16 258.912 108.48 259.869 106.928C260.801 105.414 261.934 104.033 263.236 102.822C264.55 101.605 266.018 100.565 267.602 99.7291C270.986 97.9548 274.757 97.0448 278.578 97.0799C282.267 97.0535 285.908 97.925 289.185 99.6194C292.294 101.205 294.926 103.588 296.813 106.524C298.745 109.592 299.751 113.152 299.712 116.777C299.712 122.731 297.613 127.658 293.416 131.56C290.729 134.045 287.444 135.791 283.881 136.629C281.755 137.12 279.578 137.353 277.396 137.322C272.144 137.232 267.096 135.278 263.152 131.809H263.157ZM266.943 105.995C265.467 107.388 264.296 109.072 263.504 110.941C262.712 112.81 262.317 114.822 262.343 116.852C262.329 118.99 262.762 121.108 263.616 123.068C264.882 125.974 266.978 128.441 269.64 130.161C272.303 131.881 275.414 132.777 278.583 132.737C282.7 132.83 286.687 131.287 289.669 128.447C291.161 127.077 292.344 125.405 293.14 123.543C293.936 121.681 294.326 119.67 294.284 117.645C294.292 114.84 293.55 112.083 292.136 109.659C290.723 107.236 288.688 105.234 286.241 103.86C283.958 102.475 281.344 101.73 278.673 101.705C276.378 101.653 274.095 102.043 271.948 102.852C270.095 103.573 268.397 104.64 266.943 105.995V105.995ZM354.922 97.6487H359.412L384.607 128.541V97.6437H389.152V136.768H384.871L359.477 105.656V136.768H354.922V97.6487ZM236.629 179.725L235.487 0.724854H233.491L234.634 179.725H236.629Z" fill="#FCFFF5"/>
</svg>
