<svg width="554" height="99" viewBox="0 0 554 99" fill="none" xmlns="http://www.w3.org/2000/svg">
<path d="M122.465 81.6504H115.639V32.839H122.583V38.9157C122.82 38.1002 123.478 37.1401 124.556 36.0352C125.635 34.9303 127.082 33.9701 128.897 33.1546C130.738 32.3128 132.843 31.8919 135.21 31.8919C138.209 31.8919 140.866 32.6154 143.181 34.0622C145.523 35.4828 147.351 37.482 148.666 40.0601C150.008 42.6118 150.679 45.6107 150.679 49.0568C150.679 52.5029 149.995 55.515 148.627 58.093C147.259 60.6448 145.391 62.6309 143.023 64.0514C140.682 65.472 137.999 66.1822 134.974 66.1822C132.527 66.1822 130.383 65.7219 128.542 64.8012C126.727 63.8804 125.293 62.8413 124.241 61.6839C123.215 60.5264 122.623 59.6057 122.465 58.9217V81.6504ZM143.892 49.0568C143.892 46.7156 143.405 44.69 142.432 42.9801C141.485 41.2701 140.222 39.9417 138.643 38.9947C137.065 38.0476 135.355 37.5741 133.514 37.5741C131.488 37.5741 129.647 38.0608 127.989 39.0341C126.332 39.9811 125.017 41.3228 124.043 43.059C123.07 44.7689 122.583 46.7682 122.583 49.0568C122.583 51.3455 123.07 53.3579 124.043 55.0941C125.017 56.804 126.332 58.1325 127.989 59.0795C129.647 60.0266 131.488 60.5001 133.514 60.5001C135.355 60.5001 137.065 60.0397 138.643 59.119C140.222 58.172 141.485 56.8435 142.432 55.1336C143.405 53.4237 143.892 51.3981 143.892 49.0568ZM164.579 65.2352H157.752V32.839H164.579V38.4422H164.382C164.513 37.7583 165 36.9033 165.842 35.8774C166.683 34.8514 167.841 33.9307 169.314 33.1152C170.787 32.2997 172.55 31.8919 174.602 31.8919C176.101 31.8919 177.416 32.1024 178.547 32.5233C179.705 32.9179 180.52 33.3125 180.994 33.7071L178.192 39.3892C177.824 39.021 177.18 38.6527 176.259 38.2844C175.338 37.8898 174.194 37.6925 172.826 37.6925C171.09 37.6925 169.603 38.2318 168.367 39.3103C167.131 40.3889 166.184 41.691 165.526 43.2168C164.895 44.7163 164.579 46.1105 164.579 47.3995V65.2352ZM186.172 65.2352V32.839H193.038V65.2352H186.172ZM189.684 21.7509C188.447 21.7509 187.382 21.3168 186.487 20.4487C185.619 19.5543 185.185 18.4889 185.185 17.2525C185.185 16.0161 185.619 14.9507 186.487 14.0563C187.382 13.1618 188.447 12.7146 189.684 12.7146C190.499 12.7146 191.249 12.9251 191.933 13.346C192.643 13.7669 193.209 14.3193 193.63 15.0033C194.051 15.6609 194.261 16.4107 194.261 17.2525C194.261 18.4889 193.814 19.5543 192.919 20.4487C192.025 21.3168 190.946 21.7509 189.684 21.7509ZM221.645 31.8919C223.776 31.8919 225.841 32.3391 227.84 33.2336C229.866 34.128 231.523 35.5485 232.812 37.4952C234.128 39.4156 234.785 41.9278 234.785 45.032V65.2352H227.84V46.3736C227.84 43.1642 227.091 40.8361 225.591 39.3892C224.092 37.9161 222.158 37.1795 219.791 37.1795C218.239 37.1795 216.739 37.6267 215.292 38.5211C213.872 39.3892 212.701 40.5993 211.78 42.1514C210.86 43.6772 210.399 45.4134 210.399 47.3601V65.2352H203.533V32.839H210.399V38.6001C210.636 37.7056 211.281 36.7323 212.333 35.6801C213.385 34.6278 214.727 33.7334 216.358 32.9968C217.989 32.2602 219.751 31.8919 221.645 31.8919ZM241.001 32.839H247.354V19.5411H254.181V32.839H262.507V38.7184H254.181V54.739C254.181 56.633 254.51 58.0273 255.167 58.9217C255.851 59.8161 256.759 60.2633 257.89 60.2633C258.89 60.2633 259.666 60.0792 260.218 59.7109C260.771 59.3426 261.099 59.0927 261.205 58.9612L263.927 64.012C263.77 64.1435 263.349 64.3934 262.665 64.7617C261.981 65.13 261.099 65.4588 260.021 65.7482C258.942 66.0376 257.68 66.1822 256.233 66.1822C253.707 66.1822 251.59 65.4194 249.88 63.8936C248.196 62.3415 247.354 59.895 247.354 56.5541V38.7184H241.001V32.839ZM283.582 31.8919C285.713 31.8919 287.66 32.0761 289.422 32.4444C291.185 32.7864 292.658 33.181 293.842 33.6282C295.052 34.0754 295.828 34.4437 296.17 34.733L292.264 41.7963C291.764 41.428 290.83 40.9545 289.462 40.3757C288.12 39.797 286.621 39.5076 284.964 39.5076C283.701 39.5076 282.635 39.7049 281.767 40.0995C280.899 40.4678 280.465 41.0597 280.465 41.8752C280.465 42.6907 280.939 43.3483 281.886 43.8482C282.859 44.3217 284.253 44.7426 286.068 45.1109C287.647 45.4265 289.251 45.9264 290.882 46.6103C292.513 47.2943 293.868 48.3071 294.947 49.6487C296.052 50.964 296.604 52.7266 296.604 54.9363C296.604 57.1986 296.117 59.0664 295.144 60.5395C294.171 62.0127 292.882 63.157 291.277 63.9725C289.672 64.788 287.936 65.3536 286.068 65.6693C284.201 66.0112 282.386 66.1822 280.623 66.1822C278.15 66.1822 275.993 65.9586 274.152 65.5114C272.337 65.0642 270.863 64.5512 269.732 63.9725C268.601 63.3938 267.812 62.9334 267.365 62.5914L271.232 54.6995C271.916 55.2783 273.034 55.9359 274.586 56.6725C276.138 57.3828 277.782 57.7379 279.518 57.7379C281.202 57.7379 282.504 57.488 283.425 56.9882C284.345 56.4884 284.806 55.8307 284.806 55.0152C284.806 54.3575 284.582 53.8314 284.135 53.4368C283.688 53.0422 283.056 52.7002 282.241 52.4109C281.425 52.1215 280.439 51.8584 279.281 51.6217C278.229 51.4112 277.111 51.0824 275.927 50.6352C274.744 50.188 273.626 49.5829 272.573 48.8201C271.521 48.0309 270.666 47.0444 270.008 45.8606C269.351 44.6768 269.022 43.2431 269.022 41.5595C269.022 39.4024 269.719 37.6136 271.113 36.193C272.508 34.7725 274.31 33.7071 276.519 32.9968C278.729 32.2602 281.083 31.8919 283.582 31.8919ZM299.67 32.839H305.195V19.5411H317.072V32.839H324.332V42.7038H317.072V51.7401C317.072 53.0817 317.269 54.1734 317.664 55.0152C318.058 55.8307 318.782 56.2384 319.834 56.2384C320.544 56.2384 321.149 56.0806 321.649 55.7649C322.149 55.4493 322.452 55.2388 322.557 55.1336L326.661 63.6568C326.476 63.8147 325.898 64.104 324.924 64.5249C323.977 64.9458 322.767 65.3273 321.294 65.6693C319.821 66.0112 318.177 66.1822 316.362 66.1822C313.126 66.1822 310.456 65.2747 308.351 63.4595C306.247 61.6181 305.195 58.7902 305.195 54.9757V42.7038H299.67V32.839ZM342.072 65.2352H330.076V32.839H342.072V37.8503H341.875C342.085 37.2453 342.598 36.4824 343.414 35.5617C344.229 34.6146 345.373 33.7728 346.847 33.0363C348.32 32.2734 350.122 31.8919 352.252 31.8919C353.752 31.8919 355.133 32.1287 356.396 32.6022C357.658 33.0494 358.579 33.4835 359.158 33.9044L354.502 43.6509C354.133 43.2037 353.476 42.7433 352.529 42.2698C351.608 41.77 350.45 41.5201 349.056 41.5201C347.452 41.5201 346.123 41.9278 345.071 42.7433C344.045 43.5588 343.282 44.5453 342.782 45.7028C342.309 46.8602 342.072 47.952 342.072 48.9779V65.2352ZM371.094 51.5822C371.173 52.7397 371.541 53.7657 372.199 54.6601C372.856 55.5545 373.764 56.2648 374.921 56.7909C376.105 57.2907 377.499 57.5406 379.104 57.5406C380.63 57.5406 381.998 57.3828 383.208 57.0671C384.444 56.7514 385.51 56.3568 386.404 55.8833C387.325 55.4098 388.035 54.9231 388.535 54.4233L393.191 61.8417C392.533 62.552 391.6 63.2491 390.389 63.933C389.206 64.5907 387.64 65.13 385.694 65.5509C383.747 65.9718 381.287 66.1822 378.315 66.1822C374.737 66.1822 371.554 65.5114 368.766 64.1698C365.977 62.8282 363.781 60.8552 362.176 58.2509C360.571 55.6466 359.769 52.4635 359.769 48.7017C359.769 45.5449 360.453 42.7038 361.821 40.1784C363.215 37.6267 365.227 35.6143 367.858 34.1411C370.489 32.6417 373.659 31.8919 377.368 31.8919C380.893 31.8919 383.944 32.5364 386.522 33.8255C389.127 35.1145 391.126 37.0348 392.52 39.5865C393.941 42.1119 394.651 45.2687 394.651 49.0568C394.651 49.2673 394.638 49.6882 394.612 50.3195C394.612 50.9509 394.585 51.3718 394.533 51.5822H371.094ZM383.366 45.3082C383.339 44.4664 383.116 43.6377 382.695 42.8222C382.274 41.9804 381.643 41.2965 380.801 40.7703C379.959 40.2179 378.88 39.9417 377.565 39.9417C376.25 39.9417 375.132 40.2047 374.211 40.7309C373.317 41.2307 372.633 41.8883 372.159 42.7038C371.686 43.5193 371.423 44.3874 371.37 45.3082H383.366ZM425.986 65.2352V59.9871C425.749 60.5132 425.144 61.2761 424.17 62.2757C423.223 63.2754 421.961 64.183 420.382 64.9985C418.804 65.7876 416.963 66.1822 414.858 66.1822C411.701 66.1822 408.939 65.4194 406.572 63.8936C404.204 62.3415 402.363 60.2765 401.047 57.6984C399.732 55.0941 399.074 52.2136 399.074 49.0568C399.074 45.9001 399.732 43.0327 401.047 40.4547C402.363 37.8503 404.204 35.7721 406.572 34.2201C408.939 32.668 411.701 31.8919 414.858 31.8919C416.884 31.8919 418.659 32.2208 420.185 32.8784C421.711 33.5098 422.947 34.2727 423.894 35.1671C424.841 36.0352 425.499 36.8375 425.867 37.5741V32.839H437.784V65.2352H425.986ZM410.833 49.0568C410.833 50.53 411.175 51.8584 411.859 53.0422C412.543 54.1997 413.451 55.1073 414.582 55.7649C415.739 56.4226 417.015 56.7514 418.409 56.7514C419.856 56.7514 421.132 56.4226 422.237 55.7649C423.342 55.1073 424.21 54.1997 424.841 53.0422C425.499 51.8584 425.828 50.53 425.828 49.0568C425.828 47.5837 425.499 46.2683 424.841 45.1109C424.21 43.9271 423.342 43.0064 422.237 42.3487C421.132 41.6647 419.856 41.3228 418.409 41.3228C417.015 41.3228 415.739 41.6647 414.582 42.3487C413.451 43.0064 412.543 43.9271 411.859 45.1109C411.175 46.2683 410.833 47.5837 410.833 49.0568ZM489.946 31.8919C492.392 31.8919 494.549 32.4049 496.417 33.4309C498.285 34.4305 499.745 35.9826 500.797 38.0871C501.876 40.1916 502.415 42.9011 502.415 46.2157V65.2352H490.617V48.0309C490.617 45.7685 490.275 43.9402 489.591 42.546C488.907 41.1518 487.552 40.4547 485.526 40.4547C484.316 40.4547 483.251 40.7703 482.33 41.4017C481.409 42.033 480.699 42.9143 480.199 44.0455C479.699 45.1503 479.45 46.4788 479.45 48.0309V65.2352H468.44V48.0309C468.44 45.7685 468.059 43.9402 467.296 42.546C466.559 41.1518 465.244 40.4547 463.35 40.4547C462.14 40.4547 461.075 40.7703 460.154 41.4017C459.233 42.0067 458.523 42.8748 458.023 44.006C457.55 45.1109 457.313 46.4525 457.313 48.0309V65.2352H445.396V32.839H457.313V37.4557C457.628 36.6402 458.312 35.8116 459.365 34.9698C460.443 34.1017 461.772 33.3782 463.35 32.7995C464.928 32.1945 466.599 31.8919 468.361 31.8919C470.282 31.8919 471.886 32.1813 473.175 32.7601C474.464 33.3125 475.517 34.0622 476.332 35.0092C477.174 35.9563 477.845 36.9822 478.345 38.0871C478.713 37.1401 479.436 36.193 480.515 35.246C481.62 34.2727 482.988 33.4703 484.619 32.839C486.276 32.2076 488.052 31.8919 489.946 31.8919Z" fill="#FF7171"/>
<path d="M73.4846 49.3216L68.7093 61.2529C68.6151 61.4855 68.4626 61.683 68.2699 61.8218C68.0772 61.9605 67.8526 62.0346 67.6229 62.0351C67.5389 62.0328 67.4551 62.024 67.3722 62.0086C67.1048 61.9448 66.8651 61.7809 66.6935 61.5444C66.5218 61.308 66.4284 61.0132 66.4291 60.7094V52.7552H62.8476C62.6485 52.7547 62.4526 52.699 62.2779 52.593C62.1031 52.487 61.955 52.3342 61.847 52.1484C61.739 51.9626 61.6746 51.7498 61.6596 51.5293C61.6446 51.3088 61.6796 51.0876 61.7612 50.886L66.5365 38.9547C66.6464 38.6765 66.8396 38.4492 67.0834 38.3114C67.3272 38.1736 67.6064 38.1339 67.8736 38.199C68.1411 38.2628 68.3807 38.4266 68.5524 38.6631C68.724 38.8996 68.8174 39.1944 68.8167 39.4982V47.4524H72.3982C72.5973 47.4529 72.7932 47.5086 72.968 47.6146C73.1427 47.7206 73.2908 47.8734 73.3988 48.0592C73.5068 48.245 73.5712 48.4578 73.5862 48.6783C73.6012 48.8988 73.5662 49.12 73.4846 49.3216V49.3216Z" fill="#FF7171"/>
<path d="M66.2172 23.4776H24.6411C23.8262 23.4837 23.0464 23.8101 22.4701 24.3863C21.8939 24.9626 21.5674 25.7424 21.5614 26.5573C21.5638 27.3734 21.8891 28.1553 22.4661 28.7323C23.0431 29.3094 23.8251 29.6346 24.6411 29.637C25.0495 29.637 25.4412 29.7993 25.73 30.0881C26.0187 30.3768 26.181 30.7685 26.181 31.1769C26.181 31.5853 26.0187 31.977 25.73 32.2657C25.4412 32.5545 25.0495 32.7168 24.6411 32.7168H15.402C14.5871 32.7228 13.8072 33.0492 13.231 33.6255C12.6547 34.2017 12.3283 34.9815 12.3223 35.7965C12.3247 36.6125 12.65 37.3944 13.227 37.9715C13.804 38.5485 14.5859 38.8737 15.402 38.8762H39.9781C40.2331 38.8547 40.4894 38.8972 40.7239 38.9997C40.9584 39.1022 41.1636 39.2616 41.3211 39.4633C41.4785 39.6651 41.5832 39.9029 41.6256 40.1553C41.668 40.4077 41.6469 40.6666 41.5641 40.9088C41.0441 42.3959 40.6576 43.9264 40.4092 45.4822C40.3457 45.8646 40.1414 46.2094 39.8365 46.4487C39.5316 46.6881 39.1481 46.8047 38.7616 46.7756C38.54 46.7511 38.3255 46.6831 38.1302 46.5754H27.7208C26.9059 46.5815 26.1261 46.9079 25.5498 47.4842C24.9736 48.0604 24.6472 48.8402 24.6411 49.6552C24.6435 50.4712 24.9688 51.2531 25.5458 51.8302C26.1229 52.4072 26.9048 52.7324 27.7208 52.7349H38.5152C38.5922 52.7195 38.6846 52.7041 38.777 52.6887C39.1563 52.6486 39.5368 52.7533 39.8422 52.9817C40.1477 53.2101 40.3557 53.5454 40.4246 53.9206C40.6715 55.4449 41.0529 56.9444 41.5641 58.4015C41.6748 58.7118 41.6838 59.0493 41.5896 59.3649C41.4955 59.6806 41.3031 59.9581 41.0406 60.157C40.8729 60.2827 40.6809 60.3722 40.4768 60.4199C40.2727 60.4676 40.0609 60.4725 39.8549 60.4341H15.402C14.5859 60.4366 13.804 60.7618 13.227 61.3389C12.65 61.9159 12.3247 62.6978 12.3223 63.5139C12.3283 64.3288 12.6547 65.1086 13.231 65.6849C13.8072 66.2611 14.5871 66.5875 15.402 66.5936H24.6411C25.0495 66.5936 25.4412 66.7558 25.73 67.0446C26.0187 67.3334 26.181 67.725 26.181 68.1334C26.181 68.5418 26.0187 68.9335 25.73 69.2223C25.4412 69.511 25.0495 69.6733 24.6411 69.6733C23.8251 69.6757 23.0431 70.001 22.4661 70.578C21.8891 71.155 21.5638 71.937 21.5614 72.753C21.5674 73.5679 21.8939 74.3477 22.4701 74.924C23.0464 75.5002 23.8262 75.8267 24.6411 75.8327H66.2172C73.1599 75.8327 79.8183 73.0747 84.7275 68.1655C89.6368 63.2562 92.3948 56.5979 92.3948 49.6552C92.3948 42.7124 89.6368 36.0541 84.7275 31.1448C79.8183 26.2356 73.1599 23.4776 66.2172 23.4776V23.4776ZM66.2172 69.6733C62.258 69.6733 58.3877 68.4992 55.0957 66.2996C51.8038 64.1 49.238 60.9736 47.7229 57.3158C46.2078 53.6579 45.8113 49.633 46.5837 45.7498C47.3561 41.8667 49.2627 38.2998 52.0623 35.5002C54.8618 32.7006 58.4287 30.7941 62.3119 30.0217C66.195 29.2493 70.22 29.6457 73.8778 31.1608C77.5356 32.676 80.662 35.2417 82.8617 38.5337C85.0613 41.8257 86.2353 45.696 86.2353 49.6552C86.2304 54.9628 84.1198 60.0516 80.3668 63.8047C76.6137 67.5578 71.5248 69.6684 66.2172 69.6733Z" fill="#FF7171"/>
<path d="M12.3215 52.7348C13.1383 52.7348 13.9217 52.4103 14.4992 51.8327C15.0768 51.2552 15.4012 50.4718 15.4012 49.6551C15.4012 48.8383 15.0768 48.0549 14.4992 47.4774C13.9217 46.8998 13.1383 46.5753 12.3215 46.5753H9.24182C8.42503 46.5753 7.64169 46.8998 7.06414 47.4774C6.48658 48.0549 6.16211 48.8383 6.16211 49.6551C6.16211 50.4718 6.48658 51.2552 7.06414 51.8327C7.64169 52.4103 8.42503 52.7348 9.24182 52.7348H12.3215Z" fill="#FF7171"/>
</svg>
