<svg width="430" height="134" viewBox="0 0 430 134" fill="none" xmlns="http://www.w3.org/2000/svg">
<g clip-path="url(#clip0_996_4065)">
<path d="M173.012 78.7614L159.356 58.1463H150.81V78.7614H138.035V13.9185H157.683C165.73 13.9185 171.97 15.8717 176.403 19.7783C180.837 23.6848 183.054 29.0147 183.056 35.7679C183.081 39.6548 182.222 43.4964 180.544 47.0026C178.886 50.4756 176.193 53.35 172.836 55.2311L187.902 78.7409L173.012 78.7614ZM150.81 45.8124H159.885C163.35 45.8124 165.876 44.7996 167.461 42.7738C169.046 40.748 169.839 38.5597 169.841 36.2087C169.822 33.816 169.114 31.4795 167.801 29.479C166.458 27.324 163.848 26.2464 159.973 26.2464H150.81V45.8124Z" fill="white"/>
<path d="M242.698 13.9185V26.2464H211.253V40.079H239.092V52.4216H211.247V66.4305H243.932V78.7732H198.473V13.9185H242.698Z" fill="white"/>
<path d="M289.214 66.075H267.717L262.427 78.7614H249.832L279.081 11.3647H279.786L309.036 78.7614H294.236L289.214 66.075ZM284.985 55.3398L278.731 39.5677L272.21 55.3398H284.985Z" fill="white"/>
<path d="M354.851 77.439C351.101 78.8206 347.13 79.5077 343.134 79.4667C336.377 79.4667 330.499 77.9973 325.502 75.0586C320.642 72.2661 316.67 68.1591 314.041 63.2097C311.396 58.2472 310.074 52.7997 310.076 46.8674C310.076 40.3474 311.398 34.5326 314.041 29.4232C316.535 24.4721 320.384 20.3313 325.14 17.4831C329.899 14.6365 335.39 13.2122 341.615 13.2102C345.316 13.176 349.002 13.7112 352.541 14.7971C355.636 15.7392 358.598 17.0714 361.357 18.7615L356.338 30.8308C351.698 27.3044 346.941 25.5411 342.064 25.5411C338.782 25.5391 335.569 26.4873 332.813 28.2712C329.915 30.1138 327.547 32.6792 325.942 35.715C324.222 38.9236 323.342 42.5157 323.386 46.1563C323.386 50.3253 324.179 53.9811 325.766 57.1236C327.271 60.1757 329.626 62.7272 332.549 64.4704C335.487 66.2336 338.924 67.1153 342.858 67.1153C345.779 67.161 348.682 66.6369 351.403 65.5724C353.929 64.5458 355.925 63.3272 357.393 61.9166L362.682 73.3777C361.042 74.7354 358.432 76.0891 354.851 77.439Z" fill="white"/>
<path d="M429.999 78.7614H417.224V52.4187H388.239V78.7614H375.465V13.9185H388.239V40.0731H417.224V13.9185H429.999V78.7614Z" fill="white"/>
<path d="M146.576 90.8337V92.8438H142.376V106.474H140.278V92.8438H136.188V90.8337H146.576Z" fill="white"/>
<path d="M167.953 106.474H165.855V99.6176H157.653V106.474H155.555V90.8337H157.653V97.5928H165.855V90.8337H167.953V106.474Z" fill="white"/>
<path d="M188.251 90.8337V92.8438H180.181V97.6045H187.387V99.6176H180.181V104.443H188.554V106.474H178.086V90.8337H188.251Z" fill="white"/>
<path d="M206.451 106.474L202.772 100.699C202.599 100.717 202.426 100.725 202.252 100.722H199.936V106.474H197.838V90.8337H202.014C202.995 90.8156 203.969 91.0069 204.87 91.395C205.674 91.7431 206.358 92.3181 206.839 93.0495C207.332 93.8365 207.58 94.7516 207.553 95.6796C207.564 96.6061 207.344 97.5208 206.916 98.3421C206.484 99.1553 205.794 99.8023 204.955 100.182L208.896 106.474H206.451ZM204.644 97.7984C205.132 97.2326 205.397 96.5088 205.39 95.7619C205.388 95.2907 205.28 94.826 205.076 94.4013C204.857 93.9415 204.512 93.5539 204.08 93.2846C203.562 92.9722 202.965 92.818 202.361 92.8408H199.936V98.6859H202.208C203.334 98.6879 204.146 98.393 204.644 97.8014V97.7984Z" fill="white"/>
<path d="M225.947 102.359H219.931L218.265 106.474H216.188L223.026 90.1813H223.155L229.994 106.474H227.569L225.947 102.359ZM225.233 100.543L223.002 94.8304L220.698 100.549L225.233 100.543Z" fill="white"/>
<path d="M246.729 92.1091C247.687 92.9614 248.167 94.1515 248.169 95.6797C248.176 96.5307 247.995 97.3728 247.637 98.1453C247.271 98.9258 246.676 99.5759 245.93 100.008C245.022 100.515 243.992 100.762 242.953 100.723H240.637V106.474H238.539V90.8337H242.738C244.441 90.8337 245.771 91.2589 246.729 92.1091ZM244.796 98.2129C245.234 97.9301 245.584 97.5286 245.804 97.055C245.993 96.6365 246.093 96.1831 246.097 95.7238C246.103 94.9892 245.841 94.2777 245.36 93.7225C244.872 93.1347 244.105 92.8409 243.068 92.8409H240.643V98.686H242.959C243.605 98.7177 244.245 98.5527 244.796 98.2129V98.2129Z" fill="white"/>
<path d="M268.662 90.8337L262.785 101.263V106.474H260.687V101.263L254.889 90.8337H257.484L261.789 98.8829L266.073 90.8337H268.662Z" fill="white"/>
<path d="M295.903 92.8878C295.322 92.704 294.717 92.605 294.107 92.594C293.386 92.5595 292.673 92.7663 292.082 93.1817C291.84 93.3723 291.645 93.6179 291.516 93.8983C291.387 94.1787 291.326 94.4858 291.338 94.7944C291.351 95.1029 291.437 95.4041 291.589 95.6729C291.74 95.9418 291.954 96.1707 292.212 96.3408C292.993 96.8475 293.833 97.2579 294.713 97.5634C295.428 97.8064 296.118 98.1215 296.77 98.5037C297.338 98.8548 297.812 99.3377 298.154 99.9114C298.546 100.605 298.738 101.395 298.706 102.192C298.716 102.993 298.498 103.781 298.078 104.463C297.646 105.155 297.027 105.71 296.294 106.065C295.448 106.473 294.517 106.674 293.578 106.653C292.628 106.655 291.685 106.498 290.787 106.189C289.952 105.907 289.161 105.512 288.436 105.013L289.367 103.347C289.956 103.78 290.604 104.126 291.292 104.372C291.96 104.639 292.671 104.782 293.39 104.796C294.172 104.811 294.94 104.585 295.588 104.146C295.897 103.933 296.145 103.644 296.31 103.307C296.475 102.969 296.55 102.596 296.529 102.221C296.541 101.892 296.476 101.565 296.339 101.266C296.201 100.967 295.996 100.704 295.738 100.499C295.063 99.9926 294.316 99.5886 293.522 99.3001C292.769 99.0246 292.034 98.6986 291.324 98.3245C290.734 98.0023 290.221 97.5561 289.82 97.0168C289.386 96.4086 289.166 95.6738 289.194 94.9273C289.174 94.3672 289.28 93.8097 289.502 93.2954C289.725 92.781 290.059 92.3226 290.481 91.9533C291.339 91.1951 292.454 90.7945 293.825 90.7514C295.477 90.7407 297.101 91.1741 298.527 92.0062L297.728 93.6313C297.148 93.319 296.536 93.0697 295.903 92.8878V92.8878Z" fill="white"/>
<path d="M317.995 90.8337V92.8438H309.922V97.6045H317.128V99.6176H309.922V104.443H318.298V106.474H307.824V90.8337H317.995Z" fill="white"/>
<path d="M336.191 106.474L332.511 100.696C332.339 100.714 332.167 100.722 331.994 100.72H329.678V106.474H327.58V90.8337H331.756C332.737 90.8156 333.711 91.0069 334.612 91.395C335.415 91.744 336.099 92.3188 336.581 93.0495C337.074 93.8365 337.322 94.7516 337.296 95.6796C337.305 96.6064 337.085 97.521 336.655 98.3421C336.224 99.1551 335.536 99.8021 334.698 100.182L338.636 106.477L336.191 106.474ZM334.383 97.7984C334.872 97.2333 335.137 96.509 335.13 95.7619C335.128 95.2909 335.021 94.8262 334.818 94.4013C334.598 93.9427 334.252 93.5557 333.822 93.2846C333.303 92.9725 332.705 92.8183 332.1 92.8408H329.678V98.6859H331.95C333.078 98.6879 333.891 98.393 334.386 97.8014L334.383 97.7984Z" fill="white"/>
<path d="M359.369 90.8337L352.466 107.214L345.562 90.8337H348.052L352.554 102.107L356.903 90.8337H359.369Z" fill="white"/>
<path d="M370.208 90.8337V106.474H368.109V90.8337H370.208Z" fill="white"/>
<path d="M389.909 106.23C389.1 106.516 388.247 106.658 387.388 106.65C385.909 106.681 384.448 106.315 383.159 105.589C381.973 104.918 380.999 103.929 380.347 102.733C379.685 101.519 379.346 100.156 379.362 98.7741C379.34 97.3248 379.682 95.8931 380.356 94.6099C380.99 93.4069 381.945 92.403 383.115 91.7094C384.325 91.0007 385.707 90.6378 387.109 90.6603C387.943 90.6534 388.774 90.7703 389.574 91.0071C390.297 91.2181 390.989 91.5234 391.632 91.9151L390.785 93.8841C389.732 93.1235 388.472 92.7012 387.173 92.6733C386.182 92.6669 385.209 92.9443 384.37 93.4727C383.509 94.0085 382.8 94.7575 382.313 95.6473C381.798 96.5691 381.532 97.6095 381.543 98.6654C381.527 99.7243 381.769 100.771 382.248 101.716C382.698 102.606 383.396 103.348 384.258 103.849C385.297 104.417 386.476 104.679 387.658 104.604C388.84 104.529 389.976 104.121 390.935 103.426L391.817 105.31C391.218 105.688 390.578 105.996 389.909 106.23V106.23Z" fill="white"/>
<path d="M411.149 90.8337V92.8438H403.08V97.6045H410.285V99.6176H403.08V104.443H411.452V106.474H400.979V90.8337H411.149Z" fill="white"/>
<path d="M427.032 92.8878C426.45 92.704 425.846 92.605 425.236 92.594C424.515 92.5595 423.802 92.7663 423.211 93.1817C422.968 93.3723 422.774 93.6179 422.645 93.8983C422.515 94.1787 422.455 94.4858 422.467 94.7944C422.48 95.1029 422.566 95.4041 422.718 95.6729C422.869 95.9418 423.083 96.1707 423.341 96.3408C424.122 96.8475 424.962 97.2579 425.842 97.5634C426.557 97.8064 427.247 98.1215 427.899 98.5037C428.467 98.8548 428.941 99.3377 429.283 99.9114C429.675 100.605 429.867 101.395 429.835 102.192C429.845 102.993 429.627 103.781 429.206 104.463C428.775 105.155 428.156 105.71 427.423 106.065C426.577 106.473 425.646 106.674 424.707 106.653C423.757 106.655 422.814 106.498 421.915 106.189C421.081 105.907 420.29 105.512 419.564 105.013L420.496 103.347C421.085 103.78 421.733 104.126 422.421 104.372C423.089 104.639 423.8 104.782 424.519 104.796C425.301 104.811 426.069 104.585 426.717 104.146C427.026 103.933 427.274 103.644 427.439 103.307C427.604 102.969 427.679 102.596 427.658 102.221C427.67 101.892 427.605 101.565 427.468 101.266C427.33 100.967 427.125 100.704 426.867 100.499C426.191 99.9921 425.443 99.588 424.648 99.3001C423.896 99.024 423.163 98.6981 422.453 98.3245C421.863 98.0023 421.35 97.5561 420.949 97.0168C420.515 96.4086 420.295 95.6738 420.323 94.9273C420.303 94.3672 420.409 93.8097 420.631 93.2954C420.854 92.781 421.188 92.3226 421.61 91.9533C422.468 91.1951 423.583 90.7945 424.954 90.7514C426.606 90.7407 428.23 91.1741 429.656 92.0062L428.857 93.6313C428.276 93.3195 427.665 93.0703 427.032 92.8878V92.8878Z" fill="white"/>
<path opacity="0.44" d="M120.621 38.2011C120.826 38.8124 120.403 39.2091 120.139 39.6705C119.654 39.8703 119.824 39.3766 119.677 39.2179C119.619 38.924 119.545 38.6302 119.486 38.3363C119.86 38.2952 120.236 38.2423 120.621 38.2011Z" fill="white"/>
<path d="M36.3674 105.806C36.244 106.882 36.1176 107.994 35.9883 109.142H38.498C38.0636 108.175 37.5224 107.259 36.8846 106.412C36.7171 106.2 36.5437 105.997 36.3674 105.806Z" fill="white"/>
<path d="M38.038 101.478C38.4523 100.155 38.9196 98.8329 38.3466 97.4311C37.991 96.5237 37.7425 95.5779 37.606 94.6129C37.4209 96.3761 37.1417 98.9034 36.8008 101.93L37.0535 102.004C37.1521 102.044 37.2586 102.063 37.3651 102.058C37.4717 102.052 37.5758 102.023 37.6699 101.973C37.764 101.923 37.8458 101.852 37.9095 101.767C37.9731 101.681 38.017 101.582 38.038 101.478Z" fill="white"/>
<path d="M71.9193 101.675C71.5513 100.852 71.0919 100.073 70.5498 99.353C69.7152 98.2775 68.6837 97.5163 67.3936 97.2636C67.3936 100.984 67.376 104.978 67.3672 109.142H72.363C72.363 105.933 72.3336 103.814 72.316 103.4C72.2964 102.804 72.1617 102.219 71.9193 101.675V101.675Z" fill="white"/>
<path d="M81.5172 85.0503C81.4585 85.4147 81.3879 85.7791 81.3086 86.1376C80.9148 87.8773 80.4946 89.6141 80.0861 91.3509C80.0258 91.4978 80.0016 91.657 80.0156 91.8152C80.0761 92.0891 80.2137 92.34 80.4123 92.5381C80.5181 92.6175 80.9148 92.4529 81.0617 92.2913C81.9434 91.3156 82.825 90.3194 83.6801 89.329C83.5041 88.7252 83.2554 88.145 82.9396 87.6011C82.4557 86.7586 81.9816 85.9084 81.5172 85.0503Z" fill="white"/>
<path d="M83.5236 93.0113C82.8418 93.984 82.5802 95.1066 82.2893 96.2439C81.825 98.0512 81.2196 99.832 80.5819 101.589C80.2325 102.517 80.1115 103.515 80.2293 104.499C80.2969 105.034 80.4438 106.694 80.6495 109.139H85.6159C84.8725 101.419 84.2847 95.1124 84.0525 92.2971C83.8703 92.5322 83.6911 92.7703 83.5236 93.0113Z" fill="white"/>
<path d="M48.8126 109.077C48.8126 109.098 48.8126 109.118 48.7891 109.142H50.2143C50.3672 107.164 50.5082 105.23 50.6669 103.353C50.1409 105.298 49.4944 107.191 48.8126 109.077Z" fill="white"/>
<path d="M61.3224 0.385635C27.4536 0.385635 2.48223e-05 27.8392 2.48223e-05 61.708C-0.00815066 70.7856 2.00328 79.7513 5.88856 87.9554C9.77383 96.1595 15.4356 103.397 22.4636 109.142H26.5573C28.5321 98.8564 30.1513 90.3988 30.2836 89.5171C30.3789 88.9315 30.3619 88.3332 30.2336 87.7539C30.029 86.8755 29.7264 86.0228 29.3314 85.2119C28.5615 83.6867 27.3889 82.5876 25.6286 82.2732C25.4879 82.269 25.3493 82.2381 25.2202 82.1821C24.9057 81.9587 24.3914 81.7207 24.3679 81.4533C24.3711 81.2423 24.4213 81.0347 24.5149 80.8456C24.6084 80.6565 24.7429 80.4907 24.9087 80.3601C25.3294 80.1178 25.8108 80.0015 26.2957 80.0251C27.3919 80.0251 28.3293 80.5599 29.2345 81.1124C29.5283 81.2946 29.8545 81.4474 30.169 81.6061C30.2441 81.6553 30.3291 81.6874 30.4181 81.7C30.507 81.7126 30.5976 81.7055 30.6835 81.6791C30.7693 81.6527 30.8483 81.6078 30.9148 81.5474C30.9813 81.487 31.0337 81.4128 31.0682 81.3299C31.6207 80.3042 32.2114 79.2933 31.9704 78.0385C31.6148 76.2047 31.894 74.3768 32.1026 72.5519C32.1908 71.7819 32.2878 71.0091 32.4318 70.245C32.4658 69.9977 32.5603 69.7627 32.7069 69.5607C32.8535 69.3587 33.0477 69.1961 33.2723 69.0871C33.9511 68.7697 34.4477 69.0577 34.4771 69.8012C34.53 71.3 34.5653 72.7987 34.6064 74.2945C34.6436 75.1679 34.8576 76.0247 35.2353 76.813C35.5057 76.1636 35.732 75.6522 35.9318 75.1321C36.3373 74.08 36.7311 73.0221 37.1073 71.9641C37.2366 71.6174 37.3218 71.253 37.4717 70.915C37.63 70.5028 37.832 70.1088 38.0741 69.7395C38.4591 69.1988 38.9851 69.0577 39.4612 69.2811C39.8579 69.4662 40.0725 70.0422 39.9079 70.63C39.5935 71.732 39.2261 72.8222 38.9205 73.9272C38.5722 75.1422 38.2906 76.3754 38.0771 77.6212C38.4268 77.0334 38.7824 76.4604 39.1203 75.8726C39.8286 74.6296 40.528 73.3777 41.2391 72.1375C41.3463 71.954 41.4767 71.7851 41.6271 71.635C41.7721 71.4891 41.9624 71.3966 42.1668 71.3726C42.3711 71.3486 42.5776 71.3944 42.7526 71.5028C42.9179 71.5784 43.0467 71.7162 43.111 71.8862C43.1754 72.0562 43.1701 72.2447 43.0964 72.4108C42.8907 73.0485 42.6556 73.6774 42.3882 74.2916C41.6682 75.9226 40.9188 77.5448 40.193 79.1728C40.1283 79.3198 40.0166 79.4667 40.0343 79.6166C40.041 79.8966 40.1277 80.1688 40.2841 80.4012C40.3752 80.4982 40.7954 80.4012 40.9717 80.2837C42.2442 79.3345 43.4873 78.3441 44.7509 77.3773C45.1023 77.1103 45.4683 76.8631 45.8471 76.6367C46.1409 76.4692 46.4583 76.2077 46.7581 76.5309C46.9067 76.6854 46.9986 76.8857 47.0189 77.0992C47.0392 77.3126 46.9866 77.5267 46.8697 77.7064C46.2525 78.7404 45.4424 79.6463 44.4835 80.3748C44.0574 80.7186 43.643 81.0771 43.2492 81.4562C42.3941 82.282 41.9268 83.3341 41.4213 84.3949C40.8747 85.6086 40.2312 86.7841 39.5611 87.9596C39.905 89.4642 40.237 90.9718 40.575 92.4794C40.8176 93.4897 41.2625 94.4404 41.8827 95.2741C42.0502 94.4571 42.1972 93.8047 42.3118 93.1582C42.5469 91.8358 42.7643 90.5134 42.9818 89.1909C43.0523 88.7531 43.0729 88.3093 43.1669 87.8803C43.2623 87.366 43.41 86.8628 43.6078 86.3786C43.934 85.6615 44.5158 85.3765 45.1212 85.5293C45.6267 85.6557 46.0028 86.2816 45.9499 86.9987C45.8324 88.3593 45.656 89.7111 45.5444 91.0717C45.4134 92.5696 45.3653 94.0736 45.4004 95.5768C45.6737 94.8157 45.9587 94.0604 46.2173 93.2963C46.7669 91.6859 47.2959 90.0637 47.8454 88.4563C47.9287 88.2184 48.0423 87.9922 48.1834 87.7833C48.4949 87.3102 48.9709 87.2514 49.4705 87.3748C49.6801 87.4251 49.8613 87.5561 49.9747 87.7394C50.0881 87.9227 50.1245 88.1434 50.0759 88.3534C49.9828 89.1435 49.8484 89.9283 49.6733 90.7044C49.206 92.7615 48.7064 94.8362 48.2216 96.9022C48.1491 97.0768 48.1199 97.2663 48.1363 97.4546C48.209 97.7793 48.372 98.0768 48.6065 98.3127C48.7329 98.4068 49.1943 98.2128 49.3823 98.0189C50.0132 97.3195 50.6382 96.6151 51.2573 95.9059C52.1389 84.918 52.8089 76.8865 53.0205 75.1703C53.2358 73.3694 53.015 71.5431 52.3769 69.8453C51.2014 66.6127 50.1023 63.3801 49.253 60.0623C48.7153 57.9758 48.2421 55.9216 46.9932 54.1408C46.4201 53.3238 45.8177 52.5333 45.1565 51.7692C43.7224 50.0765 42.5116 48.2575 41.8004 46.1386C41.6528 45.7739 41.6331 45.3699 41.7446 44.9925C41.8562 44.6152 42.0924 44.2868 42.4146 44.061C43.067 43.5849 43.5695 44.1756 44.0104 44.5723C44.615 45.1098 45.188 45.6819 45.7266 46.2856C47.6544 48.4602 49.5469 50.6731 51.4982 52.8272C51.7686 53.121 52.4945 53.4149 52.6914 53.2768C53.0616 53.0064 53.2556 52.4363 53.4113 51.9544C53.4936 51.7105 53.3496 51.3872 53.285 51.1021C52.5385 47.9224 51.7686 44.7486 51.0486 41.563C50.7797 40.3668 50.5737 39.1574 50.4315 37.9396C50.3521 37.2607 50.596 36.6201 51.363 36.4291C52.1301 36.2381 52.8618 36.3321 53.3437 37.0609C53.5605 37.3832 53.7353 37.7318 53.8639 38.0983C54.7073 40.5756 55.5243 43.0647 56.3677 45.545C56.7674 46.7205 57.2052 47.896 57.6255 49.0538C57.678 46.7407 57.6045 44.4265 57.4051 42.1214C57.2376 40.029 56.9584 37.9455 56.7821 35.8531C56.688 34.7423 57.2787 33.796 58.0545 33.5873C58.989 33.3493 59.8853 33.7901 60.3879 34.8951C60.6899 35.6402 60.9154 36.4141 61.0608 37.2049C61.2078 37.8661 61.2372 38.5508 61.3547 39.2209C61.6868 41.2574 62.0247 43.2939 62.3833 45.3275C62.5625 46.3326 62.7888 47.3259 63.0474 48.5866C64.0011 47.3026 64.6858 45.8392 65.0604 44.2843C65.6482 41.6071 66.2359 38.9299 66.8589 36.2586C67.1528 34.9303 68.1637 34.5865 69.2746 35.3947C69.6402 35.6687 69.9325 36.0289 70.1253 36.4431C70.318 36.8574 70.4054 37.3129 70.3795 37.7691C70.3795 39.1885 70.2767 40.6109 70.165 42.0274C69.9035 45.3775 69.7653 48.757 68.487 51.9309C67.6054 54.0996 68.3224 56.1244 68.9601 58.158C69.1864 58.8868 69.7213 59.1807 70.4765 58.9691C71.0966 58.7928 71.7255 58.6253 72.3308 58.4049C74.1675 57.7378 76.0336 57.1177 78.0055 57.4821C78.8519 57.6379 79.8011 57.9876 80.3829 58.5694C80.635 58.8615 80.8186 59.2063 80.9203 59.5785C81.022 59.9507 81.0392 60.3409 80.9707 60.7206C80.8385 61.1937 79.8334 61.4406 79.1898 61.7344C78.937 61.7918 78.6754 61.7988 78.4199 61.755C75.1461 61.7109 72.66 63.2743 70.7439 65.7458C69.752 67.0646 68.9103 68.4899 68.2343 69.9952C67.8014 70.9931 67.562 72.0641 67.529 73.1514C67.479 74.3269 67.4379 82.8962 67.4055 94.7833C68.1911 94.8491 68.9616 95.0375 69.6889 95.3417C70.021 95.4622 70.3619 95.5533 70.7028 95.6356C70.7857 95.6699 70.8751 95.6854 70.9647 95.6811C71.0543 95.6768 71.1419 95.6527 71.2211 95.6105C71.3003 95.5684 71.3692 95.5093 71.4229 95.4374C71.4765 95.3655 71.5136 95.2827 71.5315 95.1948C71.8783 94.0839 72.2633 92.976 71.7872 91.7917C71.0907 90.0579 71.0143 88.2123 70.8703 86.3786C70.8115 85.6057 70.7586 84.8299 70.7557 84.054C70.7414 83.8047 70.7888 83.5556 70.8939 83.329C70.999 83.1024 71.1585 82.9053 71.3581 82.7551C71.9635 82.3143 72.5101 82.5024 72.6776 83.2283C73.0156 84.6976 73.333 86.1523 73.6621 87.6128C73.8658 88.4627 74.2397 89.2625 74.7612 89.9638C74.9022 89.2762 75.0257 88.7325 75.1226 88.183C75.3195 87.0721 75.5047 85.9583 75.6869 84.8475C75.7456 84.4802 75.7633 84.1069 75.8426 83.7455C75.9207 83.3123 76.0449 82.8887 76.2129 82.4818C76.4862 81.8941 76.974 81.6384 77.4854 81.7677C77.9085 81.8735 78.2318 82.3995 78.1818 83.0079C78.0849 84.1481 77.9321 85.2883 77.841 86.4315C77.7311 87.691 77.6909 88.9556 77.7205 90.2195C77.9497 89.5818 78.1907 88.9441 78.4081 88.3035C78.8695 86.9458 79.3133 85.5881 79.7746 84.2333C79.8486 84.0328 79.9473 83.8422 80.0685 83.6661C80.1296 83.5684 80.2107 83.4846 80.3064 83.4203C80.4021 83.356 80.5103 83.3126 80.6239 83.2929C80.3565 82.7581 80.0979 82.2232 79.851 81.6796C79.2633 80.4071 78.7402 79.1464 77.7381 78.1531C77.2797 77.6947 76.7948 77.2715 76.2952 76.8424C75.1694 75.9528 74.2246 74.8554 73.5122 73.6098C73.3767 73.393 73.3187 73.1367 73.3475 72.8827C73.3763 72.6287 73.4903 72.3919 73.6709 72.211C74.0353 71.8319 74.4232 72.1522 74.7494 72.3579C75.1922 72.635 75.6181 72.9383 76.0248 73.266C77.4942 74.4415 78.9635 75.6434 80.4594 76.7925C80.6651 76.9512 81.1617 77.0599 81.2704 76.9453C81.4622 76.6734 81.5714 76.352 81.5849 76.0196C81.6084 75.8521 81.4791 75.6611 81.4056 75.4877C80.571 73.5364 79.7188 71.5939 78.8989 69.6367C78.5936 68.9004 78.3258 68.1491 78.0966 67.3856C78.0543 67.2874 78.0318 67.1818 78.0304 67.0749C78.0289 66.968 78.0485 66.8618 78.0881 66.7625C78.1276 66.6631 78.1864 66.5726 78.261 66.496C78.3356 66.4193 78.4245 66.3582 78.5227 66.3159C78.99 66.1073 79.469 66.0838 79.8599 66.4981C80.0343 66.6793 80.1854 66.8817 80.3095 67.1006C81.1294 68.5905 81.9317 70.0922 82.7516 71.585C83.1395 72.2903 83.5509 72.9868 83.9535 73.6862C83.7255 72.2013 83.4175 70.7298 83.0307 69.2781C82.6869 67.9587 82.2725 66.6568 81.9228 65.3373C81.7377 64.6379 82.0081 63.9561 82.4841 63.7445C83.0542 63.4889 83.6773 63.6681 84.121 64.3176C84.4004 64.7594 84.6329 65.2292 84.8145 65.7194C84.982 66.1249 85.079 66.5628 85.226 66.9771C85.6697 68.2437 86.1076 69.5074 86.5719 70.7681C86.8011 71.3911 87.0597 72.0023 87.3654 72.7782C87.827 71.8532 88.0978 70.8448 88.1618 69.813C88.244 68.0351 88.3146 66.2542 88.4086 64.4763C88.4556 63.5947 89.0551 63.2596 89.8545 63.6505C90.12 63.7825 90.3487 63.9783 90.52 64.2203C90.6913 64.4624 90.7999 64.7432 90.836 65.0376C90.9917 65.9456 91.0917 66.8655 91.1798 67.7853C91.3914 69.9599 91.6823 72.1375 91.2239 74.3122C90.9124 75.7992 91.5912 77.0129 92.2289 78.2442C92.2682 78.3432 92.3289 78.4323 92.4065 78.5053C92.4841 78.5783 92.5768 78.6332 92.6781 78.6663C92.7793 78.6994 92.8866 78.7098 92.9924 78.6968C93.0981 78.6838 93.1996 78.6476 93.2898 78.591C93.6689 78.4088 94.051 78.2295 94.4124 78.0208C95.5144 77.3861 96.637 76.7807 97.9389 76.7895C98.5161 76.7732 99.0861 76.9221 99.5816 77.2186C99.7754 77.377 99.9315 77.5765 100.039 77.8027C100.146 78.0289 100.202 78.276 100.202 78.5263C100.169 78.8437 99.5522 79.1141 99.1761 79.3756C99.0209 79.4417 98.854 79.4757 98.6853 79.4755C96.5841 79.8194 95.1589 81.0977 94.2243 82.8962C93.7378 83.853 93.3603 84.8614 93.0988 85.9025C92.935 86.5897 92.9031 87.3017 93.0048 88.0008C93.137 88.9852 94.6798 97.9248 96.6341 109.136H100.178C107.207 103.391 112.869 96.1541 116.754 87.9499C120.639 79.7457 122.651 70.7798 122.642 61.7021C122.642 27.8392 95.1882 0.385635 61.3224 0.385635ZM21.1148 25.3942L21.3469 26.652L22.6047 26.8841L21.3469 27.128L21.1148 28.3858L20.8855 27.128L19.6278 26.8988L20.8855 26.6666L21.1148 25.3942ZM17.0446 31.1717L17.4355 33.2993L19.5631 33.6873L17.4355 34.0752L17.0446 36.2057L16.6538 34.0781L14.5261 33.6902L16.6567 33.2993L17.0446 31.1717ZM17.4972 65.8487L16.9535 65.8663C16.868 65.8718 16.7875 65.9083 16.7269 65.9688C16.6664 66.0294 16.6299 66.1099 16.6244 66.1954L16.6068 66.7391L16.5862 66.1954C16.582 66.11 16.5463 66.0291 16.4861 65.9684C16.4259 65.9076 16.3454 65.8713 16.26 65.8663L15.7163 65.8487L16.26 65.8281C16.3456 65.8238 16.4265 65.7876 16.4869 65.7267C16.5472 65.6658 16.5826 65.5846 16.5862 65.4989L16.6068 64.9582L16.6244 65.4989C16.6293 65.5846 16.6655 65.6655 16.7262 65.7262C16.7869 65.7869 16.8678 65.8232 16.9535 65.8281L17.4972 65.8487ZM7.32333 59.0073L7.3439 58.4636L7.36153 59.0073C7.36644 59.093 7.40269 59.1739 7.46338 59.2346C7.52408 59.2953 7.60497 59.3315 7.69067 59.3364L8.23433 59.3541L7.69067 59.3746C7.60497 59.3796 7.52408 59.4158 7.46338 59.4765C7.40269 59.5372 7.36644 59.6181 7.36153 59.7038L7.34684 60.2445L7.32626 59.7038C7.32266 59.6176 7.28682 59.536 7.22586 59.475C7.1649 59.4141 7.08326 59.3783 6.99713 59.3746L6.46522 59.3541L7.00594 59.3364C7.08977 59.3294 7.16818 59.2921 7.22656 59.2316C7.28495 59.171 7.31934 59.0913 7.32333 59.0073V59.0073ZM9.99463 66.0602L9.88295 69.2546L9.77128 66.0602C9.56851 64.9788 9.06305 64.4704 7.9816 64.2706L4.78721 64.1559L7.9816 64.0443C9.06305 63.8444 9.56851 63.336 9.77128 62.2546L9.88295 59.0602L9.99169 62.2458C10.1915 63.3272 10.697 63.8356 11.7814 64.0355L13.4153 64.0913L13.3977 63.5359C13.382 63.315 13.2871 63.1073 13.1306 62.9507C12.974 62.7942 12.7663 62.6994 12.5454 62.6837L11.0614 62.6337L12.5454 62.5808C12.7658 62.5652 12.9732 62.4708 13.1297 62.3148C13.2862 62.1589 13.3813 61.9518 13.3977 61.7315L13.4476 60.2445L13.5005 61.7315C13.5162 61.9516 13.6107 62.1586 13.7667 62.3146C13.9227 62.4706 14.1298 62.5651 14.3498 62.5808L15.8368 62.6337L14.3498 62.6837C14.1295 62.7 13.9224 62.7952 13.7665 62.9516C13.6106 63.1081 13.5161 63.3155 13.5005 63.5359L13.48 64.0942L14.9875 64.1559L13.4888 64.2088L13.4594 65.0288L13.4329 64.2088L11.7931 64.2676C10.6999 64.4498 10.1945 64.967 9.99169 66.0485L9.99463 66.0602ZM21.3734 91.78L19.7718 91.9445L23.3247 94.4895L19.4749 92.5587L20.1215 93.9722L19.2692 92.691L18.9313 96.9697L18.5933 92.6616L17.7117 93.9458L18.3671 92.5558L14.5291 94.4777L18.032 91.968L16.4804 91.8828L18.082 91.7182L14.5291 89.1733L18.3817 91.1041L17.7352 89.6935L18.5875 90.9747L18.9225 86.693L19.2604 90.9894L20.142 89.7052L19.4838 91.0982L23.3217 89.1733L19.8188 91.683L21.3734 91.78ZM24.8469 36.8993L23.9653 32.0357L19.1047 31.1541L23.9653 30.2725L24.8469 25.4089L25.7286 30.2725L30.5921 31.1541L25.7286 32.0357L24.8469 36.8993ZM34.8386 51.0581L32.7815 51.2696L37.3688 54.5581L32.3936 52.066L33.2311 53.888L32.1291 52.2335L31.6942 57.7613L31.2592 52.213L30.1278 53.8704L30.9771 52.0719L26.0195 54.5551L30.5451 51.3225L28.5409 51.2138L30.598 51.0022L26.0195 47.6991L30.9947 50.1911L30.1601 48.3691L31.2592 50.0236L31.6942 44.4959L32.132 50.0501L33.2605 48.3926L32.4142 50.1882L37.3688 47.6991L32.8461 50.9317L34.8386 51.0581ZM41.4978 27.5101L40.1577 27.6452L43.1287 29.7729L39.8961 28.1595L40.4369 29.335L39.7257 28.2653L39.4318 31.8447L39.138 28.2506L38.4092 29.3262L38.9558 28.1507L35.779 29.7729L38.7177 27.6746L37.4217 27.6041L38.7618 27.466L35.7878 25.3354L39.0204 26.9517L38.4767 25.7762L39.1732 26.8342L39.4671 23.2548L39.761 26.8488L40.4927 25.7733L39.9432 26.9488L43.1523 25.3413L40.2135 27.4395L41.4978 27.5101ZM69.2775 17.7946L64.1201 18.3119L75.5664 26.5403L63.1591 20.3072L65.2397 24.8535L62.4949 20.7392L61.4194 34.513L60.3291 20.6775L57.5138 24.8123L59.6267 20.3308L47.2606 26.5403L58.5424 18.4559L53.5465 18.1825L58.7069 17.6536L47.2459 9.4516L59.6561 15.667L57.599 11.109L60.3409 15.2233L61.4194 1.44945L62.5067 15.285L65.3249 11.1502L63.209 15.6317L75.5664 9.43691L64.2846 17.5213L69.2775 17.7946ZM110.681 38.2952L108.551 38.6831L108.163 40.8107L107.775 38.6831L105.647 38.2952L107.775 37.9043L108.163 35.7767L108.551 37.9043L110.681 38.2952ZM104.093 29.9992L104.325 31.2422L105.583 31.4715L104.325 31.7036L104.093 32.9614L103.863 31.7036L102.606 31.4715L103.863 31.2422L104.093 29.9992ZM95.2558 22.1822L95.2735 22.7199C95.2784 22.8056 95.3146 22.8865 95.3753 22.9472C95.436 23.0079 95.5169 23.0442 95.6026 23.0491L96.1463 23.0696L95.6026 23.0873C95.5171 23.0928 95.4366 23.1293 95.376 23.1898C95.3155 23.2504 95.279 23.3309 95.2735 23.4164L95.2558 23.9601L95.2353 23.4164C95.2307 23.3334 95.1964 23.2547 95.1387 23.1949C95.081 23.135 95.0036 23.0978 94.9208 23.0902L94.3772 23.0726L94.9208 23.052C95.0048 23.0448 95.0833 23.0071 95.1413 22.9458C95.1992 22.8846 95.2327 22.8042 95.2353 22.7199L95.2558 22.1822ZM85.9695 16.2547L85.99 15.7111L86.0077 16.2547C86.0126 16.3404 86.0488 16.4213 86.1095 16.482C86.1702 16.5427 86.2511 16.579 86.3368 16.5839L86.8805 16.6015L86.3368 16.6221C86.2511 16.627 86.1702 16.6632 86.1095 16.7239C86.0488 16.7846 86.0126 16.8655 86.0077 16.9512L85.99 17.4919L85.9695 16.9512C85.9659 16.8651 85.93 16.7835 85.8691 16.7225C85.8081 16.6615 85.7265 16.6257 85.6403 16.6221L85.0996 16.6015L85.6403 16.5839C85.7262 16.5796 85.8075 16.5436 85.8683 16.4827C85.9291 16.4219 85.9652 16.3407 85.9695 16.2547V16.2547ZM83.4304 21.3799L86.6277 21.2682C87.7092 21.0684 88.2146 20.56 88.4174 19.4785L88.5291 16.2841L88.6408 19.4873C88.8406 20.5688 89.3461 21.0772 90.4304 21.277L92.0644 21.3329L92.0467 20.7774C92.031 20.5566 91.9362 20.3489 91.7797 20.1923C91.6231 20.0358 91.4154 19.9409 91.1945 19.9252L89.7105 19.8753L91.1945 19.8224C91.4149 19.8067 91.6223 19.7123 91.7787 19.5564C91.9352 19.4004 92.0304 19.1934 92.0467 18.9731L92.0967 17.4861L92.1496 18.9731C92.1659 19.1929 92.2606 19.3996 92.4165 19.5555C92.5724 19.7113 92.779 19.8061 92.9989 19.8224L94.4859 19.8753L92.9989 19.9252C92.7786 19.9416 92.5715 20.0367 92.4156 20.1932C92.2596 20.3497 92.1652 20.5571 92.1496 20.7774L92.129 21.3358L93.6248 21.3887L92.1261 21.4416L92.0967 22.2615L92.0703 21.4416L90.4304 21.5004C89.3461 21.7002 88.8406 22.2086 88.6408 23.2901L88.5291 26.4844L88.4174 23.2901C88.2146 22.2086 87.7092 21.7002 86.6277 21.5004L83.4304 21.3799ZM92.8343 52.4922L90.7772 52.7067L95.3675 55.9951L90.3922 53.5001L91.2268 55.3251L90.1278 53.6706L89.6928 59.1983L89.255 53.65L88.1265 55.3075L88.9758 53.509L84.0181 55.9951L88.5408 52.7625L86.5396 52.6508L88.5967 52.4393L84.0064 49.1508L88.9817 51.6458L88.1441 49.8209L89.2461 51.4754L89.6752 45.9359L90.1131 51.4842L91.2415 49.8267L90.3922 51.6223L95.3499 49.1391L90.8272 52.3717L92.8343 52.4922ZM99.4788 36.623L94.6152 35.7414L99.4788 34.8598L100.36 29.9962L101.242 34.8598L106.106 35.7414L101.242 36.623L100.36 41.4837L99.4788 36.623ZM112.171 72.017L110.763 69.8982L110.202 76.9717L109.644 69.8718L108.198 71.9935L109.282 69.6925L102.944 72.8722L108.733 68.7257L106.17 68.5846L108.815 68.3113L102.938 64.1031L109.321 67.2945L108.251 64.9612L109.659 67.077L110.217 60.0035L110.775 67.1035L112.221 64.9817L111.137 67.2828L117.478 64.1031L111.672 68.2525L114.234 68.3936L111.589 68.664L117.467 72.8722L111.101 69.6808L112.171 72.017Z" fill="white"/>
<path d="M38.5134 109.163C38.0756 108.195 37.5305 107.281 36.8883 106.435C36.7208 106.221 36.5474 106.021 36.3681 105.83C35.8061 105.193 35.1126 104.685 34.3354 104.341C33.5581 103.998 32.7157 103.827 31.866 103.84C31.6983 103.87 31.5263 103.865 31.3606 103.826C30.9286 103.638 30.2703 103.464 30.1851 103.17C30.1403 102.923 30.1516 102.669 30.2182 102.427C30.2849 102.185 30.4051 101.961 30.57 101.772C31.0103 101.393 31.5497 101.148 32.1246 101.066C33.4147 100.819 34.6372 101.219 35.8362 101.654C36.1507 101.769 36.4739 101.86 36.7972 101.948L37.0499 102.018C37.149 102.059 37.2557 102.078 37.3626 102.072C37.4696 102.067 37.5741 102.039 37.6688 101.989C37.7635 101.939 37.8461 101.869 37.9108 101.784C37.9755 101.698 38.0207 101.6 38.0432 101.495C38.4458 100.173 38.9072 98.8564 38.3371 97.4488C37.9814 96.542 37.7309 95.5974 37.5907 94.6335C37.4055 93.4374 37.335 92.2237 37.238 91.0159C37.1675 90.0961 37.0999 89.1733 37.0999 88.2505C37.0829 87.9536 37.1401 87.6571 37.2663 87.3878C37.3925 87.1184 37.5838 86.8847 37.8228 86.7077C38.5487 86.1817 39.2011 86.405 39.4009 87.269C39.4567 87.4982 39.5067 87.7304 39.5596 87.9626C39.9064 89.4672 40.2414 90.9747 40.5793 92.4823C40.8248 93.4924 41.2727 94.4422 41.8959 95.2741C42.0663 94.4571 42.2133 93.8106 42.3308 93.1582C42.5659 91.8358 42.7863 90.5163 43.0038 89.1909C43.0773 88.7648 43.0949 88.3123 43.1919 87.8832C43.2872 87.3689 43.435 86.8658 43.6327 86.3815C43.9618 85.6645 44.5496 85.3794 45.1579 85.5322C45.6663 85.6557 46.0542 86.2816 45.9925 87.0016C45.8779 88.3622 45.6927 89.714 45.584 91.0717C45.453 92.5696 45.4049 94.0736 45.44 95.5768C45.7162 94.8186 46.0013 94.0604 46.2628 93.2963C46.8153 91.6918 47.3502 90.0696 47.9026 88.4592C47.9871 88.2213 48.1017 87.9951 48.2435 87.7862C48.558 87.3131 49.037 87.2543 49.5366 87.3777C49.6411 87.4016 49.7398 87.4459 49.8272 87.5081C49.9145 87.5703 49.9887 87.6491 50.0455 87.74C50.1023 87.831 50.1406 87.9322 50.1581 88.038C50.1757 88.1437 50.1722 88.2519 50.1478 88.3563C50.0538 89.1466 49.9184 89.9313 49.7423 90.7073C49.2633 92.7762 48.7607 94.848 48.2729 96.9051C48.1992 97.0794 48.1699 97.2692 48.1877 97.4576C48.2587 97.7835 48.4231 98.0817 48.6608 98.3157C48.7872 98.4068 49.2633 98.2128 49.4396 98.0218C50.0773 97.3253 50.7003 96.62 51.3292 95.9089C51.9581 95.1977 52.584 94.4806 53.2158 93.7724C53.5685 93.3801 53.9433 93.0082 54.3384 92.6586C54.6294 92.4 54.9585 92.018 55.3846 92.3295C55.6043 92.4722 55.7671 92.6872 55.8449 92.9373C55.9227 93.1874 55.9106 93.4568 55.8107 93.6989C55.3206 95.0472 54.5753 96.2884 53.6155 97.3547C53.1923 97.8514 52.7897 98.3656 52.4136 98.8975C51.6054 100.052 51.2969 101.387 50.9442 102.741C50.8913 102.953 50.8267 103.162 50.7679 103.373C50.2389 105.307 49.5895 107.211 48.9018 109.098C48.8932 109.119 48.8863 109.14 48.8812 109.163" stroke="white" stroke-width="0.293872" stroke-miterlimit="10"/>
<path d="M72.3092 109.118C72.2974 105.895 72.2798 103.767 72.2622 103.347C72.2439 102.75 72.1113 102.162 71.8713 101.616C71.4988 100.788 71.0335 100.005 70.4843 99.2825C70.012 98.5954 69.3772 98.0356 68.6363 97.6532C67.8954 97.2707 67.0715 97.0773 66.2378 97.0902C66.0973 97.12 65.9522 97.12 65.8117 97.0902C65.4561 96.9315 64.9007 96.7934 64.8272 96.5348C64.7895 96.3269 64.7992 96.1133 64.8557 95.9097C64.9122 95.7062 65.014 95.518 65.1534 95.3593C65.5274 95.0439 65.9826 94.8402 66.467 94.7716C66.7405 94.7234 67.0184 94.7057 67.2957 94.7187C68.0901 94.7887 68.8691 94.98 69.6056 95.2858C69.9435 95.4063 70.2874 95.4974 70.6341 95.5944C70.7178 95.6287 70.808 95.6441 70.8983 95.6396C70.9886 95.6352 71.0769 95.6109 71.1568 95.5686C71.2367 95.5262 71.3063 95.4668 71.3607 95.3946C71.4151 95.3224 71.453 95.2391 71.4717 95.1507C71.8243 94.0339 72.2152 92.9231 71.7332 91.73C71.025 89.9873 70.9486 88.133 70.8046 86.2933C70.7429 85.5175 70.687 84.7358 70.687 83.9571C70.6727 83.7059 70.7211 83.4552 70.8278 83.2274C70.9345 82.9996 71.0962 82.802 71.2983 82.6523C71.9125 82.2085 72.462 82.3966 72.6325 83.1254C72.9734 84.5948 73.2996 86.0641 73.6287 87.5335C73.8379 88.3841 74.2167 89.1838 74.7425 89.8845C74.8835 89.1939 75.0099 88.6473 75.1098 88.0948C75.3067 86.981 75.4948 85.8614 75.6799 84.7446C75.7387 84.3773 75.7563 84.0011 75.8386 83.6367C75.9177 83.2025 76.0428 82.7779 76.2118 82.3702C76.4881 81.7618 76.9847 81.5209 77.499 81.6502C77.931 81.7589 78.2572 82.2849 78.2043 82.8962C78.1073 84.0452 77.9516 85.1884 77.8605 86.3345C77.7493 87.6047 77.708 88.8801 77.737 90.1548C77.9721 89.5112 78.2131 88.8735 78.4335 88.227C78.9008 86.8664 79.3533 85.4999 79.8206 84.1393C79.8928 83.9379 79.9916 83.7472 80.1144 83.5721C80.1756 83.4734 80.257 83.3889 80.3532 83.3241C80.4495 83.2592 80.5584 83.2155 80.6728 83.1959C80.851 83.1669 81.0332 83.1759 81.2077 83.2224C81.3864 83.2643 81.5412 83.3754 81.6381 83.5313C81.7351 83.6872 81.7663 83.8752 81.7249 84.054C81.6867 84.3479 81.6426 84.6418 81.5926 84.9357C81.5339 85.303 81.4663 85.6674 81.384 86.0318C80.9843 87.7803 80.5582 89.523 80.1468 91.2686C80.0837 91.4158 80.0585 91.5764 80.0733 91.7359C80.1355 92.0106 80.2741 92.2622 80.473 92.4617C80.5817 92.5381 80.9843 92.3765 81.1342 92.2119C82.0158 91.2333 82.8974 90.2312 83.779 89.235L84.3227 88.6208C84.6203 88.2899 84.9362 87.976 85.269 87.6804C85.5129 87.463 85.7891 87.1397 86.1506 87.4012C86.3297 87.5246 86.461 87.7058 86.5225 87.9144C86.5841 88.1231 86.5721 88.3465 86.4885 88.5473C86.0725 89.6769 85.4441 90.7163 84.6371 91.6095C84.4726 91.8005 84.3403 91.9621 84.1552 92.1972C83.9701 92.4323 83.7908 92.6704 83.6203 92.9114C82.9297 93.8899 82.6653 95.0184 82.3714 96.1616C81.8983 97.9807 81.287 99.7703 80.6434 101.534C80.2899 102.464 80.1679 103.467 80.2878 104.455C80.4171 105.427 80.5347 106.941 80.711 109.118" stroke="white" stroke-width="0.220404" stroke-miterlimit="10"/>
</g>
<defs>
<clipPath id="clip0_996_4065">
<rect width="430" height="133.433" fill="white" transform="translate(0 0.385635)"/>
</clipPath>
</defs>
</svg>
