<svg width="430" height="71" viewBox="0 0 430 71" fill="none" xmlns="http://www.w3.org/2000/svg">
<path fill-rule="evenodd" clip-rule="evenodd" d="M22.298 66.3617C22.298 69.223 21.8073 71.8934 25.7342 69.2502C27.6706 67.9696 27.863 65.8447 27.863 63.719C27.781 57.0984 24.7538 56.5814 23.8265 53.0384C23.3088 51.1314 25.1907 49.8238 26.7995 50.9953C29.3081 52.8212 30.8899 56.6898 34.5989 56.5534C38.5809 56.3634 40.7347 52.6306 42.0162 49.3068C42.5896 47.9984 43.1345 45.5188 44.7164 45.2749C45.3442 45.2749 45.7257 45.6283 45.8886 46.3367C47.0887 52.0031 41.4712 57.5623 38.3629 61.812C37.0527 63.5835 34.3803 66.9073 35.7439 69.1949C36.4819 70.4489 38.0345 70.3669 39.2896 70.2853C44.3627 70.013 42.235 68.1868 43.107 64.9458C45.0706 57.6984 50.5255 51.7311 52.3245 42.8762C53.2234 38.5168 53.8524 28.5451 51.2328 24.6499C50.0055 22.8253 47.7149 22.9064 46.9783 24.9777C45.9426 27.8931 46.5696 31.7611 45.6968 35.1405C45.615 27.4295 45.0421 22.3251 43.9781 19.8274C42.2609 15.7946 37.5698 15.1682 36.8883 19.6087C36.2335 23.7489 37.5429 29.3638 36.9425 34.294C35.8518 25.8208 34.3884 19.9358 32.5521 16.6391C29.5525 11.298 23.6891 11.5433 24.1527 17.6739C24.6167 23.832 28.108 27.1828 27.3984 35.5199C26.2534 30.5611 24.417 26.5559 21.8893 23.5042C18.8897 19.9082 13.7627 20.9713 15.4535 26.2833C17.8261 33.7751 20.7988 37.1272 20.6628 46.1175C17.8812 42.5487 14.7992 40.5053 11.417 39.9871C7.43498 39.3618 4.79043 42.0047 6.01748 45.1108C7.16221 47.9162 12.2904 51.3778 14.6349 53.4763C18.7259 57.1812 22.2702 61.4864 22.2986 66.3628L22.298 66.3617ZM34.4885 41.9764C37.0513 41.9764 39.152 44.0732 39.152 46.6628C39.152 49.2524 37.0515 51.3219 34.4885 51.3219C31.8978 51.3219 29.798 49.2518 29.798 46.6628C29.7978 46.0473 29.919 45.4379 30.1547 44.8693C30.3904 44.3006 30.7359 43.784 31.1714 43.3488C31.607 42.9136 32.1241 42.5684 32.6933 42.3329C33.2624 42.0974 33.8724 41.9763 34.4885 41.9764V41.9764Z" fill="white"/>
<path fill-rule="evenodd" clip-rule="evenodd" d="M12.5097 37.9711C14.418 37.9711 15.9726 36.42 15.9726 34.5115C15.9726 32.603 14.4174 31.0519 12.5097 31.0519C10.602 31.0519 9.04688 32.6053 9.04688 34.5115C9.04688 36.4177 10.6018 37.9711 12.5097 37.9711V37.9711Z" fill="white" stroke="#F2F2F2" stroke-width="0.912296" stroke-miterlimit="10"/>
<path fill-rule="evenodd" clip-rule="evenodd" d="M3.29088 38.3815C4.54518 38.3815 5.58176 37.3462 5.58176 36.0922C5.58176 35.4852 5.3404 34.903 4.91078 34.4738C4.48116 34.0446 3.89846 33.8035 3.29088 33.8035C2.6833 33.8035 2.10061 34.0446 1.67098 34.4738C1.24136 34.903 1 35.4852 1 36.0922C1 37.3462 2.03602 38.3815 3.29088 38.3815V38.3815Z" fill="white" stroke="#F2F2F2" stroke-width="0.912296" stroke-miterlimit="10"/>
<path fill-rule="evenodd" clip-rule="evenodd" d="M10.6796 23.314C11.6069 23.314 12.3429 22.5784 12.3429 21.6786C12.3443 21.4601 12.3022 21.2434 12.219 21.0412C12.1359 20.8391 12.0134 20.6554 11.8587 20.5009C11.704 20.3464 11.5201 20.2241 11.3177 20.1412C11.1152 20.0582 10.8984 20.0163 10.6796 20.0177C9.77897 20.0177 9.04297 20.753 9.04297 21.6786C9.04409 22.112 9.21687 22.5272 9.52355 22.8337C9.83023 23.1401 10.2459 23.3128 10.6796 23.314V23.314Z" fill="white" stroke="#F2F2F2" stroke-width="0.912296" stroke-miterlimit="10"/>
<path fill-rule="evenodd" clip-rule="evenodd" d="M7.08128 30.0448C8.00887 30.0448 8.74515 29.2811 8.74515 28.3822C8.74644 28.1636 8.70427 27.9469 8.62109 27.7447C8.53792 27.5425 8.41539 27.3588 8.26062 27.2042C8.10585 27.0497 7.92191 26.9273 7.71946 26.8444C7.51702 26.7614 7.3001 26.7193 7.08128 26.7207C6.1815 26.7207 5.41797 27.458 5.41797 28.3833C5.41797 29.2823 6.1815 30.0459 7.08128 30.0459V30.0448Z" fill="white" stroke="#F2F2F2" stroke-width="0.912296" stroke-miterlimit="10"/>
<path fill-rule="evenodd" clip-rule="evenodd" d="M19.1918 17.5097C20.2826 17.5097 21.1557 16.6122 21.1557 15.5491C21.1557 15.0288 20.9489 14.5298 20.5806 14.1619C20.2124 13.794 19.7129 13.5873 19.1921 13.5873C18.6713 13.5873 18.1719 13.794 17.8036 14.1619C17.4354 14.5298 17.2285 15.0288 17.2285 15.5491C17.2285 16.6122 18.101 17.5097 19.1918 17.5097V17.5097Z" fill="white" stroke="#F2F2F2" stroke-width="0.912296" stroke-miterlimit="10"/>
<path fill-rule="evenodd" clip-rule="evenodd" d="M35.0887 13.6965C36.5888 13.6965 37.7883 12.497 37.7883 11.0266C37.7883 9.5563 36.5888 8.3562 35.0887 8.3562C34.3798 8.3562 33.7 8.63752 33.1988 9.13827C32.6976 9.63902 32.416 10.3182 32.416 11.0264C32.416 11.7345 32.6976 12.4137 33.1988 12.9144C33.7 13.4152 34.3798 13.6965 35.0887 13.6965V13.6965Z" fill="white" stroke="#F2F2F2" stroke-width="0.912296" stroke-miterlimit="10"/>
<path fill-rule="evenodd" clip-rule="evenodd" d="M26.0632 10.4262C26.3214 10.4275 26.5772 10.3776 26.8159 10.2795C27.0546 10.1814 27.2715 10.037 27.4541 9.85467C27.6366 9.67234 27.7812 9.45568 27.8795 9.21721C27.9777 8.97873 28.0277 8.72317 28.0266 8.46529C28.0266 7.40216 27.154 6.50464 26.0632 6.50464C24.9724 6.50464 24.0996 7.40216 24.0996 8.46529C24.0985 8.72319 24.1485 8.97875 24.2468 9.21723C24.3451 9.4557 24.4897 9.67236 24.6723 9.85469C24.8549 10.037 25.0718 10.1814 25.3105 10.2795C25.5493 10.3776 25.8051 10.4275 26.0632 10.4262Z" fill="white" stroke="#F2F2F2" stroke-width="0.912296" stroke-miterlimit="10"/>
<path fill-rule="evenodd" clip-rule="evenodd" d="M49.8416 21.244C50.2753 21.2427 50.6909 21.07 50.9976 20.7636C51.3043 20.4572 51.4771 20.0419 51.4783 19.6086C51.4783 18.683 50.7417 17.9474 49.8416 17.9474C49.6228 17.946 49.4059 17.9879 49.2034 18.0709C49.001 18.1538 48.817 18.2761 48.6622 18.4306C48.5074 18.5852 48.3849 18.7689 48.3018 18.9711C48.2186 19.1733 48.1764 19.39 48.1778 19.6086C48.1778 20.5084 48.914 21.244 49.8416 21.244Z" fill="white" stroke="#F2F2F2" stroke-width="0.912296" stroke-miterlimit="10"/>
<path fill-rule="evenodd" clip-rule="evenodd" d="M31.3266 4.29629C32.2258 4.29629 32.9624 3.5607 32.9624 2.63539C32.9612 2.2022 32.7886 1.78705 32.4821 1.48063C32.1756 1.17421 31.7602 1.00142 31.3266 1C30.3987 1 29.6621 1.7356 29.6621 2.63539C29.6609 2.85403 29.703 3.07074 29.7863 3.27296C29.8695 3.47518 29.9921 3.65888 30.1469 3.81339C30.3017 3.9679 30.4858 4.09015 30.6883 4.17305C30.8908 4.25594 31.1077 4.29784 31.3266 4.29629V4.29629Z" fill="white" stroke="#F2F2F2" stroke-width="0.912296" stroke-miterlimit="10"/>
<path fill-rule="evenodd" clip-rule="evenodd" d="M43.5705 14.0511C44.4705 14.0511 45.2068 13.3155 45.2068 12.3885C45.2053 11.9555 45.0324 11.5407 44.7258 11.2348C44.4192 10.9288 44.0038 10.7564 43.5705 10.7554C42.6429 10.7554 41.9063 11.4901 41.9063 12.3891C41.9048 12.6078 41.9469 12.8247 42.03 13.027C42.1131 13.2294 42.2356 13.4133 42.3904 13.568C42.5453 13.7227 42.7293 13.8451 42.9319 13.9281C43.1344 14.0111 43.3515 14.0531 43.5705 14.0517V14.0511Z" fill="white" stroke="#F2F2F2" stroke-width="0.912296" stroke-miterlimit="10"/>
<path fill-rule="evenodd" clip-rule="evenodd" d="M53.3595 14.4049C53.6605 14.4054 53.9586 14.3466 54.2367 14.2317C54.5149 14.1169 54.7676 13.9484 54.9805 13.7358C55.1933 13.5232 55.3621 13.2707 55.4771 12.9928C55.5921 12.715 55.6511 12.4172 55.6507 12.1165C55.6507 10.8361 54.6413 9.828 53.3595 9.828C53.0587 9.82767 52.7608 9.88663 52.4828 10.0015C52.2048 10.1164 51.9523 10.285 51.7396 10.4975C51.527 10.7101 51.3584 10.9625 51.2436 11.2402C51.1287 11.518 51.0698 11.8157 51.0703 12.1162C51.0703 13.3687 52.1061 14.4046 53.3609 14.4046L53.3595 14.4049Z" fill="white" stroke="#F2F2F2" stroke-width="0.912296" stroke-miterlimit="10"/>
<path fill-rule="evenodd" clip-rule="evenodd" d="M12.101 16.5294C12.4237 16.5307 12.7434 16.4683 13.0417 16.3456C13.34 16.2229 13.6111 16.0424 13.8393 15.8145C14.0674 15.5866 14.2482 15.3159 14.3711 15.0179C14.494 14.7198 14.5567 14.4005 14.5554 14.0781C14.5554 12.717 13.4643 11.5991 12.101 11.5991C10.7378 11.5991 9.61914 12.7161 9.61914 14.0781C9.61914 15.4402 10.7375 16.5294 12.101 16.5294V16.5294Z" fill="white" stroke="#F2F2F2" stroke-width="0.912296" stroke-miterlimit="10"/>
<path fill-rule="evenodd" clip-rule="evenodd" d="M56.7161 25.0857C58.1878 25.0857 59.3879 23.8598 59.3879 22.388C59.3871 21.6801 59.1054 21.0014 58.6046 20.5006C58.1038 19.9997 57.4247 19.7177 56.7161 19.7162C55.2432 19.7162 54.0156 20.9157 54.0156 22.3869C54.0156 23.8581 55.2432 25.0846 56.7161 25.0846V25.0857Z" fill="white" stroke="#F2F2F2" stroke-width="0.912296" stroke-miterlimit="10"/>
<path fill-rule="evenodd" clip-rule="evenodd" d="M18.1541 8.95551C18.4076 8.95534 18.6554 8.88006 18.8662 8.7392C19.0769 8.59834 19.2411 8.39821 19.338 8.16412C19.4349 7.93003 19.4601 7.6725 19.4106 7.42407C19.361 7.17565 19.2388 6.94749 19.0594 6.76845C18.88 6.58941 18.6515 6.46752 18.4028 6.41819C18.1541 6.36887 17.8964 6.39433 17.6622 6.49134C17.4279 6.58836 17.2278 6.75258 17.087 6.96325C16.9462 7.17391 16.871 7.42156 16.8711 7.67488C16.8709 7.8432 16.904 8.0099 16.9684 8.16544C17.0328 8.32097 17.1273 8.46227 17.2465 8.58124C17.3657 8.70021 17.5072 8.79451 17.663 8.85873C17.8187 8.92296 17.9856 8.95584 18.1541 8.95551V8.95551Z" fill="white" stroke="#F2F2F2" stroke-width="0.912296" stroke-miterlimit="10"/>
<path fill-rule="evenodd" clip-rule="evenodd" d="M56.6892 30.7245C56.8576 30.7245 57.0244 30.6914 57.1799 30.6269C57.3355 30.5625 57.4768 30.468 57.5957 30.3489C57.7146 30.2298 57.8089 30.0885 57.8731 29.9329C57.9372 29.7774 57.97 29.6107 57.9696 29.4425C57.9696 28.7619 57.3966 28.1902 56.6884 28.1902C55.9802 28.1902 55.4063 28.7622 55.4063 29.4425C55.4059 29.6108 55.4388 29.7775 55.5032 29.9331C55.5675 30.0887 55.6619 30.23 55.781 30.3491C55.9001 30.4681 56.0416 30.5625 56.1973 30.6267C56.353 30.691 56.5199 30.724 56.6884 30.7237L56.6892 30.7245Z" fill="white" stroke="#F2F2F2" stroke-width="0.912296" stroke-miterlimit="10"/>
<path d="M90.8307 33.4038V34.4382H84.7533V51.719C84.7533 52.8922 84.9836 53.7973 85.4443 54.4344C85.6668 54.7469 85.959 54.9976 86.2954 55.1646C86.6319 55.3315 87.0022 55.4096 87.3742 55.3921C88.6248 55.3921 89.5794 54.7543 90.2382 53.4787L90.3385 53.5293C90.0643 55.1409 89.2912 56.6134 88.1384 57.7196C86.9689 58.8565 85.2963 59.4256 83.1206 59.4269C78.8388 59.4269 76.6978 57.0643 76.6978 52.3392V34.4443H73.9824V33.4098H76.2057C76.8966 33.4098 77.4074 33.2199 77.7381 32.8401L84.6549 24.72H84.7533V33.4078L90.8307 33.4038Z" fill="white"/>
<path d="M115.551 45.4109H100.368V45.5114C100.368 48.6082 101.043 50.9206 102.393 52.4486C103.742 53.9766 105.482 54.7387 107.614 54.7347C111.19 54.7347 113.754 53.1876 115.306 50.0935H115.406C114.125 56.3146 110.398 59.4259 104.223 59.4272C100.748 59.4272 97.8122 58.3505 95.4162 56.197C93.0202 54.0436 91.8229 50.8825 91.8242 46.7136C91.8242 42.3069 93.0215 39.0274 95.4162 36.8753C97.8109 34.7232 100.847 33.6465 104.526 33.6452C105.879 33.6362 107.226 33.8234 108.525 34.201C109.783 34.5768 110.971 35.1561 112.042 35.9155C113.137 36.6907 114.005 37.7924 114.647 39.2206C115.289 40.6488 115.61 42.339 115.61 44.2914C115.602 44.6225 115.584 44.997 115.551 45.4109ZM104.417 34.6148C103.099 34.6148 102.104 35.3795 101.432 36.9088C100.76 38.4382 100.405 40.9693 100.368 44.5023H107.811C107.845 44.0648 107.863 43.5622 107.863 42.9887C107.863 39.8604 107.567 37.6827 106.977 36.4556C106.387 35.2284 105.533 34.6116 104.417 34.605V34.6148Z" fill="white"/>
<path d="M160.356 44.0423C160.356 45.3255 160.331 47.3144 160.281 50.009C160.231 52.7037 160.207 54.3301 160.207 54.8883C160.197 55.1094 160.237 55.3298 160.324 55.5341C160.411 55.7383 160.543 55.9213 160.711 56.0701L163.181 58.3374V58.4356H149.06V58.3374L151.424 56.0701C151.583 55.9249 151.71 55.7494 151.797 55.5543C151.884 55.3593 151.928 55.149 151.929 54.9364C151.929 54.8081 151.954 53.3793 152.005 50.65C152.057 47.9207 152.082 46.098 152.08 45.1818C152.08 42.7181 151.803 40.862 151.249 39.6135C150.695 38.365 149.678 37.7407 148.197 37.7407C146.65 37.7407 145.322 38.4465 144.212 39.8579C144.53 41.2321 144.682 42.6376 144.667 44.0462C144.667 45.228 144.642 47.1906 144.59 49.934C144.539 52.6774 144.514 54.3282 144.516 54.8864C144.505 55.1031 144.54 55.3196 144.618 55.5227C144.696 55.7259 144.815 55.9115 144.969 56.0681L147.49 58.3355V58.4336H133.326V58.3355L135.743 56.0643C135.894 55.9153 136.011 55.738 136.089 55.543C136.167 55.3481 136.204 55.1397 136.196 54.9306C136.196 54.8318 136.221 53.4114 136.271 50.6692C136.321 47.9271 136.347 46.096 136.348 45.176C136.348 42.7123 136.079 40.8563 135.54 39.6077C135.002 38.3592 133.993 37.735 132.514 37.735C131.036 37.735 129.792 38.4574 128.783 39.9022V54.8825C128.783 55.4073 128.934 55.8012 129.236 56.0643L131.709 58.3316V58.4298H117.592V58.3316L120.062 56.0643C120.366 55.8025 120.515 55.408 120.515 54.8825V37.8331C120.531 37.381 120.369 36.9402 120.062 36.6013L117.592 34.1376V34.0395H128.787V39.2632C130.165 35.5177 132.838 33.6449 136.805 33.6449C140.606 33.6449 143.043 35.5831 144.118 39.4595C144.698 37.7844 145.789 36.3228 147.244 35.2713C148.723 34.187 150.488 33.6449 152.539 33.6449C155.061 33.6449 156.994 34.5316 158.339 36.3049C159.684 38.0782 160.356 40.6574 160.356 44.0423Z" fill="white"/>
<path d="M166.131 66.7233V37.9116C166.146 37.4508 165.981 37.0017 165.671 36.6567L163.18 34.1468V34.0468H174.423V39.3684C176.084 35.5527 178.712 33.6449 182.307 33.6449C185.155 33.6449 187.47 34.756 189.25 36.9782C191.031 39.2005 191.921 42.1874 191.921 45.939C191.921 49.9207 190.903 53.1416 188.869 55.6018C186.834 58.0619 184.257 59.2919 181.137 59.2919C177.644 59.2919 175.406 58.0201 174.423 55.4763V66.4194C174.403 66.6603 174.447 66.902 174.55 67.1214C174.728 67.3403 174.943 67.5273 175.186 67.6743L178.949 70.2351V70.3351H163.18V70.2351L165.671 67.9253C165.827 67.7661 165.947 67.5775 166.026 67.3709C166.105 67.1642 166.141 66.9439 166.131 66.7233V66.7233ZM178.238 37.6606C176.744 37.6606 175.472 38.4449 174.423 40.0135V55.1233C175.202 55.9612 176.304 56.3795 177.729 56.3782C179.186 56.3782 180.449 55.5501 181.518 53.8939C182.588 52.2377 183.121 49.7194 183.12 46.339C183.12 40.5534 181.493 37.6606 178.238 37.6606Z" fill="white"/>
<path d="M217.639 45.401H202.456V45.5015C202.456 48.5983 203.131 50.9107 204.481 52.4387C205.83 53.9667 207.568 54.7321 209.694 54.7347C213.269 54.7347 215.833 53.1876 217.386 50.0935H217.488C216.205 56.3146 212.476 59.4259 206.303 59.4272C202.828 59.4272 199.893 58.3505 197.498 56.197C195.104 54.0436 193.906 50.8825 193.904 46.7136C193.904 42.3069 195.102 39.0274 197.498 36.8753C199.894 34.7232 202.931 33.6465 206.608 33.6452C207.96 33.6363 209.307 33.8236 210.605 34.201C211.863 34.5769 213.052 35.1561 214.122 35.9156C215.218 36.6907 216.087 37.7924 216.729 39.2206C217.371 40.6488 217.691 42.339 217.69 44.2915C217.69 44.6127 217.672 44.9871 217.639 45.401ZM206.505 34.605C205.187 34.605 204.192 35.3696 203.52 36.899C202.848 38.4283 202.493 40.9595 202.456 44.4925H209.897C209.929 44.055 209.947 43.5524 209.947 42.9789C209.947 39.8506 209.651 37.6729 209.061 36.4457C208.471 35.2186 207.619 34.6017 206.505 34.5951V34.605Z" fill="white"/>
<path d="M241.475 35.2789L238.613 43.0138H238.51L234.399 38.3833C234.086 38.0214 233.774 37.9393 233.462 38.1369C232.802 38.5975 232.057 39.5502 231.226 40.9949V54.2977C231.226 54.7885 231.486 55.2003 232.007 55.5294L237.107 58.3374V58.4356H219.672V58.3374L222.221 56.0703C222.534 55.8085 222.689 55.414 222.689 54.8886V37.8405C222.705 37.3885 222.537 36.9477 222.221 36.6088L219.672 34.1453V34.0471H231.224V40.354C231.711 38.4153 232.524 36.8115 233.664 35.5426C234.803 34.2736 236.226 33.6411 237.932 33.6449C239.427 33.65 240.608 34.1947 241.475 35.2789Z" fill="white"/>
<path d="M263.708 43.8357C263.708 44.0327 263.708 44.3833 263.682 44.8699C263.656 45.3565 263.656 45.6185 263.656 45.6579L263.352 52.8188C263.249 54.7691 263.706 55.7443 264.725 55.7443C265.027 55.7523 265.324 55.6699 265.579 55.5079C265.833 55.3459 266.032 55.1118 266.15 54.8361H266.251C266.26 55.4648 266.121 56.087 265.844 56.6525C264.927 58.503 263.265 59.4275 260.858 59.4262C259.332 59.4262 258.044 58.9974 256.993 58.1398C255.943 57.2822 255.383 56.0805 255.314 54.5347C254.84 55.9762 253.912 57.2291 252.667 58.1094C251.422 58.9898 249.925 59.4513 248.395 59.4262C246.428 59.4262 244.784 58.7958 243.462 57.535C242.14 56.2742 241.477 54.5341 241.475 52.3145C241.475 49.9624 242.331 48.1047 244.044 46.7414C245.733 45.3878 247.849 44.6655 250.021 44.7005C252.326 44.7005 254.123 45.1543 255.412 46.0618L255.513 40.666V40.4138C255.513 36.5474 254.276 34.6141 251.801 34.6141C251.293 34.6141 250.979 34.6476 250.859 34.7146C250.68 34.8493 250.532 35.0214 250.426 35.2189L246.307 42.7837H246.206L243.005 35.5617C246.599 34.2838 250.024 33.6449 253.28 33.6449C256.875 33.6449 259.503 34.4185 261.164 35.9656C262.86 37.5494 263.708 40.1728 263.708 43.8357ZM253.534 46.2568C252.244 46.2568 251.235 46.7447 250.508 47.7205C249.78 48.6963 249.415 49.94 249.413 51.4517C249.413 52.7965 249.693 53.8472 250.253 54.6037C250.49 54.9561 250.812 55.2444 251.189 55.4425C251.567 55.6406 251.988 55.7423 252.415 55.7384C253.568 55.7384 254.534 55.1474 255.314 53.9654V53.9142L255.416 46.5523C254.809 46.3537 254.173 46.2546 253.534 46.2588V46.2568Z" fill="white"/>
<path d="M284.091 33.4038V34.4382H277.654V51.719C277.654 52.8922 277.897 53.7973 278.385 54.4344C278.621 54.7469 278.931 54.9976 279.287 55.1646C279.643 55.3315 280.036 55.4096 280.43 55.3921C281.755 55.3921 282.767 54.7543 283.466 53.4787L283.57 53.5293C283.279 55.1403 282.461 56.6124 281.241 57.7196C280.003 58.8565 278.231 59.4256 275.926 59.4269C271.389 59.4269 269.121 57.0643 269.122 52.3392V34.4443H266.252V33.4098H268.607C269.341 33.4098 269.881 33.2199 270.23 32.8401L277.557 24.72H277.662V33.4078L284.091 33.4038Z" fill="white"/>
<path d="M307.826 45.401H292.642V45.5015C292.642 48.5983 293.317 50.9107 294.666 52.4387C296.016 53.9667 297.753 54.7321 299.879 54.7347C303.455 54.7347 306.019 53.1876 307.571 50.0935H307.674C306.39 56.3146 302.662 59.4259 296.489 59.4272C293.013 59.4272 290.078 58.3505 287.684 56.197C285.289 54.0436 284.091 50.8825 284.09 46.7136C284.09 42.3069 285.288 39.0274 287.684 36.8753C290.08 34.7232 293.116 33.6465 296.793 33.6452C298.146 33.6363 299.492 33.8236 300.791 34.201C302.049 34.5769 303.237 35.1561 304.307 35.9156C305.405 36.6907 306.274 37.7924 306.915 39.2206C307.555 40.6488 307.876 42.339 307.876 44.2915C307.876 44.6127 307.858 44.9871 307.826 45.401ZM296.69 34.605C295.373 34.605 294.378 35.3696 293.705 36.899C293.033 38.4283 292.679 40.9595 292.642 44.4925H300.083C300.116 44.055 300.132 43.5524 300.132 42.9789C300.132 39.8506 299.837 37.6729 299.247 36.4457C298.656 35.2186 297.804 34.6017 296.69 34.5951V34.605Z" fill="white"/>
<path d="M312.834 52.1334C312.834 49.9586 313.606 48.1516 315.149 46.7124C315.883 46.0113 316.753 45.4595 317.708 45.0888C318.664 44.7182 319.685 44.5363 320.713 44.5536C322.946 44.5536 324.834 45.2572 326.377 46.6645C327.92 48.0717 328.691 49.8947 328.691 52.1334C328.691 54.2443 327.92 55.9873 326.377 57.3625C324.834 58.7378 322.946 59.4254 320.713 59.4254C318.654 59.4649 316.66 58.7255 315.149 57.3625C313.604 55.9886 312.833 54.2455 312.834 52.1334Z" fill="#F46A6A"/>
<path d="M346.288 59.4272C343.055 59.4272 340.305 58.3341 338.038 56.148C335.77 53.9619 334.637 50.8509 334.637 46.815C334.637 44.4936 335.02 42.45 335.785 40.6843C336.551 38.9186 337.585 37.5392 338.888 36.546C340.157 35.5699 341.588 34.8275 343.113 34.3526C344.677 33.8743 346.304 33.6358 347.938 33.6452C350.607 33.6452 353.441 34.1496 356.44 35.1586L353.24 43.8295H353.141L349.288 35.2039C349.237 35.011 349.134 34.8362 348.989 34.6995C348.801 34.615 348.595 34.5804 348.39 34.599H348.14C344.971 34.599 343.387 37.861 343.389 44.3852C343.389 47.9508 344.03 50.5573 345.313 52.2047C346.596 53.8522 348.205 54.676 350.14 54.676C352.807 54.676 354.857 53.2965 356.29 50.5376H356.392C355.958 53.3307 354.874 55.5082 353.141 57.0703C351.407 58.6324 349.123 59.418 346.288 59.4272Z" fill="white"/>
<path d="M380.657 43.8357C380.657 44.0327 380.657 44.3833 380.631 44.8699C380.605 45.3565 380.605 45.6185 380.605 45.6579L380.301 52.8188C380.198 54.7691 380.656 55.7443 381.674 55.7443C381.976 55.7523 382.274 55.6699 382.528 55.5079C382.782 55.3459 382.981 55.1118 383.099 54.8361H383.2C383.21 55.4648 383.07 56.087 382.793 56.6525C381.878 58.503 380.216 59.4275 377.807 59.4262C376.281 59.4262 374.993 58.9974 373.943 58.1398C372.892 57.2822 372.332 56.0805 372.264 54.5347C371.789 55.9762 370.861 57.2291 369.616 58.1094C368.371 58.9898 366.874 59.4513 365.345 59.4262C363.378 59.4262 361.733 58.7958 360.411 57.535C359.089 56.2742 358.426 54.5341 358.424 52.3145C358.424 49.9624 359.28 48.1047 360.991 46.7414C362.681 45.3884 364.796 44.6661 366.968 44.7005C369.274 44.7005 371.072 45.1543 372.361 46.0618L372.462 40.666V40.4138C372.462 36.5474 371.224 34.6141 368.749 34.6141C368.24 34.6141 367.926 34.6476 367.809 34.7146C367.628 34.8487 367.48 35.021 367.375 35.2189L363.254 42.7837H363.153L359.954 35.5617C363.546 34.2838 366.971 33.6449 370.229 33.6449C373.821 33.6449 376.45 34.4185 378.113 35.9656C379.809 37.5494 380.657 40.1728 380.657 43.8357ZM370.483 46.2568C369.194 46.2568 368.185 46.7447 367.455 47.7205C366.725 48.6963 366.361 49.94 366.362 51.4517C366.362 52.7965 366.642 53.8472 367.203 54.6037C367.439 54.9562 367.761 55.2446 368.138 55.4427C368.516 55.6409 368.937 55.7425 369.364 55.7384C370.517 55.7384 371.483 55.1474 372.264 53.9654V53.9142L372.365 46.5523C371.758 46.3537 371.122 46.2546 370.483 46.2588V46.2568Z" fill="white"/>
<path d="M405 35.2789L402.268 43.0138H402.175L398.249 38.3833C397.953 38.0214 397.654 37.9387 397.357 38.1369C396.727 38.5975 396.015 39.5502 395.222 40.9949V54.2977C395.222 54.7885 395.471 55.2003 395.968 55.5294L400.836 58.3374V58.4356H384.188V58.3374L386.621 56.0703C386.92 55.8085 387.067 55.414 387.067 54.8886V37.8405C387.083 37.3885 386.923 36.9477 386.621 36.6088L384.188 34.1453V34.0471H395.215V40.354C395.678 38.4153 396.454 36.8115 397.543 35.5426C398.632 34.2736 399.991 33.6411 401.618 33.6449C403.045 33.65 404.172 34.1947 405 35.2789Z" fill="white"/>
<path d="M429.731 45.401H414.548V45.5015C414.548 48.5983 415.223 50.9107 416.572 52.4387C417.922 53.9668 419.659 54.7321 421.783 54.7347C425.359 54.7347 427.924 53.1877 429.478 50.0935H429.578C428.295 56.3146 424.566 59.4259 418.393 59.4272C414.918 59.4272 411.983 58.3505 409.588 56.1971C407.193 54.0436 405.995 50.8825 405.994 46.7136C405.994 42.3069 407.192 39.0275 409.588 36.8754C411.984 34.7232 415.021 33.6465 418.698 33.6452C420.05 33.6361 421.397 33.8233 422.695 34.201C423.953 34.5765 425.142 35.1557 426.212 35.9156C427.31 36.6908 428.179 37.7924 428.819 39.2206C429.46 40.6488 429.78 42.3391 429.78 44.2915C429.78 44.6127 429.762 44.9872 429.731 45.401ZM418.597 34.605C417.279 34.605 416.283 35.3697 415.61 36.899C414.936 38.4283 414.582 40.9595 414.548 44.4925H421.987C422.021 44.055 422.037 43.5524 422.037 42.9789C422.037 39.8506 421.741 37.6729 421.151 36.4457C420.56 35.2186 419.709 34.6017 418.597 34.5952V34.605Z" fill="white"/>
</svg>
