<svg width="465" height="212" viewBox="0 0 465 212" fill="none" xmlns="http://www.w3.org/2000/svg">
<path d="M327.792 187.717C328.05 187.801 328.297 187.913 328.53 188.051C328.705 188.153 328.87 188.271 329.021 188.405L329.356 188.71L329.493 188.848C328.018 189.074 327.192 190.107 327.035 191.965C327.063 193.167 327.214 194.364 327.487 195.535C327.787 196.874 327.923 198.244 327.891 199.616C327.724 201.651 326.806 203.551 325.314 204.946C324.538 205.71 323.615 206.309 322.601 206.706C321.587 207.103 320.503 207.29 319.414 207.257C318.373 207.246 317.363 206.901 316.533 206.273C316.118 206.001 315.776 205.63 315.537 205.195C315.299 204.759 315.171 204.272 315.166 203.775C312.93 205.952 310.869 207.037 308.98 207.03L313.651 201.415C314.884 201.415 317.591 197.701 321.774 190.274L321.863 190.087C322.304 189.23 322.988 188.522 323.829 188.051C324.743 187.547 325.795 187.351 326.829 187.491C327.158 187.525 327.482 187.601 327.792 187.717V187.717ZM317.959 200.501C317.923 200.591 317.906 200.689 317.909 200.786C317.893 200.889 317.907 200.995 317.949 201.091C317.991 201.186 318.059 201.268 318.145 201.327C318.349 201.478 318.6 201.555 318.853 201.543C319.217 201.539 319.575 201.458 319.905 201.303C320.234 201.149 320.526 200.925 320.761 200.648C321.312 200.053 321.639 199.285 321.686 198.475C321.686 197.656 321.686 196.869 321.686 196.115V196.066C321.68 195.987 321.653 195.91 321.608 195.845C321.563 195.779 321.502 195.726 321.43 195.692C321.282 195.623 321.155 195.692 321.027 195.879C319.683 197.983 318.667 199.511 317.978 200.461L317.959 200.501Z" fill="#F9DC53"/>
<path d="M335.767 199.753L332.749 206.549L332.159 206.46L330.89 206.342C330.363 206.304 329.834 206.304 329.307 206.342C327.85 206.461 326.419 206.793 325.059 207.325C326.37 205.162 328.533 200.835 331.549 194.345C334.564 187.855 337.026 182.476 338.934 178.208C340.957 178.722 343.091 178.57 345.021 177.775L340.104 188.592L338.354 191.326H338.973L339.298 190.854C339.894 189.946 340.707 189.201 341.663 188.686C342.619 188.171 343.689 187.902 344.775 187.904C347.076 187.904 348.227 188.94 348.227 191.011C348.227 192.241 347.568 194.011 346.26 196.302C344.952 198.593 344.293 200.098 344.293 200.786C344.293 201.287 344.519 201.543 344.952 201.543C345.867 201.543 346.919 200.56 347.981 198.711C347.282 200.818 346.191 202.773 344.765 204.474C344.205 205.267 343.471 205.922 342.619 206.387C341.766 206.853 340.819 207.116 339.848 207.158C337.678 207.158 336.593 206.073 336.593 203.903C336.652 202.511 337.014 201.148 337.656 199.911C338.364 198.416 339.072 197.066 339.78 195.859C340.302 195.112 340.664 194.265 340.842 193.371C340.852 193.301 340.845 193.229 340.823 193.162C340.8 193.094 340.762 193.033 340.711 192.984C340.66 192.934 340.598 192.897 340.53 192.875C340.463 192.854 340.391 192.848 340.32 192.86C339.298 192.801 337.78 195.099 335.767 199.753Z" fill="#F9DC53"/>
<path d="M364.326 195.938C363.015 200.461 361.048 202.789 358.426 202.92C356.124 205.811 353.814 207.266 351.483 207.266C350.809 207.327 350.13 207.216 349.511 206.942C348.892 206.669 348.352 206.242 347.943 205.703C347.166 204.448 346.821 202.973 346.96 201.504C347.117 198.547 348.428 195.535 350.893 192.467C353.358 189.399 356.134 187.865 359.222 187.865C359.727 187.85 360.229 187.949 360.69 188.155C361.152 188.361 361.561 188.669 361.887 189.054C362.576 189.932 362.925 191.028 362.87 192.142C362.755 194.517 362.081 196.832 360.904 198.898C362.064 198.8 363.149 197.816 364.159 195.948L364.326 195.938ZM355.829 201.169C355.705 200.691 355.682 200.191 355.764 199.703C355.845 199.215 356.028 198.75 356.301 198.337C356.624 197.885 357.041 197.508 357.523 197.231C358.005 196.955 358.541 196.785 359.094 196.734C360.222 194.401 360.55 192.844 360.078 192.063C360.005 191.942 359.901 191.843 359.776 191.777C359.651 191.711 359.511 191.681 359.37 191.69C358.544 191.69 357.462 192.83 356.105 195.132C354.6 197.649 353.853 199.567 353.892 200.894C353.892 201.455 354.089 201.74 354.502 201.74C355.003 201.692 355.472 201.474 355.829 201.12V201.169Z" fill="#F9DC53"/>
<path d="M370.409 206.755L372.582 198.023L367.439 206.755C365.383 206.538 363.31 206.538 361.254 206.755C361.48 205.909 361.814 204.572 362.237 202.743L363.398 198.121C363.712 196.862 364.037 195.495 364.381 194.01C364.725 192.526 364.971 191.306 365.138 190.333C365.286 189.651 365.359 188.955 365.355 188.258H371.864C370.533 192.502 369.446 196.82 368.609 201.189L374.274 190.372C374.422 189.673 374.501 188.962 374.51 188.248H381.029C379.734 192.32 378.677 196.463 377.863 200.658C381.423 192.889 384.701 187.317 387.697 183.941C390.696 180.558 393.685 178.867 396.635 178.867C397.791 178.823 398.924 179.192 399.831 179.909C400.21 180.188 400.519 180.551 400.736 180.969C400.952 181.386 401.07 181.848 401.08 182.318C401.08 184.547 399.789 186.15 397.206 187.127C397.219 186.916 397.164 186.707 397.049 186.529C396.934 186.352 396.765 186.217 396.567 186.144C396.078 185.9 395.539 185.779 394.993 185.789C392.535 185.789 389.473 187.986 385.809 192.378C382.162 196.768 379.08 201.598 376.634 206.755C374.565 206.536 372.478 206.536 370.409 206.755V206.755Z" fill="#F9DC53"/>
<path d="M464.599 164.037C464.685 159.838 463.149 155.767 460.312 152.67C458.95 151.12 457.272 149.879 455.391 149.031C453.51 148.183 451.47 147.747 449.406 147.753C446.29 147.64 443.244 148.692 440.861 150.703C437.635 153.525 437.272 156.357 437.517 158.245L437.96 161.481C437.501 161.555 437.038 161.591 436.573 161.589C432.433 161.589 427.782 159.278 422.728 154.705C420.958 153.11 419.338 151.355 417.889 149.464C418.617 148.847 419.309 148.191 419.964 147.497C423.131 144.055 424.743 140.348 424.743 136.493C424.751 135.326 424.575 134.165 424.222 133.052C425.456 133.192 426.697 133.264 427.939 133.268C431.812 133.333 435.597 132.108 438.697 129.787C440.328 128.615 441.652 127.067 442.557 125.275C443.463 123.483 443.923 121.499 443.899 119.491C443.911 117.606 443.525 115.74 442.769 114.014C443.523 112.349 443.909 110.541 443.899 108.713C443.899 103.728 441.51 99.6466 437.016 96.9128C435.707 96.1302 434.327 95.4717 432.896 94.9461C439.779 90.6586 443.486 84.3454 443.486 76.6752C443.487 74.948 443.242 73.2295 442.759 71.5715C443.25 69.7172 443.495 67.806 443.486 65.8876C443.567 63.1705 442.95 60.478 441.693 58.0677C440.436 55.6573 438.582 53.6097 436.308 52.1205C432.204 49.333 427.354 47.8521 422.393 47.8723C421.176 47.8877 419.963 48.0028 418.765 48.2165L412.137 49.4162L415.451 54.5789C414.476 55.0619 413.388 55.2693 412.304 55.1788C407.437 54.9994 402.61 54.2334 397.927 52.8974C391.82 51.324 385.832 49.5343 380.108 47.5774C372.712 45.1812 365.154 43.3178 357.491 42.0017C348.561 40.3505 339.5 39.5047 330.419 39.4744C321.422 39.4881 312.457 40.5607 303.711 42.6703C295.19 44.6804 286.95 47.7322 279.176 51.7567C271.692 55.6052 265.208 61.1436 260.236 67.933C255.314 74.6245 252.682 82.7257 252.733 91.0323C252.734 92.7643 252.869 94.4936 253.136 96.2048C252.872 98.0616 252.738 99.9345 252.733 101.81C252.627 106.551 253.737 111.24 255.958 115.43C252.683 115.393 249.437 116.052 246.435 117.362C243.433 118.672 240.743 120.604 238.543 123.031C234.198 127.484 231.703 133.42 231.561 139.64C230.787 138.021 229.705 136.568 228.375 135.362C225.629 132.777 221.998 131.341 218.227 131.35C217.304 131.349 216.383 131.425 215.473 131.577C215.94 130.147 216.215 128.663 216.289 127.161C216.522 124.351 215.717 121.552 214.028 119.294C213.144 118.175 212.046 117.243 210.799 116.552C209.551 115.862 208.178 115.427 206.761 115.272C206.073 115.176 205.38 115.133 204.686 115.144C203.107 115.142 201.533 115.32 199.995 115.675L204.912 105.065L198.707 107.563L204.912 94.2774L194.547 98.4567C193.217 98.9897 191.815 99.3211 190.388 99.4401C190.009 99.4791 189.628 99.4988 189.247 99.4991C188.248 99.5079 187.254 99.3687 186.297 99.0861L182.698 98.024L173.08 118.34C172.557 117.622 171.957 116.962 171.291 116.374C168.852 114.151 165.331 113.02 160.847 113.02C157.058 113.127 153.349 114.139 150.03 115.97C146.497 117.796 143.261 120.147 140.433 122.943C139.862 123.513 139.321 124.113 138.79 124.713C138.643 118.93 134.778 115.351 128.622 115.351C127.015 115.348 125.419 115.618 123.902 116.147H110.735L142.399 51.8648L134.965 56.1818L142.399 41.0773L129.812 48.2755C126.511 50.1112 122.895 51.3151 119.152 51.8255C117.699 52.0578 116.229 52.1762 114.757 52.1795C112.427 52.1899 110.107 51.8586 107.873 51.1961L104.363 50.1341L82.9056 92.4189C83.7905 89.4427 84.2604 86.3586 84.302 83.2539C84.3048 81.3396 84.1469 79.4284 83.8299 77.5405C84.1319 75.8657 84.2898 74.1681 84.302 72.4664C84.302 62.5245 80.28 53.7037 72.3639 46.2498C64.4478 38.7959 54.2994 35.1378 41.9582 35.1378C29.6169 35.1378 19.4391 38.8549 11.759 46.1908C4.07892 53.5267 0.00778185 62.4852 0.00778185 72.7319C0.0120878 74.5058 0.14354 76.2771 0.401128 78.0322C0.140195 79.8496 0.00874868 81.6833 0.00778185 83.5194C-0.162563 91.1365 2.4688 98.5512 7.4027 104.357C12.467 110.257 19.2031 113.296 27.365 113.296H28.5746C24.9789 117.873 21.806 122.767 19.0949 127.918C16.1448 133.524 14.6894 138.794 14.6894 143.593C14.6878 145.424 14.879 147.25 15.2598 149.041C14.8916 150.797 14.7005 152.586 14.6894 154.381C14.6894 160.605 16.6562 165.719 20.4225 169.554C24.1888 173.389 29.2728 175.336 35.3303 175.336C41.2305 175.336 47.3372 172.75 53.7488 167.528C53.7488 167.784 53.7488 168.05 53.7488 168.305C53.7472 170.279 53.8819 172.25 54.1519 174.205C53.8966 175.812 53.7618 177.436 53.7488 179.063C53.7488 188.425 56.4825 196.292 61.8714 202.458C64.4841 205.526 67.7481 207.974 71.4258 209.622C75.1036 211.271 79.1025 212.078 83.1318 211.986C93.2211 211.986 101.295 208.751 107.136 202.369C112.977 195.987 115.799 189.418 115.799 182.525C115.799 180.646 115.611 178.771 115.239 176.929C115.612 175.224 115.8 173.483 115.799 171.737C115.8 169.892 115.619 168.05 115.258 166.24C116.869 167.069 118.66 167.484 120.47 167.45C124.522 167.45 128.18 165.64 131.366 162.11C132.13 164.228 133.322 166.166 134.867 167.804C136.414 169.455 138.296 170.757 140.387 171.622C142.478 172.487 144.73 172.895 146.992 172.819C151.568 172.813 156 171.218 159.53 168.305C161.217 166.982 162.65 165.362 163.758 163.526C163.951 163.823 164.165 164.105 164.397 164.372C165.34 165.411 166.503 166.226 167.801 166.758C169.099 167.291 170.499 167.527 171.9 167.45C175.141 167.407 178.245 166.134 180.583 163.89C181.776 166.925 183.561 169.693 185.835 172.032C188.391 174.809 191.505 177.015 194.971 178.508C198.438 180 202.18 180.746 205.954 180.696C212.824 180.849 219.518 178.516 224.805 174.127C229.242 170.603 232.12 165.48 232.82 159.858C234.47 165.151 237.653 169.836 241.965 173.32C248.649 178.898 257.118 181.882 265.822 181.728C272.375 181.757 278.858 180.375 284.83 177.677C290.872 174.889 296.316 170.955 300.859 166.093C305.211 161.551 309.196 156.671 312.777 151.5C315.727 147.242 318.776 142.256 321.952 136.661H325.502C324.189 139.52 323.434 142.604 323.28 145.747C323.268 147.442 323.623 149.119 324.322 150.664C323.687 152.548 323.336 154.517 323.28 156.505C323.23 159.18 324.136 161.785 325.836 163.851C326.71 164.948 327.821 165.832 329.087 166.435C330.354 167.039 331.74 167.345 333.143 167.332C334.353 167.328 335.553 167.105 336.683 166.673C337.413 169.779 338.926 172.646 341.079 175.002C342.63 176.789 344.549 178.219 346.705 179.195C348.86 180.171 351.201 180.669 353.567 180.656C355.395 180.735 357.22 180.453 358.937 179.825C360.655 179.198 362.232 178.237 363.578 176.998C364.819 175.851 365.809 174.459 366.486 172.911C367.163 171.362 367.512 169.69 367.512 168C367.514 166.967 367.358 165.939 367.049 164.952L367.649 163.624C368.372 164.636 369.3 165.483 370.373 166.112C371.445 166.74 372.638 167.136 373.874 167.273L370.737 172.14L383 167.479C384.89 166.748 386.878 166.304 388.9 166.162C389.096 166.162 389.313 166.162 389.549 166.162C389.972 166.162 390.434 166.162 390.955 166.221C391.938 166.289 392.568 166.348 392.922 166.398C393.163 166.421 393.402 166.457 393.64 166.506L397.101 167.194L398.576 163.821C399.401 166.356 400.387 168.836 401.526 171.246C403.995 176.728 407.467 181.701 411.763 185.907C415.466 189.446 419.75 192.32 424.429 194.404C428.86 196.345 433.644 197.349 438.481 197.354C442.364 197.323 446.201 196.507 449.76 194.954C453.692 193.252 457.169 190.648 459.909 187.353C462.944 183.887 464.612 179.433 464.599 174.825C464.607 173.018 464.339 171.221 463.803 169.495C464.333 167.725 464.602 165.886 464.599 164.037V164.037ZM371.947 108.969C371.929 110.755 372.301 112.524 373.038 114.151C372.789 114.765 372.585 115.396 372.428 116.039H350.293C350.059 115.692 349.8 115.364 349.516 115.056C348.538 114.014 347.349 113.194 346.027 112.651C344.706 112.109 343.283 111.856 341.855 111.909C340.17 111.939 338.496 112.197 336.88 112.676L340.38 105.212H336.585C338.355 101.367 339.8 98.3289 340.862 96.2048C344.678 88.8296 348.798 83.6472 353.135 80.7758C355.632 81.9263 359.576 83.7947 364.935 86.3712C372.222 89.8818 377.63 92.3697 381.003 93.7562L381.987 94.1397C380.868 94.6892 379.793 95.3237 378.771 96.0377C376.639 97.4442 374.896 99.3655 373.703 101.624C372.51 103.882 371.906 106.405 371.947 108.959V108.969ZM296.355 77.216C299.276 75.4317 302.425 74.0523 305.717 73.1154C308.981 72.1776 312.36 71.6977 315.757 71.6895C318.664 71.7047 321.567 71.9348 324.44 72.3779C322.39 74.9887 320.515 77.7317 318.825 80.589C311.479 92.6844 306.435 100.866 303.75 104.996C303.735 103.367 303.52 101.745 303.111 100.168C303.585 98.2382 303.8 96.254 303.75 94.2676C303.593 85.8401 299.325 82.1918 295.775 80.6086L293.366 79.5368C294.28 78.66 295.282 77.8791 296.355 77.2062V77.216ZM282.145 127.486C280.09 128.583 277.883 129.368 275.596 129.816L274.613 127.486C275.8 127.643 276.995 127.725 278.192 127.732C279.514 127.721 280.834 127.636 282.145 127.476V127.486ZM241.719 125.765C243.539 123.773 245.763 122.193 248.242 121.13C250.721 120.067 253.399 119.545 256.096 119.599C258.965 119.546 261.804 120.195 264.366 121.487C266.623 122.574 268.424 124.424 269.45 126.709C268.548 126.688 267.669 126.999 266.982 127.584C266.665 127.849 266.412 128.182 266.242 128.558C266.071 128.935 265.988 129.344 265.999 129.757C265.963 130.45 266.105 131.139 266.409 131.762C266.714 132.385 267.171 132.92 267.739 133.317C269.027 134.172 270.551 134.602 272.095 134.546C281.274 134.546 290.37 129.177 299.384 118.439L303.317 109.156H305.923C307.959 106.825 313.525 97.8667 322.641 82.8704C329.518 71.3584 336.971 64.6322 345.002 62.6917C334.159 58.6206 324.43 56.5883 315.816 56.5948C312.01 56.6 308.224 57.1361 304.566 58.1879C300.863 59.2187 297.319 60.7541 294.034 62.7507C290.793 64.7561 288.092 67.5245 286.167 70.8143C284.111 74.2812 283.056 78.2501 283.119 82.2803C283.141 83.8116 283.621 85.3013 284.496 86.558C284.939 87.2429 285.555 87.7983 286.282 88.1679C287.009 88.5375 287.821 88.7081 288.636 88.6624C289.769 88.6203 290.871 88.2812 291.832 87.679C292.393 87.359 292.879 86.9206 293.254 86.3942C293.629 85.8678 293.886 85.266 294.005 84.6306C297.486 86.1712 299.276 89.413 299.374 94.3561C299.451 97.0925 298.854 99.8059 297.637 102.258C296.419 104.71 294.618 106.825 292.392 108.418C288.225 111.315 283.235 112.79 278.163 112.627C275.411 112.692 272.673 112.213 270.106 111.217C267.539 110.222 265.194 108.729 263.206 106.825C259.148 102.951 257.116 97.6766 257.109 91.0028C257.068 83.6821 259.412 76.5472 263.786 70.6766C268.365 64.4688 274.332 59.4175 281.211 55.9261C288.665 52.0939 296.561 49.1941 304.724 47.2922C313.139 45.2699 321.764 44.2467 330.419 44.2437C339.232 44.2511 348.026 45.0541 356.694 46.6431C364.147 47.8995 371.499 49.6939 378.692 52.0123C384.547 53.9791 390.594 55.7688 396.836 57.3815C401.877 58.7997 407.07 59.6053 412.304 59.7809C415.401 59.7809 417.624 59.0237 418.981 57.529C419.62 56.9326 420.017 56.1219 420.097 55.2514C420.177 54.3809 419.934 53.5115 419.414 52.8089C420.371 52.6318 421.341 52.5332 422.315 52.5138C426.405 52.4911 430.406 53.7082 433.79 56.0048C435.462 57.0689 436.825 58.5541 437.741 60.3111C438.658 62.0682 439.096 64.0355 439.012 66.0155C439.012 72.2107 436.108 77.0521 430.299 80.5398C424.425 84.0547 417.693 85.8755 410.848 85.8008C405.553 85.7376 400.287 85.0075 395.174 83.6276C390.684 82.5313 386.27 81.1485 381.957 79.4876C378.765 78.1764 373.661 75.8295 366.646 72.4467C359.631 69.0639 355.095 66.9202 353.036 66.0155C347.333 68.9262 342.157 74.8789 337.509 83.8734C336.06 86.7776 334.025 91.1569 331.402 97.0112C328.747 102.911 326.78 107.101 325.502 109.146H334.067L328.688 120.946H319.395C316.292 126.748 312.878 132.377 309.168 137.811C305.717 142.751 301.88 147.411 297.692 151.745C293.533 156.17 288.554 159.744 283.03 162.267C277.623 164.695 271.758 165.932 265.831 165.896C258.159 166.061 250.682 163.46 244.768 158.57C241.94 156.333 239.669 153.471 238.133 150.209C236.597 146.947 235.839 143.373 235.917 139.768C235.927 134.515 238.013 129.478 241.719 125.755V125.765ZM185.107 103.147C186.958 103.682 188.894 103.855 190.81 103.659C192.656 103.511 194.47 103.1 196.199 102.439L180.947 134.969C180.022 136.774 179.255 138.656 178.656 140.594C178.39 141.754 178.764 142.335 179.767 142.335C181.055 142.335 182.432 141.204 183.907 138.962C184.999 134.028 187.46 129.501 191.007 125.902C195.065 121.549 199.631 119.373 204.705 119.373C205.182 119.36 205.659 119.386 206.131 119.452C206.989 119.524 207.823 119.768 208.585 120.168C209.346 120.568 210.02 121.117 210.566 121.782C211.612 123.196 212.092 124.949 211.913 126.699C211.718 129.954 210.286 133.011 207.911 135.244C206.808 136.442 205.469 137.399 203.978 138.054C202.487 138.709 200.876 139.048 199.248 139.05C196.822 139.05 195.527 137.86 195.363 135.48C195.078 136.676 194.919 137.899 194.891 139.129C194.777 141.769 195.541 144.374 197.065 146.534C197.799 147.492 198.756 148.256 199.853 148.76C200.949 149.264 202.153 149.492 203.358 149.425C205.608 149.485 207.807 148.755 209.573 147.36C210.352 146.815 210.992 146.093 211.44 145.254C211.887 144.415 212.131 143.482 212.149 142.531C212.147 141.896 211.956 141.277 211.599 140.751C211.418 140.48 211.17 140.26 210.879 140.113C210.587 139.967 210.263 139.898 209.937 139.915C210.791 138.493 212.015 137.33 213.478 136.549C214.942 135.768 216.59 135.399 218.246 135.48C220.925 135.476 223.504 136.496 225.454 138.332C226.495 139.266 227.318 140.416 227.865 141.702C228.412 142.989 228.67 144.379 228.621 145.776C228.645 148.408 228.062 151.01 226.916 153.379C225.769 155.749 224.091 157.821 222.013 159.435C217.505 163.144 211.809 165.099 205.974 164.942C202.785 164.983 199.623 164.349 196.696 163.081C193.769 161.813 191.143 159.941 188.991 157.587C184.455 152.886 182.662 147.137 183.612 140.338C182.534 142.789 181.164 145.1 179.531 147.222C177.23 150.211 174.68 151.703 171.881 151.696C171.112 151.762 170.338 151.658 169.614 151.392C168.89 151.125 168.233 150.702 167.691 150.152C167.232 149.602 166.886 148.965 166.675 148.28C166.464 147.594 166.392 146.874 166.462 146.16C166.557 144.438 166.86 142.734 167.367 141.086C167.924 139.285 168.642 137.537 169.511 135.864L185.107 103.147ZM143.579 125.686C146.091 123.212 148.966 121.136 152.105 119.53C154.821 118.036 157.856 117.213 160.955 117.131C164.338 117.131 166.839 117.862 168.458 119.324C169.194 119.916 169.788 120.664 170.198 121.515C170.608 122.365 170.824 123.296 170.828 124.241C170.772 126.249 169.973 128.166 168.586 129.62C167.927 130.387 167.107 131.001 166.184 131.415C165.261 131.83 164.258 132.036 163.247 132.019C161.881 132.088 160.538 131.655 159.471 130.8C159.026 130.439 158.672 129.979 158.438 129.456C158.204 128.933 158.096 128.363 158.123 127.791C158.116 126.995 158.336 126.214 158.757 125.54C159.179 124.866 159.785 124.326 160.503 123.985C160.503 124.447 160.759 124.673 161.29 124.673C161.478 124.671 161.664 124.628 161.834 124.546C162.004 124.465 162.154 124.347 162.273 124.201C162.535 123.891 162.675 123.496 162.666 123.09C162.666 121.999 161.949 121.458 160.503 121.458C158.781 121.603 157.143 122.264 155.803 123.356C153.954 124.709 152.291 126.299 150.856 128.086C149.236 130.068 147.893 132.261 146.864 134.605C145.843 136.76 145.287 139.105 145.231 141.489C145.231 144.478 146.497 145.973 149.027 145.973C150.113 145.975 151.162 145.579 151.977 144.862C152.43 144.483 152.791 144.006 153.035 143.468C153.278 142.93 153.397 142.345 153.383 141.754C153.393 141.267 153.221 140.794 152.902 140.427C153.839 139.847 154.917 139.538 156.019 139.532C156.729 139.523 157.433 139.657 158.09 139.926C158.747 140.194 159.344 140.592 159.844 141.096C160.378 141.616 160.794 142.246 161.064 142.942C161.334 143.637 161.451 144.383 161.408 145.127C161.329 148.372 159.805 151.165 156.806 153.525C154.036 155.808 150.561 157.06 146.972 157.065C145.316 157.134 143.664 156.85 142.126 156.231C140.588 155.612 139.2 154.673 138.053 153.476C135.792 151.062 134.576 147.853 134.67 144.547C134.717 141.051 135.587 137.615 137.207 134.517C138.822 131.237 140.976 128.252 143.579 125.686V125.686ZM121.316 119.963L118.425 124.88H119.123C121.66 121.117 124.781 119.235 128.485 119.235C132.28 119.235 134.178 120.95 134.178 124.378C134.178 126.411 133.1 129.325 130.943 133.12C128.78 136.926 127.708 139.394 127.708 140.535C127.708 141.371 128.072 141.784 128.799 141.784C130.304 141.784 131.966 140.23 133.795 137.103C132.649 140.586 130.846 143.817 128.485 146.622C125.974 149.67 123.191 151.152 120.136 151.067C118.854 151.019 117.631 150.514 116.69 149.642C115.748 148.771 115.15 147.592 115.003 146.317C114.956 143.8 115.552 141.313 116.733 139.089C117.9 136.624 119.074 134.389 120.254 132.383C121.424 130.416 122.004 129.01 122.004 128.282C122.021 128.166 122.01 128.048 121.973 127.936C121.935 127.825 121.873 127.724 121.79 127.641C121.707 127.558 121.606 127.496 121.495 127.458C121.383 127.421 121.265 127.41 121.149 127.427C119.477 127.427 116.953 131.095 113.577 138.431L108.267 150.231C108.011 150.185 107.683 150.136 107.283 150.083C106.89 150.024 106.202 149.965 105.218 149.887C104.36 149.825 103.499 149.825 102.642 149.887C100.234 150.06 97.8649 150.587 95.6107 151.45C101.526 141.309 106.845 130.831 111.541 120.071L121.316 119.963ZM111.384 171.098C111.384 176.821 108.886 182.394 103.891 187.815C98.8951 193.237 91.9689 195.944 83.1121 195.938C79.7153 196.028 76.341 195.36 73.2349 193.982C70.1288 192.604 67.3688 190.551 65.1558 187.973C60.4619 182.662 58.1182 175.897 58.1247 167.676C58.1247 159.239 63.2284 145.183 73.4358 125.509C58.9606 148.205 46.2588 159.553 35.3303 159.553C30.4331 159.553 26.4997 158.068 23.5299 155.099C20.5601 152.129 19.0785 148.133 19.0851 143.111C19.0851 139.053 20.3962 134.553 23.0186 129.61C25.7051 124.534 28.866 119.723 32.4589 115.243L43.5217 101.338C47.1566 96.8193 50.323 91.943 52.9719 86.7842C55.5942 81.6903 56.9054 76.9538 56.9054 72.5745C56.8807 69.1633 55.7603 65.8504 53.7094 63.1244C52.7764 61.7289 51.5075 60.5905 50.0194 59.8138C48.5313 59.0371 46.8718 58.647 45.1935 58.6796C42.1745 58.6796 39.8636 59.3286 38.2411 60.6463C37.4907 61.1946 36.8805 61.9124 36.4602 62.7411C36.0398 63.5699 35.8211 64.4863 35.822 65.4156C35.8024 66.6036 36.251 67.7516 37.0709 68.6116C37.4678 69.0424 37.952 69.3837 38.4912 69.6126C39.0305 69.8415 39.6123 69.9528 40.198 69.9391C42.5843 69.9391 43.9905 69.0541 44.4166 67.284C46.2066 68.3228 47.6769 69.8333 48.6671 71.6506C49.6573 73.468 50.1293 75.5224 50.0316 77.5897C50.0316 83.0048 47.8977 87.7708 43.6299 91.8878C39.3621 96.0049 33.9503 98.0601 27.3945 98.0536C20.5175 98.0536 14.9746 95.605 10.7658 90.7078C6.52533 85.7627 4.26894 79.421 4.43293 72.9089C4.43293 63.9602 7.86816 56.231 14.7386 49.7211C21.6091 43.2112 30.6691 39.9563 41.9189 39.9563C53.1555 39.9563 62.2909 43.2341 69.3253 49.7899C76.3596 56.3457 79.8637 63.9242 79.8375 72.5254C79.8375 77.3176 78.2739 82.8638 75.1468 89.1639C72.2483 95.0964 68.7979 100.743 64.8411 106.029C61.0912 110.965 57.656 115.78 54.5355 120.474C51.4149 125.168 49.8546 128.551 49.8546 130.623C49.8526 131.024 49.9398 131.421 50.1098 131.785C50.2799 132.149 50.5286 132.471 50.838 132.727C51.4772 133.307 52.3158 133.617 53.1784 133.592C57.0332 133.592 62.3958 129.4 69.2663 121.015C75.7552 113.175 81.3921 104.667 86.0819 95.6345L106.536 55.6508C110.845 56.9101 115.383 57.1791 119.811 56.4375C124.089 55.8416 128.219 54.4614 131.995 52.3663L99.5441 117.8C91.2183 134.668 87.157 147.055 87.3602 154.961C87.5667 159.13 89.2286 161.205 92.3557 161.205C93.5475 161.23 94.7003 160.781 95.5615 159.956C95.9926 159.562 96.3342 159.079 96.5632 158.542C96.7922 158.004 96.9033 157.423 96.889 156.839C96.8099 156.103 96.5386 155.401 96.1024 154.804C98.0552 154.357 100.093 154.449 101.998 155.069C103.902 155.689 105.603 156.814 106.919 158.324C109.896 161.517 111.381 165.765 111.374 171.069L111.384 171.098ZM329.141 136.011C330.97 132.026 332.799 128.276 334.628 124.762C336.457 121.248 337.371 118.865 337.371 117.613C337.386 117.412 337.35 117.211 337.266 117.029C337.181 116.847 337.052 116.689 336.889 116.57C341.033 115.22 343.963 115.489 345.681 117.377C347.398 119.265 347.156 122.464 344.953 126.974L341.02 134.566C338.869 138.644 338.574 140.66 340.135 140.614H341.305C342.288 140.555 343.704 138.647 345.632 134.772L345.789 134.448L346.831 132.285L352.732 119.963H363.46L355.809 136.277C353.843 140.545 352.859 144.055 352.859 146.809C352.859 147.133 352.859 147.448 352.909 147.792C357.498 139.67 362.113 130.406 366.754 120.002H376.509L373.618 124.919H374.395C377.017 121.051 380.194 119.121 383.924 119.127C387.779 119.127 389.716 120.868 389.716 124.359C389.716 126.424 388.618 129.374 386.422 133.209C384.219 137.074 383.127 139.581 383.127 140.751C383.127 141.597 383.491 142.02 384.239 142.02C385.36 142.02 386.559 141.164 387.848 139.473C389.293 136.523 390.945 133.042 392.764 129.089L392.843 128.843L395.941 121.546C397.733 117.217 399.939 113.071 402.529 109.166C399.73 108.278 396.812 107.824 393.876 107.818C392.024 107.79 390.203 108.299 388.634 109.284C387.1 110.267 386.333 111.417 386.333 112.735C386.297 113.275 386.453 113.809 386.774 114.245C387.094 114.68 387.558 114.989 388.084 115.115C386.916 115.869 385.538 116.231 384.15 116.147C382.004 116.204 379.909 115.485 378.25 114.122C377.443 113.456 376.801 112.612 376.374 111.657C375.948 110.702 375.748 109.66 375.791 108.615C375.749 106.847 376.16 105.098 376.987 103.535C377.813 101.971 379.027 100.646 380.512 99.6859C383.483 97.5487 387.049 96.3966 390.709 96.3917C396.793 96.3917 403.116 98.1093 409.678 101.544C413.662 98.7215 418.446 97.2499 423.327 97.3455H424.035C427.768 97.3101 431.438 98.3109 434.636 100.237C437.835 102.203 439.435 104.862 439.435 108.212C439.455 109.527 439.151 110.827 438.549 111.997C437.947 113.167 437.065 114.17 435.983 114.918C433.632 116.653 430.772 117.559 427.851 117.495C425.672 117.496 423.501 117.245 421.38 116.747C419.637 116.367 417.927 115.848 416.267 115.194C414.956 114.676 413.261 113.909 411.183 112.893C408.417 116.575 406.149 120.605 404.437 124.88H404.968L405.047 124.801C407.898 121.084 411.098 119.229 414.644 119.235C415.449 119.197 416.253 119.319 417.01 119.596C417.767 119.873 418.46 120.299 419.05 120.848C419.624 121.401 420.075 122.068 420.375 122.807C420.675 123.545 420.816 124.339 420.79 125.135C420.79 127.882 419.564 130.57 417.113 133.199C414.639 135.854 411.465 137.756 407.957 138.686C410.159 146.077 414.411 152.692 420.22 157.764C426.245 163.172 431.948 165.876 437.331 165.876C439.484 165.983 441.603 165.309 443.3 163.978C443.994 163.455 444.558 162.78 444.95 162.004C445.343 161.228 445.552 160.373 445.561 159.504C445.569 159.146 445.493 158.79 445.337 158.467C445.181 158.144 444.952 157.863 444.666 157.646C444.403 157.408 444.074 157.257 443.722 157.213C443.37 157.169 443.013 157.234 442.7 157.4C442.542 156.22 443.175 155.01 444.598 153.771C446.228 152.463 448.283 151.802 450.37 151.913C451.854 151.888 453.326 152.186 454.684 152.785C456.043 153.384 457.255 154.271 458.237 155.384C460.357 157.69 461.499 160.729 461.423 163.86C461.42 167.459 460.101 170.931 457.716 173.625C455.372 176.428 452.401 178.638 449.042 180.076C445.974 181.421 442.667 182.133 439.317 182.171C434.996 182.156 430.725 181.253 426.769 179.516C422.482 177.618 418.554 174.997 415.156 171.767C411.187 167.912 407.984 163.341 405.715 158.295C402.938 152.319 401.1 145.95 400.267 139.414L400.189 138.204L394.534 150.988C394.269 150.939 393.915 150.88 393.492 150.831C393.069 150.782 392.302 150.703 391.23 150.624C390.317 150.562 389.4 150.562 388.487 150.624C385.999 150.805 383.55 151.348 381.22 152.237C381.947 151.096 382.99 149.189 384.347 146.543C384.14 146.799 383.944 147.065 383.727 147.32C381.105 150.519 378.178 152.05 374.946 151.913C373.667 151.845 372.453 151.332 371.514 150.463C370.574 149.593 369.969 148.422 369.803 147.153C369.723 144.501 370.337 141.874 371.583 139.532C372.802 136.975 374.015 134.661 375.221 132.589C376.431 130.524 377.031 129.108 377.031 128.361C377.048 128.24 377.038 128.117 377 128.001C376.962 127.885 376.898 127.779 376.812 127.692C376.726 127.605 376.621 127.54 376.505 127.501C376.39 127.461 376.266 127.449 376.145 127.466C374.428 127.466 371.806 131.259 368.279 138.844L362.87 151.018C362.605 150.969 362.27 150.91 361.887 150.86C361.503 150.811 360.766 150.733 359.743 150.654C358.859 150.592 357.972 150.592 357.088 150.654C355.566 150.762 354.058 151.016 352.584 151.411C352.705 151.718 352.846 152.017 353.007 152.306C353.342 152.914 353.841 153.415 354.449 153.75C355.056 154.086 355.746 154.243 356.439 154.204C357.108 154.211 357.765 154.031 358.337 153.683C358.604 153.524 358.819 153.29 358.956 153.011C359.092 152.731 359.143 152.418 359.104 152.109C359.6 152.216 360.069 152.424 360.482 152.72C360.895 153.017 361.242 153.394 361.503 153.83C362.193 154.867 362.538 156.096 362.487 157.341C362.448 158.389 362.2 159.418 361.757 160.369C361.315 161.32 360.687 162.173 359.91 162.877C357.962 164.604 355.409 165.488 352.81 165.335C351.03 165.359 349.265 164.993 347.641 164.263C346.017 163.532 344.573 162.455 343.409 161.107C340.897 158.4 339.523 154.829 339.574 151.136C339.609 149.176 339.88 147.228 340.38 145.334C337.634 149.687 334.838 151.863 331.992 151.863C331.225 151.881 330.464 151.718 329.771 151.388C329.077 151.059 328.471 150.572 328 149.965C326.944 148.687 326.385 147.07 326.426 145.412C326.407 143.125 327.312 139.991 329.141 136.011Z" fill="#BD2306"/>
<path d="M409.086 128.587C409.11 128.415 409.095 128.239 409.04 128.074C408.985 127.909 408.892 127.759 408.769 127.636C408.646 127.512 408.496 127.42 408.33 127.365C408.165 127.31 407.99 127.294 407.817 127.318C406.283 127.318 404.434 129.429 402.271 133.651L401.484 135.392C403.499 134.735 405.329 133.609 406.824 132.107C408.289 130.603 409.086 129.433 409.086 128.587Z" fill="#BD2306"/>
<path d="M426.033 107.052C424.958 106.458 423.737 106.182 422.512 106.255C421.238 106.341 419.983 106.609 418.785 107.052C422.011 109.018 424.381 110.002 425.915 110.002C426.809 110.002 427.262 109.608 427.262 108.822C427.229 108.445 427.099 108.083 426.883 107.773C426.668 107.462 426.374 107.213 426.033 107.052V107.052Z" fill="#BD2306"/>
<path d="M200.674 126.611C199.505 127.837 198.512 129.221 197.724 130.721C197.547 130.963 197.41 131.232 197.32 131.518C197.216 131.837 197.216 132.182 197.32 132.501C197.379 132.659 197.491 132.792 197.635 132.878C197.78 132.963 197.95 132.997 198.117 132.973C199.12 132.973 200.359 132.101 201.834 130.357C203.309 128.613 204.05 127.109 204.057 125.844C204.061 125.701 204.027 125.56 203.958 125.435C203.889 125.31 203.787 125.207 203.663 125.136C203.516 125.048 203.352 124.991 203.181 124.968C202.581 124.939 201.755 125.499 200.674 126.611Z" fill="#BD2306"/>
<path d="M106.85 158.344C105.534 156.833 103.833 155.708 101.928 155.088C100.023 154.468 97.9858 154.377 96.033 154.823C96.4692 155.421 96.7405 156.123 96.8197 156.859C96.8339 157.443 96.7228 158.024 96.4938 158.561C96.2648 159.099 95.9232 159.582 95.4921 159.976C94.6309 160.8 93.4781 161.249 92.2863 161.225C89.1592 161.225 87.4973 159.15 87.2908 154.981C87.0876 147.074 91.1489 134.687 99.4747 117.819L131.926 52.386C128.149 54.4777 124.018 55.8545 119.742 56.4473C115.314 57.1889 110.776 56.92 106.466 55.6607L86.0813 95.6345C81.3754 104.666 75.722 113.17 69.2166 121.005C62.3461 129.39 56.9769 133.586 53.109 133.592C52.2464 133.617 51.4078 133.307 50.7686 132.727C50.4592 132.471 50.2105 132.149 50.0404 131.785C49.8704 131.421 49.7832 131.024 49.7852 130.623C49.7852 128.538 51.3455 125.155 54.4661 120.474C57.5866 115.793 61.0218 110.978 64.7717 106.029C68.7285 100.743 72.1789 95.0964 75.0774 89.1639C78.2045 82.8638 79.7681 77.3177 79.7681 72.5254C79.7681 63.8914 76.2542 56.2933 69.2264 49.731C62.1986 43.1686 53.0631 39.8907 41.82 39.8973C30.5703 39.8973 21.5102 43.1522 14.6397 49.6621C7.76927 56.172 4.35699 63.898 4.40288 72.8401C4.23889 79.3522 6.49528 85.6939 10.7358 90.639C14.9446 95.5362 20.4875 97.9847 27.3645 97.9847C33.9203 97.9847 39.3321 95.9295 43.5999 91.819C47.8677 87.7086 50.0016 82.9425 50.0016 77.5209C50.0992 75.4536 49.6272 73.3992 48.6371 71.5818C47.6469 69.7645 46.1766 68.254 44.3866 67.2152C43.9604 68.9853 42.5542 69.8703 40.1679 69.8703C39.5823 69.884 39.0004 69.7727 38.4612 69.5438C37.9219 69.3149 37.4377 68.9736 37.0408 68.5427C36.2209 67.6828 35.7723 66.5348 35.7919 65.3468C35.7911 64.4175 36.0097 63.5011 36.4301 62.6723C36.8505 61.8435 37.4607 61.1258 38.211 60.5775C39.8336 59.2794 42.1445 58.6108 45.1634 58.6108C46.8417 58.5782 48.5013 58.9683 49.9894 59.745C51.4775 60.5217 52.7464 61.6601 53.6794 63.0556C55.7302 65.7816 56.8506 69.0945 56.8753 72.5057C56.8753 76.8784 55.5642 81.615 52.9418 86.7154C50.2958 91.8913 47.1294 96.7842 43.4917 101.318L32.4583 115.243C28.862 119.723 25.6979 124.533 23.0082 129.61C20.3859 134.546 19.0747 139.047 19.0747 143.111C19.0747 148.107 20.5596 152.09 23.5294 155.059C26.4991 158.029 30.4326 159.514 35.3298 159.514C46.2582 159.514 58.96 148.166 73.4352 125.47C63.2279 145.137 58.1242 159.193 58.1242 167.637C58.1242 175.858 60.4679 182.623 65.1553 187.933C67.3645 190.519 70.1228 192.579 73.2291 193.964C76.3354 195.349 79.7116 196.023 83.1115 195.938C91.9618 195.938 98.8847 193.23 103.88 187.815C108.876 182.4 111.373 176.828 111.373 171.098C111.373 165.768 109.866 161.517 106.85 158.344Z" fill="#FF9933"/>
<path d="M102.65 149.779C103.508 149.717 104.369 149.717 105.227 149.779C106.21 149.858 106.898 149.917 107.292 149.976C107.685 150.035 108.009 150.074 108.275 150.123L113.585 138.323C116.968 130.987 119.492 127.319 121.157 127.319C121.273 127.303 121.392 127.313 121.503 127.351C121.614 127.388 121.715 127.45 121.798 127.533C121.881 127.616 121.944 127.717 121.981 127.829C122.018 127.94 122.029 128.058 122.013 128.174C122.013 128.902 121.432 130.269 120.262 132.275C119.092 134.281 117.912 136.513 116.742 138.982C115.56 141.205 114.965 143.692 115.011 146.209C115.158 147.484 115.757 148.663 116.698 149.535C117.64 150.406 118.862 150.911 120.144 150.959C123.199 151.038 125.982 149.556 128.493 146.514C130.855 143.709 132.657 140.478 133.803 136.995C131.974 140.122 130.312 141.676 128.808 141.676C128.08 141.676 127.716 141.263 127.716 140.427C127.716 139.287 128.788 136.818 130.951 133.013C133.115 129.207 134.187 126.306 134.187 124.271C134.187 120.835 132.289 119.121 128.493 119.128C124.697 119.134 121.573 121.032 119.122 124.821H118.423L121.314 119.904H111.559C106.863 130.665 101.544 141.142 95.6289 151.284C97.8831 150.441 100.249 149.934 102.65 149.779V149.779Z" fill="#FF9933"/>
<path d="M137.206 134.497C135.586 137.595 134.717 141.031 134.669 144.528C134.575 147.834 135.791 151.043 138.052 153.457C139.199 154.653 140.587 155.592 142.125 156.211C143.663 156.83 145.315 157.115 146.971 157.046C150.56 157.04 154.036 155.789 156.805 153.506C159.755 151.146 161.328 148.353 161.407 145.108C161.45 144.363 161.333 143.618 161.063 142.922C160.793 142.226 160.377 141.597 159.843 141.076C159.343 140.572 158.746 140.175 158.089 139.906C157.432 139.637 156.728 139.504 156.018 139.512C154.916 139.518 153.838 139.828 152.901 140.407C153.22 140.775 153.392 141.248 153.383 141.735C153.396 142.325 153.277 142.911 153.034 143.449C152.79 143.987 152.429 144.463 151.976 144.842C151.161 145.56 150.112 145.955 149.026 145.953C146.502 145.953 145.237 144.459 145.231 141.469C145.286 139.086 145.842 136.74 146.863 134.586C147.893 132.248 149.236 130.062 150.855 128.086C152.316 126.286 154.009 124.689 155.89 123.336C157.23 122.245 158.869 121.583 160.591 121.438C162.036 121.438 162.754 121.979 162.754 123.071C162.762 123.476 162.622 123.871 162.361 124.182C162.241 124.328 162.091 124.445 161.921 124.527C161.752 124.609 161.566 124.652 161.377 124.654C160.846 124.654 160.591 124.428 160.591 123.965C159.872 124.307 159.267 124.846 158.845 125.521C158.423 126.195 158.203 126.976 158.211 127.771C158.184 128.343 158.291 128.914 158.525 129.436C158.759 129.959 159.113 130.42 159.558 130.78C160.599 131.622 161.908 132.061 163.246 132.019C164.237 132.032 165.22 131.83 166.126 131.428C167.032 131.026 167.841 130.432 168.497 129.689C169.884 128.235 170.683 126.318 170.739 124.31C170.734 123.365 170.519 122.434 170.109 121.584C169.699 120.733 169.105 119.985 168.369 119.393C166.743 117.924 164.242 117.193 160.866 117.2C157.767 117.282 154.732 118.104 152.016 119.599C148.877 121.205 146.002 123.281 143.49 125.755C140.926 128.301 138.803 131.256 137.206 134.497V134.497Z" fill="#FF9933"/>
<path d="M169.512 135.874C168.643 137.547 167.926 139.294 167.368 141.095C166.862 142.744 166.558 144.448 166.464 146.17C166.393 146.883 166.465 147.604 166.677 148.289C166.888 148.975 167.233 149.612 167.693 150.162C168.235 150.711 168.891 151.134 169.615 151.401C170.339 151.668 171.113 151.772 171.882 151.706C174.688 151.706 177.238 150.214 179.533 147.232C181.165 145.11 182.535 142.798 183.614 140.348C182.676 147.14 184.469 152.889 188.993 157.596C191.15 159.926 193.774 161.775 196.693 163.024C199.612 164.273 202.761 164.893 205.936 164.844C211.771 165.001 217.467 163.045 221.975 159.337C224.054 157.723 225.732 155.65 226.878 153.281C228.024 150.912 228.608 148.31 228.583 145.678C228.632 144.281 228.374 142.89 227.827 141.604C227.28 140.318 226.457 139.167 225.417 138.234C223.466 136.398 220.887 135.378 218.208 135.382C216.552 135.3 214.904 135.669 213.44 136.45C211.977 137.231 210.753 138.395 209.899 139.817C210.225 139.8 210.549 139.868 210.841 140.015C211.132 140.161 211.38 140.381 211.561 140.653C211.918 141.178 212.109 141.798 212.112 142.433C212.093 143.384 211.85 144.317 211.402 145.156C210.954 145.995 210.315 146.716 209.535 147.261C207.769 148.656 205.57 149.387 203.32 149.326C202.115 149.394 200.912 149.166 199.815 148.662C198.718 148.158 197.761 147.393 197.027 146.435C195.503 144.275 194.739 141.671 194.854 139.03C194.881 137.801 195.04 136.578 195.326 135.382C195.483 137.762 196.778 138.952 199.21 138.952C200.838 138.949 202.449 138.61 203.94 137.955C205.431 137.3 206.77 136.344 207.873 135.146C210.248 132.912 211.68 129.855 211.876 126.601C212.055 124.851 211.574 123.098 210.528 121.684C209.982 121.019 209.308 120.47 208.547 120.07C207.785 119.669 206.951 119.426 206.093 119.353C205.621 119.287 205.144 119.261 204.667 119.274C199.6 119.274 195.034 121.451 190.969 125.804C187.426 129.417 184.975 133.958 183.899 138.902C182.424 141.145 181.047 142.275 179.759 142.275C178.775 142.275 178.382 141.695 178.648 140.535C179.253 138.617 180.023 136.755 180.949 134.969L196.24 102.518C194.511 103.179 192.696 103.589 190.851 103.737C188.935 103.934 186.999 103.76 185.148 103.226L169.512 135.874ZM203.645 125.135C203.768 125.207 203.87 125.31 203.94 125.435C204.009 125.56 204.043 125.701 204.038 125.843C204.038 127.115 203.297 128.62 201.816 130.357C200.334 132.094 199.095 132.966 198.099 132.973C197.932 132.997 197.762 132.963 197.617 132.877C197.472 132.791 197.361 132.659 197.302 132.501C197.198 132.181 197.198 131.837 197.302 131.517C197.392 131.232 197.528 130.963 197.705 130.721C198.493 129.22 199.486 127.837 200.655 126.61C201.737 125.499 202.563 124.939 203.143 124.939C203.323 124.967 203.494 125.034 203.645 125.135V125.135Z" fill="#FF9933"/>
<path d="M235.92 139.768C235.841 143.373 236.6 146.947 238.135 150.209C239.671 153.471 241.942 156.333 244.77 158.57C250.682 163.458 258.154 166.058 265.824 165.896C271.75 165.932 277.616 164.695 283.023 162.268C288.546 159.744 293.526 156.17 297.685 151.746C301.872 147.411 305.709 142.752 309.161 137.811C312.87 132.377 316.284 126.748 319.388 120.947H328.681L334.06 109.146H325.504C326.753 107.101 328.72 102.872 331.404 97.0114C334.089 91.1505 336.125 86.7745 337.58 83.8736C342.221 74.8791 347.397 68.9265 353.107 66.0157C355.146 66.8942 359.673 69.0248 366.688 72.4076C373.702 75.7904 378.806 78.1373 381.999 79.4485C386.311 81.1094 390.726 82.4922 395.215 83.5884C400.314 84.9784 405.567 85.7217 410.851 85.801C417.692 85.8876 424.424 84.0805 430.302 80.5793C436.117 77.0851 439.021 72.2437 439.014 66.055C439.098 64.075 438.66 62.1078 437.743 60.3507C436.827 58.5936 435.464 57.1085 433.793 56.0444C430.408 53.7477 426.407 52.5306 422.317 52.5534C421.343 52.5727 420.373 52.6714 419.416 52.8484C419.936 53.5511 420.179 54.4205 420.099 55.291C420.019 56.1615 419.622 56.9722 418.983 57.5686C417.626 59.0633 415.404 59.8205 412.306 59.8205C407.072 59.6449 401.879 58.8393 396.838 57.4211C390.603 55.8215 384.555 54.0317 378.695 52.0519C371.501 49.7335 364.149 47.9391 356.697 46.6827C348.029 45.0805 339.235 44.2643 330.421 44.244C321.766 44.2469 313.141 45.2701 304.726 47.2924C296.577 49.1974 288.694 52.0971 281.253 55.9263C274.374 59.4177 268.407 64.469 263.828 70.6768C259.454 76.5475 257.11 83.6823 257.15 91.003C257.15 97.6768 259.183 102.951 263.247 106.825C265.236 108.729 267.581 110.222 270.147 111.217C272.714 112.213 275.452 112.692 278.204 112.627C283.263 112.782 288.238 111.307 292.394 108.418C294.62 106.821 296.418 104.702 297.633 102.246C298.847 99.7908 299.439 97.0746 299.357 94.3366C299.258 89.4001 297.468 86.1583 293.987 84.6111C293.868 85.2465 293.612 85.8483 293.237 86.3748C292.861 86.9012 292.376 87.3396 291.814 87.6596C290.853 88.2617 289.751 88.6008 288.618 88.6429C287.804 88.6887 286.992 88.5181 286.265 88.1485C285.538 87.7789 284.921 87.2234 284.478 86.5385C283.603 85.2818 283.124 83.7921 283.102 82.2609C283.039 78.2306 284.094 74.2618 286.15 70.7949C288.075 67.5051 290.776 64.7366 294.017 62.7312C297.277 60.7378 300.794 59.1993 304.47 58.1586C308.128 57.1069 311.914 56.5707 315.72 56.5655C324.334 56.5655 334.063 58.5978 344.906 62.6624C336.875 64.6291 329.421 71.3554 322.544 82.8411C313.448 97.8374 307.882 106.796 305.827 109.126H303.28L299.347 118.409C290.346 129.148 281.249 134.517 272.058 134.517C270.513 134.573 268.99 134.143 267.702 133.288C267.134 132.89 266.676 132.355 266.372 131.733C266.067 131.11 265.926 130.42 265.961 129.728C265.951 129.315 266.034 128.905 266.205 128.529C266.375 128.153 266.628 127.82 266.945 127.555C267.632 126.97 268.511 126.659 269.413 126.68C268.387 124.394 266.586 122.545 264.329 121.458C261.767 120.165 258.928 119.517 256.059 119.57C253.362 119.516 250.684 120.038 248.205 121.101C245.726 122.164 243.502 123.744 241.682 125.736C237.985 129.47 235.914 134.514 235.92 139.768V139.768Z" fill="#FF9933"/>
<path d="M326.397 145.373C326.356 147.031 326.914 148.648 327.97 149.926C328.441 150.532 329.048 151.02 329.741 151.349C330.434 151.679 331.195 151.841 331.962 151.824C334.814 151.824 337.61 149.648 340.351 145.295C339.85 147.189 339.58 149.137 339.544 151.096C339.493 154.79 340.867 158.361 343.379 161.068C344.543 162.416 345.987 163.493 347.611 164.223C349.236 164.954 351 165.32 352.78 165.296C355.379 165.449 357.932 164.565 359.88 162.838C360.657 162.133 361.285 161.281 361.728 160.33C362.17 159.379 362.418 158.349 362.457 157.301C362.508 156.057 362.163 154.828 361.473 153.791C361.213 153.355 360.865 152.977 360.452 152.681C360.04 152.385 359.57 152.177 359.074 152.07C359.114 152.378 359.062 152.692 358.926 152.971C358.79 153.251 358.574 153.485 358.307 153.643C357.736 153.991 357.078 154.172 356.409 154.165C355.716 154.204 355.026 154.047 354.419 153.711C353.812 153.375 353.312 152.875 352.977 152.267C352.817 151.978 352.675 151.679 352.554 151.372C354.028 150.976 355.536 150.723 357.058 150.615C357.942 150.552 358.829 150.552 359.713 150.615C360.696 150.693 361.454 150.762 361.857 150.821C362.26 150.88 362.594 150.929 362.84 150.978L368.327 138.795C371.828 131.216 374.45 127.424 376.194 127.417C376.315 127.4 376.438 127.412 376.554 127.451C376.67 127.491 376.775 127.556 376.861 127.643C376.946 127.73 377.011 127.836 377.049 127.952C377.087 128.068 377.097 128.191 377.079 128.312C377.079 129.059 376.479 130.475 375.27 132.54C374.06 134.605 372.851 136.926 371.631 139.483C370.385 141.825 369.772 144.452 369.852 147.104C370.018 148.373 370.623 149.544 371.562 150.414C372.502 151.283 373.716 151.796 374.995 151.863C378.207 151.988 381.134 150.457 383.776 147.271C383.992 147.015 384.189 146.75 384.396 146.494C383.039 149.14 381.996 151.047 381.268 152.188C383.599 151.299 386.048 150.755 388.536 150.575C389.449 150.513 390.366 150.513 391.279 150.575C392.351 150.654 393.108 150.723 393.541 150.782C393.974 150.841 394.318 150.89 394.583 150.939L400.238 138.155L400.316 139.365C401.149 145.901 402.987 152.27 405.764 158.246C408.033 163.292 411.236 167.863 415.204 171.718C418.59 174.959 422.509 177.593 426.789 179.506C430.744 181.243 435.016 182.147 439.336 182.161C442.686 182.124 445.994 181.411 449.062 180.066C452.42 178.628 455.392 176.418 457.735 173.615C460.12 170.922 461.439 167.449 461.442 163.851C461.518 160.719 460.376 157.68 458.256 155.374C457.274 154.261 456.062 153.374 454.704 152.775C453.346 152.176 451.874 151.878 450.389 151.903C448.302 151.792 446.247 152.454 444.617 153.761C443.221 155 442.591 156.21 442.729 157.39C443.042 157.225 443.399 157.16 443.751 157.203C444.103 157.247 444.432 157.398 444.696 157.636C444.981 157.853 445.211 158.135 445.366 158.458C445.522 158.781 445.599 159.136 445.59 159.494C445.581 160.363 445.372 161.219 444.98 161.994C444.588 162.77 444.023 163.445 443.329 163.969C441.632 165.299 439.513 165.973 437.36 165.867C431.977 165.867 426.274 163.162 420.249 157.754C414.44 152.682 410.188 146.067 407.987 138.677C411.494 137.746 414.668 135.844 417.142 133.189C419.587 130.567 420.813 127.879 420.819 125.126C420.856 124.337 420.728 123.55 420.443 122.813C420.159 122.077 419.724 121.408 419.167 120.848C418.578 120.299 417.884 119.873 417.128 119.596C416.371 119.319 415.567 119.197 414.762 119.235C411.209 119.235 408.01 121.091 405.164 124.801L405.086 124.88H404.555C406.267 120.605 408.535 116.575 411.3 112.893C413.411 113.909 415.106 114.676 416.385 115.194C418.045 115.848 419.755 116.367 421.498 116.747C423.619 117.245 425.79 117.496 427.969 117.495C430.89 117.559 433.75 116.653 436.101 114.918C437.183 114.17 438.064 113.167 438.666 111.997C439.268 110.827 439.573 109.527 439.553 108.212C439.553 104.829 437.953 102.171 434.754 100.237C431.556 98.311 427.886 97.3102 424.153 97.3456H423.445C418.555 97.2408 413.76 98.7092 409.766 101.535C403.211 98.1061 396.888 96.3885 390.797 96.3819C387.126 96.3835 383.548 97.5394 380.57 99.686C379.085 100.646 377.872 101.971 377.045 103.535C376.219 105.098 375.807 106.847 375.85 108.615C375.807 109.66 376.006 110.702 376.433 111.657C376.859 112.612 377.501 113.456 378.309 114.122C379.967 115.485 382.062 116.205 384.209 116.148C385.596 116.231 386.974 115.869 388.142 115.115C387.617 114.989 387.153 114.68 386.832 114.245C386.512 113.809 386.356 113.275 386.392 112.735C386.392 111.424 387.159 110.274 388.693 109.284C390.262 108.299 392.082 107.79 393.934 107.818C396.871 107.824 399.789 108.279 402.588 109.166C399.998 113.071 397.791 117.217 395.999 121.546L392.902 128.843L392.823 129.089C390.964 133.022 389.312 136.493 387.906 139.473C386.618 141.164 385.418 142.02 384.297 142.02C383.55 142.02 383.186 141.597 383.186 140.751C383.186 139.581 384.278 137.074 386.48 133.209C388.683 129.344 389.775 126.384 389.775 124.359C389.775 120.868 387.808 119.127 383.983 119.127C380.157 119.127 377.05 121.094 374.454 124.919H373.834L376.715 120.002H366.98C362.247 130.669 357.514 140.174 352.78 148.52C352.78 148.205 352.731 147.891 352.731 147.537C352.731 144.705 353.747 141.099 355.78 136.72L363.647 120.002H352.653L346.752 132.324L345.71 134.487L345.553 134.812C343.638 138.647 342.196 140.594 341.226 140.653H340.134C338.567 140.706 338.862 138.69 341.019 134.605L344.953 127.014C347.156 122.503 347.398 119.304 345.68 117.416C343.963 115.528 341.032 115.259 336.889 116.61C337.052 116.728 337.181 116.886 337.265 117.068C337.35 117.251 337.386 117.452 337.371 117.652C337.371 118.891 336.456 121.274 334.627 124.801C332.798 128.328 330.969 132.078 329.14 136.051C327.311 140.011 326.397 143.118 326.397 145.373ZM425.913 109.972C424.379 109.972 421.98 108.989 418.784 107.022C419.982 106.58 421.237 106.312 422.511 106.225C423.736 106.152 424.957 106.428 426.031 107.022C426.369 107.181 426.66 107.425 426.875 107.73C427.091 108.035 427.223 108.391 427.261 108.762C427.261 109.579 426.789 109.972 425.913 109.972V109.972ZM402.204 133.651C404.368 129.436 406.217 127.325 407.751 127.319C407.923 127.294 408.099 127.31 408.264 127.365C408.429 127.42 408.579 127.513 408.702 127.636C408.825 127.759 408.918 127.909 408.973 128.074C409.028 128.239 409.044 128.415 409.019 128.587C409.019 129.433 408.262 130.603 406.757 132.108C405.262 133.609 403.432 134.735 401.418 135.392L402.204 133.651Z" fill="#FF9933"/>
<path d="M99.2963 1.44777C98.0987 1.15804 96.8832 0.947796 95.6579 0.81842H93.0716C88.0368 1.17899 84.1033 2.62781 81.2712 5.1649C80.3121 6.02513 79.4897 7.02655 78.8325 8.13466C78.0987 9.34886 77.5766 10.679 77.2886 12.0681C76.9533 13.5878 77.1804 15.1775 77.9278 16.5425C78.3318 17.4434 78.9302 18.2439 79.6799 18.8865C80.4296 19.5292 81.3122 19.998 82.2644 20.2596C83.4125 20.5856 84.6197 20.6461 85.7947 20.4366C86.8233 20.2675 87.7991 19.8637 88.6465 19.2565C90.6919 17.7815 91.5966 16.0344 91.3605 14.0152C91.3488 13.4791 91.2032 12.9545 90.937 12.4891C90.6708 12.0237 90.2924 11.6322 89.8363 11.3503C89.3676 11.1045 88.8359 11.0049 88.3099 11.0645C87.784 11.1241 87.2881 11.3401 86.8862 11.6846C87.0666 11.6714 87.2467 11.7144 87.4017 11.8078C87.5567 11.9011 87.6789 12.0402 87.7516 12.2058C87.8099 12.3548 87.8242 12.5174 87.7928 12.6743C87.7614 12.8311 87.6857 12.9757 87.5746 13.0908C87.4505 13.2206 87.2933 13.314 87.12 13.3608C86.9466 13.4076 86.7638 13.4061 86.5912 13.3563C86.011 13.2678 85.6865 12.7762 85.6079 11.8911C85.5112 11.1793 85.5993 10.4547 85.8635 9.78672C86.5191 7.5512 88.1908 5.89259 90.8787 4.81089C93.5798 3.73074 96.5716 3.61955 99.3455 4.49621C100.184 4.67128 100.982 5.00506 101.696 5.47958C100.337 5.92797 99.1199 6.72477 98.1654 7.79049C97.2836 8.87484 96.4816 10.0218 95.766 11.2224C94.2254 13.8775 92.734 16.3064 91.2917 18.5092C90.0687 20.4291 88.6976 22.2506 87.1911 23.957C85.9109 25.4003 84.3478 26.5651 82.5987 27.3791C81.1403 28.1853 79.4618 28.5024 77.8098 28.2838C77.5013 28.2174 77.2141 28.0755 76.9739 27.8708C76.7455 27.7109 76.5898 27.4669 76.5412 27.1923C76.5035 27.0494 76.4954 26.9003 76.5175 26.7542C76.5396 26.6081 76.5914 26.4681 76.6698 26.3428C76.7481 26.2174 76.8513 26.1095 76.9729 26.0256C77.0946 25.9417 77.2321 25.8836 77.3771 25.8549C78.0556 25.6287 78.5178 25.7763 78.7538 26.2876C78.9111 26.5334 78.8325 26.9071 78.5276 27.4185C79.0301 27.5025 79.5445 27.484 80.0396 27.364C80.5348 27.244 81.0006 27.025 81.4089 26.7203C81.7485 26.4493 82.0266 26.1094 82.225 25.7228C82.4233 25.3363 82.5373 24.9121 82.5594 24.4782C82.6774 22.6688 81.7629 21.2331 79.7962 20.1809C77.9769 19.2324 75.8574 19.0381 73.896 19.6401C72.1854 20.0488 70.6534 21.0011 69.5298 22.3541C68.3886 23.7772 67.7032 25.5113 67.5631 27.33C67.289 29.3048 67.7359 31.3122 68.8218 32.9843C69.821 34.4217 71.2241 35.5305 72.8536 36.1704C74.7439 36.9369 76.7945 37.2241 78.8226 37.0063C82.4563 36.689 85.8731 35.1419 88.5088 32.6205C90.75 30.5276 92.6482 28.0951 94.1336 25.4124C95.9842 22.0799 97.6454 18.6458 99.1095 15.1264C99.2668 14.7626 99.5127 14.1725 99.8568 13.3367C100.201 12.5008 100.476 11.8518 100.693 11.3699C100.909 10.8881 101.175 10.3177 101.509 9.66872C101.808 9.07628 102.156 8.51042 102.551 7.97733C103.397 6.88579 104.026 6.34494 104.449 6.34494C104.812 6.35327 105.16 6.48905 105.433 6.72845C105.694 6.94203 105.995 7.10239 106.318 7.20047C105.624 8.14324 104.99 9.12853 104.42 10.1506C103.78 11.2323 103.269 12.1665 102.876 12.9532C102.495 13.7142 101.995 14.7514 101.357 16.0737L101.293 16.2081L99.847 19.2369L93.6026 31.5486C95.9669 30.5819 98.5665 30.3455 101.066 30.8701C101.827 29.2705 102.899 26.8875 104.282 23.721C104.37 23.5047 104.557 23.0818 104.842 22.4328C105.128 21.7838 105.354 21.3118 105.501 20.9873C105.646 20.6683 105.858 20.2922 106.117 19.8312L106.131 19.8072C106.374 19.3883 106.646 18.9873 106.947 18.6075C107.488 17.8503 108.038 17.5553 108.579 17.7028C108.815 18.0667 108.746 18.6665 108.353 19.5122C108.068 19.9941 107.684 20.7513 107.085 21.7936C106.485 22.836 106.042 23.6424 105.777 24.2225C105.42 25.0164 105.131 25.8387 104.911 26.681C104.714 27.5451 104.714 28.4425 104.911 29.3066C104.969 29.725 105.143 30.1186 105.415 30.4422C105.686 30.7658 106.043 31.0062 106.445 31.1356C108.402 31.824 110.428 31.1061 112.503 28.8739C113.929 27.2406 115.007 25.3332 115.669 23.2687C115.64 23.3277 115.483 23.5834 115.178 24.0357C114.87 24.4881 114.604 24.8519 114.381 25.1272C114.181 25.3761 113.925 25.5748 113.634 25.7074C113.484 25.834 113.302 25.918 113.109 25.9509C112.915 25.9837 112.716 25.9642 112.532 25.8943C112.188 25.7369 112.1 25.3928 112.188 24.8519C112.417 23.9623 112.768 23.1086 113.231 22.3148L114.538 20.0531C115.837 17.7028 116.22 15.8639 115.669 14.5364C115.437 14.0491 115.068 13.64 114.607 13.3588C114.146 13.0777 113.613 12.9368 113.073 12.9532C111.926 12.7943 110.759 13.0153 109.749 13.5825C108.873 14.0821 108.104 14.7506 107.488 15.5492L107.35 15.7361C107.292 15.8414 107.223 15.9403 107.144 16.0311C107.078 16.0885 107.001 16.132 106.917 16.1589C106.823 16.1972 106.717 16.1972 106.622 16.1589C106.544 16.1294 106.563 16.0016 106.622 15.7951C106.668 15.7161 106.728 15.6462 106.799 15.5886C106.937 15.5198 106.937 15.4312 106.937 15.4312C108.815 12.4123 110.094 10.4751 110.782 9.59988C113.258 11.0341 116.187 11.4702 118.973 10.8193C122.199 9.97356 123.648 8.05928 123.32 5.0764C123.183 4.40122 122.885 3.76897 122.452 3.23319C122.019 2.69741 121.464 2.27387 120.832 1.99846C119.418 1.23763 117.803 0.93522 116.21 1.1331C114.024 1.30873 111.934 2.11108 110.192 3.44401C110.045 3.53251 109.799 3.71935 109.445 3.98486C109.183 4.20407 108.903 4.4014 108.609 4.57488C107.979 4.35854 106.986 4.01436 105.659 3.51284C104.331 3.01133 103.259 2.61798 102.423 2.33281C101.588 2.04763 100.555 1.75262 99.2963 1.44777Z" fill="#F9DC53"/>
<path d="M122.033 25.609C123.567 26.7006 125.574 26.4056 128.042 24.7535C128.978 24.0739 129.83 23.2849 130.579 22.4033C130.2 23.6345 129.608 24.7896 128.829 25.8155C128.152 26.8051 127.381 27.7271 126.527 28.569C125.631 29.5516 124.529 30.3253 123.301 30.835C122.072 31.3448 120.747 31.5784 119.418 31.5191C118.703 31.5285 117.997 31.3643 117.36 31.0405C116.722 30.7168 116.173 30.2432 115.76 29.6605C115.19 28.8222 114.851 27.8489 114.776 26.8382C114.688 25.7789 114.794 24.7123 115.091 23.6915C115.367 22.7385 115.715 21.8081 116.133 20.9085C117.298 18.4233 119.083 16.2796 121.316 14.6838C122.798 13.5989 124.565 12.97 126.4 12.8744C127.579 12.7324 128.77 13.0223 129.753 13.6906C130.17 14.0021 130.509 14.4055 130.744 14.8694C130.979 15.3333 131.105 15.8452 131.11 16.3654C131.158 17.3167 131.008 18.2676 130.669 19.158C130.331 20.0483 129.811 20.8587 129.143 21.5379C127.951 22.9838 126.238 23.9023 124.374 24.0947C122.741 24.2225 121.797 23.603 121.522 22.2459C121.227 23.8488 121.365 24.9502 122.033 25.609ZM118.011 26.7006C118.065 26.7523 118.134 26.7837 118.208 26.7891C118.306 26.3957 118.208 26.1204 118.08 25.9729C118.228 25.9729 118.306 25.9139 118.306 25.7959C118.306 25.7959 118.198 25.7959 118.08 25.7959C117.972 25.7869 117.864 25.7869 117.756 25.7959V25.4714H117.53C117.518 25.443 117.518 25.4113 117.53 25.3829V25.3337C117.536 25.3198 117.539 25.3047 117.539 25.2894C117.539 25.2742 117.536 25.2591 117.53 25.2452C117.441 25.2452 117.421 25.2452 117.53 25.1567H117.303C117.303 25.2157 117.303 25.255 117.303 25.2649C117.303 25.2747 117.392 25.2649 117.392 25.3337C117.185 25.3927 117.136 25.609 117.254 25.963C117.441 25.963 117.53 25.963 117.53 25.963C117.53 25.963 117.412 26.0319 117.441 26.0712C117.451 26.1099 117.451 26.1505 117.441 26.1892C117.382 26.0712 117.313 26.0122 117.215 26.0122C117.117 26.0122 117.156 26.0712 117.215 26.1007C117.274 26.1302 117.313 26.1597 117.313 26.1892C117.313 26.2187 117.126 26.3269 116.861 26.4154V26.1892C116.838 26.2068 116.811 26.2163 116.782 26.2163C116.754 26.2163 116.726 26.2068 116.704 26.1892C116.674 26.1522 116.632 26.1276 116.586 26.1204C116.625 26.2985 116.625 26.4831 116.586 26.6612C116.598 26.6629 116.61 26.6617 116.621 26.6578C116.633 26.654 116.643 26.6475 116.652 26.6389C116.66 26.6304 116.667 26.6199 116.671 26.6084C116.675 26.597 116.676 26.5848 116.674 26.5727C116.674 26.4842 116.674 26.4449 116.812 26.4842C116.713 26.5727 116.753 26.6514 116.9 26.7104C116.902 26.736 116.896 26.7616 116.884 26.7842C116.872 26.8067 116.854 26.8255 116.831 26.8382C116.831 26.8382 116.831 26.9366 116.831 27.0251C116.886 26.9787 116.952 26.9464 117.022 26.9309C117.092 26.9155 117.165 26.9175 117.235 26.9366C117.235 26.8383 117.235 26.7792 117.303 26.7497C117.372 26.7202 117.412 26.6809 117.412 26.6121C117.412 26.5432 117.412 26.5531 117.303 26.5236C117.195 26.4941 117.185 26.4449 117.185 26.3859H117.412C117.461 26.3902 117.511 26.3846 117.558 26.3694C117.605 26.3542 117.649 26.3297 117.687 26.2974C117.687 26.2974 117.687 26.2286 117.579 26.1597C117.543 26.1358 117.517 26.1001 117.504 26.0589C117.492 26.0177 117.494 25.9734 117.51 25.9335H117.736C117.721 25.9953 117.722 26.0602 117.742 26.1209C117.761 26.1817 117.796 26.236 117.844 26.2777C117.952 26.3859 117.992 26.4646 117.962 26.5236C117.939 26.4702 117.9 26.4249 117.851 26.3934C117.802 26.3619 117.745 26.3456 117.687 26.3466C117.642 26.445 117.625 26.5538 117.638 26.6612C117.665 26.6393 117.696 26.6228 117.73 26.6129C117.763 26.603 117.798 26.5998 117.833 26.6034C117.867 26.6071 117.901 26.6176 117.932 26.6342C117.962 26.6509 117.99 26.6734 118.011 26.7006ZM117.126 25.019H116.763C116.771 25.1402 116.771 25.2617 116.763 25.3829C116.753 25.5204 116.753 25.6584 116.763 25.7959C117.028 25.8155 117.156 25.5304 117.097 25.019H117.126ZM117.579 24.1143C117.579 23.9668 117.52 23.8881 117.402 23.8881C117.284 23.8881 117.402 23.9472 117.264 23.9865C117.126 24.0258 117.146 24.0553 117.176 24.1143C117.205 24.1733 117.313 24.2127 117.549 24.1143H117.579ZM117.264 27.6053C117.412 27.6643 117.49 27.6053 117.49 27.4184C117.431 27.4184 117.382 27.4184 117.353 27.4184C117.33 27.4455 117.299 27.463 117.264 27.4676V27.6053ZM117.628 24.9797H117.697C117.706 24.8979 117.737 24.8199 117.785 24.7535C117.808 24.704 117.819 24.6504 117.819 24.5962C117.819 24.5419 117.808 24.4883 117.785 24.4388C117.748 24.4349 117.713 24.4232 117.68 24.4046C117.648 24.386 117.62 24.3608 117.598 24.3307C117.58 24.2985 117.555 24.2711 117.524 24.2506C117.493 24.2301 117.458 24.2171 117.421 24.2127C117.414 24.3203 117.39 24.4263 117.353 24.5273C117.303 24.6847 117.353 24.783 117.353 24.8519C117.37 24.8193 117.399 24.7947 117.434 24.7837C117.469 24.7726 117.507 24.7759 117.539 24.7929C117.572 24.8098 117.597 24.839 117.608 24.874C117.619 24.9091 117.615 24.9471 117.598 24.9797H117.628ZM117.441 27.0546C117.421 27.0852 117.41 27.1211 117.41 27.1579C117.41 27.1946 117.421 27.2305 117.441 27.2611C117.441 27.3103 117.549 27.3103 117.638 27.2611C117.726 27.2119 117.598 27.0546 117.412 27.0546H117.441ZM117.716 28.864C117.808 28.864 117.838 28.8345 117.805 28.7755H117.756H117.667C117.608 28.9197 117.608 29.0082 117.667 29.041C117.673 29.0473 117.68 29.0523 117.687 29.0557C117.695 29.0592 117.703 29.061 117.712 29.061C117.72 29.061 117.728 29.0592 117.736 29.0557C117.743 29.0523 117.75 29.0473 117.756 29.041C117.756 29.041 117.687 28.9623 117.687 28.864H117.716ZM117.805 25.2059H117.667C117.726 25.3239 117.775 25.3829 117.805 25.3829V25.2059ZM117.756 22.0788C117.746 22.1241 117.746 22.1711 117.756 22.2164C117.9 22.1826 118.037 22.1226 118.159 22.0394C118.131 22.0096 118.11 21.9737 118.098 21.9344C118.086 21.8952 118.083 21.8537 118.09 21.8132C118.095 21.7511 118.095 21.6886 118.09 21.6264C118.09 21.6854 118.031 21.7444 117.903 21.7837C117.775 21.8231 117.726 21.9018 117.726 21.9903C117.726 22.0788 117.795 22.0493 117.726 22.0788H117.756ZM117.874 27.9003C117.874 27.8511 117.805 27.8413 117.716 27.9003C117.716 28.0871 117.775 28.1756 117.893 28.1756C117.888 28.0822 117.871 27.9898 117.844 27.9003H117.874ZM117.943 23.1703C117.854 23.1703 117.795 23.1703 117.756 23.1703C117.801 23.1594 117.848 23.1594 117.893 23.1703C117.897 23.1842 117.904 23.1971 117.914 23.2077C117.924 23.2183 117.936 23.2264 117.949 23.2312C117.963 23.2361 117.977 23.2375 117.992 23.2355C118.006 23.2334 118.019 23.2279 118.031 23.2195C118.031 23.2195 118.011 23.1998 117.913 23.1703H117.943ZM118.031 27.1038C117.972 27.1038 117.913 27.1038 117.854 26.9661C117.795 26.8284 117.854 26.9661 117.756 26.9661V27.2808C117.755 27.3076 117.761 27.334 117.773 27.358C117.785 27.382 117.803 27.4027 117.825 27.4184C117.892 27.4364 117.963 27.4364 118.031 27.4184V27.1038ZM118.08 24.9797C118.026 24.9739 117.971 24.9838 117.922 25.0082C117.874 25.0326 117.833 25.0705 117.805 25.1174C117.893 25.2354 118.011 25.1862 118.011 24.9797H118.08ZM118.395 21.4986C118.395 21.6756 118.503 21.7936 118.71 21.8526C118.704 21.7786 118.673 21.709 118.621 21.6559C118.579 21.6117 118.548 21.5576 118.533 21.4986H118.621C118.632 21.5032 118.644 21.5055 118.656 21.5055C118.667 21.5055 118.679 21.5032 118.69 21.4986C118.697 21.4761 118.697 21.4522 118.69 21.4297H118.415C118.415 21.4297 118.356 21.4297 118.306 21.3609C118.287 21.3393 118.276 21.3113 118.276 21.2822C118.276 21.2532 118.287 21.2252 118.306 21.2036C118.149 21.2036 118.051 21.2626 117.982 21.4789V21.5281L118.395 21.4986ZM118.08 22.2656C118.077 22.2896 118.079 22.314 118.087 22.337C118.095 22.3599 118.108 22.3808 118.125 22.3979C118.142 22.4151 118.163 22.428 118.186 22.4358C118.209 22.4435 118.233 22.4459 118.257 22.4426C118.27 22.3246 118.188 22.2656 118.011 22.2656H118.08ZM118.395 28.7755C118.409 28.7554 118.417 28.7313 118.417 28.7066C118.417 28.682 118.409 28.6579 118.395 28.6378C118.385 28.6091 118.385 28.578 118.395 28.5493C118.337 28.5483 118.279 28.5659 118.232 28.5994C118.184 28.633 118.148 28.6809 118.129 28.7361C118.209 28.7406 118.288 28.7505 118.365 28.7656L118.395 28.7755ZM118.12 27.2808C118.136 27.298 118.156 27.3118 118.178 27.3211C118.2 27.3305 118.224 27.3353 118.247 27.3353C118.271 27.3353 118.295 27.3305 118.317 27.3211C118.339 27.3118 118.359 27.298 118.375 27.2808C118.444 27.2021 118.375 27.1529 118.306 27.1234C118.249 27.1534 118.185 27.1702 118.12 27.1726V27.2808ZM118.326 22.3639C118.326 22.4819 118.434 22.5213 118.533 22.4918C118.509 22.4514 118.497 22.4056 118.497 22.359C118.497 22.3124 118.509 22.2666 118.533 22.2263C118.562 22.1963 118.584 22.1609 118.6 22.1221C118.615 22.0832 118.622 22.0418 118.621 22.0001C118.326 22.0001 118.169 22.0591 118.169 22.1771C118.169 22.2951 118.247 22.2754 118.297 22.4033L118.326 22.3639ZM118.434 21.9509C118.425 21.9222 118.425 21.8911 118.434 21.8624C118.434 21.8624 118.434 21.7837 118.434 21.7247H118.297V21.7739C118.336 21.9313 118.375 21.9903 118.405 21.9903L118.434 21.9509ZM118.71 26.7891C118.699 26.7943 118.687 26.797 118.675 26.797C118.663 26.797 118.652 26.7943 118.641 26.7891C118.632 26.776 118.627 26.7606 118.627 26.7448C118.627 26.7291 118.632 26.7136 118.641 26.7006C118.599 26.693 118.555 26.693 118.513 26.7006C118.461 26.7088 118.413 26.7329 118.375 26.7694C118.483 26.9071 118.592 26.9268 118.68 26.7989L118.71 26.7891ZM118.71 27.1136H118.533C118.533 27.1726 118.533 27.2119 118.533 27.2414C118.515 27.2521 118.5 27.2663 118.488 27.2833C118.476 27.3002 118.468 27.3195 118.464 27.3398C118.503 27.3791 118.592 27.3004 118.68 27.1529L118.71 27.1136ZM118.552 25.1469C118.552 25.0977 118.552 25.0977 118.661 25.1469C118.652 25.2056 118.652 25.2652 118.661 25.3239C118.72 25.3239 118.759 25.3239 118.769 25.255C118.789 25.1978 118.789 25.1353 118.769 25.078C118.75 24.9972 118.75 24.913 118.769 24.8322V24.783C118.769 24.724 118.71 24.7043 118.68 24.783C118.644 24.8207 118.62 24.8688 118.611 24.9207C118.611 24.9797 118.611 25.0485 118.611 25.1272C118.611 25.2059 118.611 25.255 118.611 25.2845C118.611 25.314 118.503 25.2747 118.523 25.2255L118.552 25.1469ZM118.621 25.845C118.621 25.786 118.621 25.7566 118.621 25.7566L118.533 25.845V25.9827C118.542 26.0909 118.592 26.0516 118.592 25.9237L118.621 25.845ZM118.621 27.8118C118.652 27.844 118.672 27.8842 118.681 27.9276C118.69 27.9711 118.686 28.0162 118.67 28.0576C118.67 28.0576 118.67 28.0576 118.739 28.1265C118.808 28.1953 118.739 28.1855 118.847 28.1265C118.956 28.0675 118.956 28.1265 118.985 28.0085C119.015 27.8904 119.074 27.9101 119.172 27.9396V27.7626C119.015 27.7626 118.926 27.7626 118.897 27.7626C118.867 27.7626 118.897 27.6348 118.897 27.6348H118.67C118.695 27.6255 118.716 27.6095 118.732 27.5886C118.747 27.5677 118.757 27.5428 118.759 27.5168C118.759 27.4676 118.759 27.4479 118.67 27.4479C118.626 27.4645 118.577 27.4645 118.533 27.4479C118.489 27.5285 118.475 27.6217 118.493 27.7115C118.511 27.8012 118.56 27.8819 118.631 27.9396L118.621 27.8118ZM118.946 26.1204V26.0221C118.946 26.0221 118.946 26.0221 118.808 26.0221L118.631 25.9729V26.1597C118.619 26.208 118.627 26.2589 118.653 26.3013C118.679 26.3437 118.72 26.3742 118.769 26.3859C118.817 26.3976 118.868 26.3897 118.91 26.3639C118.953 26.3381 118.983 26.2965 118.995 26.2482L118.946 26.1204ZM118.67 26.2089V26.5236C118.67 26.5236 118.729 26.5236 118.759 26.4154C118.788 26.3072 118.838 26.2974 118.897 26.2974C118.956 26.2974 118.798 26.3367 118.68 26.3367L118.67 26.2089ZM118.847 29.4638V29.2868C118.729 29.3458 118.67 29.4048 118.67 29.4638H118.847ZM118.847 20.82V20.9184V20.5545H118.71C118.69 20.642 118.69 20.7326 118.71 20.82C118.828 20.8987 118.877 20.8987 118.906 20.9479L118.847 20.82ZM118.847 28.687H118.71V28.864C118.906 29.0017 118.995 28.9427 118.995 28.8246L118.847 28.687ZM119.024 25.019C119.035 24.9976 119.04 24.974 119.04 24.9502C119.04 24.9263 119.035 24.9028 119.024 24.8814C118.934 24.9228 118.856 24.9873 118.798 25.0682C118.894 25.1399 119.014 25.1716 119.133 25.1567L119.024 25.019ZM118.887 25.1567H118.749C118.818 25.2747 118.857 25.3337 118.887 25.3337V25.1567ZM118.749 26.4646C118.784 26.4641 118.819 26.4537 118.848 26.4346C118.878 26.4155 118.901 26.3884 118.916 26.3564C118.916 26.2777 118.916 26.2286 118.916 26.1991V26.2876C118.916 26.3466 118.916 26.3662 118.818 26.2876L118.749 26.4646ZM119.024 21.5477C119.065 21.4684 119.089 21.3812 119.093 21.2921C119.093 21.1544 119.093 21.0954 118.975 21.0954C118.977 21.1074 118.976 21.1196 118.972 21.1311C118.968 21.1426 118.961 21.153 118.953 21.1616C118.944 21.1701 118.934 21.1766 118.922 21.1805C118.911 21.1843 118.899 21.1855 118.887 21.1839C118.924 21.3814 119.008 21.5671 119.133 21.7247L119.024 21.5477ZM119.477 22.0394C119.474 22.0055 119.465 21.9724 119.45 21.942C119.435 21.9116 119.414 21.8846 119.388 21.8624C119.363 21.8201 119.346 21.7734 119.339 21.7247C119.25 21.7179 119.161 21.7354 119.082 21.7752C119.002 21.8151 118.935 21.8758 118.887 21.9509C119.208 22.2459 119.441 22.3344 119.585 22.2164L119.477 22.0394ZM119.201 22.718C119.054 22.6589 118.946 22.7179 118.887 22.9048C118.956 22.9283 119.029 22.9369 119.102 22.9301C119.175 22.9234 119.246 22.9013 119.31 22.8655L119.201 22.718ZM119.388 24.7535C119.382 24.7309 119.382 24.7073 119.388 24.6847C119.388 24.6847 119.388 24.6847 119.388 24.6158C119.388 24.547 119.388 24.547 119.28 24.488C119.244 24.464 119.218 24.4284 119.205 24.3872C119.193 24.346 119.195 24.3017 119.211 24.2618C119.23 24.2798 119.254 24.2899 119.28 24.2899C119.306 24.2899 119.33 24.2798 119.349 24.2618C119.368 24.1977 119.368 24.1293 119.349 24.0652C119.349 24.0652 119.29 24.0652 119.241 23.9963C119.219 23.977 119.191 23.9663 119.162 23.9663C119.133 23.9663 119.105 23.977 119.083 23.9963C119.061 24.068 119.021 24.1324 118.965 24.1832C118.932 24.2175 118.908 24.2602 118.896 24.3067C118.883 24.3533 118.884 24.4023 118.897 24.4487C119.024 24.4487 119.083 24.4487 119.083 24.547C119.083 24.6454 118.897 24.6748 118.897 24.7437C118.895 24.7794 118.906 24.8145 118.928 24.8431C118.949 24.8717 118.98 24.8921 119.015 24.901C119.094 24.9304 119.181 24.9304 119.26 24.901C119.27 24.9232 119.285 24.9424 119.304 24.9569C119.323 24.9714 119.346 24.9806 119.37 24.9836C119.394 24.9865 119.418 24.9832 119.44 24.9739C119.462 24.9646 119.482 24.9496 119.496 24.9305L119.388 24.7535ZM119.614 20.3677C119.61 20.3384 119.61 20.3085 119.614 20.2792C119.623 20.2504 119.623 20.2195 119.614 20.1907C119.576 20.2048 119.534 20.2076 119.494 20.1989C119.454 20.1902 119.417 20.1703 119.388 20.1415C119.329 20.0825 119.29 20.053 119.26 20.053C119.21 20.0904 119.167 20.1375 119.135 20.1915C119.103 20.2456 119.082 20.3055 119.074 20.3677C119.447 20.4267 119.664 20.4857 119.723 20.5447L119.614 20.3677ZM119.162 29.3655C119.162 29.4933 119.162 29.5425 119.251 29.5327C119.339 29.5228 119.369 29.4638 119.339 29.3655H119.162ZM119.251 22.5803C119.293 22.6053 119.34 22.622 119.388 22.6294C119.395 22.6173 119.399 22.6039 119.4 22.5902C119.401 22.5765 119.399 22.5626 119.394 22.5497C119.39 22.5367 119.382 22.5248 119.373 22.5148C119.363 22.5049 119.352 22.497 119.339 22.4918C119.221 22.4918 119.162 22.5213 119.162 22.5803H119.251ZM119.251 27.3791V27.0644C119.192 27.0644 119.162 27.2021 119.162 27.3791H119.251ZM119.152 27.3791C119.152 27.3791 119.231 27.4479 119.378 27.5069C119.526 27.5659 119.467 27.6053 119.31 27.6053L119.152 27.3791ZM119.605 28.2346C119.624 28.2091 119.634 28.178 119.634 28.1461C119.634 28.1142 119.624 28.0832 119.605 28.0576C119.575 28.0584 119.546 28.0491 119.523 28.0312C119.5 28.0132 119.483 27.9879 119.477 27.9593C119.465 27.9326 119.446 27.9099 119.421 27.8942C119.397 27.8784 119.368 27.8703 119.339 27.8708C119.339 27.9298 119.339 28.0085 119.27 28.097C119.235 28.1323 119.21 28.1766 119.198 28.2251C119.185 28.2736 119.187 28.3245 119.201 28.3723C119.201 28.3723 119.201 28.3723 119.27 28.4411C119.339 28.51 119.27 28.4411 119.378 28.4411H119.565C119.631 28.4271 119.7 28.434 119.762 28.4608L119.605 28.2346ZM119.319 26.7694C119.418 26.7694 119.477 26.7694 119.477 26.7006C119.319 26.6317 119.231 26.6219 119.201 26.7006C119.172 26.7792 119.369 26.9759 119.477 26.9956L119.319 26.7694ZM119.319 22.2164H119.182C119.182 22.3639 119.182 22.4328 119.319 22.4033V22.2164ZM119.27 28.7361C119.25 28.6848 119.22 28.638 119.182 28.5985V28.8246C119.359 29.0017 119.447 29.0475 119.447 28.9623L119.27 28.7361ZM119.408 26.1499C119.408 26.1499 119.487 26.1499 119.546 26.1499C119.605 26.1499 119.546 26.0712 119.546 25.9925C119.502 25.9495 119.471 25.895 119.457 25.8352C119.418 25.9238 119.389 26.016 119.369 26.1106C119.386 26.0964 119.406 26.0857 119.428 26.0793C119.449 26.0728 119.472 26.0707 119.494 26.073C119.516 26.0752 119.538 26.0819 119.558 26.0926C119.578 26.1032 119.595 26.1177 119.609 26.1351C119.624 26.1526 119.634 26.1726 119.641 26.1942C119.647 26.2157 119.649 26.2383 119.647 26.2607C119.645 26.2831 119.638 26.3048 119.627 26.3246C119.617 26.3444 119.602 26.3619 119.585 26.3761L119.408 26.1499ZM119.408 21.7247H119.496C119.555 21.7247 119.585 21.7247 119.585 21.7247C119.673 21.8821 119.614 21.8821 119.585 21.9509L119.408 21.7247ZM119.683 26.5629H119.772C119.772 26.3859 119.664 26.2679 119.457 26.2089V26.3859C119.605 26.3859 119.654 26.3859 119.585 26.4744V26.7989C119.762 26.7989 119.801 26.7989 119.86 26.7989L119.683 26.5629ZM119.683 27.7823C119.683 27.8413 119.683 27.8905 119.772 27.92L119.87 27.8315C119.87 27.8315 120.027 28.0085 119.9 28.0085L119.683 27.7823ZM119.959 26.5629H119.821C119.794 26.5905 119.779 26.6276 119.779 26.6662C119.779 26.7048 119.794 26.7418 119.821 26.7694C119.84 26.8029 119.871 26.8277 119.907 26.8388C119.944 26.8498 119.984 26.8461 120.018 26.8284C120.214 26.9071 120.204 26.7989 120.175 26.7989L119.959 26.5629ZM119.959 27.4676C119.969 27.4593 119.977 27.4488 119.983 27.4369C119.988 27.425 119.991 27.412 119.991 27.3988C119.991 27.3856 119.988 27.3725 119.983 27.3606C119.977 27.3487 119.969 27.3382 119.959 27.3299C119.9 27.3299 119.85 27.3299 119.801 27.3299C119.752 27.3299 119.801 27.4283 119.801 27.4578C119.801 27.4873 120.116 27.6938 120.175 27.6938L119.959 27.4676ZM120.047 19.2762C120.035 19.2495 120.016 19.2268 119.992 19.2111C119.967 19.1953 119.938 19.1872 119.909 19.1877C119.821 19.1877 119.841 19.2958 119.909 19.4138C119.94 19.4269 119.974 19.4291 120.006 19.4202C120.039 19.4112 120.067 19.3917 120.086 19.3647C120.086 19.3647 120.293 19.5613 120.263 19.5023L120.047 19.2762ZM120.136 20.3185C120.047 20.3185 119.978 20.3185 119.939 20.3677C119.921 20.3938 119.912 20.4246 119.912 20.4562C119.912 20.4878 119.921 20.5186 119.939 20.5447C120.313 20.7709 120.381 20.6922 120.352 20.5447L120.136 20.3185ZM120.136 19.7777C120.171 19.7731 120.206 19.7791 120.238 19.7949C120.269 19.8106 120.295 19.8355 120.313 19.8662C120.239 19.8902 120.16 19.8902 120.086 19.8662C120.086 19.9842 120.224 20.0137 120.401 19.9547H120.588C120.588 19.9547 120.588 19.9547 120.588 19.817C120.571 19.8248 120.552 19.8286 120.533 19.8282C120.514 19.8278 120.495 19.8232 120.478 19.8147C120.461 19.8062 120.447 19.7941 120.435 19.7792C120.423 19.7643 120.415 19.747 120.411 19.7285V19.5515C120.411 19.6695 120.352 19.699 120.234 19.64C120.175 19.64 120.126 19.64 120.096 19.64C120.048 19.6687 120.013 19.7154 119.999 19.7698C119.985 19.8242 119.994 19.8819 120.022 19.9301C120.051 19.9784 120.098 20.0132 120.152 20.0271C120.207 20.0409 120.264 20.0325 120.313 20.0039L120.136 19.7777ZM120.136 19.05C120.136 19.109 120.136 19.1385 120.204 19.1385V18.9615H120.293V18.873H120.204C120.215 18.8813 120.223 18.8918 120.229 18.9037C120.234 18.9156 120.237 18.9286 120.237 18.9418C120.237 18.955 120.234 18.968 120.229 18.98C120.223 18.9919 120.215 19.0024 120.204 19.0107C120.204 19.0107 120.313 19.2172 120.332 19.2762L120.136 19.05ZM120.244 18.1453C120.276 18.1541 120.31 18.1541 120.342 18.1453V17.8699H120.204C120.164 17.938 120.147 18.0174 120.155 18.0961C120.192 18.0583 120.242 18.0365 120.294 18.0356C120.347 18.0347 120.398 18.0547 120.435 18.0912C120.473 18.1277 120.495 18.1778 120.496 18.2303C120.497 18.2829 120.477 18.3336 120.44 18.3715L120.244 18.1453ZM120.794 18.6468C120.637 18.6468 120.568 18.7058 120.568 18.8238C120.962 18.991 120.962 18.932 120.962 18.873L120.794 18.6468ZM120.794 27.6053V27.3791C120.774 27.3647 120.75 27.357 120.726 27.357C120.701 27.357 120.677 27.3647 120.657 27.3791C120.628 27.3906 120.597 27.3906 120.568 27.3791C120.804 27.7823 120.883 27.8315 121.03 27.8315L120.794 27.6053ZM120.657 19.4138V19.9154C121.021 19.758 121.021 19.6695 120.893 19.64L120.657 19.4138ZM121.119 28.6182C121.139 28.5508 121.139 28.479 121.119 28.4116C121.062 28.3922 120.999 28.3922 120.942 28.4116C120.882 28.4362 120.815 28.4362 120.755 28.4116C120.755 28.4706 120.755 28.5198 120.873 28.5493C120.991 28.5788 120.952 28.6181 120.873 28.6771C121.257 28.8935 121.316 28.8935 121.355 28.8443L121.119 28.6182ZM120.981 27.7823C120.97 27.8107 120.97 27.8424 120.981 27.8708C121.109 27.8708 121.178 27.8708 121.207 27.8708C121.237 27.8708 121.394 28.0085 121.217 28.0085L120.981 27.7823ZM121.611 29.1393C121.552 29.1393 121.522 29.1393 121.522 29.0902C121.522 29.041 121.522 29.0902 121.434 29.0902C121.345 29.0902 121.306 29.2868 121.07 29.2278C121.365 29.5917 121.542 29.5818 121.847 29.3655L121.611 29.1393ZM121.345 28.4116C121.345 28.51 121.345 28.5493 121.434 28.5493L121.522 28.4608C121.519 28.5251 121.54 28.5883 121.581 28.6378L121.345 28.4116ZM121.974 16.2867C121.974 16.3851 121.974 16.4244 122.151 16.4244C122.387 16.5621 122.328 16.5129 122.21 16.5129L121.974 16.2867ZM125.996 17.7421C126.39 16.9849 126.498 16.4441 126.321 16.1097C126.075 15.6279 125.544 15.795 124.738 16.6112C123.831 17.4027 123.118 18.3918 122.653 19.5023C122.616 19.597 122.593 19.6963 122.584 19.7974C122.575 19.8984 122.552 19.9977 122.515 20.0924C122.551 20.1336 122.581 20.18 122.604 20.23C122.628 20.2813 122.662 20.3278 122.702 20.3677C123.479 20.4562 124.295 19.9842 125.141 18.9615C125.542 18.6661 125.908 18.3263 126.232 17.9486L125.996 17.7421Z" fill="#F9DC53"/>
</svg>
