<svg width="898" height="231" viewBox="0 0 898 231" fill="none" xmlns="http://www.w3.org/2000/svg">
<path fill-rule="evenodd" clip-rule="evenodd" d="M101.288 0.492626C100.812 0.778813 100.238 1.11262 100.012 1.23354C99.7868 1.35492 99.5408 1.50199 99.4656 1.56081C99.3905 1.61964 99.1239 1.77744 98.8732 1.91189C98.0562 2.34981 97.5982 2.62479 97.5417 2.71163C97.5109 2.75878 97.4493 2.79613 97.4049 2.79473C97.3601 2.7938 96.819 3.08745 96.2023 3.44787C95.5851 3.80829 94.8264 4.24061 94.5159 4.40915C94.2055 4.57722 93.938 4.75136 93.9212 4.79618C93.9048 4.84099 93.8413 4.87788 93.7802 4.87788C93.7195 4.87788 93.3707 5.06229 93.0047 5.28778C92.6387 5.51328 92.3222 5.69816 92.3007 5.69816C92.2792 5.69816 92.1088 5.79713 91.9221 5.91852C91.394 6.26073 90.7866 6.60807 90.5112 6.72526C90.3735 6.78361 90.2605 6.86345 90.2605 6.90266C90.2605 6.94188 90.2241 6.97409 90.1797 6.97409C90.1358 6.97409 89.1876 7.50725 88.0732 8.15899C86.9588 8.81027 86.0363 9.34343 86.0228 9.34343C85.9947 9.34343 82.4405 11.4009 82.2402 11.533C82.1651 11.5825 82.0418 11.6507 81.9667 11.6843C81.8915 11.7179 81.8098 11.7688 81.7846 11.7977C81.7594 11.8267 81.5955 11.9219 81.42 12.0102C81.1263 12.1577 80.9713 12.2478 80.1898 12.7263C80.039 12.8183 79.7523 12.9854 79.5516 13.0975C79.3513 13.21 79.1048 13.3529 79.0049 13.4154C78.9045 13.4775 78.679 13.6022 78.5035 13.6918C78.3279 13.7814 78.164 13.8757 78.1388 13.9005C78.073 13.9668 77.7513 14.1652 77.5921 14.2376C77.517 14.2721 76.6607 14.7637 75.6901 15.331C74.7191 15.8977 73.9072 16.3613 73.8857 16.3613C73.8642 16.3613 73.6224 16.5051 73.3479 16.6802C73.0738 16.8557 72.8339 16.9995 72.8157 16.9995C72.7802 16.9995 70.3595 18.3922 70.1186 18.5509C70.0434 18.6004 69.9202 18.6686 69.845 18.7022C69.7698 18.7358 69.6881 18.789 69.6629 18.8203C69.6377 18.8516 69.4738 18.9491 69.2983 19.0369C68.7264 19.3236 67.9346 19.7848 67.8226 19.8974C67.7619 19.9576 67.6834 20.0071 67.6484 20.0071C67.6129 20.0071 67.2847 20.1915 66.9187 20.417C66.5527 20.6425 66.2002 20.8273 66.1353 20.8273C66.0704 20.8273 66.0172 20.8633 66.0172 20.9076C66.0172 20.952 65.9458 21.0136 65.858 21.0444C65.6255 21.1261 64.6698 21.6826 64.5414 21.811C64.4807 21.8712 64.4004 21.9207 64.3631 21.9207C64.3253 21.9207 63.7342 22.2489 63.0498 22.65C62.3649 23.051 61.7879 23.3792 61.7673 23.3792C61.7468 23.3792 61.5628 23.4847 61.3584 23.6141C61.1539 23.7429 60.8019 23.9516 60.5764 24.0776C60.3509 24.2037 59.9755 24.4231 59.7425 24.5651C59.5091 24.7074 59.1137 24.9339 58.863 25.0688C58.6123 25.2033 58.3457 25.362 58.2705 25.4213C58.1954 25.4801 58.0105 25.5884 57.8601 25.6612C57.7098 25.7345 57.5665 25.8148 57.5413 25.8396C57.4656 25.9157 57.1505 26.0992 56.812 26.2635C56.637 26.3494 56.3905 26.4881 56.2653 26.5721C56.1402 26.6561 55.8531 26.8284 55.6276 26.9545C55.4016 27.08 54.7933 27.4349 54.2756 27.7421C53.7578 28.0493 53.3148 28.3009 53.2914 28.3009C53.2681 28.3009 53.0244 28.4442 52.7503 28.6198C52.4763 28.7953 52.2363 28.9386 52.2181 28.9386C52.1994 28.9386 51.6364 29.2589 50.9664 29.6506C50.297 30.0418 49.6872 30.391 49.6121 30.4256C49.5369 30.4606 49.3114 30.5923 49.1111 30.7183C48.9104 30.8439 48.6643 30.9891 48.564 31.0405C48.4636 31.0918 48.2988 31.1833 48.197 31.244C47.5747 31.6142 46.0854 32.4761 45.8015 32.6297C45.6166 32.73 45.4448 32.8327 45.4196 32.8575C45.344 32.9336 45.0279 33.1171 44.6904 33.2814C44.5153 33.3668 44.2487 33.5218 44.0989 33.6259C43.9485 33.7296 43.6614 33.9005 43.4607 34.0055C43.2599 34.1101 42.6721 34.4486 42.1539 34.7572C41.6362 35.0658 41.1931 35.3183 41.1698 35.3183C41.1464 35.3183 40.9032 35.4621 40.6287 35.6377C40.3546 35.8127 40.1147 35.9565 40.0965 35.9565C40.061 35.9565 37.6403 37.3492 37.3994 37.5079C37.3242 37.5574 37.2014 37.6256 37.1258 37.6592C37.0506 37.6928 36.9689 37.746 36.9437 37.7773C36.9185 37.8086 36.7546 37.9071 36.5791 37.9958C36.4036 38.0845 36.1771 38.2054 36.0754 38.2642C35.9736 38.3235 35.4689 38.6177 34.9535 38.9183C34.4381 39.2194 33.8648 39.5472 33.6799 39.6476C33.495 39.7479 33.3232 39.8502 33.298 39.8754C33.2224 39.951 32.9068 40.135 32.5692 40.2993C32.3937 40.3847 32.1271 40.5397 31.9772 40.6434C31.8269 40.7475 31.5398 40.9184 31.339 41.0234C30.9982 41.2017 29.2279 42.2326 28.9235 42.4301C28.8483 42.4791 28.7045 42.5589 28.6046 42.6084C28.5042 42.6574 28.2582 42.8008 28.0574 42.9263C27.8572 43.0524 27.6317 43.1836 27.5565 43.2186C27.4813 43.2536 26.8716 43.6024 26.2021 43.9941C25.5322 44.3858 24.9645 44.706 24.9402 44.706C24.9159 44.706 24.7665 44.798 24.6087 44.91C24.4509 45.0226 24.0961 45.2317 23.8202 45.375C23.5443 45.5179 23.2884 45.6822 23.2515 45.7401C23.2147 45.798 23.1838 45.8162 23.1829 45.7812C23.1824 45.7462 22.8841 45.8984 22.5209 46.1192C22.1572 46.34 21.7165 46.5922 21.541 46.6795C21.3659 46.7668 21.2015 46.8662 21.1763 46.9007C21.1516 46.9348 20.8439 47.115 20.4928 47.3004C20.1422 47.4862 19.8005 47.6832 19.7342 47.7383C19.6679 47.7934 19.4541 47.9232 19.2594 48.0264C18.9676 48.1818 17.6165 48.9624 16.8499 49.4185C16.7481 49.4788 16.5833 49.5703 16.483 49.6221C16.3826 49.6735 16.1365 49.8163 15.9358 49.94C15.7355 50.0638 15.4591 50.2253 15.3214 50.299C15.1837 50.3728 14.4549 50.7953 13.7014 51.2379C12.9474 51.6805 12.1785 52.1245 11.9917 52.2249C11.805 52.3252 11.6318 52.4326 11.607 52.4634C11.5818 52.4942 11.4688 52.5479 11.3563 52.5834C11.2433 52.6184 11.1514 52.6857 11.1514 52.7323C11.1514 52.779 11.0981 52.8173 11.0333 52.8173C10.9679 52.8173 10.6093 53.0022 10.2354 53.2277C9.86189 53.4536 9.49447 53.6735 9.4193 53.7165C9.29185 53.7889 9.14526 122.175 9.27271 122.175C9.29278 122.175 9.63686 121.99 10.0379 121.765C10.4389 121.539 10.7961 121.354 10.8311 121.354C10.8666 121.354 11.0164 121.268 11.1649 121.162C11.5281 120.904 11.4917 120.054 11.5314 129.704L11.5669 138.372L11.0627 138.635C10.7853 138.78 10.5384 138.921 10.5132 138.947C10.488 138.973 10.2933 139.072 10.0804 139.166C9.86703 139.26 9.69289 139.367 9.69289 139.404C9.69289 139.441 9.59018 139.497 9.46459 139.529L9.23629 139.586L9.25964 150.719L9.28298 161.851L9.5561 162.016C9.70643 162.107 9.98328 162.253 10.1714 162.341C10.3596 162.429 10.5132 162.533 10.5132 162.571C10.5132 162.61 10.572 162.641 10.6434 162.641C10.7149 162.641 10.8278 162.692 10.8941 162.755C10.9604 162.817 11.1369 162.93 11.2868 163.006C11.4366 163.081 11.8451 163.316 12.1943 163.529C12.5431 163.742 12.882 163.917 12.9469 163.917C13.0118 163.917 13.065 163.955 13.065 164.002C13.065 164.049 13.1575 164.116 13.27 164.151C13.383 164.186 13.496 164.242 13.5207 164.275C13.5459 164.309 13.7098 164.408 13.8853 164.495C14.0609 164.582 14.4913 164.828 14.8424 165.042C15.193 165.255 15.665 165.528 15.8905 165.65C16.116 165.771 16.362 165.918 16.4372 165.977C16.5124 166.036 16.7789 166.193 17.0296 166.327C17.2804 166.46 17.5469 166.608 17.6221 166.654C18.032 166.908 20.2912 168.2 20.3252 168.2C20.3472 168.2 20.5895 168.344 20.8635 168.519C21.138 168.695 21.379 168.838 21.3986 168.838C21.4186 168.838 21.8589 169.09 22.3766 169.397C23.2338 169.905 23.8286 170.248 24.3207 170.516C24.421 170.571 24.5237 170.637 24.5485 170.663C24.5737 170.689 24.697 170.761 24.8221 170.822C25.0588 170.938 25.1722 171.003 26.2399 171.643C26.5938 171.855 26.929 172.028 26.9846 172.028C27.0401 172.028 27.099 172.065 27.1158 172.109C27.1326 172.154 27.3996 172.329 27.7092 172.497C28.1798 172.753 29.6387 173.592 30.3334 174.007C30.9002 174.345 30.9352 174.352 31.2344 174.179C31.6191 173.958 32.4226 173.506 32.9693 173.204L33.4152 172.958L34.0931 173.359C34.4661 173.58 34.7877 173.76 34.8078 173.76C34.8274 173.76 35.0683 173.904 35.3428 174.079C35.6169 174.254 35.8657 174.398 35.8956 174.398C35.9255 174.398 36.1743 174.541 36.4484 174.717C36.7229 174.892 36.9661 175.036 36.9895 175.036C37.0124 175.036 37.2476 175.172 37.5114 175.338C37.7757 175.504 38.1352 175.71 38.3107 175.796C38.6674 175.971 38.9713 176.15 39.0399 176.225C39.0651 176.253 39.229 176.347 39.4046 176.435C39.5801 176.522 40.0927 176.817 40.5437 177.089C40.9947 177.362 41.4153 177.585 41.4779 177.586C41.5405 177.587 41.5918 177.624 41.5918 177.668C41.5918 177.713 41.6637 177.773 41.7515 177.802C41.8393 177.832 41.9723 177.897 42.0475 177.948C42.2786 178.104 44.7081 179.502 44.7478 179.502C44.7684 179.502 44.9565 179.61 45.1657 179.742C45.5298 179.972 45.8398 180.151 46.992 180.799C47.6284 181.156 47.627 181.136 47.0373 181.449C46.7745 181.589 46.3538 181.822 46.1031 181.966C45.8529 182.111 45.5592 182.269 45.4514 182.318C45.1717 182.444 45.1078 182.591 45.3001 182.665C45.3912 182.7 45.7525 182.897 46.1031 183.103C46.4542 183.309 46.8029 183.506 46.8781 183.541C46.9533 183.576 47.1582 183.689 47.3338 183.794C48.4743 184.471 49.0486 184.788 49.134 184.788C49.1882 184.788 49.246 184.823 49.2629 184.865C49.2797 184.908 49.4982 185.056 49.7489 185.194C49.9996 185.332 50.6186 185.687 51.1242 185.983C51.6303 186.278 52.0916 186.52 52.1499 186.52C52.2078 186.52 52.2554 186.556 52.2554 186.6C52.2554 186.644 52.3269 186.704 52.4147 186.734C52.5024 186.763 52.6359 186.829 52.7111 186.88C52.9656 187.051 55.3736 188.433 55.4185 188.433C55.4427 188.433 55.5716 188.509 55.7046 188.603C55.8377 188.696 56.1309 188.874 56.3564 188.999C56.89 189.294 57.7444 189.792 58.165 190.053C58.3485 190.167 58.56 190.287 58.6351 190.321C58.7103 190.354 58.9778 190.507 59.2295 190.661C59.4816 190.814 59.7687 190.988 59.8677 191.048C60.2187 191.26 61.6908 192.114 61.8705 192.209C61.9709 192.263 62.1142 192.354 62.1894 192.41C62.2645 192.467 62.5311 192.624 62.7818 192.758C63.0325 192.893 63.3813 193.087 63.5564 193.192C63.8463 193.363 64.1339 193.526 64.9859 194.003C65.1456 194.092 65.442 194.27 65.6451 194.398C65.8477 194.526 66.0307 194.631 66.0513 194.631C66.0886 194.631 68.4962 196.014 68.7516 196.182C68.8268 196.232 68.9496 196.3 69.0247 196.334C69.1004 196.367 69.1821 196.418 69.2073 196.447C69.2325 196.476 69.3963 196.571 69.5719 196.659C69.7474 196.748 70.0546 196.923 70.2554 197.048C70.4557 197.174 70.7017 197.318 70.8021 197.368C70.9025 197.418 71.1177 197.54 71.2806 197.639C71.9739 198.063 72.1863 198.186 72.4884 198.336C72.6639 198.423 72.8278 198.52 72.853 198.552C72.8777 198.583 72.9599 198.637 73.0351 198.671C73.1102 198.706 73.3152 198.819 73.4907 198.923C74.6495 199.61 75.2065 199.917 75.2989 199.917C75.3573 199.917 75.4049 199.948 75.4049 199.987C75.4049 200.026 75.5585 200.139 75.7466 200.238C75.9343 200.337 76.6337 200.736 77.3003 201.125C77.967 201.513 78.538 201.831 78.5693 201.831C78.6001 201.831 78.6907 201.888 78.7696 201.957C78.8489 202.027 79.1188 202.193 79.3695 202.327C79.6197 202.461 79.8863 202.608 79.9619 202.655C80.201 202.803 82.1525 203.924 82.6847 204.218C82.9667 204.374 83.2178 204.526 83.2426 204.556C83.2678 204.586 83.4116 204.672 83.5619 204.746C83.7123 204.821 84.2884 205.149 84.8421 205.475C85.3962 205.802 85.9705 206.13 86.118 206.205C86.266 206.281 86.4411 206.394 86.5074 206.456C86.5737 206.519 86.6866 206.57 86.7581 206.57C86.83 206.57 86.8883 206.601 86.8883 206.639C86.8883 206.677 87.0219 206.765 87.1843 206.835C87.3473 206.904 87.5424 207.011 87.6176 207.071C87.6927 207.132 87.9388 207.278 88.1643 207.397C88.3898 207.515 88.6358 207.661 88.711 207.719C88.7861 207.778 89.0527 207.935 89.3034 208.069C89.7805 208.323 89.823 208.348 90.6018 208.826C90.8674 208.989 91.0994 209.122 91.1181 209.122C91.1368 209.122 91.6998 209.443 92.3693 209.834C93.0393 210.226 93.6485 210.574 93.7237 210.608C93.7988 210.642 93.9221 210.711 93.9973 210.761C94.2377 210.919 96.6588 212.312 96.6943 212.312C96.7125 212.312 96.9525 212.455 97.2266 212.631C97.5006 212.806 97.7462 212.95 97.7719 212.95C97.7975 212.95 98.2835 213.227 98.8517 213.565C99.4199 213.904 100.006 214.242 100.154 214.317C100.302 214.392 100.477 214.505 100.543 214.568C100.609 214.63 100.719 214.682 100.786 214.682C100.854 214.682 100.922 214.713 100.939 214.75C100.956 214.788 101.113 214.89 101.288 214.977C101.609 215.136 101.764 215.228 102.214 215.524C102.595 215.776 102.645 215.76 103.886 214.994C104.087 214.87 104.312 214.743 104.387 214.711C104.462 214.68 104.585 214.603 104.66 214.541C104.736 214.479 105.002 214.319 105.253 214.185C105.504 214.052 105.77 213.904 105.845 213.858C106.255 213.604 108.514 212.312 108.548 212.312C108.57 212.312 108.813 212.169 109.087 211.993C109.361 211.818 109.601 211.674 109.619 211.674C109.638 211.674 110.201 211.353 110.871 210.962C111.541 210.571 112.15 210.222 112.225 210.188C112.3 210.154 112.423 210.085 112.499 210.036C112.875 209.788 115.171 208.484 115.232 208.484C115.27 208.484 115.349 208.427 115.408 208.356C115.466 208.286 115.727 208.12 115.988 207.987C116.25 207.854 116.627 207.644 116.828 207.521C117.028 207.397 117.274 207.255 117.375 207.205C117.475 207.155 117.69 207.033 117.853 206.934C118.016 206.834 118.283 206.671 118.446 206.571C118.608 206.471 118.885 206.317 119.061 206.229C119.236 206.141 119.4 206.049 119.425 206.023C119.492 205.957 119.813 205.759 119.972 205.686C120.047 205.652 120.657 205.304 121.327 204.912C121.996 204.521 122.562 204.201 122.584 204.201C122.606 204.201 122.849 204.057 123.123 203.881C123.397 203.706 123.637 203.562 123.655 203.562C123.69 203.562 126.111 202.17 126.352 202.011C126.427 201.962 126.55 201.893 126.625 201.858C126.701 201.824 127.31 201.476 127.98 201.084C128.649 200.693 129.22 200.373 129.247 200.373C129.274 200.373 129.424 200.279 129.579 200.166C129.734 200.052 129.984 199.899 130.134 199.827C130.285 199.754 130.624 199.56 130.888 199.396C131.152 199.231 131.389 199.097 131.414 199.097C131.439 199.097 131.625 198.992 131.828 198.864C132.236 198.607 132.613 198.387 133.096 198.129C133.272 198.034 133.436 197.935 133.461 197.907C133.486 197.879 133.65 197.784 133.825 197.695C134.001 197.607 134.226 197.485 134.327 197.426C134.427 197.366 134.878 197.101 135.329 196.838C135.78 196.574 136.211 196.32 136.286 196.274C136.361 196.228 136.628 196.081 136.879 195.947C137.129 195.813 137.399 195.647 137.478 195.578C137.557 195.508 137.648 195.451 137.679 195.451C137.71 195.451 138.296 195.123 138.981 194.722C139.665 194.321 140.237 193.993 140.251 193.993C140.265 193.993 140.829 193.669 141.504 193.274C142.179 192.878 142.911 192.453 143.132 192.33C143.352 192.206 143.675 192.019 143.851 191.916C144.026 191.812 144.375 191.617 144.625 191.482C144.876 191.348 145.143 191.19 145.218 191.132C145.293 191.073 145.539 190.928 145.765 190.809C145.99 190.691 146.237 190.544 146.312 190.484C146.387 190.423 146.582 190.317 146.744 190.247C146.907 190.177 147.04 190.09 147.04 190.051C147.04 190.014 147.099 189.983 147.171 189.983C147.243 189.983 147.355 189.931 147.421 189.869C147.488 189.806 147.665 189.694 147.815 189.619C147.966 189.544 148.302 189.349 148.563 189.186C148.823 189.023 149.067 188.889 149.103 188.889C149.139 188.889 149.233 188.832 149.312 188.762C149.391 188.693 149.661 188.526 149.912 188.392C150.162 188.258 150.531 188.047 150.732 187.924C150.932 187.802 151.178 187.661 151.279 187.612C151.379 187.563 151.522 187.482 151.597 187.433C151.808 187.295 154.257 185.881 154.286 185.881C154.3 185.881 154.872 185.553 155.557 185.152C156.241 184.751 156.827 184.423 156.858 184.423C156.889 184.423 156.98 184.366 157.059 184.297C157.138 184.227 157.42 184.053 157.686 183.909C157.952 183.766 158.24 183.607 158.326 183.557C158.413 183.507 158.905 183.22 159.421 182.919C159.936 182.619 160.509 182.29 160.694 182.19C160.879 182.09 161.044 181.977 161.061 181.94C161.078 181.902 161.147 181.871 161.214 181.871C161.281 181.871 161.391 181.82 161.457 181.757C161.523 181.695 161.7 181.583 161.851 181.509C162.001 181.436 162.341 181.241 162.604 181.076C162.869 180.912 163.104 180.778 163.127 180.778C163.15 180.778 163.385 180.643 163.649 180.479C163.913 180.314 164.252 180.12 164.403 180.047C164.553 179.975 164.803 179.822 164.958 179.709C165.113 179.595 165.263 179.502 165.29 179.502C165.317 179.502 165.888 179.181 166.557 178.79C167.227 178.399 167.836 178.05 167.912 178.016C167.987 177.982 168.11 177.913 168.185 177.863C168.426 177.705 170.847 176.312 170.882 176.312C170.9 176.312 171.132 176.177 171.396 176.012C171.66 175.848 172.03 175.633 172.218 175.536C172.406 175.439 172.56 175.327 172.56 175.288C172.56 175.25 172.611 175.217 172.674 175.217C172.736 175.216 173.274 174.929 173.867 174.579C174.461 174.228 174.98 173.942 175.021 173.942C175.063 173.942 175.11 173.911 175.127 173.874C175.144 173.836 175.301 173.732 175.476 173.642C175.652 173.552 175.877 173.428 175.978 173.366C176.078 173.303 176.324 173.16 176.524 173.048C176.725 172.936 177.022 172.763 177.185 172.664C177.929 172.212 178.094 172.117 178.393 171.968C178.568 171.881 178.732 171.787 178.757 171.76C178.822 171.688 179.117 171.512 179.47 171.333C179.636 171.25 180.243 170.9 180.818 170.557C181.392 170.213 181.877 169.932 181.894 169.932C181.912 169.932 182.823 169.409 183.919 168.77C185.016 168.131 186.066 167.527 186.254 167.428C186.442 167.329 186.595 167.216 186.595 167.177C186.595 167.138 186.643 167.106 186.701 167.106C186.793 167.106 187.35 166.8 188.509 166.113C188.685 166.008 188.89 165.895 188.965 165.861C189.04 165.826 189.122 165.773 189.147 165.741C189.172 165.71 189.336 165.612 189.512 165.523C189.687 165.434 189.913 165.312 190.013 165.251C190.113 165.19 190.359 165.049 190.56 164.937C190.901 164.746 191.051 164.656 191.813 164.192C191.976 164.093 192.263 163.939 192.451 163.852C192.639 163.763 192.793 163.66 192.793 163.622C192.793 163.584 192.851 163.552 192.923 163.552C192.995 163.552 193.107 163.5 193.174 163.436C193.24 163.372 193.417 163.258 193.568 163.183C193.718 163.109 194.323 162.763 194.912 162.415L195.983 161.781V129.537C195.983 111.803 195.965 97.2936 195.945 97.2936C195.913 97.2936 195.415 97.5844 193.568 98.6815C193.417 98.7712 193.191 98.8944 193.066 98.9556C192.941 99.0167 192.818 99.0882 192.793 99.1143C192.711 99.1993 192.023 99.5821 191.858 99.6339C191.771 99.662 191.699 99.7208 191.699 99.7651C191.699 99.809 191.661 99.8454 191.616 99.8454C191.569 99.8454 191.08 100.112 190.528 100.438C189.976 100.764 189.501 101.03 189.472 101.03C189.295 101.03 189.425 87.0968 189.603 87.0403C189.703 87.0085 189.785 86.9441 189.785 86.8974C189.785 86.8507 189.833 86.8125 189.891 86.8125C189.984 86.8125 190.54 86.5062 191.699 85.8185C191.875 85.7144 192.08 85.6009 192.155 85.5659C192.23 85.5314 192.579 85.3358 192.929 85.1318C193.28 84.9277 193.721 84.6798 193.909 84.5813C194.097 84.4823 194.251 84.3698 194.251 84.3311C194.251 84.2923 194.297 84.2606 194.353 84.2606C194.409 84.2606 194.798 84.0659 195.217 83.8278L195.978 83.3946L195.957 68.5889L195.937 53.7833L195.573 53.5965C195.372 53.4938 195.154 53.3584 195.088 53.2958C195.021 53.2333 194.912 53.1819 194.844 53.1819C194.777 53.1819 194.708 53.1511 194.691 53.1133C194.675 53.076 194.518 52.9728 194.342 52.885C194.167 52.7968 193.89 52.6427 193.727 52.5428C193.045 52.125 192.82 51.9914 192.474 51.7977C192.273 51.6852 192.027 51.5442 191.927 51.4839C191.827 51.4237 191.531 51.2645 191.27 51.1301C191.009 50.9956 190.748 50.828 190.689 50.758C190.631 50.6875 190.549 50.6301 190.508 50.6301C190.467 50.6301 190.048 50.4046 189.577 50.1286C189.106 49.8532 188.673 49.6272 188.615 49.6272C188.557 49.6272 188.509 49.5955 188.509 49.5572C188.509 49.5185 188.356 49.4055 188.167 49.3065C187.979 49.2071 187.175 48.7467 186.381 48.2831C185.586 47.8195 184.92 47.44 184.901 47.44C184.883 47.44 184.643 47.2966 184.369 47.1211C184.094 46.9456 183.852 46.8022 183.83 46.8022C183.791 46.8022 181.392 45.4255 181.127 45.2504C181.052 45.2009 180.929 45.1327 180.854 45.0991C180.778 45.0655 180.696 45.0146 180.671 44.9861C180.646 44.9572 180.482 44.8615 180.307 44.7733C180.131 44.685 179.854 44.5314 179.691 44.4315C179.009 44.0137 178.784 43.8797 178.438 43.6859C178.238 43.5739 177.992 43.4319 177.891 43.3713C177.791 43.3106 177.565 43.1882 177.39 43.0995C177.215 43.0108 177.051 42.9133 177.026 42.8829C177 42.8526 176.837 42.7564 176.661 42.6691C176.486 42.5813 175.973 42.2872 175.522 42.0146C175.07 41.7419 174.65 41.5183 174.588 41.5173C174.525 41.5169 174.474 41.4795 174.474 41.4356C174.474 41.3913 174.402 41.3311 174.314 41.3012C174.226 41.2718 174.093 41.2055 174.018 41.1541C173.741 40.9641 171.364 39.6018 171.309 39.6018C171.278 39.6018 171.188 39.5453 171.109 39.4753C171.03 39.4057 170.76 39.2395 170.509 39.106C170.259 38.9725 169.992 38.8249 169.917 38.7783C169.559 38.557 167.25 37.2325 167.221 37.2325C167.203 37.2325 166.708 36.9453 166.122 36.5943C165.534 36.2436 165.042 35.9565 165.026 35.9565C165.011 35.9565 164.783 35.8207 164.518 35.6545C164.254 35.4883 163.895 35.2819 163.719 35.196C163.362 35.0214 163.059 34.8426 162.99 34.767C162.965 34.7394 162.801 34.6451 162.626 34.5573C162.45 34.47 161.938 34.1754 161.486 33.9033C161.035 33.6306 160.615 33.407 160.552 33.4061C160.489 33.4051 160.438 33.3682 160.438 33.3239C160.438 33.2795 160.367 33.2193 160.279 33.1899C160.191 33.1605 160.058 33.0951 159.982 33.0442C159.764 32.8967 157.323 31.4905 157.286 31.4905C157.267 31.4905 157.028 31.3472 156.753 31.1716C156.479 30.9961 156.235 30.8528 156.212 30.8528C156.189 30.8528 155.855 30.6665 155.47 30.4387L154.77 30.025L154.346 30.2715C154.113 30.4069 153.901 30.5418 153.876 30.5713C153.851 30.6011 153.708 30.6866 153.557 30.7613C153.407 30.8364 153.263 30.9186 153.238 30.9438C153.185 30.997 153.154 31.0152 151.78 31.8178C151.203 32.1539 150.711 32.4541 150.686 32.484C150.661 32.5143 150.518 32.6002 150.367 32.6754C150.217 32.7506 150.073 32.8323 150.048 32.8575C149.997 32.9093 149.977 32.921 148.695 33.6722C147.756 34.2226 147.751 34.224 147.51 34.0653C147.228 33.8795 147.16 33.8393 146.117 33.2277C145.685 32.9742 145.285 32.7664 145.229 32.7664C145.173 32.7664 145.127 32.7305 145.127 32.6861C145.127 32.6418 145.055 32.5806 144.967 32.5508C144.879 32.5204 144.664 32.4098 144.489 32.3043C143.448 31.6801 142.773 31.3084 142.681 31.3084C142.623 31.3084 142.575 31.2767 142.575 31.2379C142.575 31.1992 142.421 31.0862 142.233 30.9872C141.846 30.7832 139.503 29.4386 139.294 29.3009C139.219 29.2514 139.095 29.1833 139.02 29.1492C138.945 29.1151 138.583 28.9102 138.215 28.694C137.848 28.4778 137.528 28.3009 137.505 28.3009C137.481 28.3009 137.238 28.1571 136.964 27.9816C136.689 27.806 136.45 27.6627 136.43 27.6627C136.412 27.6627 135.745 27.2808 134.949 26.8144C134.153 26.348 133.424 25.9362 133.329 25.8998C133.16 25.8349 133.16 25.8312 133.331 25.714C133.533 25.5772 135.653 24.3428 136.332 23.9679C136.582 23.8293 136.808 23.6916 136.833 23.6612C136.858 23.6313 137.001 23.5464 137.152 23.4731C137.302 23.3993 137.642 23.2046 137.906 23.0403C138.17 22.8755 138.408 22.741 138.434 22.741C138.46 22.741 138.696 22.6075 138.956 22.4441C139.217 22.2807 139.533 22.0944 139.658 22.03C140.183 21.7601 140.359 21.5748 140.163 21.4992C140.002 21.4375 137.713 20.1336 137.38 19.9137C137.304 19.8642 137.182 19.7956 137.107 19.7615C137.031 19.7274 136.669 19.5229 136.301 19.3063C135.934 19.0901 135.62 18.9132 135.605 18.9132C135.574 18.9132 133.131 17.5047 132.914 17.3618C132.839 17.3123 132.716 17.2437 132.641 17.2096C132.565 17.1755 132.203 16.971 131.836 16.7544C131.468 16.5383 131.154 16.3613 131.139 16.3613C131.108 16.3613 128.665 14.9528 128.448 14.8099C128.373 14.7604 128.25 14.6918 128.174 14.6577C128.099 14.6237 127.737 14.4192 127.37 14.2025C127.002 13.9864 126.689 13.8094 126.674 13.8094C126.642 13.8094 124.199 12.4009 123.982 12.2581C123.907 12.2081 123.784 12.1399 123.709 12.1059C123.634 12.0718 123.271 11.8668 122.904 11.6507C122.536 11.4345 122.223 11.2576 122.208 11.2576C122.176 11.2576 119.733 9.84904 119.516 9.70618C119.441 9.65623 119.318 9.58807 119.243 9.55398C119.168 9.5199 118.805 9.31495 118.438 9.09879C118.071 8.88263 117.757 8.70569 117.741 8.70569C117.726 8.70569 117.048 8.31586 116.235 7.83966C115.423 7.36346 114.745 6.97409 114.729 6.97409C114.698 6.97409 113.357 6.20424 113.137 6.05998C113.062 6.01049 112.938 5.94233 112.863 5.90778C112.788 5.8737 112.178 5.52542 111.509 5.13372C110.839 4.74249 110.279 4.42222 110.263 4.42222C110.232 4.42222 108.889 3.65096 108.671 3.5081C108.596 3.45861 108.472 3.39045 108.397 3.3559C108.322 3.32135 107.83 3.04264 107.304 2.73591C106.777 2.42964 106.285 2.14859 106.21 2.11171C106.135 2.07529 105.991 1.99499 105.891 1.93383C105.791 1.87221 105.422 1.65885 105.071 1.45857C104.721 1.25875 104.351 1.04586 104.251 0.985167C104.151 0.924475 104.007 0.845108 103.932 0.808693C103.856 0.772277 103.494 0.565924 103.126 0.349299C102.3 -0.136706 102.34 -0.139507 101.288 0.492626ZM92.1886 50.1744C92.4328 50.3247 92.6494 50.4475 92.6695 50.4475C92.6896 50.4475 93.007 50.6245 93.3745 50.8411C93.7419 51.0572 94.1042 51.2622 94.1793 51.2958C94.2545 51.3299 94.3778 51.3985 94.4529 51.448C94.6695 51.5909 97.1131 52.9994 97.1439 52.9994C97.1593 52.9994 97.4843 53.1843 97.8657 53.4098C98.2471 53.6353 98.5945 53.8197 98.637 53.8197C98.6794 53.8197 98.7621 53.8776 98.8204 53.9476C98.8788 54.0181 99.1402 54.1838 99.4012 54.3159C99.6622 54.4481 99.9372 54.5947 100.012 54.6418C100.541 54.9719 101.592 55.5513 101.66 55.5513C101.707 55.5513 101.744 55.5923 101.744 55.6428C101.744 55.6927 101.789 55.7338 101.844 55.7338C101.899 55.7338 102.34 55.9691 102.824 56.2567C103.308 56.5443 103.827 56.8407 103.977 56.915C104.127 56.9892 104.305 57.1022 104.371 57.1666C104.437 57.2306 104.547 57.2833 104.614 57.2833C104.681 57.2833 104.75 57.3137 104.767 57.3515C104.784 57.3893 104.941 57.492 105.116 57.5803C105.292 57.668 105.599 57.8431 105.8 57.9692C106 58.0952 106.226 58.2264 106.301 58.2605C106.376 58.2946 106.577 58.4169 106.747 58.5317C106.917 58.647 107.145 58.7413 107.254 58.7413C107.427 58.7413 109.369 57.661 110.057 57.1816C110.193 57.0872 110.326 57.0097 110.352 57.0097C110.379 57.0097 110.689 56.8253 111.041 56.5994C111.392 56.3739 111.694 56.1895 111.711 56.1895C111.728 56.1895 112.107 55.9635 112.554 55.6876C113 55.4117 113.446 55.1479 113.547 55.1007C113.647 55.0541 113.849 54.9336 113.995 54.8337L114.262 54.6521L114.647 54.8668C114.859 54.9854 115.2 55.1876 115.404 55.3169C115.609 55.4458 115.793 55.5513 115.813 55.5513C115.846 55.5513 118.121 56.8543 118.514 57.0975C118.589 57.1442 118.855 57.2917 119.106 57.4253C119.357 57.5588 119.623 57.7161 119.699 57.7749C119.774 57.8333 120.02 57.9785 120.246 58.0971C120.471 58.2157 120.717 58.3618 120.792 58.422C120.868 58.4822 120.99 58.5574 121.066 58.5887C121.141 58.6204 121.367 58.7483 121.567 58.8725C121.768 58.9967 122.075 59.1695 122.25 59.2558C122.426 59.3422 122.785 59.549 123.05 59.7152C123.314 59.8814 123.546 60.0173 123.565 60.0173C123.585 60.0173 123.9 60.2017 124.265 60.4277C124.631 60.6532 124.984 60.8376 125.049 60.8376C125.114 60.8376 125.167 60.8759 125.167 60.9225C125.167 60.9692 125.259 61.0365 125.372 61.0715C125.485 61.1069 125.598 61.163 125.623 61.1966C125.648 61.2297 125.812 61.3287 125.987 61.416C126.163 61.5028 126.593 61.7489 126.944 61.9622C127.295 62.1756 127.767 62.4496 127.992 62.571C128.218 62.6919 128.464 62.8395 128.539 62.8978C128.614 62.9567 128.881 63.114 129.132 63.2475C129.382 63.381 129.649 63.5286 129.724 63.5753C130.035 63.7676 132.389 65.121 132.413 65.121C132.427 65.121 133.11 65.5174 133.93 66.0011C134.749 66.4852 135.605 66.9792 135.831 67.0991C136.303 67.3503 136.586 67.5165 136.651 67.5819C136.676 67.6071 136.84 67.6995 137.015 67.7878C137.191 67.876 137.467 68.0301 137.63 68.1295C137.793 68.2294 138.06 68.3928 138.223 68.4923C138.386 68.5922 138.663 68.7462 138.838 68.8345C139.014 68.9222 139.171 69.0254 139.187 69.0628C139.204 69.1006 139.273 69.1314 139.34 69.1314C139.408 69.1314 139.517 69.1842 139.583 69.2486C139.65 69.3135 139.847 69.4381 140.023 69.5259C140.198 69.6141 140.629 69.8606 140.98 70.074C141.331 70.2874 141.802 70.5609 142.028 70.6823C142.254 70.8037 142.5 70.9494 142.575 71.0068C142.65 71.0637 142.978 71.2552 143.304 71.4316C143.63 71.6081 144.465 72.0857 145.159 72.4928C145.854 72.8995 146.441 73.2328 146.462 73.2328C146.484 73.2328 146.727 73.3761 147.001 73.5517C147.275 73.7272 147.518 73.8705 147.54 73.8705C147.563 73.8705 148.051 74.1516 148.626 74.4952C149.201 74.8388 149.807 75.1885 149.973 75.2725C150.307 75.4406 150.616 75.6231 150.686 75.6932C150.711 75.7184 150.875 75.8113 151.051 75.8995C151.226 75.9873 151.493 76.1358 151.643 76.2282C152.344 76.661 152.577 76.7968 152.873 76.9458C153.049 77.034 153.213 77.1264 153.238 77.1517C153.319 77.2324 153.642 77.4229 153.853 77.5144L154.059 77.6031L154.036 92.3364L154.013 107.069L153.739 107.217C153.589 107.298 153.261 107.489 153.01 107.643C152.76 107.795 152.411 107.992 152.236 108.079C151.937 108.228 151.771 108.323 151.028 108.775C150.865 108.874 150.568 109.047 150.367 109.159C150.167 109.271 149.921 109.413 149.82 109.474C149.72 109.534 149.495 109.658 149.319 109.748C149.144 109.838 148.715 110.087 148.366 110.301C148.018 110.516 147.68 110.691 147.614 110.691C147.549 110.691 147.496 110.729 147.496 110.776C147.496 110.823 147.404 110.89 147.291 110.925C147.179 110.96 147.066 111.014 147.04 111.045C147.016 111.076 146.844 111.183 146.659 111.284C146.371 111.44 144.838 112.327 144.264 112.67C144.162 112.73 144.017 112.81 143.942 112.847C143.867 112.883 143.257 113.233 142.588 113.625C141.918 114.016 141.357 114.337 141.342 114.337C141.327 114.337 141.013 114.514 140.645 114.73C140.278 114.946 139.916 115.151 139.84 115.185C139.765 115.219 139.643 115.287 139.567 115.337C139.361 115.473 136.908 116.889 136.879 116.889C136.865 116.889 136.305 117.209 135.635 117.6C134.965 117.992 134.356 118.34 134.281 118.374C134.206 118.409 134.083 118.477 134.007 118.527C133.789 118.669 132.446 119.441 132.415 119.441C132.4 119.441 131.839 119.761 131.169 120.152C130.5 120.544 129.89 120.893 129.815 120.928C129.74 120.963 129.555 121.067 129.405 121.158L129.132 121.324L129.103 124.187C129.087 125.762 129.102 129.111 129.136 131.63L129.199 136.208L129.712 135.927C129.994 135.772 130.276 135.605 130.337 135.554C130.399 135.504 130.686 135.339 130.975 135.189C131.265 135.039 131.522 134.89 131.547 134.857C131.572 134.824 131.716 134.737 131.866 134.664C132.016 134.59 132.355 134.395 132.619 134.231C132.884 134.066 133.119 133.932 133.142 133.932C133.165 133.932 133.408 133.788 133.683 133.613C133.957 133.437 134.203 133.294 134.229 133.294C134.256 133.294 134.502 133.15 134.776 132.975C135.05 132.799 135.292 132.656 135.314 132.656C135.335 132.656 136.158 132.185 137.142 131.61C138.127 131.035 139.106 130.466 139.318 130.347C139.53 130.227 139.847 130.042 140.023 129.935C140.198 129.828 140.404 129.713 140.479 129.678C140.554 129.644 140.636 129.593 140.661 129.564C140.686 129.535 140.85 129.44 141.025 129.353C141.201 129.265 141.425 129.142 141.524 129.079C141.981 128.789 142.672 128.372 142.697 128.372C142.713 128.372 143.205 128.085 143.792 127.734C144.379 127.383 144.878 127.096 144.9 127.096C144.923 127.096 145.165 126.952 145.44 126.777C145.714 126.602 145.956 126.458 145.977 126.458C145.999 126.458 146.934 125.92 148.055 125.261C149.176 124.603 150.258 123.978 150.458 123.872C150.659 123.765 150.877 123.627 150.943 123.564C151.01 123.502 151.122 123.451 151.194 123.451C151.266 123.451 151.324 123.42 151.324 123.382C151.324 123.344 151.457 123.255 151.62 123.184C151.783 123.113 152.043 122.959 152.199 122.843C152.354 122.726 152.508 122.63 152.542 122.63C152.576 122.63 152.757 122.536 152.944 122.42C153.131 122.305 153.476 122.099 153.711 121.964L154.139 121.718L154.088 131.63C154.046 139.785 154.014 141.565 153.913 141.673C153.78 141.815 152.838 142.373 152.577 142.464C152.49 142.495 152.418 142.556 152.418 142.601C152.418 142.645 152.372 142.681 152.316 142.681C152.217 142.681 151.025 143.359 149.752 144.139C149.589 144.238 149.312 144.392 149.137 144.48C148.962 144.569 148.804 144.671 148.787 144.709C148.771 144.747 148.702 144.777 148.634 144.777C148.567 144.777 148.458 144.829 148.392 144.891C148.325 144.954 148.107 145.092 147.906 145.198C147.706 145.304 146.968 145.729 146.266 146.143C145.564 146.557 144.723 147.04 144.398 147.216C144.072 147.393 143.74 147.593 143.661 147.661C143.582 147.729 143.494 147.785 143.466 147.785C143.438 147.785 142.855 148.113 142.17 148.514C141.486 148.915 140.891 149.243 140.85 149.243C140.808 149.243 140.727 149.301 140.668 149.371C140.61 149.441 140.348 149.607 140.087 149.739C139.59 149.991 139.279 150.169 139.203 150.246C139.178 150.271 139.014 150.363 138.838 150.452C138.663 150.54 138.355 150.715 138.155 150.841C137.954 150.967 137.728 151.096 137.653 151.127C137.578 151.159 137.455 151.234 137.38 151.294C137.304 151.355 137.058 151.501 136.833 151.619C136.607 151.738 136.361 151.883 136.286 151.941C136.211 152 135.945 152.158 135.694 152.291C135.443 152.425 135.177 152.572 135.101 152.619C134.839 152.782 131.775 154.549 131.275 154.825C130.999 154.978 130.752 155.128 130.726 155.159C130.702 155.188 130.558 155.274 130.407 155.349C130.257 155.423 129.667 155.761 129.096 156.098C128.526 156.436 127.941 156.765 127.798 156.828C127.654 156.892 127.537 156.968 127.537 156.997C127.537 157.026 127.28 157.182 126.967 157.344C126.365 157.654 126.062 157.826 125.987 157.901C125.962 157.927 125.79 158.029 125.605 158.129C125.304 158.293 123.622 159.267 123.245 159.497C123.163 159.547 122.916 159.688 122.696 159.812C122.476 159.936 122.228 160.079 122.144 160.131C122.061 160.183 121.805 160.325 121.575 160.447C121.345 160.569 121.157 160.702 121.157 160.743C121.157 160.784 121.126 160.808 121.088 160.796C121.051 160.784 120.496 161.082 119.854 161.457C119.213 161.832 118.536 162.222 118.35 162.322C118.164 162.422 117.999 162.535 117.982 162.572C117.966 162.61 117.896 162.641 117.829 162.641C117.762 162.641 117.652 162.692 117.586 162.755C117.52 162.817 117.343 162.929 117.192 163.003C117.042 163.076 116.703 163.271 116.438 163.436C116.175 163.6 115.946 163.734 115.931 163.734C115.916 163.734 115.423 164.021 114.836 164.373C114.248 164.723 113.747 165.01 113.721 165.01C113.696 165.01 113.45 165.154 113.176 165.33C112.902 165.505 112.662 165.648 112.644 165.648C112.626 165.648 111.699 166.182 110.585 166.833C109.47 167.485 108.522 168.018 108.478 168.018C108.434 168.018 108.397 168.059 108.397 168.109C108.397 168.159 108.352 168.2 108.297 168.2C108.242 168.2 107.801 168.436 107.317 168.724C106.834 169.013 106.404 169.263 106.362 169.282C106.32 169.3 105.993 169.495 105.637 169.714C105.28 169.934 104.935 170.114 104.87 170.114C104.805 170.114 104.752 170.152 104.752 170.199C104.752 170.246 104.659 170.313 104.547 170.348C104.434 170.383 104.321 170.438 104.296 170.468C104.271 170.499 104.098 170.607 103.911 170.706C103.724 170.807 102.955 171.251 102.202 171.694C101.448 172.136 100.719 172.559 100.581 172.633C100.444 172.707 100.167 172.868 99.9671 172.991C99.7663 173.115 99.5142 173.254 99.4063 173.3C99.298 173.346 99.1813 173.43 99.1463 173.487C99.1005 173.561 99.0413 173.555 98.9325 173.467C98.8498 173.399 98.5977 173.247 98.3718 173.128C98.1463 173.01 97.9002 172.863 97.8251 172.803C97.7499 172.743 97.6271 172.668 97.5515 172.636C97.4763 172.605 97.2508 172.476 97.0505 172.35C96.8498 172.224 96.5421 172.049 96.3671 171.96C96.1915 171.872 96.0342 171.77 96.0174 171.732C96.001 171.694 95.9319 171.664 95.8647 171.664C95.797 171.664 95.6878 171.612 95.6215 171.55C95.5552 171.487 95.3806 171.374 95.2331 171.299C95.086 171.224 94.4296 170.845 93.775 170.456C93.1205 170.068 92.5332 169.75 92.4706 169.75C92.4081 169.75 92.3567 169.718 92.3567 169.679C92.3567 169.641 92.2031 169.528 92.0154 169.429C91.8277 169.33 90.7768 168.726 89.6806 168.086C88.5844 167.447 87.6512 166.924 87.6068 166.924C87.5625 166.924 87.5265 166.892 87.5265 166.853C87.5265 166.814 87.4135 166.734 87.2758 166.676C87.0004 166.558 86.3925 166.211 85.865 165.869C85.6782 165.747 85.5078 165.648 85.4863 165.648C85.4649 165.648 85.1479 165.464 84.7823 165.238C84.4163 165.013 84.0638 164.828 83.9989 164.828C83.934 164.828 83.8808 164.79 83.8808 164.743C83.8808 164.697 83.7884 164.629 83.6758 164.594C83.5629 164.559 83.4499 164.505 83.4251 164.474C83.3999 164.443 83.2281 164.336 83.0432 164.236C82.8584 164.135 82.2902 163.811 81.7804 163.514L80.8536 162.975L81.0684 162.81C81.1865 162.719 81.4881 162.541 81.7388 162.414C83.1119 161.718 83.3327 161.527 82.9541 161.367C82.8369 161.317 82.5773 161.175 82.377 161.049C82.1763 160.925 81.8485 160.731 81.6478 160.618C81.4475 160.506 81.201 160.365 81.1011 160.304C81.0007 160.243 80.7752 160.121 80.5997 160.032C80.4241 159.943 80.2603 159.845 80.2351 159.814C80.2098 159.782 80.1281 159.729 80.053 159.694C79.9778 159.66 79.7724 159.547 79.5973 159.442C78.4386 158.755 77.8816 158.449 77.7892 158.449C77.7308 158.449 77.6832 158.417 77.6832 158.378C77.6832 158.339 77.5296 158.226 77.3414 158.127C77.1538 158.028 76.4544 157.629 75.7877 157.241C75.121 156.852 74.5501 156.534 74.5188 156.534C74.4875 156.534 74.3974 156.477 74.318 156.408C74.2391 156.338 73.9567 156.164 73.691 156.02C73.4254 155.877 73.1369 155.719 73.0505 155.669C72.9641 155.618 72.4716 155.331 71.9562 155.031C71.4407 154.73 70.8679 154.402 70.6826 154.301C70.4977 154.201 70.3259 154.099 70.3007 154.074C70.2759 154.049 70.1116 153.95 69.936 153.855C69.761 153.761 69.43 153.581 69.2012 153.456C68.7427 153.205 68.6046 153.234 67.7488 153.757C67.0541 154.181 66.1997 154.62 66.1997 154.552C66.1997 154.512 66.0457 154.398 65.858 154.299C65.5377 154.13 63.2183 152.804 62.9186 152.619C62.8435 152.572 62.5769 152.425 62.3262 152.291C62.0755 152.158 61.8056 151.991 61.7267 151.922C61.6473 151.852 61.5572 151.795 61.526 151.795C61.4947 151.795 60.9088 151.467 60.2243 151.066C59.5399 150.665 58.9428 150.337 58.8985 150.337C58.8536 150.337 58.8172 150.3 58.8172 150.256C58.8172 150.211 58.715 150.149 58.5894 150.117C58.4643 150.086 58.3616 150.02 58.3616 149.971C58.3616 149.921 58.3083 149.881 58.2434 149.881C58.1786 149.881 57.8396 149.707 57.4904 149.494C57.1416 149.281 56.7331 149.045 56.5833 148.97C56.4334 148.895 56.2569 148.782 56.1906 148.719C56.1243 148.657 56.0114 148.605 55.9399 148.605C55.868 148.605 55.8097 148.569 55.8097 148.525C55.8097 148.48 55.7378 148.421 55.65 148.393C55.5622 148.365 55.2607 148.206 54.9791 148.041C52.84 146.781 52.3582 146.509 52.2676 146.509C52.2106 146.509 52.1639 146.477 52.1639 146.438C52.1639 146.4 52.0103 146.287 51.8222 146.189C51.6345 146.09 51.0808 145.775 50.592 145.488C50.1032 145.203 49.7026 144.997 49.7017 145.032C49.7012 145.068 49.6704 145.051 49.6335 144.996C49.5663 144.895 49.1373 144.635 48.2908 144.181C48.0401 144.047 47.7703 143.88 47.6909 143.81C47.612 143.74 47.5219 143.683 47.4911 143.683C47.4603 143.683 46.992 143.425 46.4505 143.109C45.9084 142.793 45.4038 142.506 45.3286 142.471C45.1703 142.399 44.8487 142.201 44.781 142.134C44.7558 142.109 44.4892 141.959 44.1885 141.801L43.6423 141.513V131.505V121.497L44.0069 121.296C44.2077 121.185 44.4145 121.061 44.4668 121.02C44.5191 120.978 44.8407 120.805 45.1815 120.634C45.5223 120.463 45.8179 120.279 45.8389 120.224C45.8599 120.169 45.8664 116.075 45.8533 111.126L45.83 102.128L45.4196 102.346C45.1941 102.466 44.7548 102.692 44.4434 102.848C44.132 103.005 43.8528 103.172 43.823 103.22C43.7931 103.269 43.7301 103.309 43.6829 103.309C43.6297 103.309 43.5975 98.4537 43.5979 90.5264L43.5989 77.7441L43.9625 77.57C44.1624 77.4743 44.3262 77.3613 44.3262 77.3193C44.3262 77.2772 44.379 77.2427 44.4444 77.2427C44.5092 77.2427 44.8617 77.0583 45.2273 76.8328C45.5933 76.6073 45.9103 76.4224 45.9318 76.4224C45.9528 76.4224 46.1232 76.3234 46.3104 76.2021C46.838 75.8598 47.4454 75.5125 47.7208 75.3953C47.859 75.337 47.9715 75.2567 47.9715 75.2179C47.9715 75.1787 48.0079 75.1465 48.0518 75.1465C48.0962 75.1465 48.9468 74.6703 49.9431 74.0876C50.9389 73.5054 52.0206 72.8845 52.3465 72.7076C52.6724 72.5311 53.0001 72.3411 53.0753 72.2855C53.1509 72.23 53.2942 72.1408 53.3946 72.0871C53.7046 71.9214 55.5758 70.8266 56.1286 70.4876C56.2789 70.3952 56.5557 70.2477 56.7439 70.1599C56.932 70.0717 57.0856 69.9685 57.0856 69.9302C57.0856 69.8919 57.1444 69.8606 57.2159 69.8606C57.2873 69.8606 57.4003 69.8093 57.4666 69.7467C57.5329 69.6837 57.7397 69.5506 57.926 69.4503C58.1127 69.3499 58.8821 68.9059 59.6356 68.4633C60.3891 68.0207 61.1184 67.5982 61.2556 67.5245C61.3934 67.4507 61.6698 67.2892 61.8705 67.1654C62.0708 67.0417 62.3168 66.8989 62.4172 66.8475C62.5176 66.7961 62.6828 66.7042 62.7846 66.6439C62.8859 66.5833 63.3915 66.2877 63.9084 65.9871C64.9196 65.3979 65.2711 65.1901 65.6983 64.9278C65.8487 64.8358 66.1255 64.6883 66.3136 64.6C66.5013 64.5123 66.6554 64.4091 66.6554 64.3703C66.6554 64.332 66.7138 64.3008 66.7856 64.3008C66.8571 64.3008 66.9701 64.2499 67.0364 64.1868C67.1022 64.1243 67.3207 63.9866 67.521 63.8801C67.7217 63.7741 68.5565 63.2923 69.3763 62.8096C70.1961 62.3264 70.8852 61.9314 70.9071 61.9314C70.9295 61.9314 71.1718 61.7876 71.4463 61.6121C71.7204 61.437 71.9604 61.2932 71.9786 61.2932C71.9972 61.2932 72.5729 60.965 73.2573 60.564C73.9422 60.1629 74.536 59.8352 74.5776 59.8352C74.6191 59.8352 74.7009 59.7773 74.7592 59.7073C74.818 59.6368 75.079 59.4711 75.34 59.3389C75.8377 59.0868 76.1481 58.9094 76.2252 58.8324C76.2499 58.8076 76.4142 58.7147 76.5893 58.627C76.7649 58.5387 77.0725 58.3637 77.2733 58.2376C77.4736 58.1115 77.699 57.9827 77.7742 57.9509C77.8494 57.9192 77.9726 57.8431 78.0478 57.7815C78.123 57.7203 78.369 57.5719 78.5945 57.4514C78.82 57.3314 79.1071 57.1671 79.2327 57.0858C79.5002 56.9131 80.0978 56.5737 80.7365 56.231C80.9872 56.0966 81.257 55.9299 81.3359 55.8603C81.4153 55.7908 81.5054 55.7338 81.5367 55.7338C81.5679 55.7338 82.1534 55.4056 82.8383 55.0046C83.5227 54.6035 84.1054 54.2753 84.1329 54.2753C84.16 54.2753 84.3094 54.1824 84.4644 54.0685C84.6198 53.9546 84.9826 53.7408 85.2706 53.5932C85.5587 53.4462 85.7945 53.2935 85.7945 53.2538C85.7945 53.2141 85.8477 53.1819 85.9126 53.1819C85.9779 53.1819 86.3304 52.9975 86.696 52.7716C87.062 52.5461 87.379 52.3617 87.4 52.3617C87.4215 52.3617 87.5919 52.2622 87.7791 52.1413C88.3067 51.7986 88.914 51.4513 89.1895 51.3346C89.3277 51.2757 89.4402 51.1959 89.4402 51.1567C89.4402 51.1175 89.478 51.0857 89.5242 51.0857C89.5705 51.0857 90.0523 50.821 90.5952 50.4975C91.7554 49.8056 91.6307 49.8308 92.1886 50.1744Z" fill="#6C757D"/>
<g filter="url(#filter0_d_927_6142)">
<path fill-rule="evenodd" clip-rule="evenodd" d="M92.0656 8.19679C91.5894 8.48298 91.0152 8.81678 90.7897 8.9377C90.5642 9.05909 90.3181 9.20615 90.243 9.26497C90.1678 9.3238 89.9012 9.4816 89.6505 9.61605C88.8335 10.054 88.3755 10.329 88.319 10.4158C88.2882 10.4629 88.2266 10.5003 88.1822 10.4989C88.1374 10.498 87.5963 10.7916 86.9796 11.152C86.3624 11.5125 85.6038 11.9448 85.2933 12.1133C84.9828 12.2814 84.7153 12.4555 84.6985 12.5003C84.6822 12.5452 84.6187 12.582 84.5575 12.582C84.4968 12.582 84.1481 12.7665 83.7821 12.9919C83.416 13.2174 83.0995 13.4023 83.078 13.4023C83.0565 13.4023 82.8861 13.5013 82.6994 13.6227C82.1714 13.9649 81.564 14.3122 81.2885 14.4294C81.1508 14.4878 81.0378 14.5676 81.0378 14.6068C81.0378 14.646 81.0014 14.6783 80.9571 14.6783C80.9132 14.6783 79.965 15.2114 78.8506 15.8632C77.7362 16.5144 76.8136 17.0476 76.8001 17.0476C76.7721 17.0476 73.2179 19.1051 73.0176 19.2372C72.9424 19.2867 72.8192 19.3548 72.744 19.3884C72.6688 19.4221 72.5871 19.4729 72.5619 19.5019C72.5367 19.5308 72.3728 19.6261 72.1973 19.7143C71.9036 19.8618 71.7486 19.952 70.9671 20.4305C70.8163 20.5225 70.5297 20.6896 70.3289 20.8016C70.1286 20.9142 69.8821 21.057 69.7822 21.1196C69.6818 21.1817 69.4563 21.3063 69.2808 21.396C69.1053 21.4856 68.9414 21.5799 68.9162 21.6046C68.8504 21.6709 68.5287 21.8694 68.3695 21.9417C68.2943 21.9763 67.4381 22.4679 66.4675 23.0351C65.4964 23.6019 64.6845 24.0655 64.6631 24.0655C64.6416 24.0655 64.3997 24.2093 64.1252 24.3844C63.8512 24.5599 63.6112 24.7037 63.593 24.7037C63.5575 24.7037 61.1368 26.0963 60.8959 26.2551C60.8208 26.3046 60.6975 26.3727 60.6223 26.4063C60.5472 26.44 60.4655 26.4932 60.4403 26.5245C60.4151 26.5557 60.2512 26.6533 60.0756 26.7411C59.5037 27.0277 58.7119 27.489 58.5999 27.6015C58.5392 27.6617 58.4608 27.7112 58.4258 27.7112C58.3903 27.7112 58.0621 27.8956 57.696 28.1211C57.33 28.3466 56.9775 28.5315 56.9127 28.5315C56.8478 28.5315 56.7945 28.5675 56.7945 28.6118C56.7945 28.6562 56.7231 28.7178 56.6353 28.7486C56.4028 28.8303 55.4472 29.3868 55.3188 29.5152C55.2581 29.5754 55.1778 29.6249 55.1404 29.6249C55.1026 29.6249 54.5116 29.9531 53.8271 30.3541C53.1423 30.7552 52.5652 31.0834 52.5447 31.0834C52.5241 31.0834 52.3402 31.1889 52.1357 31.3182C51.9312 31.4471 51.5792 31.6558 51.3537 31.7818C51.1282 31.9079 50.7529 32.1273 50.5199 32.2692C50.2865 32.4116 49.891 32.638 49.6403 32.773C49.3896 32.9074 49.123 33.0662 49.0479 33.1254C48.9727 33.1843 48.7878 33.2926 48.6375 33.3654C48.4872 33.4387 48.3438 33.519 48.3186 33.5438C48.243 33.6199 47.9279 33.8033 47.5894 33.9677C47.4143 34.0536 47.1678 34.1922 47.0427 34.2763C46.9176 34.3603 46.6304 34.5326 46.4049 34.6586C46.179 34.7842 45.5707 35.139 45.0529 35.4462C44.5352 35.7534 44.0921 36.0051 44.0688 36.0051C44.0454 36.0051 43.8017 36.1484 43.5277 36.3239C43.2536 36.4995 43.0137 36.6428 42.9954 36.6428C42.9768 36.6428 42.4137 36.9631 41.7438 37.3548C41.0743 37.746 40.4646 38.0952 40.3894 38.1298C40.3142 38.1648 40.0887 38.2964 39.8885 38.4225C39.6877 38.5481 39.4417 38.6933 39.3413 38.7446C39.2409 38.796 39.0761 38.8875 38.9743 38.9482C38.352 39.3184 36.8627 40.1802 36.5789 40.3338C36.394 40.4342 36.2222 40.5369 36.197 40.5616C36.1213 40.6377 35.8053 40.8212 35.4677 40.9856C35.2927 41.071 35.0261 41.226 34.8762 41.3301C34.7259 41.4338 34.4388 41.6046 34.238 41.7097C34.0373 41.8142 33.4495 42.1527 32.9313 42.4613C32.4135 42.7699 31.9705 43.0225 31.9471 43.0225C31.9238 43.0225 31.6805 43.1663 31.406 43.3418C31.132 43.5169 30.892 43.6607 30.8738 43.6607C30.8383 43.6607 28.4176 45.0533 28.1767 45.2121C28.1016 45.2616 27.9788 45.3297 27.9031 45.3633C27.828 45.397 27.7463 45.4502 27.7211 45.4815C27.6959 45.5127 27.532 45.6112 27.3564 45.6999C27.1809 45.7887 26.9545 45.9096 26.8527 45.9684C26.7509 46.0277 26.2462 46.3218 25.7308 46.6225C25.2154 46.9236 24.6421 47.2513 24.4572 47.3517C24.2723 47.4521 24.1005 47.5543 24.0753 47.5795C23.9997 47.6552 23.6841 47.8391 23.3466 48.0035C23.171 48.0889 22.9044 48.2439 22.7546 48.3475C22.6042 48.4516 22.3171 48.6225 22.1164 48.7276C21.7756 48.9059 20.0052 49.9367 19.7008 50.1342C19.6256 50.1832 19.4819 50.2631 19.3819 50.3126C19.2816 50.3616 19.0355 50.5049 18.8348 50.6305C18.6345 50.7566 18.409 50.8877 18.3338 50.9228C18.2587 50.9578 17.6489 51.3065 16.9795 51.6982C16.3095 52.0899 15.7418 52.4102 15.7175 52.4102C15.6933 52.4102 15.5439 52.5022 15.3861 52.6142C15.2283 52.7267 14.8734 52.9359 14.5975 53.0792C14.3216 53.2221 14.0658 53.3864 14.0289 53.4443C13.992 53.5022 13.9612 53.5204 13.9603 53.4854C13.9598 53.4504 13.6615 53.6026 13.2982 53.8234C12.9346 54.0442 12.4938 54.2963 12.3183 54.3836C12.1432 54.4709 11.9789 54.5704 11.9537 54.6049C11.9289 54.639 11.6213 54.8192 11.2702 55.0045C10.9196 55.1904 10.5778 55.3874 10.5115 55.4425C10.4452 55.4976 10.2314 55.6273 10.0367 55.7305C9.74494 55.886 8.39384 56.6666 7.62725 57.1227C7.52547 57.1829 7.36067 57.2744 7.2603 57.3263C7.15992 57.3776 6.91388 57.5205 6.71313 57.6442C6.51285 57.7679 6.23646 57.9294 6.09874 58.0032C5.96101 58.077 5.23224 58.4995 4.47872 58.9421C3.72474 59.3847 2.95581 59.8286 2.76907 59.929C2.58232 60.0294 2.40912 60.1368 2.38437 60.1676C2.35916 60.1984 2.24618 60.2521 2.13367 60.2876C2.02068 60.3226 1.92871 60.3898 1.92871 60.4365C1.92871 60.4832 1.87549 60.5215 1.8106 60.5215C1.74524 60.5215 1.38668 60.7064 1.01273 60.9318C0.639235 61.1578 0.271813 61.3777 0.196648 61.4207C0.0691946 61.493 -0.0774006 129.879 0.0500532 129.879C0.0701283 129.879 0.414207 129.694 0.815243 129.469C1.21628 129.243 1.57343 129.058 1.60844 129.058C1.64393 129.058 1.79379 128.972 1.94225 128.867C2.30547 128.608 2.26906 127.758 2.30874 137.408L2.34422 146.076L1.84001 146.339C1.56269 146.485 1.31572 146.625 1.29051 146.651C1.2653 146.677 1.07062 146.776 0.857727 146.87C0.644371 146.964 0.470231 147.071 0.470231 147.108C0.470231 147.145 0.367521 147.201 0.241934 147.233L0.0136378 147.29L0.036981 158.423L0.0603242 169.556L0.333439 169.72C0.48377 169.811 0.76062 169.957 0.948766 170.045C1.13691 170.134 1.29051 170.237 1.29051 170.275C1.29051 170.314 1.34933 170.345 1.42077 170.345C1.4922 170.345 1.60518 170.396 1.67147 170.459C1.73777 170.522 1.91424 170.634 2.0641 170.71C2.21397 170.785 2.62247 171.021 2.97169 171.234C3.32043 171.446 3.65938 171.621 3.72427 171.621C3.78916 171.621 3.84239 171.659 3.84239 171.706C3.84239 171.753 3.93483 171.82 4.04734 171.855C4.16032 171.89 4.2733 171.946 4.29805 171.98C4.32326 172.013 4.48713 172.112 4.66267 172.199C4.83821 172.286 5.26866 172.532 5.61974 172.746C5.97035 172.959 6.44235 173.233 6.66785 173.354C6.89334 173.475 7.13938 173.622 7.21454 173.681C7.28971 173.74 7.55629 173.897 7.80699 174.031C8.0577 174.165 8.32428 174.312 8.39944 174.358C8.80935 174.612 11.0685 175.905 11.1026 175.905C11.1245 175.905 11.3668 176.048 11.6409 176.223C11.9154 176.399 12.1563 176.542 12.1759 176.542C12.196 176.542 12.6362 176.794 13.154 177.101C14.0111 177.609 14.6059 177.952 15.098 178.22C15.1984 178.275 15.3011 178.341 15.3258 178.367C15.351 178.393 15.4743 178.465 15.5994 178.526C15.8361 178.642 15.9496 178.708 17.0173 179.347C17.3712 179.559 17.7064 179.732 17.7619 179.732C17.8175 179.732 17.8763 179.769 17.8931 179.814C17.9099 179.858 18.177 180.033 18.4865 180.201C18.9571 180.457 20.416 181.296 21.1107 181.711C21.6775 182.049 21.7125 182.056 22.0118 181.884C22.3965 181.662 23.2 181.21 23.7467 180.908L24.1925 180.662L24.8704 181.063C25.2434 181.284 25.5651 181.464 25.5852 181.464C25.6048 181.464 25.8457 181.608 26.1202 181.783C26.3942 181.958 26.6431 182.102 26.673 182.102C26.7028 182.102 26.9517 182.245 27.2257 182.421C27.5002 182.597 27.7435 182.74 27.7668 182.74C27.7897 182.74 28.025 182.876 28.2888 183.042C28.553 183.208 28.9125 183.414 29.088 183.5C29.4447 183.675 29.7487 183.854 29.8173 183.929C29.8425 183.957 30.0064 184.051 30.1819 184.139C30.3574 184.226 30.8701 184.521 31.3211 184.793C31.772 185.066 32.1927 185.289 32.2552 185.29C32.3178 185.291 32.3692 185.328 32.3692 185.373C32.3692 185.417 32.4411 185.477 32.5288 185.506C32.6166 185.536 32.7497 185.601 32.8248 185.652C33.0559 185.808 35.4855 187.206 35.5252 187.206C35.5457 187.206 35.7338 187.314 35.943 187.446C36.3072 187.676 36.6172 187.855 37.7694 188.503C38.4057 188.86 38.4043 188.84 37.8147 189.153C37.5518 189.293 37.1312 189.526 36.8805 189.67C36.6302 189.815 36.3366 189.973 36.2287 190.022C35.9491 190.149 35.8851 190.296 36.0775 190.369C36.1685 190.404 36.5298 190.601 36.8805 190.807C37.2315 191.014 37.5803 191.211 37.6555 191.245C37.7306 191.28 37.9356 191.394 38.1111 191.498C39.2517 192.175 39.8259 192.492 39.9113 192.492C39.9655 192.492 40.0234 192.527 40.0402 192.569C40.057 192.612 40.2755 192.76 40.5262 192.898C40.7769 193.037 41.396 193.391 41.9016 193.687C42.4077 193.982 42.8689 194.224 42.9273 194.224C42.9852 194.224 43.0328 194.26 43.0328 194.304C43.0328 194.348 43.1042 194.409 43.192 194.438C43.2798 194.467 43.4133 194.533 43.4885 194.584C43.7429 194.756 46.151 196.137 46.1958 196.137C46.2201 196.137 46.3489 196.214 46.482 196.307C46.615 196.4 46.9082 196.578 47.1337 196.703C47.6674 196.998 48.5217 197.496 48.9424 197.757C49.1258 197.871 49.3373 197.991 49.4125 198.025C49.4877 198.059 49.7552 198.211 50.0068 198.365C50.2589 198.518 50.546 198.693 50.645 198.752C50.9961 198.964 52.4681 199.818 52.6479 199.913C52.7482 199.967 52.8916 200.058 52.9667 200.115C53.0419 200.172 53.3085 200.328 53.5592 200.462C53.8099 200.597 54.1586 200.792 54.3337 200.896C54.6236 201.067 54.9112 201.23 55.7632 201.707C55.9229 201.796 56.2194 201.974 56.4224 202.102C56.6251 202.23 56.8081 202.335 56.8286 202.335C56.866 202.335 59.2736 203.718 59.529 203.886C59.6041 203.936 59.7269 204.004 59.8021 204.038C59.8777 204.071 59.9594 204.122 59.9846 204.151C60.0098 204.18 60.1737 204.275 60.3492 204.364C60.5248 204.452 60.832 204.627 61.0327 204.752C61.233 204.878 61.479 205.022 61.5794 205.072C61.6798 205.122 61.895 205.244 62.058 205.344C62.7512 205.767 62.9637 205.89 63.2657 206.041C63.4413 206.127 63.6051 206.225 63.6303 206.256C63.6551 206.287 63.7373 206.341 63.8124 206.375C63.8876 206.41 64.0925 206.523 64.2681 206.627C65.4268 207.315 65.9838 207.621 66.0763 207.621C66.1346 207.621 66.1822 207.653 66.1822 207.691C66.1822 207.73 66.3358 207.843 66.524 207.942C66.7117 208.041 67.411 208.44 68.0777 208.829C68.7444 209.217 69.3153 209.535 69.3466 209.535C69.3774 209.535 69.468 209.592 69.5469 209.662C69.6263 209.731 69.8961 209.897 70.1468 210.031C70.3971 210.165 70.6636 210.312 70.7393 210.359C70.9783 210.508 72.9298 211.628 73.462 211.922C73.744 212.078 73.9952 212.23 74.0199 212.26C74.0451 212.29 74.1889 212.376 74.3393 212.451C74.4896 212.525 75.0657 212.853 75.6194 213.179C76.1736 213.506 76.7478 213.834 76.8953 213.91C77.0433 213.985 77.2184 214.098 77.2847 214.16C77.351 214.223 77.464 214.274 77.5354 214.274C77.6073 214.274 77.6657 214.305 77.6657 214.343C77.6657 214.381 77.7992 214.469 77.9617 214.539C78.1246 214.608 78.3197 214.715 78.3949 214.775C78.4701 214.836 78.7161 214.982 78.9416 215.101C79.1671 215.22 79.4131 215.365 79.4883 215.423C79.5635 215.482 79.8301 215.639 80.0808 215.773C80.5579 216.027 80.6004 216.052 81.3791 216.53C81.6448 216.693 81.8768 216.826 81.8955 216.826C81.9141 216.826 82.4772 217.147 83.1467 217.538C83.8166 217.93 84.4259 218.278 84.501 218.312C84.5762 218.347 84.6994 218.415 84.7746 218.465C85.015 218.623 87.4362 220.016 87.4717 220.016C87.4899 220.016 87.7299 220.159 88.0039 220.335C88.2779 220.511 88.5235 220.654 88.5492 220.654C88.5749 220.654 89.0609 220.931 89.6291 221.269C90.1972 221.608 90.7831 221.946 90.9311 222.021C91.0791 222.096 91.2542 222.209 91.3205 222.272C91.3868 222.335 91.496 222.386 91.5633 222.386C91.631 222.386 91.6996 222.417 91.7164 222.454C91.7332 222.492 91.8905 222.594 92.0656 222.681C92.3859 222.841 92.5409 222.933 92.9909 223.229C93.3719 223.48 93.4223 223.464 94.6632 222.698C94.864 222.574 95.0895 222.447 95.1647 222.415C95.2398 222.384 95.3626 222.308 95.4378 222.245C95.5129 222.183 95.7795 222.024 96.0302 221.89C96.2809 221.756 96.5475 221.609 96.6227 221.562C97.0326 221.308 99.2917 220.016 99.3258 220.016C99.3478 220.016 99.5901 219.873 99.8646 219.697C100.139 219.522 100.378 219.378 100.397 219.378C100.415 219.378 100.979 219.058 101.648 218.666C102.318 218.275 102.927 217.926 103.002 217.892C103.078 217.858 103.201 217.789 103.276 217.74C103.652 217.492 105.948 216.188 106.009 216.188C106.048 216.188 106.127 216.131 106.185 216.06C106.243 215.99 106.505 215.824 106.766 215.691C107.027 215.558 107.404 215.348 107.605 215.225C107.805 215.101 108.051 214.96 108.152 214.91C108.252 214.86 108.467 214.737 108.63 214.638C108.793 214.538 109.06 214.375 109.223 214.275C109.386 214.175 109.663 214.022 109.838 213.933C110.013 213.845 110.178 213.753 110.203 213.727C110.269 213.661 110.591 213.463 110.749 213.39C110.825 213.356 111.434 213.008 112.104 212.616C112.773 212.225 113.339 211.905 113.361 211.905C113.383 211.905 113.626 211.761 113.9 211.586C114.174 211.41 114.414 211.267 114.433 211.267C114.468 211.267 116.889 209.874 117.129 209.715C117.204 209.666 117.328 209.597 117.403 209.563C117.478 209.529 118.087 209.18 118.757 208.789C119.427 208.397 119.997 208.077 120.024 208.077C120.052 208.077 120.201 207.984 120.356 207.87C120.511 207.756 120.761 207.604 120.912 207.531C121.062 207.458 121.401 207.264 121.665 207.1C121.929 206.936 122.166 206.801 122.191 206.801C122.216 206.801 122.402 206.696 122.606 206.568C123.013 206.311 123.391 206.091 123.874 205.833C124.049 205.739 124.213 205.639 124.238 205.612C124.263 205.584 124.427 205.488 124.603 205.4C124.778 205.311 125.004 205.189 125.104 205.13C125.204 205.07 125.656 204.805 126.107 204.542C126.558 204.278 126.988 204.025 127.064 203.978C127.139 203.932 127.405 203.785 127.656 203.651C127.907 203.518 128.176 203.351 128.255 203.282C128.334 203.212 128.425 203.155 128.456 203.155C128.488 203.155 129.073 202.827 129.758 202.426C130.442 202.025 131.014 201.697 131.028 201.697C131.042 201.697 131.606 201.373 132.281 200.978C132.956 200.582 133.689 200.158 133.909 200.034C134.129 199.91 134.453 199.723 134.628 199.62C134.804 199.516 135.152 199.321 135.403 199.187C135.653 199.053 135.92 198.894 135.995 198.836C136.07 198.777 136.316 198.632 136.542 198.513C136.767 198.395 137.014 198.248 137.089 198.188C137.164 198.127 137.359 198.021 137.522 197.951C137.685 197.882 137.818 197.794 137.818 197.756C137.818 197.718 137.877 197.687 137.948 197.687C138.02 197.687 138.132 197.636 138.199 197.573C138.265 197.51 138.442 197.398 138.593 197.323C138.743 197.249 139.079 197.053 139.34 196.89C139.601 196.727 139.844 196.593 139.88 196.593C139.916 196.593 140.01 196.536 140.089 196.467C140.168 196.397 140.438 196.23 140.689 196.096C140.94 195.962 141.309 195.751 141.509 195.629C141.71 195.506 141.956 195.365 142.056 195.316C142.156 195.267 142.3 195.186 142.375 195.137C142.585 194.999 145.035 193.586 145.064 193.586C145.078 193.586 145.649 193.257 146.334 192.856C147.019 192.455 147.604 192.128 147.635 192.128C147.667 192.128 147.757 192.071 147.836 192.001C147.915 191.931 148.198 191.757 148.463 191.614C148.729 191.47 149.017 191.311 149.104 191.262C149.19 191.212 149.683 190.924 150.198 190.623C150.714 190.323 151.287 189.994 151.472 189.895C151.657 189.794 151.821 189.681 151.838 189.644C151.855 189.606 151.924 189.575 151.991 189.575C152.059 189.575 152.168 189.524 152.235 189.461C152.3 189.399 152.478 189.287 152.628 189.213C152.778 189.14 153.118 188.945 153.382 188.781C153.646 188.616 153.881 188.482 153.904 188.482C153.927 188.482 154.162 188.347 154.426 188.183C154.691 188.018 155.03 187.824 155.18 187.752C155.33 187.679 155.581 187.527 155.736 187.413C155.891 187.299 156.04 187.206 156.067 187.206C156.095 187.206 156.665 186.886 157.335 186.494C158.005 186.103 158.614 185.754 158.689 185.72C158.764 185.686 158.887 185.617 158.963 185.568C159.203 185.409 161.624 184.016 161.659 184.016C161.678 184.016 161.909 183.881 162.173 183.717C162.437 183.552 162.807 183.337 162.995 183.24C163.183 183.143 163.337 183.031 163.337 182.992C163.337 182.954 163.388 182.921 163.451 182.921C163.514 182.92 164.051 182.633 164.645 182.283C165.239 181.933 165.758 181.646 165.799 181.646C165.84 181.646 165.888 181.616 165.904 181.578C165.921 181.54 166.078 181.436 166.254 181.346C166.429 181.257 166.655 181.132 166.755 181.07C166.855 181.007 167.101 180.864 167.302 180.752C167.502 180.64 167.8 180.467 167.962 180.368C168.706 179.916 168.871 179.821 169.17 179.673C169.346 179.585 169.509 179.491 169.535 179.464C169.6 179.392 169.895 179.216 170.248 179.038C170.414 178.954 171.02 178.604 171.595 178.261C172.17 177.917 172.654 177.636 172.671 177.636C172.689 177.636 173.601 177.113 174.697 176.474C175.793 175.835 176.843 175.231 177.031 175.132C177.219 175.033 177.373 174.92 177.373 174.881C177.373 174.842 177.42 174.811 177.478 174.811C177.571 174.811 178.128 174.504 179.286 173.817C179.462 173.713 179.667 173.6 179.742 173.565C179.817 173.531 179.899 173.477 179.925 173.446C179.949 173.414 180.114 173.316 180.289 173.227C180.464 173.138 180.69 173.016 180.79 172.955C180.891 172.895 181.137 172.753 181.337 172.641C181.678 172.45 181.829 172.36 182.59 171.896C182.753 171.797 183.041 171.643 183.228 171.556C183.416 171.467 183.57 171.364 183.57 171.326C183.57 171.288 183.629 171.256 183.7 171.256C183.772 171.256 183.885 171.204 183.951 171.14C184.017 171.076 184.195 170.962 184.345 170.888C184.495 170.813 185.1 170.467 185.689 170.119L186.76 169.485V137.241C186.76 119.507 186.743 104.998 186.722 104.998C186.69 104.998 186.192 105.289 184.345 106.386C184.195 106.475 183.969 106.599 183.844 106.66C183.718 106.721 183.595 106.792 183.57 106.818C183.489 106.903 182.8 107.286 182.636 107.338C182.548 107.366 182.477 107.425 182.477 107.469C182.477 107.513 182.439 107.55 182.393 107.55C182.347 107.55 181.858 107.816 181.305 108.142C180.753 108.468 180.278 108.734 180.25 108.734C180.072 108.734 180.202 94.8009 180.38 94.7445C180.481 94.7127 180.562 94.6483 180.562 94.6016C180.562 94.5549 180.61 94.5166 180.668 94.5166C180.761 94.5166 181.318 94.2104 182.477 93.5227C182.652 93.4186 182.857 93.3051 182.932 93.2701C183.007 93.2355 183.356 93.0399 183.707 92.8359C184.058 92.6319 184.499 92.384 184.687 92.2855C184.874 92.1865 185.028 92.074 185.028 92.0352C185.028 91.9965 185.074 91.9648 185.13 91.9648C185.186 91.9648 185.575 91.7701 185.994 91.532L186.755 91.0987L186.735 76.2931L186.714 61.4874L186.35 61.3007C186.149 61.198 185.931 61.0626 185.865 61C185.799 60.9374 185.69 60.8861 185.622 60.8861C185.555 60.8861 185.486 60.8553 185.469 60.8175C185.452 60.7801 185.295 60.6769 185.119 60.5892C184.944 60.5009 184.667 60.3469 184.504 60.247C183.822 59.8291 183.597 59.6956 183.251 59.5018C183.051 59.3893 182.805 59.2483 182.704 59.1881C182.604 59.1279 182.309 58.9687 182.048 58.8342C181.787 58.6998 181.525 58.5322 181.467 58.4621C181.408 58.3916 181.327 58.3342 181.286 58.3342C181.245 58.3342 180.825 58.1087 180.355 57.8328C179.884 57.5574 179.451 57.3314 179.392 57.3314C179.334 57.3314 179.286 57.2996 179.286 57.2614C179.286 57.2226 179.133 57.1096 178.945 57.0107C178.757 56.9112 177.953 56.4509 177.158 55.9873C176.363 55.5237 175.698 55.1441 175.679 55.1441C175.66 55.1441 175.42 55.0008 175.146 54.8253C174.872 54.6497 174.629 54.5064 174.607 54.5064C174.568 54.5064 172.17 53.1296 171.904 52.9545C171.829 52.9051 171.706 52.8369 171.631 52.8033C171.556 52.7697 171.474 52.7188 171.449 52.6903C171.424 52.6614 171.259 52.5657 171.084 52.4774C170.909 52.3892 170.632 52.2356 170.469 52.1357C169.787 51.7178 169.562 51.5838 169.216 51.3901C169.015 51.278 168.769 51.1361 168.669 51.0754C168.569 51.0147 168.343 50.8924 168.168 50.8037C167.992 50.715 167.828 50.6174 167.803 50.5871C167.778 50.5567 167.614 50.4606 167.438 50.3733C167.263 50.2855 166.75 49.9914 166.299 49.7187C165.848 49.4461 165.428 49.2224 165.365 49.2215C165.303 49.221 165.251 49.1837 165.251 49.1398C165.251 49.0955 165.179 49.0352 165.092 49.0053C165.004 48.9759 164.871 48.9096 164.796 48.8583C164.519 48.6683 162.141 47.306 162.087 47.306C162.055 47.306 161.965 47.2495 161.886 47.1794C161.807 47.1099 161.537 46.9437 161.287 46.8102C161.036 46.6766 160.769 46.5291 160.694 46.4824C160.336 46.2611 158.027 44.9366 157.998 44.9366C157.981 44.9366 157.486 44.6495 156.899 44.2984C156.312 43.9478 155.819 43.6607 155.804 43.6607C155.788 43.6607 155.56 43.5248 155.296 43.3586C155.032 43.1924 154.672 42.9861 154.496 42.9002C154.14 42.7256 153.836 42.5468 153.767 42.4711C153.743 42.4436 153.578 42.3493 153.403 42.2615C153.228 42.1742 152.715 41.8796 152.263 41.6074C151.812 41.3348 151.392 41.1111 151.329 41.1102C151.267 41.1093 151.215 41.0724 151.215 41.028C151.215 40.9837 151.144 40.9235 151.056 40.8941C150.968 40.8646 150.835 40.7993 150.76 40.7484C150.541 40.6009 148.1 39.1947 148.063 39.1947C148.044 39.1947 147.805 39.0513 147.53 38.8758C147.256 38.7003 147.013 38.5569 146.989 38.5569C146.966 38.5569 146.632 38.3707 146.247 38.1428L145.548 37.7292L145.123 37.9757C144.89 38.1111 144.678 38.246 144.654 38.2754C144.628 38.3053 144.485 38.3907 144.334 38.4654C144.184 38.5406 144.041 38.6228 144.015 38.648C143.962 38.7012 143.931 38.7194 142.557 39.5219C141.981 39.8581 141.489 40.1583 141.464 40.1882C141.438 40.2185 141.295 40.3044 141.145 40.3796C140.994 40.4547 140.851 40.5364 140.826 40.5616C140.774 40.6135 140.754 40.6251 139.473 41.3763C138.533 41.9268 138.529 41.9282 138.287 41.7694C138.005 41.5836 137.938 41.5435 136.895 40.9319C136.462 40.6784 136.062 40.4706 136.006 40.4706C135.95 40.4706 135.904 40.4347 135.904 40.3903C135.904 40.346 135.832 40.2848 135.744 40.2549C135.657 40.2246 135.441 40.1139 135.266 40.0084C134.226 39.3842 133.551 39.0126 133.458 39.0126C133.4 39.0126 133.352 38.9808 133.352 38.9421C133.352 38.9033 133.198 38.7904 133.01 38.6914C132.623 38.4874 130.28 37.1428 130.071 37.0051C129.996 36.9556 129.873 36.8874 129.798 36.8534C129.722 36.8193 129.36 36.6143 128.993 36.3982C128.625 36.182 128.305 36.0051 128.282 36.0051C128.259 36.0051 128.015 35.8613 127.741 35.6857C127.466 35.5102 127.227 35.3669 127.208 35.3669C127.189 35.3669 126.522 34.985 125.726 34.5186C124.93 34.0522 124.201 33.6404 124.106 33.604C123.937 33.5391 123.937 33.5354 124.108 33.4182C124.31 33.2814 126.431 32.047 127.109 31.6721C127.36 31.5334 127.585 31.3957 127.61 31.3654C127.635 31.3355 127.779 31.2505 127.929 31.1772C128.079 31.1035 128.419 30.9088 128.683 30.7444C128.947 30.5796 129.185 30.4452 129.212 30.4452C129.238 30.4452 129.473 30.3117 129.734 30.1483C129.995 29.9849 130.31 29.7986 130.436 29.7341C130.96 29.4643 131.136 29.279 130.94 29.2033C130.779 29.1417 128.491 27.8377 128.157 27.6179C128.082 27.5684 127.959 27.4997 127.884 27.4657C127.809 27.4316 127.446 27.2271 127.079 27.0105C126.711 26.7943 126.398 26.6174 126.382 26.6174C126.351 26.6174 123.908 25.2088 123.691 25.066C123.616 25.0165 123.493 24.9479 123.418 24.9138C123.343 24.8797 122.98 24.6752 122.613 24.4586C122.245 24.2424 121.932 24.0655 121.916 24.0655C121.886 24.0655 119.442 22.657 119.225 22.5141C119.15 22.4646 119.027 22.396 118.952 22.3619C118.877 22.3278 118.514 22.1233 118.147 21.9067C117.78 21.6906 117.466 21.5136 117.451 21.5136C117.42 21.5136 114.976 20.1051 114.759 19.9622C114.684 19.9123 114.561 19.8441 114.486 19.81C114.411 19.7759 114.049 19.571 113.681 19.3548C113.314 19.1387 113 18.9617 112.985 18.9617C112.954 18.9617 110.51 17.5532 110.294 17.4103C110.219 17.3604 110.095 17.2922 110.02 17.2581C109.945 17.2241 109.583 17.0191 109.215 16.803C108.848 16.5868 108.534 16.4099 108.518 16.4099C108.503 16.4099 107.826 16.02 107.013 15.5438C106.2 15.0676 105.522 14.6783 105.507 14.6783C105.476 14.6783 104.134 13.9084 103.914 13.7641C103.839 13.7147 103.716 13.6465 103.641 13.6119C103.565 13.5779 102.956 13.2296 102.286 12.8379C101.617 12.4466 101.056 12.1264 101.041 12.1264C101.01 12.1264 99.6666 11.3551 99.4481 11.2123C99.373 11.1628 99.2497 11.0946 99.1745 11.0601C99.0994 11.0255 98.6073 10.7468 98.0812 10.4401C97.5545 10.1338 97.0625 9.85275 96.9873 9.81587C96.9121 9.77946 96.7688 9.69916 96.6684 9.638C96.568 9.57637 96.1992 9.36301 95.8486 9.16273C95.498 8.96291 95.1287 8.75002 95.0283 8.68933C94.928 8.62864 94.7842 8.54927 94.709 8.51286C94.6338 8.47644 94.2715 8.27009 93.9037 8.05346C93.0778 7.56746 93.117 7.56466 92.0656 8.19679ZM82.966 57.8786C83.2101 58.0289 83.4268 58.1517 83.4468 58.1517C83.4669 58.1517 83.7844 58.3286 84.1518 58.5452C84.5192 58.7614 84.8815 58.9664 84.9567 59C85.0318 59.034 85.1551 59.1027 85.2303 59.1522C85.4469 59.295 87.8905 60.7035 87.9213 60.7035C87.9367 60.7035 88.2616 60.8884 88.643 61.1139C89.0245 61.3394 89.3718 61.5238 89.4143 61.5238C89.4568 61.5238 89.5394 61.5817 89.5978 61.6518C89.6561 61.7222 89.9176 61.888 90.1786 62.0201C90.4395 62.1522 90.7145 62.2988 90.7897 62.346C91.3186 62.6761 92.3691 63.2554 92.4377 63.2554C92.4839 63.2554 92.5213 63.2965 92.5213 63.3469C92.5213 63.3969 92.5666 63.438 92.6217 63.438C92.6767 63.438 93.1175 63.6733 93.6016 63.9609C94.0853 64.2484 94.604 64.5449 94.7543 64.6191C94.9046 64.6934 95.082 64.8063 95.1483 64.8708C95.2146 64.9347 95.3239 64.9875 95.3911 64.9875C95.4588 64.9875 95.5274 65.0178 95.5442 65.0557C95.561 65.0935 95.7184 65.1962 95.8934 65.2844C96.069 65.3722 96.3766 65.5473 96.5774 65.6733C96.7777 65.7994 97.0032 65.9306 97.0783 65.9646C97.1535 65.9987 97.3542 66.121 97.5242 66.2359C97.6941 66.3512 97.9224 66.4455 98.0312 66.4455C98.2044 66.4455 100.147 65.3652 100.834 64.8857C100.97 64.7914 101.103 64.7139 101.13 64.7139C101.156 64.7139 101.466 64.5295 101.818 64.3035C102.169 64.078 102.472 63.8936 102.489 63.8936C102.506 63.8936 102.885 63.6677 103.331 63.3918C103.777 63.1158 104.224 62.8521 104.324 62.8049C104.424 62.7582 104.626 62.6378 104.773 62.5379L105.039 62.3562L105.424 62.571C105.636 62.6896 105.977 62.8917 106.182 63.0211C106.386 63.1499 106.57 63.2554 106.591 63.2554C106.623 63.2554 108.898 64.5584 109.291 64.8017C109.366 64.8484 109.633 64.9959 109.883 65.1294C110.134 65.2629 110.401 65.4203 110.476 65.4791C110.551 65.5375 110.797 65.6827 111.023 65.8012C111.249 65.9198 111.495 66.0659 111.57 66.1262C111.645 66.1864 111.768 66.2616 111.843 66.2928C111.919 66.3246 112.144 66.4525 112.344 66.5767C112.545 66.7009 112.853 66.8736 113.028 66.96C113.203 67.0464 113.563 67.2532 113.827 67.4194C114.091 67.5856 114.323 67.7214 114.342 67.7214C114.362 67.7214 114.677 67.9059 115.043 68.1318C115.409 68.3573 115.761 68.5417 115.826 68.5417C115.891 68.5417 115.944 68.58 115.944 68.6267C115.944 68.6734 116.037 68.7406 116.149 68.7756C116.262 68.8111 116.375 68.8671 116.4 68.9007C116.425 68.9339 116.589 69.0329 116.765 69.1202C116.94 69.207 117.371 69.453 117.722 69.6664C118.073 69.8798 118.544 70.1538 118.77 70.2752C118.995 70.3961 119.241 70.5436 119.316 70.602C119.392 70.6608 119.658 70.8182 119.909 70.9517C120.16 71.0852 120.426 71.2327 120.501 71.2794C120.812 71.4718 123.167 72.8252 123.19 72.8252C123.204 72.8252 123.887 73.2216 124.707 73.7052C125.527 74.1894 126.382 74.6833 126.608 74.8033C127.08 75.0545 127.363 75.2207 127.428 75.286C127.453 75.3113 127.617 75.4037 127.792 75.4919C127.968 75.5802 128.245 75.7342 128.408 75.8337C128.571 75.9336 128.837 76.097 129 76.1964C129.163 76.2963 129.44 76.4504 129.615 76.5386C129.791 76.6264 129.948 76.7296 129.965 76.7669C129.981 76.8047 130.05 76.8356 130.118 76.8356C130.185 76.8356 130.295 76.8883 130.361 76.9527C130.427 77.0176 130.625 77.1423 130.8 77.2301C130.975 77.3183 131.406 77.5648 131.757 77.7782C132.108 77.9915 132.58 78.2651 132.805 78.3865C133.031 78.5079 133.277 78.6535 133.352 78.711C133.427 78.7679 133.756 78.9593 134.081 79.1358C134.407 79.3123 135.242 79.7899 135.937 80.197C136.631 80.6036 137.218 80.937 137.24 80.937C137.262 80.937 137.504 81.0803 137.779 81.2558C138.053 81.4314 138.295 81.5747 138.318 81.5747C138.34 81.5747 138.829 81.8557 139.403 82.1994C139.978 82.543 140.584 82.8927 140.751 82.9767C141.084 83.1448 141.393 83.3273 141.464 83.3973C141.489 83.4225 141.653 83.5155 141.828 83.6037C142.004 83.6915 142.27 83.8399 142.421 83.9324C143.122 84.3651 143.354 84.501 143.651 84.6499C143.826 84.7382 143.99 84.8306 144.015 84.8558C144.096 84.9366 144.42 85.1271 144.631 85.2186L144.836 85.3073L144.813 100.041L144.79 114.773L144.517 114.921C144.366 115.002 144.038 115.194 143.788 115.347C143.537 115.499 143.189 115.696 143.013 115.783C142.714 115.932 142.549 116.027 141.805 116.479C141.642 116.578 141.345 116.751 141.145 116.863C140.944 116.976 140.698 117.117 140.598 117.178C140.498 117.238 140.272 117.362 140.097 117.452C139.921 117.542 139.492 117.791 139.144 118.005C138.795 118.22 138.457 118.395 138.392 118.395C138.327 118.395 138.273 118.434 138.273 118.48C138.273 118.527 138.181 118.594 138.068 118.629C137.956 118.664 137.843 118.718 137.818 118.749C137.793 118.78 137.621 118.887 137.436 118.988C137.148 119.144 135.616 120.031 135.041 120.374C134.939 120.435 134.794 120.514 134.719 120.551C134.644 120.587 134.035 120.937 133.365 121.329C132.695 121.72 132.135 122.041 132.119 122.041C132.104 122.041 131.791 122.218 131.423 122.434C131.055 122.65 130.693 122.855 130.618 122.889C130.543 122.923 130.42 122.992 130.345 123.041C130.138 123.177 127.685 124.593 127.656 124.593C127.642 124.593 127.082 124.913 126.413 125.304C125.743 125.696 125.134 126.044 125.058 126.078C124.983 126.113 124.86 126.181 124.785 126.231C124.566 126.374 123.223 127.145 123.192 127.145C123.177 127.145 122.617 127.465 121.947 127.856C121.277 128.248 120.668 128.597 120.592 128.632C120.517 128.667 120.333 128.771 120.182 128.862L119.909 129.028L119.88 131.891C119.864 133.466 119.879 136.815 119.914 139.334L119.976 143.912L120.489 143.631C120.772 143.477 121.053 143.309 121.114 143.258C121.176 143.208 121.463 143.043 121.753 142.894C122.042 142.743 122.299 142.594 122.324 142.561C122.349 142.528 122.493 142.441 122.643 142.368C122.794 142.294 123.133 142.099 123.397 141.935C123.661 141.77 123.896 141.636 123.919 141.636C123.942 141.636 124.185 141.492 124.46 141.317C124.734 141.141 124.98 140.998 125.007 140.998C125.033 140.998 125.279 140.854 125.553 140.679C125.828 140.504 126.07 140.36 126.091 140.36C126.113 140.36 126.935 139.889 127.92 139.314C128.904 138.739 129.883 138.17 130.095 138.051C130.307 137.931 130.625 137.746 130.8 137.639C130.975 137.533 131.181 137.417 131.256 137.383C131.331 137.348 131.413 137.297 131.438 137.268C131.463 137.239 131.627 137.144 131.803 137.057C131.978 136.969 132.203 136.846 132.302 136.783C132.758 136.493 133.449 136.076 133.475 136.076C133.49 136.076 133.983 135.789 134.57 135.438C135.157 135.088 135.655 134.8 135.678 134.8C135.7 134.8 135.942 134.657 136.217 134.482C136.491 134.306 136.733 134.162 136.755 134.162C136.777 134.162 137.712 133.624 138.833 132.966C139.954 132.307 141.035 131.682 141.236 131.576C141.436 131.469 141.654 131.332 141.721 131.269C141.787 131.206 141.9 131.155 141.971 131.155C142.043 131.155 142.102 131.124 142.102 131.086C142.102 131.048 142.235 130.959 142.398 130.888C142.561 130.817 142.821 130.664 142.976 130.547C143.131 130.43 143.286 130.334 143.32 130.334C143.353 130.334 143.534 130.24 143.721 130.124C143.908 130.009 144.254 129.804 144.489 129.668L144.916 129.422L144.865 139.334C144.823 147.489 144.792 149.269 144.69 149.377C144.557 149.519 143.615 150.077 143.355 150.168C143.267 150.199 143.195 150.261 143.195 150.305C143.195 150.349 143.149 150.385 143.093 150.385C142.994 150.385 141.802 151.063 140.529 151.843C140.366 151.942 140.09 152.096 139.914 152.185C139.739 152.273 139.582 152.376 139.565 152.413C139.548 152.451 139.479 152.481 139.412 152.481C139.344 152.481 139.235 152.533 139.169 152.595C139.103 152.658 138.884 152.796 138.684 152.902C138.483 153.008 137.745 153.433 137.043 153.847C136.342 154.261 135.501 154.744 135.175 154.92C134.849 155.097 134.518 155.297 134.439 155.365C134.359 155.433 134.271 155.489 134.243 155.489C134.215 155.489 133.632 155.817 132.947 156.218C132.263 156.619 131.669 156.948 131.627 156.948C131.586 156.948 131.504 157.005 131.446 157.075C131.387 157.145 131.126 157.311 130.865 157.443C130.367 157.695 130.057 157.873 129.98 157.95C129.955 157.975 129.791 158.068 129.615 158.156C129.44 158.244 129.132 158.419 128.932 158.545C128.731 158.671 128.506 158.8 128.431 158.831C128.355 158.863 128.232 158.938 128.157 158.998C128.082 159.059 127.836 159.205 127.61 159.323C127.385 159.442 127.139 159.587 127.064 159.646C126.988 159.704 126.722 159.862 126.471 159.995C126.22 160.129 125.954 160.276 125.879 160.323C125.617 160.486 122.553 162.253 122.053 162.529C121.776 162.682 121.529 162.832 121.504 162.863C121.479 162.893 121.335 162.978 121.185 163.053C121.035 163.127 120.444 163.465 119.873 163.802C119.303 164.14 118.718 164.469 118.575 164.532C118.431 164.596 118.314 164.672 118.314 164.701C118.314 164.73 118.058 164.887 117.745 165.048C117.143 165.358 116.84 165.53 116.765 165.606C116.74 165.631 116.568 165.733 116.383 165.833C116.081 165.997 114.399 166.971 114.023 167.201C113.94 167.251 113.693 167.393 113.473 167.516C113.253 167.64 113.005 167.783 112.922 167.835C112.838 167.888 112.582 168.029 112.352 168.151C112.122 168.273 111.934 168.406 111.934 168.447C111.934 168.488 111.904 168.512 111.866 168.501C111.828 168.488 111.273 168.786 110.631 169.161C109.99 169.536 109.313 169.926 109.128 170.026C108.942 170.126 108.776 170.239 108.76 170.276C108.743 170.314 108.674 170.345 108.607 170.345C108.539 170.345 108.43 170.396 108.363 170.459C108.297 170.522 108.12 170.633 107.97 170.707C107.819 170.78 107.48 170.975 107.216 171.14C106.952 171.304 106.723 171.438 106.708 171.438C106.693 171.438 106.2 171.726 105.613 172.077C105.026 172.427 104.524 172.714 104.499 172.714C104.473 172.714 104.227 172.858 103.953 173.034C103.679 173.209 103.44 173.353 103.422 173.353C103.403 173.353 102.477 173.886 101.362 174.538C100.247 175.189 99.2997 175.722 99.2553 175.722C99.211 175.722 99.1745 175.763 99.1745 175.813C99.1745 175.863 99.1297 175.905 99.0746 175.905C99.0196 175.905 98.5784 176.14 98.0947 176.428C97.611 176.717 97.181 176.968 97.139 176.986C97.097 177.004 96.7707 177.199 96.414 177.419C96.0573 177.638 95.7123 177.818 95.6474 177.818C95.582 177.818 95.5293 177.856 95.5293 177.904C95.5293 177.95 95.4368 178.017 95.3239 178.053C95.2113 178.088 95.0984 178.142 95.0736 178.173C95.0484 178.203 94.8752 178.311 94.6885 178.411C94.5017 178.511 93.7328 178.955 92.9793 179.398C92.2253 179.841 91.4965 180.263 91.3588 180.337C91.2215 180.411 90.9447 180.572 90.7444 180.695C90.5436 180.819 90.2915 180.958 90.1837 181.004C90.0754 181.05 89.9587 181.134 89.9236 181.191C89.8779 181.265 89.8186 181.259 89.7098 181.171C89.6272 181.104 89.3751 180.951 89.1491 180.832C88.9236 180.714 88.6776 180.568 88.6024 180.507C88.5273 180.447 88.4045 180.372 88.3288 180.341C88.2537 180.309 88.0282 180.18 87.8279 180.054C87.6271 179.928 87.3195 179.753 87.1444 179.665C86.9689 179.576 86.8115 179.474 86.7947 179.436C86.7784 179.399 86.7093 179.368 86.6421 179.368C86.5744 179.368 86.4651 179.316 86.3988 179.254C86.3325 179.191 86.1579 179.078 86.0104 179.003C85.8633 178.928 85.2069 178.549 84.5524 178.16C83.8978 177.772 83.3105 177.455 83.248 177.454C83.1854 177.454 83.134 177.422 83.134 177.384C83.134 177.345 82.9805 177.232 82.7928 177.133C82.6051 177.034 81.5542 176.43 80.458 175.791C79.3618 175.151 78.4285 174.629 78.3842 174.629C78.3398 174.629 78.3039 174.596 78.3039 174.557C78.3039 174.518 78.1909 174.438 78.0532 174.38C77.7777 174.263 77.1699 173.915 76.6423 173.573C76.4556 173.452 76.2852 173.353 76.2637 173.353C76.2422 173.353 75.9252 173.168 75.5596 172.942C75.1936 172.717 74.8411 172.532 74.7763 172.532C74.7114 172.532 74.6581 172.494 74.6581 172.447C74.6581 172.401 74.5657 172.333 74.4532 172.298C74.3402 172.263 74.2272 172.209 74.2025 172.178C74.1773 172.147 74.0055 172.04 73.8206 171.94C73.6357 171.84 73.0675 171.515 72.5577 171.219L71.631 170.679L71.8457 170.514C71.9639 170.424 72.2655 170.245 72.5162 170.118C73.8892 169.422 74.11 169.232 73.7314 169.071C73.6142 169.022 73.3547 168.879 73.1544 168.754C72.9536 168.629 72.6259 168.435 72.4251 168.322C72.2248 168.21 71.9783 168.069 71.8784 168.008C71.7781 167.947 71.5526 167.825 71.377 167.736C71.2015 167.647 71.0376 167.549 71.0124 167.518C70.9872 167.486 70.9055 167.433 70.8303 167.398C70.7552 167.364 70.5497 167.251 70.3747 167.147C69.2159 166.459 68.6589 166.153 68.5665 166.153C68.5081 166.153 68.4605 166.121 68.4605 166.082C68.4605 166.043 68.3069 165.93 68.1188 165.831C67.9311 165.732 67.2317 165.333 66.5651 164.945C65.8984 164.556 65.3274 164.239 65.2961 164.239C65.2648 164.239 65.1747 164.182 65.0954 164.112C65.0165 164.042 64.734 163.868 64.4684 163.725C64.2027 163.581 63.9142 163.423 63.8278 163.373C63.7415 163.323 63.2489 163.035 62.7335 162.735C62.2181 162.434 61.6452 162.106 61.4599 162.006C61.275 161.906 61.1032 161.803 61.078 161.778C61.0533 161.753 60.8889 161.654 60.7134 161.56C60.5383 161.465 60.2073 161.285 59.9785 161.16C59.5201 160.909 59.3819 160.938 58.5261 161.461C57.8314 161.886 56.9771 162.324 56.9771 162.256C56.9771 162.216 56.823 162.103 56.6353 162.004C56.3151 161.835 53.9957 160.508 53.696 160.323C53.6208 160.276 53.3542 160.129 53.1035 159.995C52.8528 159.862 52.583 159.695 52.5041 159.626C52.4247 159.556 52.3346 159.499 52.3033 159.499C52.272 159.499 51.6861 159.171 51.0017 158.77C50.3173 158.369 49.7201 158.041 49.6758 158.041C49.631 158.041 49.5946 158.004 49.5946 157.96C49.5946 157.915 49.4923 157.853 49.3667 157.821C49.2416 157.79 49.1389 157.724 49.1389 157.675C49.1389 157.625 49.0857 157.585 49.0208 157.585C48.9559 157.585 48.617 157.411 48.2677 157.198C47.919 156.985 47.5105 156.749 47.3606 156.674C47.2108 156.599 47.0343 156.486 46.968 156.423C46.9017 156.361 46.7887 156.309 46.7173 156.309C46.6454 156.309 46.587 156.273 46.587 156.229C46.587 156.185 46.5151 156.125 46.4274 156.097C46.3396 156.069 46.038 155.911 45.7565 155.745C43.6173 154.485 43.1355 154.213 43.0449 154.213C42.988 154.213 42.9413 154.181 42.9413 154.143C42.9413 154.104 42.7877 153.991 42.5995 153.893C42.4119 153.794 41.8582 153.479 41.3694 153.193C40.8806 152.907 40.48 152.701 40.479 152.736C40.4786 152.772 40.4478 152.756 40.4109 152.7C40.3437 152.599 39.9146 152.339 39.0682 151.885C38.8175 151.751 38.5476 151.584 38.4683 151.514C38.3894 151.445 38.2993 151.388 38.2685 151.388C38.2376 151.388 37.7694 151.129 37.2278 150.813C36.6858 150.497 36.1811 150.21 36.1059 150.176C35.9477 150.103 35.626 149.905 35.5583 149.839C35.5331 149.813 35.2665 149.664 34.9659 149.505L34.4196 149.217V139.209V129.201L34.7842 129C34.985 128.889 35.1918 128.765 35.2441 128.724C35.2964 128.682 35.6181 128.509 35.9589 128.338C36.2997 128.167 36.5952 127.983 36.6162 127.928C36.6372 127.873 36.6438 123.779 36.6307 118.83L36.6073 109.833L36.197 110.051C35.9715 110.171 35.5322 110.397 35.2208 110.552C34.9094 110.709 34.6302 110.876 34.6003 110.925C34.5704 110.973 34.5074 111.013 34.4602 111.013C34.407 111.013 34.3748 106.158 34.3753 98.2305L34.3762 85.4483L34.7399 85.2741C34.9397 85.1784 35.1036 85.0654 35.1036 85.0234C35.1036 84.9814 35.1563 84.9469 35.2217 84.9469C35.2866 84.9469 35.6391 84.7624 36.0046 84.5369C36.3706 84.3115 36.6876 84.1266 36.7091 84.1266C36.7301 84.1266 36.9005 84.0276 37.0877 83.9062C37.6153 83.564 38.2227 83.2167 38.4981 83.0995C38.6363 83.0411 38.7489 82.9608 38.7489 82.9221C38.7489 82.8828 38.7853 82.8506 38.8292 82.8506C38.8735 82.8506 39.7241 82.3744 40.7204 81.7918C41.7162 81.2096 42.798 80.5887 43.1238 80.4117C43.4497 80.2353 43.7774 80.0452 43.8526 79.9897C43.9282 79.9341 44.0716 79.845 44.1719 79.7913C44.4819 79.6255 46.3531 78.5307 46.9059 78.1918C47.0562 78.0994 47.3331 77.9518 47.5212 77.8641C47.7094 77.7758 47.863 77.6726 47.863 77.6344C47.863 77.5961 47.9218 77.5648 47.9932 77.5648C48.0646 77.5648 48.1776 77.5135 48.2439 77.4509C48.3102 77.3879 48.517 77.2548 48.7033 77.1544C48.8901 77.0541 49.6595 76.6101 50.413 76.1675C51.1665 75.7249 51.8957 75.3024 52.033 75.2286C52.1707 75.1549 52.4471 74.9933 52.6479 74.8696C52.8481 74.7459 53.0942 74.603 53.1945 74.5517C53.2949 74.5003 53.4602 74.4083 53.562 74.3481C53.6633 74.2874 54.1689 73.9919 54.6857 73.6912C55.6969 73.1021 56.0485 72.8943 56.4757 72.6319C56.626 72.54 56.9028 72.3924 57.091 72.3042C57.2787 72.2164 57.4327 72.1132 57.4327 72.0745C57.4327 72.0362 57.4911 72.0049 57.563 72.0049C57.6344 72.0049 57.7474 71.954 57.8137 71.891C57.8795 71.8284 58.098 71.6907 58.2983 71.5843C58.4991 71.4783 59.3338 70.9965 60.1536 70.5138C60.9734 70.0306 61.6625 69.6356 61.6845 69.6356C61.7069 69.6356 61.9492 69.4918 62.2237 69.3163C62.4977 69.1412 62.7377 68.9974 62.7559 68.9974C62.7746 68.9974 63.3502 68.6692 64.0347 68.2681C64.7195 67.8671 65.3134 67.5394 65.3549 67.5394C65.3965 67.5394 65.4782 67.4815 65.5366 67.4114C65.5954 67.341 65.8564 67.1752 66.1173 67.0431C66.615 66.791 66.9255 66.6136 67.0025 66.5365C67.0272 66.5118 67.1916 66.4189 67.3667 66.3311C67.5422 66.2429 67.8499 66.0678 68.0506 65.9418C68.2509 65.8157 68.4764 65.6869 68.5516 65.6551C68.6267 65.6234 68.75 65.5473 68.8251 65.4856C68.9003 65.4245 69.1463 65.276 69.3718 65.1556C69.5973 65.0356 69.8845 64.8712 70.01 64.79C70.2776 64.6173 70.8751 64.2779 71.5138 63.9352C71.7645 63.8007 72.0344 63.6341 72.1133 63.5645C72.1926 63.4949 72.2827 63.438 72.314 63.438C72.3453 63.438 72.9307 63.1098 73.6156 62.7087C74.3 62.3077 74.8827 61.9795 74.9102 61.9795C74.9373 61.9795 75.0867 61.8866 75.2417 61.7727C75.3972 61.6588 75.7599 61.4449 76.048 61.2974C76.336 61.1503 76.5718 60.9977 76.5718 60.958C76.5718 60.9183 76.625 60.8861 76.6899 60.8861C76.7553 60.8861 77.1078 60.7017 77.4733 60.4757C77.8393 60.2502 78.1563 60.0658 78.1774 60.0658C78.1988 60.0658 78.3692 59.9664 78.5564 59.8455C79.084 59.5028 79.6914 59.1554 79.9668 59.0387C80.105 58.9799 80.2175 58.9001 80.2175 58.8608C80.2175 58.8216 80.2554 58.7899 80.3016 58.7899C80.3478 58.7899 80.8296 58.5252 81.3726 58.2016C82.5327 57.5097 82.4081 57.5349 82.966 57.8786Z" fill="#343A40"/>
</g>
<path d="M288.281 111.35H319.745V113.865C319.745 119.585 319.071 124.649 317.723 129.054C316.408 133.131 314.188 136.945 311.065 140.496C303.996 148.452 295.004 152.43 284.089 152.43C273.437 152.43 264.313 148.583 256.718 140.89C249.124 133.164 245.326 123.892 245.326 113.076C245.326 102.029 249.189 92.6587 256.916 84.9653C264.642 77.2391 274.045 73.376 285.125 73.376C291.075 73.376 296.632 74.5924 301.793 77.0254C306.725 79.4583 311.575 83.4036 316.342 88.8613L308.155 96.7026C301.909 88.3846 294.297 84.2256 285.322 84.2256C277.267 84.2256 270.51 87.0037 265.053 92.5601C259.595 98.0177 256.866 104.856 256.866 113.076C256.866 121.558 259.907 128.545 265.99 134.035C271.678 139.131 277.842 141.679 284.483 141.679C290.138 141.679 295.218 139.772 299.722 135.958C304.226 132.112 306.742 127.509 307.268 122.15H288.281V111.35Z" fill="#343A40"/>
<path d="M376.196 118.55L399.769 151H385.714L363.966 119.832H361.894V151H350.404V74.8555H363.867C373.928 74.8555 381.194 76.7459 385.665 80.5269C390.597 84.7352 393.062 90.2915 393.062 97.1958C393.062 102.588 391.517 107.223 388.427 111.103C385.336 114.983 381.259 117.465 376.196 118.55ZM361.894 109.821H365.544C376.426 109.821 381.868 105.662 381.868 97.3438C381.868 89.5518 376.574 85.6558 365.988 85.6558H361.894V109.821Z" fill="#343A40"/>
<path d="M472.15 132.506H439.552L431.07 151H418.691L456.369 70.0718L492.715 151H480.139L472.15 132.506ZM467.465 121.706L456.172 95.8149L444.336 121.706H467.465Z" fill="#343A40"/>
<path d="M516.272 74.8555L537.331 127.624L558.685 74.8555H571.26L537.084 156.721L503.697 74.8555H516.272Z" fill="#343A40"/>
<path d="M608.429 74.8555V151H596.938V74.8555H608.429Z" fill="#343A40"/>
<path d="M663.894 85.6558V151H652.404V85.6558H634.896V74.8555H681.352V85.6558H663.894Z" fill="#343A40"/>
<path d="M748.357 132.506H715.759L707.277 151H694.898L732.576 70.0718L768.922 151H756.347L748.357 132.506ZM743.672 121.706L732.379 95.8149L720.543 121.706H743.672Z" fill="#343A40"/>
<path d="M811.417 85.6558V151H799.927V85.6558H782.419V74.8555H828.875V85.6558H811.417Z" fill="#343A40"/>
<path d="M897.311 85.6558H866.784V103.952H896.423V114.752H866.784V140.2H897.311V151H855.293V74.8555H897.311V85.6558Z" fill="#343A40"/>
<defs>
<filter id="filter0_d_927_6142" x="0.000976562" y="5.39866" width="200.592" height="224.891" filterUnits="userSpaceOnUse" color-interpolation-filters="sRGB">
<feFlood flood-opacity="0" result="BackgroundImageFix"/>
<feColorMatrix in="SourceAlpha" type="matrix" values="0 0 0 0 0 0 0 0 0 0 0 0 0 0 0 0 0 0 127 0" result="hardAlpha"/>
<feOffset dx="9.222" dy="2.3055"/>
<feGaussianBlur stdDeviation="2.3055"/>
<feComposite in2="hardAlpha" operator="out"/>
<feColorMatrix type="matrix" values="0 0 0 0 0 0 0 0 0 0 0 0 0 0 0 0 0 0 0.24 0"/>
<feBlend mode="normal" in2="BackgroundImageFix" result="effect1_dropShadow_927_6142"/>
<feBlend mode="normal" in="SourceGraphic" in2="effect1_dropShadow_927_6142" result="shape"/>
</filter>
</defs>
</svg>
