<svg width="39" height="42" viewBox="0 0 39 42" fill="none" xmlns="http://www.w3.org/2000/svg">
<mask id="path-1-outside-1_1117_6105" maskUnits="userSpaceOnUse" x="0" y="0" width="39" height="42" fill="black">
<rect fill="white" width="39" height="42"/>
<path d="M15.5456 27.875C15.3492 27.924 14.9503 28.0343 14.3488 28.2059C13.1091 28.549 11.9798 28.9473 10.961 29.4007C9.94218 29.8664 8.92338 30.4485 7.90457 31.1471C6.88576 31.8578 5.95901 32.6238 5.12433 33.4449C4.28964 34.2782 3.62067 35.1728 3.1174 36.1287C2.61413 37.0968 2.3625 38.0221 2.3625 38.9044C2.3625 39.3578 2.49752 39.7439 2.76757 40.0625C3.03762 40.3934 3.36903 40.5588 3.76183 40.5588C4.54741 40.5588 5.33914 40.3811 6.137 40.0257C6.92259 39.6826 7.6468 39.2353 8.30964 38.6838C8.97248 38.1324 9.63531 37.4645 10.2982 36.6801C10.961 35.9081 11.544 35.1422 12.0473 34.3824C12.5383 33.6471 13.0293 32.8382 13.5203 31.9559C14.2936 30.5833 14.9687 29.223 15.5456 27.875ZM17.35 26.8088C18.4425 26.3186 19.4613 25.6569 20.4064 24.8235C21.3516 23.9779 22.0144 23.2672 22.395 22.6912C22.4441 22.6176 22.4932 22.5809 22.5423 22.5809C22.5914 22.5809 22.6159 22.5993 22.6159 22.636C22.6159 22.6728 22.6036 22.7157 22.5791 22.7647C21.8303 23.7206 21.1798 24.4436 20.6274 24.9338C19.6331 25.8284 18.4916 26.5882 17.2027 27.2132C16.4171 29.4436 15.1467 31.7475 13.3914 34.125C12.4708 35.375 11.4949 36.5086 10.4639 37.5257C9.43278 38.5429 8.3035 39.3762 7.07602 40.0257C5.83627 40.6752 4.63334 41 3.46723 41C2.81667 41 2.24589 40.8284 1.7549 40.4853C1.25163 40.1544 1 39.6213 1 38.886C1 38.1507 1.22708 37.348 1.68125 36.4779C2.12314 35.6078 2.68778 34.8113 3.37517 34.0882C4.07483 33.3652 4.85428 32.6728 5.71352 32.011C7.30924 30.7855 8.86814 29.848 10.3902 29.1985C11.3599 28.7941 13.152 28.1936 15.7666 27.3971C15.9875 26.9069 16.098 26.4228 16.098 25.9449C16.098 25.4669 15.9752 25.136 15.7297 24.9522C15.4965 24.7684 15.0792 24.6765 14.4777 24.6765C13.6799 25.4118 13.0538 25.7794 12.5997 25.7794C12.4769 25.7794 12.4156 25.7426 12.4156 25.6691C12.4156 25.424 12.6181 25.1973 13.0232 24.989C13.4282 24.7684 13.8026 24.6152 14.1463 24.5294C14.2936 24.3946 14.6496 24.0821 15.2142 23.5919C15.7911 23.1017 16.2576 22.6973 16.6135 22.3787C16.9695 22.0601 17.3377 21.6801 17.7183 21.239C18.0988 20.7855 18.3443 20.3995 18.4548 20.0809C16.859 20.6936 15.5702 21 14.5882 21C14.0113 21 13.5387 20.8897 13.1705 20.6691C12.8145 20.4363 12.6365 20.2157 12.6365 20.0074C12.6365 19.9461 12.8022 19.8174 13.1336 19.6213C13.465 19.413 13.6799 19.2782 13.7781 19.2169C13.8885 19.1434 13.9622 19.0944 13.999 19.0699C14.0481 19.0331 14.0849 19.0147 14.1095 19.0147L14.1463 19.0515C14.1463 19.076 14.1095 19.125 14.0358 19.1985C13.9622 19.2721 13.9254 19.3578 13.9254 19.4559C13.9254 19.5417 13.9806 19.6336 14.0911 19.7316C14.2015 19.8297 14.4409 19.9338 14.8091 20.0441C15.1774 20.1422 15.6929 20.1912 16.3558 20.1912C17.1413 20.1912 18.154 19.9032 19.3938 19.3272C19.6884 19.1924 19.8602 19.125 19.9093 19.125C19.9707 19.125 20.0014 19.1495 20.0014 19.1985C20.0014 19.3946 19.67 19.8664 19.0071 20.614C18.3443 21.3615 16.9081 22.6422 14.6987 24.4559C16.0121 24.4559 16.8468 24.6765 17.2027 25.1176C17.3746 25.3382 17.4605 25.6017 17.4605 25.9081C17.4605 26.2145 17.4237 26.5147 17.35 26.8088Z"/>
<path d="M24.4855 20.8162C23.6017 22.299 23.1598 23.5613 23.1598 24.6029C23.1598 25.2279 23.3623 25.7672 23.7674 26.2206C24.1725 26.6618 24.688 26.8824 25.314 26.8824C25.94 26.8824 26.6704 26.5576 27.5051 25.9081C28.352 25.2586 29.064 24.4252 29.6409 23.4081C30.2301 22.3787 30.5247 21.3799 30.5247 20.4118C30.5247 19.8358 30.3467 19.4314 29.9907 19.1985C29.647 18.9534 29.2726 18.8309 28.8676 18.8309C27.7874 18.8309 26.3267 19.4926 24.4855 20.8162ZM25.3324 17.3603C22.8284 19.1618 21.5702 20.0564 21.5579 20.0441C21.5211 20.0441 21.5027 20.0196 21.5027 19.9706C21.5027 19.9216 21.5395 19.8725 21.6132 19.8235C23.8349 18.2181 25.1606 17.2377 25.5902 16.8824L28.7939 10.8162C28.9412 10.5466 29.2235 10.0135 29.6409 9.21691C30.0705 8.40809 30.3774 7.83824 30.5615 7.50735C30.7456 7.16422 31.0402 6.66177 31.4453 6C31.8381 5.33824 32.194 4.8174 32.5132 4.4375C33.397 3.35907 34.2562 2.53186 35.0909 1.95588C35.9378 1.31863 36.6989 1 37.374 1C37.5949 1 37.7545 1.09191 37.8527 1.27573C37.9509 1.45956 38 1.63725 38 1.80882C38 3.84314 37.0855 5.99387 35.2566 8.26103C34.6428 9.02083 34.0598 9.69485 33.5074 10.2831C32.9673 10.8713 32.28 11.5392 31.4453 12.2868C30.4142 13.2181 28.978 14.4314 27.1368 15.9265L24.7801 20.2647C26.8545 18.8186 28.6098 18.0956 30.0459 18.0956C30.5247 18.0956 30.9297 18.2488 31.2611 18.5551C31.6048 18.8493 31.7767 19.2476 31.7767 19.75C31.7767 20.4976 31.5312 21.3431 31.0402 22.2868C30.5492 23.2181 29.9355 24.076 29.199 24.8603C28.4748 25.6324 27.6646 26.288 26.7686 26.8272C25.8725 27.3542 25.0501 27.6176 24.3013 27.6176C23.5648 27.6176 22.9634 27.3848 22.4969 26.9191C22.0305 26.4412 21.7973 25.8162 21.7973 25.0441C21.7973 24.2598 21.9937 23.451 22.3865 22.6176C22.7793 21.7721 23.7612 20.0196 25.3324 17.3603ZM27.4314 15.3382C28.4379 14.5049 29.3156 13.7512 30.0644 13.0772C30.8254 12.3909 31.6294 11.5882 32.4763 10.6691C33.3356 9.75 34.0414 8.88603 34.5937 8.07721C35.1461 7.25613 35.6064 6.36765 35.9747 5.41177C36.3429 4.44363 36.527 3.51226 36.527 2.61765C36.527 2.40931 36.4841 2.23775 36.3981 2.10294C36.3122 1.95588 36.1956 1.88235 36.0483 1.88235C35.4959 1.88235 34.6735 2.67279 33.5811 4.25368C32.4886 5.82231 31.3348 7.77696 30.1196 10.1176L27.4314 15.3382Z"/>
</mask>
<path d="M15.5456 27.875C15.3492 27.924 14.9503 28.0343 14.3488 28.2059C13.1091 28.549 11.9798 28.9473 10.961 29.4007C9.94218 29.8664 8.92338 30.4485 7.90457 31.1471C6.88576 31.8578 5.95901 32.6238 5.12433 33.4449C4.28964 34.2782 3.62067 35.1728 3.1174 36.1287C2.61413 37.0968 2.3625 38.0221 2.3625 38.9044C2.3625 39.3578 2.49752 39.7439 2.76757 40.0625C3.03762 40.3934 3.36903 40.5588 3.76183 40.5588C4.54741 40.5588 5.33914 40.3811 6.137 40.0257C6.92259 39.6826 7.6468 39.2353 8.30964 38.6838C8.97248 38.1324 9.63531 37.4645 10.2982 36.6801C10.961 35.9081 11.544 35.1422 12.0473 34.3824C12.5383 33.6471 13.0293 32.8382 13.5203 31.9559C14.2936 30.5833 14.9687 29.223 15.5456 27.875ZM17.35 26.8088C18.4425 26.3186 19.4613 25.6569 20.4064 24.8235C21.3516 23.9779 22.0144 23.2672 22.395 22.6912C22.4441 22.6176 22.4932 22.5809 22.5423 22.5809C22.5914 22.5809 22.6159 22.5993 22.6159 22.636C22.6159 22.6728 22.6036 22.7157 22.5791 22.7647C21.8303 23.7206 21.1798 24.4436 20.6274 24.9338C19.6331 25.8284 18.4916 26.5882 17.2027 27.2132C16.4171 29.4436 15.1467 31.7475 13.3914 34.125C12.4708 35.375 11.4949 36.5086 10.4639 37.5257C9.43278 38.5429 8.3035 39.3762 7.07602 40.0257C5.83627 40.6752 4.63334 41 3.46723 41C2.81667 41 2.24589 40.8284 1.7549 40.4853C1.25163 40.1544 1 39.6213 1 38.886C1 38.1507 1.22708 37.348 1.68125 36.4779C2.12314 35.6078 2.68778 34.8113 3.37517 34.0882C4.07483 33.3652 4.85428 32.6728 5.71352 32.011C7.30924 30.7855 8.86814 29.848 10.3902 29.1985C11.3599 28.7941 13.152 28.1936 15.7666 27.3971C15.9875 26.9069 16.098 26.4228 16.098 25.9449C16.098 25.4669 15.9752 25.136 15.7297 24.9522C15.4965 24.7684 15.0792 24.6765 14.4777 24.6765C13.6799 25.4118 13.0538 25.7794 12.5997 25.7794C12.4769 25.7794 12.4156 25.7426 12.4156 25.6691C12.4156 25.424 12.6181 25.1973 13.0232 24.989C13.4282 24.7684 13.8026 24.6152 14.1463 24.5294C14.2936 24.3946 14.6496 24.0821 15.2142 23.5919C15.7911 23.1017 16.2576 22.6973 16.6135 22.3787C16.9695 22.0601 17.3377 21.6801 17.7183 21.239C18.0988 20.7855 18.3443 20.3995 18.4548 20.0809C16.859 20.6936 15.5702 21 14.5882 21C14.0113 21 13.5387 20.8897 13.1705 20.6691C12.8145 20.4363 12.6365 20.2157 12.6365 20.0074C12.6365 19.9461 12.8022 19.8174 13.1336 19.6213C13.465 19.413 13.6799 19.2782 13.7781 19.2169C13.8885 19.1434 13.9622 19.0944 13.999 19.0699C14.0481 19.0331 14.0849 19.0147 14.1095 19.0147L14.1463 19.0515C14.1463 19.076 14.1095 19.125 14.0358 19.1985C13.9622 19.2721 13.9254 19.3578 13.9254 19.4559C13.9254 19.5417 13.9806 19.6336 14.0911 19.7316C14.2015 19.8297 14.4409 19.9338 14.8091 20.0441C15.1774 20.1422 15.6929 20.1912 16.3558 20.1912C17.1413 20.1912 18.154 19.9032 19.3938 19.3272C19.6884 19.1924 19.8602 19.125 19.9093 19.125C19.9707 19.125 20.0014 19.1495 20.0014 19.1985C20.0014 19.3946 19.67 19.8664 19.0071 20.614C18.3443 21.3615 16.9081 22.6422 14.6987 24.4559C16.0121 24.4559 16.8468 24.6765 17.2027 25.1176C17.3746 25.3382 17.4605 25.6017 17.4605 25.9081C17.4605 26.2145 17.4237 26.5147 17.35 26.8088Z" stroke="white" stroke-width="1.6" mask="url(#path-1-outside-1_1117_6105)"/>
<path d="M24.4855 20.8162C23.6017 22.299 23.1598 23.5613 23.1598 24.6029C23.1598 25.2279 23.3623 25.7672 23.7674 26.2206C24.1725 26.6618 24.688 26.8824 25.314 26.8824C25.94 26.8824 26.6704 26.5576 27.5051 25.9081C28.352 25.2586 29.064 24.4252 29.6409 23.4081C30.2301 22.3787 30.5247 21.3799 30.5247 20.4118C30.5247 19.8358 30.3467 19.4314 29.9907 19.1985C29.647 18.9534 29.2726 18.8309 28.8676 18.8309C27.7874 18.8309 26.3267 19.4926 24.4855 20.8162ZM25.3324 17.3603C22.8284 19.1618 21.5702 20.0564 21.5579 20.0441C21.5211 20.0441 21.5027 20.0196 21.5027 19.9706C21.5027 19.9216 21.5395 19.8725 21.6132 19.8235C23.8349 18.2181 25.1606 17.2377 25.5902 16.8824L28.7939 10.8162C28.9412 10.5466 29.2235 10.0135 29.6409 9.21691C30.0705 8.40809 30.3774 7.83824 30.5615 7.50735C30.7456 7.16422 31.0402 6.66177 31.4453 6C31.8381 5.33824 32.194 4.8174 32.5132 4.4375C33.397 3.35907 34.2562 2.53186 35.0909 1.95588C35.9378 1.31863 36.6989 1 37.374 1C37.5949 1 37.7545 1.09191 37.8527 1.27573C37.9509 1.45956 38 1.63725 38 1.80882C38 3.84314 37.0855 5.99387 35.2566 8.26103C34.6428 9.02083 34.0598 9.69485 33.5074 10.2831C32.9673 10.8713 32.28 11.5392 31.4453 12.2868C30.4142 13.2181 28.978 14.4314 27.1368 15.9265L24.7801 20.2647C26.8545 18.8186 28.6098 18.0956 30.0459 18.0956C30.5247 18.0956 30.9297 18.2488 31.2611 18.5551C31.6048 18.8493 31.7767 19.2476 31.7767 19.75C31.7767 20.4976 31.5312 21.3431 31.0402 22.2868C30.5492 23.2181 29.9355 24.076 29.199 24.8603C28.4748 25.6324 27.6646 26.288 26.7686 26.8272C25.8725 27.3542 25.0501 27.6176 24.3013 27.6176C23.5648 27.6176 22.9634 27.3848 22.4969 26.9191C22.0305 26.4412 21.7973 25.8162 21.7973 25.0441C21.7973 24.2598 21.9937 23.451 22.3865 22.6176C22.7793 21.7721 23.7612 20.0196 25.3324 17.3603ZM27.4314 15.3382C28.4379 14.5049 29.3156 13.7512 30.0644 13.0772C30.8254 12.3909 31.6294 11.5882 32.4763 10.6691C33.3356 9.75 34.0414 8.88603 34.5937 8.07721C35.1461 7.25613 35.6064 6.36765 35.9747 5.41177C36.3429 4.44363 36.527 3.51226 36.527 2.61765C36.527 2.40931 36.4841 2.23775 36.3981 2.10294C36.3122 1.95588 36.1956 1.88235 36.0483 1.88235C35.4959 1.88235 34.6735 2.67279 33.5811 4.25368C32.4886 5.82231 31.3348 7.77696 30.1196 10.1176L27.4314 15.3382Z" stroke="white" stroke-width="1.6" mask="url(#path-1-outside-1_1117_6105)"/>
</svg>
